<svg xmlns="http://www.w3.org/2000/svg" viewBox="0 0 115.725 105.833" height="400" width="437.387"><defs><linearGradient gradientTransform="rotate(-65.001 -998.094 -1339.207) scale(.26458)" y2="1395.619" x2="-4570.116" y1="697.555" x1="-5167.096" gradientUnits="userSpaceOnUse" id="a"><stop offset="0" stop-color="#f69923"/><stop offset=".312" stop-color="#f79a23"/><stop offset=".838" stop-color="#e97826"/></linearGradient><linearGradient gradientTransform="rotate(-65.001 -998.094 -1339.207) scale(.26458)" y2="620.505" x2="-5326.209" y1="620.505" x1="-9585.342" gradientUnits="userSpaceOnUse" id="b"><stop offset=".323" stop-color="#9e2064"/><stop offset=".63" stop-color="#c92037"/><stop offset=".751" stop-color="#cd2335"/><stop offset="1" stop-color="#e97826"/></linearGradient><linearGradient gradientTransform="rotate(-65.001 -998.094 -1339.207) scale(.26458)" y2="1047.69" x2="-6533.178" y1="1047.69" x1="-9071.207" gradientUnits="userSpaceOnUse" id="c"><stop offset="0" stop-color="#282662"/><stop offset=".095" stop-color="#662e8d"/><stop offset=".788" stop-color="#9f2064"/><stop offset=".949" stop-color="#cd2032"/></linearGradient><linearGradient gradientTransform="rotate(-65.001 -998.094 -1339.207) scale(.26458)" y2="580.817" x2="-5086.994" y1="580.817" x1="-9346.126" gradientUnits="userSpaceOnUse" id="d"><stop offset=".323" stop-color="#9e2064"/><stop offset=".63" stop-color="#c92037"/><stop offset=".751" stop-color="#cd2335"/><stop offset="1" stop-color="#e97826"/></linearGradient><linearGradient gradientTransform="rotate(-65.001 -998.094 -1339.207) scale(.26458)" y2="638.441" x2="-6797.201" y1="638.441" x1="-9035.503" gradientUnits="userSpaceOnUse" id="e"><stop offset="0" stop-color="#282662"/><stop offset=".095" stop-color="#662e8d"/><stop offset=".788" stop-color="#9f2064"/><stop offset=".949" stop-color="#cd2032"/></linearGradient><linearGradient gradientTransform="rotate(-65.001 -998.094 -1339.207) scale(.26458)" y2="1021.622" x2="-5086.994" y1="1021.622" x1="-9346.126" gradientUnits="userSpaceOnUse" id="f"><stop offset=".323" stop-color="#9e2064"/><stop offset=".63" stop-color="#c92037"/><stop offset=".751" stop-color="#cd2335"/><stop offset="1" stop-color="#e97826"/></linearGradient><linearGradient gradientTransform="rotate(-65.001 -998.094 -1339.207) scale(.26458)" y2="999.733" x2="-5351.202" y1="999.733" x1="-9610.334" gradientUnits="userSpaceOnUse" id="g"><stop offset=".323" stop-color="#9e2064"/><stop offset=".63" stop-color="#c92037"/><stop offset=".751" stop-color="#cd2335"/><stop offset="1" stop-color="#e97826"/></linearGradient><linearGradient gradientTransform="rotate(-65.001 -998.094 -1339.207) scale(.26458)" y2="1152.726" x2="-5086.994" y1="1152.726" x1="-9346.126" gradientUnits="userSpaceOnUse" id="h"><stop offset=".323" stop-color="#9e2064"/><stop offset=".63" stop-color="#c92037"/><stop offset=".751" stop-color="#cd2335"/><stop offset="1" stop-color="#e97826"/></linearGradient><linearGradient gradientTransform="rotate(-65.001 -998.094 -1339.207) scale(.26458)" y2="1137.725" x2="-5086.994" y1="1137.725" x1="-9346.126" gradientUnits="userSpaceOnUse" id="h"><stop offset=".323" stop-color="#9e2064"/><stop offset=".63" stop-color="#c92037"/><stop offset=".751" stop-color="#cd2335"/><stop offset="1" stop-color="#e97826"/></linearGradient><linearGradient gradientTransform="rotate(-65.001 -998.094 -1339.207) scale(.26458)" y2="1134.716" x2="-6011.999" y1="1134.716" x1="-6953.407" gradientUnits="userSpaceOnUse" id="i"><stop offset=".323" stop-color="#9e2064"/><stop offset=".63" stop-color="#c92037"/><stop offset=".751" stop-color="#cd2335"/><stop offset="1" stop-color="#e97826"/></linearGradient></defs><g fill="#1e83d6"><path d="M34.317 1.58c-16.505.696 20.347 17.695 21.572 8.338 3.895 4.274.38 4.72.38 4.72C40.419 16.916 19.028 2.734 29.339.09c2.536-.532 4.978 1.49 4.978 1.49z"/><path d="M56.573 17.62c-5.79 15.733 1.012 35.148 12.838 47.745 5.908 5.754 35.241 21.318 9.78 33.676-16.301 10.445-54.601 7.245-68.252 1.064C-3.114 90.94-2.915 85.823 7.477 76.232c10.758-11.076 21.496-12.507 25.975-38.72 1.021-14.495-2.65-19.971-2.755-25.646.205-2.768 16.068 39.963-17.516 63.09-4.213 2.896-13.854 13.645.2 21.099 18.703 7.384 31.17 13.004 62.541.427 16.909-8.1-3.462-25.999-7.537-28.99-2.228-1.919-21.848-25.284-12.833-49.658.612 0 1.02-.214 1.02-.214zM37.423 1.848s11.712 3.518 14.77 6.61c0 .213-2.65-6.505-14.77-6.61z"/><path d="M33.348 12.204h1.225s6.725 20.294 2.342 32.866c-.105 0 2.75-12.482-3.463-32.2 0 .1-.104-.666-.104-.666zm19.867 3.816S38.643 39.783 64.623 66.11C42.21 42.342 51.99 19.862 53.215 17.94c1.629-2.45 0-1.919 0-1.919zM20.291 86.658s-23.728 14.56 39.24 11.096c-31.29-.556-40.57-5.128-39.24-11.096z"/></g><g stroke-width=".265"><path d="M281.339-450.327c-17.542 10.345-46.673 39.66-81.465 82.126l31.961 60.325c22.437-32.094 45.218-60.96 68.21-85.619 1.773-1.958 2.699-2.884 2.699-2.884-.9.953-1.8 1.932-2.699 2.884-7.435 8.202-30.004 34.528-64.056 86.81 32.782-1.64 83.159-8.334 124.249-15.372 12.223-68.474-11.986-99.827-11.986-99.827s-30.771-49.795-66.913-28.443z" fill="url(#a)" transform="matrix(.09537 0 0 .08008 73.92 44.013)"/><path d="M95.59 35.508l.068-.01-.439.04-.078.03.45-.06zm-3.11 8.653zM71.335 63.572c.032-.072.065-.144.095-.216a331.927 331.927 0 0 1 6.432-13.47 283.716 283.716 0 0 1 4.093-7.782 327.93 327.93 0 0 1 1.744-3.134c.35-.62.698-1.227 1.044-1.822.113-.2.23-.394.343-.591l.056-.096-.374.034-.298-.491c-.027.049-.058.095-.088.144a189.356 189.356 0 0 0-2.495 4.284 258.506 258.506 0 0 0-4.852 8.98 320.783 320.783 0 0 0-4.421 8.905 333.982 333.982 0 0 0-2.14 4.562c-.156.339-.313.678-.467 1.017a424.06 424.06 0 0 0-1.622 3.593l.47.778.418-.038a391.857 391.857 0 0 1 2.061-4.657zm20.188-19.271c.002 0 .002-.002.005-.002 0 0-.003 0-.005.002z" fill="none"/><path d="M90.513 48.52c-.388.059-.79.116-1.2.175-.003 0-.006.003-.008.003.207-.026.411-.051.613-.08.202-.03.399-.062.595-.098z" fill="#be202e"/><path d="M90.513 48.52c-.388.059-.79.116-1.2.175-.003 0-.006.003-.008.003.207-.026.411-.051.613-.08.202-.03.399-.062.595-.098z" opacity=".35" fill="#be202e"/><path d="M91.533 44.297s-.003 0-.003.002c-.002 0-.002.002-.005.002.066-.006.129-.017.192-.023.26-.032.515-.07.762-.115-.31.043-.626.09-.946.134z" fill="#be202e"/><path d="M91.533 44.297s-.003 0-.003.002c-.002 0-.002.002-.005.002.066-.006.129-.017.192-.023.26-.032.515-.07.762-.115-.31.043-.626.09-.946.134z" opacity=".35" fill="#be202e"/><path d="M137.617-152.01a1951.394 1951.394 0 0 1 29.501-53.18c10.32-17.94 20.77-35.35 31.327-52.124.609-.979 1.244-1.984 1.852-2.99 10.425-16.51 20.955-32.384 31.565-47.572L199.9-368.2c-2.408 2.937-4.815 5.927-7.276 8.97-9.207 11.483-18.785 23.839-28.601 36.936-11.06 14.763-22.437 30.533-34 47.069a1919.638 1919.638 0 0 0-32.305 47.863c-9.207 14.102-18.468 28.628-27.649 43.524l-1.032 1.667 41.593 82.153a2576.983 2576.983 0 0 1 26.987-51.99z" fill="url(#b)" transform="matrix(.09537 0 0 .08008 73.92 44.013)"/><path d="M-51.824 310.879a5178.545 5178.545 0 0 0-16.59 46.276c-.08.238-.158.45-.238.688-.794 2.222-1.56 4.445-2.355 6.667-3.73 10.61-6.985 20.161-14.42 41.884 12.25 5.582 22.093 20.293 31.407 36.988-.98-17.277-8.15-33.522-21.723-46.09 60.405 2.725 112.448-12.541 139.356-56.7a111.477 111.477 0 0 0 6.588-12.489c-12.223 15.505-27.384 22.093-55.932 20.48-.053.026-.133.052-.186.079.053-.027.133-.053.186-.08 42.015-18.812 63.103-36.856 81.73-66.78 4.418-7.092 8.704-14.844 13.096-23.443-36.75 37.73-79.322 48.472-124.169 40.323l-33.628 3.677a808.386 808.386 0 0 0-3.122 8.52z" fill="url(#c)" transform="matrix(.09537 0 0 .08008 73.92 44.013)"/><path d="M-36.135 235.552a5582.361 5582.361 0 0 1 22.437-56.965c7.355-18.362 14.923-36.83 22.648-55.403a4141.013 4141.013 0 0 1 23.707-55.801 3724.731 3724.731 0 0 1 25.109-56.674 3320.28 3320.28 0 0 1 25.77-55.456 3426.946 3426.946 0 0 1 9.499-19.765 2501.668 2501.668 0 0 1 16.669-33.734c.29-.609.608-1.19.926-1.8l-41.593-82.152c-.688 1.11-1.35 2.222-2.037 3.333-9.684 15.822-19.341 32.015-28.813 48.551a1833.954 1833.954 0 0 0-28.152 50.96A1726.534 1726.534 0 0 0-12.64-35.303c-1.481 3.016-2.936 5.98-4.392 8.97A1214.621 1214.621 0 0 0-41.69 27.669C-50.078 47.301-57.46 66.06-63.916 83.84a1069.002 1069.002 0 0 0-11.668 33.84c-2.91 9.26-5.688 18.548-8.308 27.782-6.218 21.775-11.562 43.497-15.954 65.14l41.804 82.523a5839.993 5839.993 0 0 1 17.013-44.873 4140.78 4140.78 0 0 1 4.894-12.7z" fill="url(#d)" transform="matrix(.09537 0 0 .08008 73.92 44.013)"/><path d="M-100.402 213.539c-5.239 26.405-8.97 52.705-10.848 78.846-.053.926-.159 1.825-.211 2.751-13.044-20.902-47.97-41.301-47.89-41.116 25.003 36.248 43.974 72.231 46.805 107.553-13.388 2.752-31.724-1.217-52.917-9.022 22.093 20.293 38.682 25.903 45.138 27.41-20.294 1.27-41.434 15.214-62.733 31.274 31.142-12.7 56.304-17.727 74.322-13.652-28.575 80.91-57.23 170.233-85.884 265.06 8.784-2.593 14.023-8.494 16.96-16.484 5.106-17.171 39-129.831 92.101-277.918 1.508-4.207 3.043-8.44 4.578-12.7.423-1.19.873-2.382 1.296-3.546a5551.39 5551.39 0 0 1 17.436-47.545c1.376-3.678 2.752-7.356 4.128-11.06.026-.08.052-.159.079-.212l-41.751-82.497c-.186.926-.424 1.879-.609 2.858z" fill="url(#e)" transform="matrix(.09537 0 0 .08008 73.92 44.013)"/><path d="M117.086-93.087c-1.191 2.434-2.382 4.895-3.599 7.382a5018.95 5018.95 0 0 0-10.953 22.754 2783.249 2783.249 0 0 0-12.092 25.744c-2.064 4.419-4.101 8.864-6.191 13.388a3500.526 3500.526 0 0 0-18.918 41.91 3831.554 3831.554 0 0 0-23.998 55.272 4138.38 4138.38 0 0 0-23.574 56.62c-7.567 18.521-15.214 37.65-22.966 57.362a4918.955 4918.955 0 0 0-20.902 54.213c-.344.9-.688 1.8-1.005 2.699a5061 5061 0 0 0-21.114 56.806c-.159.45-.318.9-.476 1.323l33.628-3.678c-.661-.132-1.35-.211-2.01-.344 40.216-5 93.662-35.057 128.217-72.152 15.927-17.092 30.374-37.253 43.735-60.854 9.948-17.568 19.288-37.041 28.178-58.605 7.779-18.838 15.24-39.238 22.437-61.357-9.234 4.868-19.817 8.44-31.485 10.927a200.99 200.99 0 0 1-6.245 1.217c-2.116.37-4.26.715-6.429 1.006.026 0 .053-.027.08-.027 37.49-14.42 61.145-42.28 78.342-76.385-9.868 6.72-25.902 15.531-45.111 19.765-2.62.582-5.292 1.031-7.99 1.428-.688.106-1.35.212-2.011.291.026 0 .026-.026.053-.026 0 0 .026 0 .026-.027 13.018-5.45 23.998-11.535 33.523-18.732a104.057 104.057 0 0 0 5.927-4.79 117.283 117.283 0 0 0 8.307-7.937 108.777 108.777 0 0 0 4.922-5.503 130.602 130.602 0 0 0 10.504-14.446 169.51 169.51 0 0 0 2.963-4.869 604.518 604.518 0 0 0 3.598-7.09c5.24-10.53 9.42-19.923 12.753-28.178 1.667-4.128 3.122-7.938 4.366-11.483a263.44 263.44 0 0 0 1.429-4.101c1.323-3.97 2.407-7.488 3.254-10.584 1.27-4.63 2.037-8.308 2.46-10.98a40.354 40.354 0 0 1-4.365 2.99c-11.324 6.773-30.745 12.911-46.408 15.795l30.877-3.386-30.877 3.386c-.238.053-.476.08-.714.133-1.561.264-3.149.502-4.736.767.29-.132.529-.265.82-.37L117.668-94.225c-.185.37-.37.741-.582 1.138z" fill="url(#f)" transform="matrix(.09537 0 0 .08008 73.92 44.013)"/><path d="M236.016-306.658c-9.393 14.42-19.659 30.797-30.692 49.344-.582.953-1.164 1.958-1.746 2.937a1906.818 1906.818 0 0 0-30.295 52.996 2228.192 2228.192 0 0 0-28.734 53.79 2608.7 2608.7 0 0 0-26.855 53.34l105.648-11.589c30.771-14.155 44.53-26.96 57.891-45.482a523.544 523.544 0 0 0 10.663-15.98c10.848-16.934 21.484-35.587 31.009-54.134 9.181-17.912 17.277-35.666 23.495-51.673 3.942-10.187 7.117-19.659 9.313-27.967a254.33 254.33 0 0 0 4.604-20.928c-41.143 7.011-91.52 13.732-124.301 15.346z" fill="url(#g)" transform="matrix(.09537 0 0 .08008 73.92 44.013)"/><path d="M91.523 44.301c.065-.006.128-.017.192-.023-.064.006-.127.015-.192.023z" fill="#be202e"/><path d="M91.523 44.301c.065-.006.128-.017.192-.023-.064.006-.127.015-.192.023z" opacity=".35" fill="#be202e"/><path d="M184.58 3.592c.689-.08 1.35-.212 2.012-.291-.662.08-1.323.185-2.011.291z" fill="url(#h)" transform="matrix(.09537 0 0 .08008 73.92 44.013)"/><path d="M91.53 44.299s.003 0 .003-.002c0 0-.003 0-.003.002z" fill="#be202e"/><path d="M91.53 44.299s.003 0 .003-.002c0 0-.003 0-.003.002z" opacity=".35" fill="#be202e"/><path d="M184.66 3.565s.027 0 .027-.026c0 0-.027 0-.027.026z" fill="url(#i)" transform="matrix(.09537 0 0 .08008 73.92 44.013)"/><path d="M111.343 15.725v.247h.691v1.64h.32v-1.64h.697v-.247zm3.994 0l-.772 1.317-.777-1.317h-.386v1.887h.295v-1.498l.764 1.3h.205l.764-1.3v1.498h.295v-1.887z" fill="#6d6e71"/></g></svg>