<svg width="439" height="179" fill="none" xmlns="http://www.w3.org/2000/svg"><path fill="#fff" d="M0 0h439v179H0z"/><g clip-path="url(#a)"><path d="M436.572 53.038c.938.938 1.404 2.066 1.404 3.384s-.466 2.446-1.404 3.397c-.938.944-2.072 1.416-3.409 1.416-1.336 0-2.464-.466-3.396-1.404-.926-.938-1.392-2.066-1.392-3.384s.466-2.447 1.404-3.397c.938-.944 2.066-1.416 3.396-1.416 1.325 0 2.459.466 3.397 1.404Zm-.405 6.382c.816-.834 1.226-1.827 1.226-2.986 0-1.158-.404-2.145-1.214-2.973-.809-.822-1.802-1.232-2.979-1.232s-2.17.41-2.986 1.238c-.815.828-1.22 1.821-1.22 2.986 0 1.165.405 2.158 1.208 2.98.803.82 1.796 1.232 2.973 1.232 1.177 0 2.171-.417 2.992-1.245Zm-.674-3.911c0 .858-.374 1.398-1.128 1.618l1.379 1.87h-1.116l-1.244-1.735h-1.14v1.735h-.902V53.81h1.95c.785 0 1.349.135 1.692.405.343.27.509.699.509 1.294Zm-1.159.73c.184-.148.27-.4.27-.736 0-.338-.092-.577-.276-.712-.184-.134-.515-.196-.981-.196h-1.103v1.87h1.072c.497-.006.84-.08 1.018-.227ZM111.574 31.703v9.527h-1.226v-9.527h-3.482v-1.177h8.209v1.177h-3.501ZM128.655 41.23v-4.714h-6.45v4.714h-1.226V30.52h1.226v4.837h6.45V30.52h1.226v10.71h-1.226ZM138.415 31.703v3.52h5.401v1.176h-5.401v3.666h6.241v1.165h-7.468V30.52h7.272v1.177h-6.045v.006Z" fill="#6D6E71"/><path d="m97.529 114.627 25.583-61.16h4.911l25.584 61.16h-6.462l-7.927-19.121H111.74l-7.841 19.121h-6.37Zm28.085-54.097L113.04 90.766h24.811L125.614 60.53ZM160.209 114.627v-61.16h25.327c10.508 0 18.091 9.736 18.091 19.208 0 9.993-7.062 19.379-17.57 19.379h-19.901v22.567h-5.947v.006Zm5.947-27.913h19.551c7.235 0 11.888-6.633 11.888-14.04 0-7.669-5.683-13.867-12.403-13.867h-19.036v27.907ZM200.28 114.627l25.584-61.16h4.911l25.583 61.16h-6.462l-7.927-19.121h-27.478l-7.841 19.121h-6.37Zm28.085-54.097-12.574 30.236h24.811L228.365 60.53ZM285.301 53.117c10.852 0 18.779 5.512 22.568 13.353l-4.825 2.93c-3.875-8.098-11.459-10.85-18.092-10.85-14.646 0-22.653 13.095-22.653 25.411 0 13.525 9.907 25.756 22.91 25.756 6.891 0 14.99-3.446 18.865-11.373l4.996 2.581c-3.96 9.129-14.818 14.211-24.204 14.211-16.798 0-28.6-16.02-28.6-31.524.006-14.726 10.6-30.495 29.035-30.495ZM365.725 53.467v61.16h-6.033v-28.6h-36.263v28.6h-5.941v-61.16h5.941v27.22h36.263v-27.22h6.033ZM420.625 109.281v5.34h-41.088V53.467h40.316v5.34h-34.369v22.052h29.979v5.083h-29.979v23.346h35.141v-.007Z" fill="#D22128"/><path d="M103.236 127.576a6.96 6.96 0 0 1 1.901.87l-.632 1.386a6.373 6.373 0 0 0-1.771-.822 6.577 6.577 0 0 0-1.791-.269c-.833 0-1.502.147-1.998.447-.497.3-.748.724-.748 1.269 0 .466.14.858.417 1.165.275.307.625.546 1.042.717.417.172.987.368 1.716.589.883.282 1.594.545 2.128.791.539.245.999.607 1.379 1.091.38.478.57 1.116.57 1.901 0 .717-.196 1.336-.582 1.876-.386.533-.938.95-1.643 1.244-.711.294-1.527.441-2.452.441a7.039 7.039 0 0 1-2.692-.533 7.044 7.044 0 0 1-2.244-1.434l.656-1.325a6.346 6.346 0 0 0 2.042 1.343c.772.319 1.52.478 2.256.478.938 0 1.674-.184 2.213-.546.54-.361.81-.852.81-1.465 0-.478-.141-.876-.423-1.189a2.94 2.94 0 0 0-1.049-.73 19.7 19.7 0 0 0-1.716-.588 18.502 18.502 0 0 1-2.122-.748 3.518 3.518 0 0 1-1.38-1.073c-.373-.472-.563-1.098-.563-1.876 0-.668.184-1.251.552-1.753.368-.503.895-.896 1.57-1.171.68-.276 1.458-.417 2.341-.417a7.972 7.972 0 0 1 2.213.331ZM122.395 128.139a6.61 6.61 0 0 1 2.452 2.355c.601.993.908 2.078.908 3.267a6.18 6.18 0 0 1-.908 3.286 6.587 6.587 0 0 1-2.452 2.367 6.78 6.78 0 0 1-3.384.877c-1.245 0-2.379-.289-3.415-.877a6.625 6.625 0 0 1-2.452-2.367 6.25 6.25 0 0 1-.908-3.286c0-1.195.301-2.286.908-3.28a6.485 6.485 0 0 1 2.452-2.348c1.03-.576 2.17-.858 3.415-.858a6.724 6.724 0 0 1 3.384.864Zm-6.02 1.22a5.287 5.287 0 0 0-1.925 1.846 4.758 4.758 0 0 0-.724 2.556c0 .938.239 1.797.724 2.575a5.254 5.254 0 0 0 1.925 1.852 5.26 5.26 0 0 0 2.63.68c.95 0 1.821-.227 2.618-.68a5.208 5.208 0 0 0 1.906-1.852 4.874 4.874 0 0 0 .711-2.575c0-.938-.239-1.79-.711-2.562a5.224 5.224 0 0 0-1.906-1.84 5.202 5.202 0 0 0-2.612-.686c-.95 0-1.827.227-2.636.686ZM135.049 128.728v4.537h6.032v1.422h-6.032v5.53h-1.478v-12.911h8.203v1.422h-6.725ZM153.754 128.728v11.489h-1.478v-11.489h-4.193v-1.422h9.895v1.422h-4.224ZM177.063 140.217l-3.482-10.876-3.532 10.876h-1.502l-4.322-12.911h1.588l3.55 11.201 3.5-11.183 1.478-.018 3.537 11.201 3.501-11.201h1.533l-4.329 12.911h-1.52ZM190.275 136.955l-1.441 3.262h-1.569l5.787-12.911h1.533l5.769 12.911h-1.6l-1.441-3.262h-7.038Zm3.507-7.97-2.876 6.548h5.788l-2.912-6.548ZM213.191 136.103c-.367.025-.656.037-.864.037h-3.433v4.077h-1.472v-12.911h4.905c1.606 0 2.857.38 3.752 1.134.889.754 1.336 1.827 1.336 3.206 0 1.055-.251 1.944-.747 2.655-.497.711-1.214 1.226-2.146 1.533l3.016 4.383h-1.674l-2.673-4.114Zm1.852-2.152c.631-.515.95-1.275.95-2.268 0-.975-.319-1.71-.95-2.207-.632-.497-1.539-.748-2.716-.748h-3.433v5.996h3.433c1.177 0 2.084-.258 2.716-.773ZM227.12 128.728v4.242h6.511v1.423h-6.511v4.42h7.529v1.404h-9.006v-12.911h8.76v1.422h-7.283ZM255.242 128.728v4.537h6.033v1.422h-6.033v5.53h-1.477v-12.911h8.203v1.422h-6.726ZM278.312 128.139a6.612 6.612 0 0 1 2.453 2.355c.601.993.907 2.078.907 3.267 0 1.196-.3 2.293-.907 3.286a6.59 6.59 0 0 1-2.453 2.367 6.78 6.78 0 0 1-3.384.877c-1.244 0-2.378-.289-3.415-.877a6.633 6.633 0 0 1-2.452-2.367 6.25 6.25 0 0 1-.907-3.286c0-1.195.3-2.286.907-3.28a6.492 6.492 0 0 1 2.452-2.348c1.03-.576 2.171-.858 3.415-.858a6.692 6.692 0 0 1 3.384.864Zm-6.014 1.22a5.294 5.294 0 0 0-1.925 1.846 4.765 4.765 0 0 0-.723 2.556c0 .938.239 1.797.723 2.575a5.262 5.262 0 0 0 1.925 1.852c.803.453 1.68.68 2.63.68a5.2 5.2 0 0 0 2.618-.68 5.21 5.21 0 0 0 1.907-1.852 4.874 4.874 0 0 0 .711-2.575c0-.938-.239-1.79-.711-2.562a5.227 5.227 0 0 0-1.907-1.84 5.199 5.199 0 0 0-2.612-.686c-.956 0-1.833.227-2.636.686ZM298.629 138.862c-.962.95-2.286 1.429-3.972 1.429-1.699 0-3.029-.479-3.991-1.429-.963-.95-1.447-2.268-1.447-3.96V127.3h1.477v7.602c0 1.244.356 2.213 1.061 2.912.711.699 1.674 1.048 2.9 1.048 1.232 0 2.195-.349 2.887-1.042.699-.693 1.043-1.668 1.043-2.924v-7.603h1.477v7.603c.006 1.698-.472 3.016-1.435 3.966ZM317.929 140.217l-7.743-10.367v10.367h-1.478v-12.911h1.533l7.743 10.379v-10.379h1.459v12.911h-1.514ZM336.868 128.158a6.385 6.385 0 0 1 2.385 2.323c.588.981.876 2.079.876 3.28 0 1.202-.294 2.306-.876 3.286a6.233 6.233 0 0 1-2.41 2.324c-1.017.564-2.158.846-3.402.846h-5.169v-12.911h5.224c1.244 0 2.366.282 3.372.852Zm-7.118 10.655h3.764c.951 0 1.815-.214 2.594-.65a4.862 4.862 0 0 0 1.851-1.808c.454-.767.681-1.625.681-2.575 0-.951-.233-1.803-.693-2.569a5.037 5.037 0 0 0-1.876-1.815 5.246 5.246 0 0 0-2.612-.668h-3.709v10.085ZM348.528 136.955l-1.441 3.262h-1.569l5.787-12.911h1.533l5.769 12.911h-1.594l-1.441-3.262h-7.044Zm3.507-7.97-2.876 6.548h5.788l-2.912-6.548ZM368.293 128.728v11.489h-1.471v-11.489h-4.194v-1.422h9.895v1.422h-4.23ZM379.629 140.217v-12.911h1.477v12.911h-1.477ZM399.112 128.139a6.612 6.612 0 0 1 2.453 2.355c.6.993.907 2.078.907 3.267 0 1.196-.3 2.293-.907 3.286a6.59 6.59 0 0 1-2.453 2.367 6.78 6.78 0 0 1-3.384.877c-1.244 0-2.379-.289-3.415-.877a6.633 6.633 0 0 1-2.452-2.367 6.25 6.25 0 0 1-.907-3.286c0-1.195.3-2.286.907-3.28a6.492 6.492 0 0 1 2.452-2.348c1.03-.576 2.171-.858 3.415-.858a6.692 6.692 0 0 1 3.384.864Zm-6.014 1.22a5.294 5.294 0 0 0-1.925 1.846 4.765 4.765 0 0 0-.723 2.556c0 .938.239 1.797.723 2.575a5.262 5.262 0 0 0 1.925 1.852c.803.453 1.68.68 2.63.68s1.821-.227 2.618-.68a5.218 5.218 0 0 0 1.907-1.852 4.874 4.874 0 0 0 .711-2.575c0-.938-.239-1.79-.711-2.562a5.227 5.227 0 0 0-1.907-1.84 5.202 5.202 0 0 0-2.612-.686c-.956 0-1.827.227-2.636.686ZM419.516 140.217l-7.743-10.367v10.367h-1.478v-12.911h1.533l7.743 10.379v-10.379h1.459v12.911h-1.514Z" fill="#6D6E71"/><path d="M76.415 1.901c-2.778 1.643-7.394 6.284-12.906 13.016l5.064 9.558c3.556-5.083 7.167-9.656 10.809-13.562.282-.312.429-.46.429-.46-.141.154-.282.307-.43.46-1.176 1.3-4.75 5.469-10.146 13.758 5.193-.258 13.175-1.324 19.686-2.434 1.938-10.851-1.9-15.817-1.9-15.817S82.135-1.477 76.415 1.9Z" fill="url(#b)"/><path d="M59.402 82.17c-.65.117-1.312.234-1.993.35-.006 0-.006.007-.012.007.343-.05.687-.105 1.018-.16.337-.061.662-.129.987-.196Z" fill="#BE202E"/><path opacity=".35" d="M59.402 82.17c-.65.117-1.312.234-1.993.35-.006 0-.006.007-.012.007.343-.05.687-.105 1.018-.16.337-.061.662-.129.987-.196Z" fill="#BE202E"/><path d="M61.1 73.815c-.007 0-.007 0 0 0-.007.006-.013.006-.013.006.11-.012.215-.03.32-.049.428-.061.851-.135 1.268-.227-.52.092-1.042.178-1.575.27Z" fill="#BE202E"/><path opacity=".35" d="M61.1 73.815c-.007 0-.007 0 0 0-.007.006-.013.006-.013.006.11-.012.215-.03.32-.049.428-.061.851-.135 1.268-.227-.52.092-1.042.178-1.575.27Z" fill="#BE202E"/><path d="M53.638 49.169a307.259 307.259 0 0 1 4.672-8.424 255.808 255.808 0 0 1 4.96-8.258c.098-.16.196-.319.294-.472a195.911 195.911 0 0 1 5.003-7.535l-5.064-9.564c-.38.466-.767.938-1.153 1.423-1.459 1.82-2.98 3.776-4.53 5.855a267.968 267.968 0 0 0-5.383 7.46 300.422 300.422 0 0 0-5.12 7.585 313.35 313.35 0 0 0-4.377 6.897c-.055.085-.11.177-.16.263l6.591 13.016a345.615 345.615 0 0 1 4.267-8.246Z" fill="url(#c)"/><path d="M23.622 122.512a940.152 940.152 0 0 0-2.63 7.332l-.036.11c-.123.35-.252.705-.374 1.055-.595 1.68-1.104 3.194-2.287 6.633 1.943.889 3.5 3.219 4.972 5.861-.16-2.74-1.287-5.309-3.445-7.301 9.57.429 17.815-1.987 22.076-8.988.38-.625.73-1.281 1.042-1.974-1.937 2.458-4.34 3.5-8.858 3.249-.013.006-.019.006-.031.012.012-.006.018-.006.03-.012 6.659-2.979 10-5.843 12.949-10.582a49.464 49.464 0 0 0 2.072-3.715c-5.818 5.978-12.568 7.682-19.674 6.388l-5.327.583c-.147.447-.313.895-.479 1.349Z" fill="url(#d)"/><path d="M26.112 110.575a777.271 777.271 0 0 1 7.142-17.804 615.6 615.6 0 0 1 7.73-17.822 500.093 500.093 0 0 1 4.084-8.785c.497-1.049 1-2.09 1.508-3.127a395.02 395.02 0 0 1 2.643-5.346c.049-.098.098-.19.147-.282l-6.59-13.015c-.111.177-.215.355-.326.527a285.728 285.728 0 0 0-4.56 7.688 288.55 288.55 0 0 0-4.458 8.074 277.121 277.121 0 0 0-3.593 6.983c-.232.478-.465.95-.692 1.422a195.388 195.388 0 0 0-3.906 8.553 178.509 178.509 0 0 0-3.525 8.895 161.595 161.595 0 0 0-1.845 5.359c-.46 1.471-.901 2.936-1.318 4.401-.981 3.452-1.833 6.891-2.526 10.319l6.615 13.083a870.758 870.758 0 0 1 2.698-7.112c.25-.668.515-1.337.772-2.011Z" fill="url(#e)"/><path d="M15.928 107.086c-.833 4.181-1.422 8.35-1.716 12.495-.012.147-.025.288-.03.435-2.067-3.311-7.603-6.548-7.59-6.511 3.96 5.745 6.97 11.446 7.411 17.044-2.12.435-5.027-.197-8.387-1.429 3.501 3.219 6.131 4.108 7.155 4.347-3.219.202-6.566 2.409-9.938 4.954 4.935-2.011 8.92-2.808 11.777-2.165C10.08 149.07 5.543 163.219 1 178.24c1.392-.411 2.22-1.343 2.691-2.612.81-2.722 6.18-20.575 14.592-44.031l.723-2.017a792.216 792.216 0 0 1 2.967-8.099c.215-.582.436-1.165.656-1.753.006-.012.006-.025.013-.037l-6.616-13.071c-.03.16-.067.313-.098.466Z" fill="url(#f)"/><path d="M50.39 58.507c-.19.386-.38.778-.57 1.17-.57 1.178-1.153 2.38-1.736 3.605-.631 1.33-1.269 2.692-1.919 4.078a532.21 532.21 0 0 0-3.979 8.76 624.158 624.158 0 0 0-3.8 8.755 716.52 716.52 0 0 0-3.734 8.97 761.356 761.356 0 0 0-6.946 17.68c-.055.141-.11.289-.16.43a939.211 939.211 0 0 0-3.347 9c-.025.067-.05.141-.08.208l5.328-.582c-.104-.019-.215-.031-.319-.056 6.37-.797 14.843-5.554 20.317-11.433 2.52-2.71 4.813-5.904 6.928-9.644 1.576-2.783 3.053-5.873 4.463-9.288a134.539 134.539 0 0 0 3.556-9.724c-1.465.773-3.139 1.337-4.99 1.73-.325.067-.656.134-.987.19-.338.06-.675.11-1.018.159.006 0 .006-.006.012-.006 5.94-2.287 9.687-6.695 12.409-12.103-1.564 1.067-4.102 2.459-7.149 3.133-.41.092-.84.166-1.269.227a5.74 5.74 0 0 1-.319.05c.007 0 .007 0 .007-.007h.006c2.06-.864 3.8-1.827 5.309-2.967a18.24 18.24 0 0 0 2.256-2.01c.27-.283.527-.571.779-.872a20.815 20.815 0 0 0 1.661-2.286c.16-.252.313-.51.466-.773.196-.38.386-.754.57-1.122a64.1 64.1 0 0 0 2.023-4.463c.264-.65.497-1.257.693-1.82.08-.228.153-.442.227-.65.208-.626.38-1.184.515-1.674a16.6 16.6 0 0 0 .392-1.742c-.202.16-.435.32-.692.473-1.797 1.072-4.874 2.047-7.351 2.5l4.892-.539-4.892.54-.11.018c-.246.043-.497.08-.749.123.043-.019.086-.043.13-.062l-16.738 1.834a1.77 1.77 0 0 1-.086.19Z" fill="url(#g)"/><path d="M69.23 24.671a235.126 235.126 0 0 0-4.869 7.817c-.092.153-.184.312-.276.466a307.958 307.958 0 0 0-4.8 8.399 376.776 376.776 0 0 0-4.555 8.521 429.071 429.071 0 0 0-4.255 8.449l16.737-1.833c4.874-2.244 7.057-4.274 9.172-7.21a72.592 72.592 0 0 0 1.686-2.532 104.74 104.74 0 0 0 4.91-8.577c1.453-2.839 2.74-5.653 3.722-8.185.625-1.612 1.128-3.114 1.477-4.432a39.97 39.97 0 0 0 .73-3.317c-6.499 1.11-14.487 2.177-19.68 2.434Z" fill="url(#h)"/><path d="M58.415 82.361Z" fill="#BE202E"/><path opacity=".35" d="M58.415 82.361Z" fill="#BE202E"/><path d="M58.415 82.361Z" fill="url(#i)"/><path d="M61.081 73.821c.111-.012.216-.03.32-.049-.104.018-.209.037-.32.05Z" fill="#BE202E"/><path opacity=".35" d="M61.081 73.821c.111-.012.216-.03.32-.049-.104.018-.209.037-.32.05Z" fill="#BE202E"/><path d="M61.081 73.821c.111-.012.216-.03.32-.049-.104.018-.209.037-.32.05Z" fill="url(#j)"/></g><path d="M344.389 161.102h76.551v-1.094h-76.551v1.094ZM95.486 161.102h76.552v-1.094H95.486v1.094ZM180.075 156.24v3.773h5.791v1.265h-5.791v3.933h6.696v1.25h-8.009v-11.486h7.793v1.265h-6.48ZM193.515 154.927c.657 0 1.308.096 1.954.288.646.192 1.21.451 1.69.777l-.56 1.233a5.68 5.68 0 0 0-1.578-.728 5.7 5.7 0 0 0-1.586-.241c-.742 0-1.335.134-1.778.401-.443.267-.665.643-.665 1.129 0 .417.123.761.368 1.033.246.273.553.486.921.641.374.15.884.323 1.53.521.785.251 1.415.486 1.891.705.48.219.889.542 1.225.969.342.427.513.99.513 1.69 0 .635-.174 1.191-.521 1.666-.342.475-.828.844-1.458 1.105-.63.262-1.356.393-2.178.393a6.296 6.296 0 0 1-2.395-.473 6.343 6.343 0 0 1-1.995-1.281l.585-1.178a5.648 5.648 0 0 0 1.81 1.194c.689.283 1.359.424 2.011.424.833 0 1.49-.16 1.97-.48.481-.326.721-.761.721-1.306 0-.427-.126-.78-.376-1.057a2.565 2.565 0 0 0-.938-.649 15.395 15.395 0 0 0-1.521-.521 16.228 16.228 0 0 1-1.891-.665 3.216 3.216 0 0 1-1.225-.953c-.331-.422-.497-.977-.497-1.666 0-.592.163-1.113.489-1.562.331-.448.798-.795 1.401-1.041.604-.246 1.298-.368 2.083-.368ZM204.279 156.24v10.221h-1.313V156.24h-3.733v-1.265h8.803v1.265h-3.757ZM210.518 163.561l-1.281 2.9h-1.394l5.15-11.486h1.362l5.134 11.486h-1.426l-1.281-2.9h-6.264Zm3.116-7.088-2.555 5.823h5.15l-2.595-5.823ZM226.785 154.975c1.159 0 2.067.256 2.724.769.657.507.985 1.209.985 2.106 0 .678-.187 1.244-.561 1.698-.368.454-.886.751-1.554.889.833.123 1.479.441 1.939.954.459.512.689 1.164.689 1.954 0 .972-.369 1.735-1.106 2.291-.731.55-1.743.825-3.035.825h-4.918v-11.486h4.837Zm-3.524 4.958h3.46c.775 0 1.375-.16 1.803-.481.427-.326.64-.79.64-1.394 0-.582-.213-1.03-.64-1.345-.428-.315-1.028-.473-1.803-.473h-3.46v3.693Zm0 5.278h3.46c.94 0 1.666-.176 2.179-.528.518-.358.777-.866.777-1.522 0-.625-.262-1.111-.785-1.458-.518-.347-1.242-.521-2.171-.521h-3.46v4.029ZM240.698 165.211v1.25h-6.352v-11.486h1.314v10.236h5.038ZM243.476 166.461v-11.486h1.314v11.486h-1.314ZM252.335 154.927a6.83 6.83 0 0 1 1.954.288 6.076 6.076 0 0 1 1.69.777l-.561 1.233a5.653 5.653 0 0 0-1.578-.728 5.694 5.694 0 0 0-1.586-.241c-.742 0-1.335.134-1.778.401-.443.267-.665.643-.665 1.129 0 .417.123.761.369 1.033.246.273.553.486.921.641.374.15.884.323 1.53.521.785.251 1.415.486 1.89.705.481.219.889.542 1.226.969.341.427.512.99.512 1.69 0 .635-.173 1.191-.52 1.666-.342.475-.828.844-1.458 1.105-.63.262-1.356.393-2.179.393-.822 0-1.62-.158-2.395-.473a6.327 6.327 0 0 1-1.994-1.281l.585-1.178a5.637 5.637 0 0 0 1.81 1.194c.689.283 1.359.424 2.01.424.833 0 1.49-.16 1.971-.48.48-.326.721-.761.721-1.306 0-.427-.126-.78-.377-1.057a2.561 2.561 0 0 0-.937-.649 15.522 15.522 0 0 0-1.522-.521 16.27 16.27 0 0 1-1.89-.665 3.22 3.22 0 0 1-1.226-.953c-.331-.422-.496-.977-.496-1.666 0-.592.163-1.113.488-1.562.331-.448.799-.795 1.402-1.041.603-.246 1.298-.368 2.083-.368ZM267.841 166.461v-5.054h-6.921v5.054h-1.313v-11.486h1.313v5.19h6.921v-5.19h1.313v11.486h-1.313ZM274.6 156.24v3.773h5.791v1.265H274.6v3.933h6.696v1.25h-8.009v-11.486h7.793v1.265h-6.48ZM289.273 154.975c1.106 0 2.104.253 2.996.761a5.595 5.595 0 0 1 2.123 2.066c.523.871.785 1.842.785 2.916 0 1.073-.262 2.048-.785 2.923a5.563 5.563 0 0 1-2.139 2.067c-.908.502-1.917.753-3.028.753h-4.597v-11.486h4.645Zm-3.332 10.236h3.348c.844 0 1.613-.192 2.307-.577a4.31 4.31 0 0 0 1.642-1.61 4.398 4.398 0 0 0 .609-2.29c0-.844-.206-1.605-.617-2.283a4.476 4.476 0 0 0-1.666-1.618 4.641 4.641 0 0 0-2.323-.593h-3.3v8.971ZM304.258 166.461v-10.237h-2.331v-1.249h3.621v11.486h-1.29ZM312.836 166.509a6.766 6.766 0 0 1-1.674-.225 7.049 7.049 0 0 1-1.578-.6l.529-1.05c.374.219.793.393 1.257.521.47.123.929.184 1.378.184 1.127 0 1.997-.403 2.611-1.209.614-.812.921-1.917.921-3.316a7.91 7.91 0 0 0-.016-.593 2.98 2.98 0 0 1-1.273 1.562c-.598.363-1.317.545-2.155.545-1.127 0-2.016-.326-2.667-.978-.652-.651-.977-1.529-.977-2.635 0-1.169.352-2.096 1.057-2.779.705-.684 1.647-1.025 2.827-1.025 1.399 0 2.494.486 3.284 1.457.796.972 1.194 2.339 1.194 4.101 0 1.202-.192 2.259-.577 3.172-.379.913-.924 1.621-1.634 2.123-.71.496-1.546.745-2.507.745Zm.224-5.303c.593 0 1.108-.117 1.546-.352a2.557 2.557 0 0 0 1.009-.937c.235-.395.348-.823.337-1.282a2.285 2.285 0 0 0-.297-1.169 2.467 2.467 0 0 0-.945-.961c-.421-.257-.937-.385-1.546-.385-.822 0-1.484.235-1.986.705s-.753 1.105-.753 1.906c0 .764.238 1.367.713 1.81.475.444 1.116.665 1.922.665ZM323.392 166.509a6.778 6.778 0 0 1-1.674-.225 7.049 7.049 0 0 1-1.578-.6l.529-1.05c.374.219.793.393 1.257.521.47.123.93.184 1.378.184 1.127 0 1.997-.403 2.611-1.209.614-.812.921-1.917.921-3.316a7.91 7.91 0 0 0-.016-.593 2.98 2.98 0 0 1-1.273 1.562c-.598.363-1.316.545-2.155.545-1.126 0-2.016-.326-2.667-.978-.651-.651-.977-1.529-.977-2.635 0-1.169.352-2.096 1.057-2.779.705-.684 1.647-1.025 2.828-1.025 1.399 0 2.493.486 3.284 1.457.795.972 1.193 2.339 1.193 4.101 0 1.202-.192 2.259-.577 3.172-.379.913-.924 1.621-1.634 2.123-.71.496-1.546.745-2.507.745Zm.225-5.303c.592 0 1.108-.117 1.545-.352a2.56 2.56 0 0 0 1.01-.937c.235-.395.347-.823.336-1.282a2.293 2.293 0 0 0-.296-1.169 2.48 2.48 0 0 0-.945-.961c-.422-.257-.938-.385-1.546-.385-.823 0-1.485.235-1.987.705s-.753 1.105-.753 1.906c0 .764.238 1.367.713 1.81.475.444 1.116.665 1.923.665ZM333.948 166.509a6.778 6.778 0 0 1-1.674-.225 7.049 7.049 0 0 1-1.578-.6l.529-1.05c.374.219.793.393 1.258.521.47.123.929.184 1.377.184 1.127 0 1.997-.403 2.611-1.209.615-.812.922-1.917.922-3.316 0-.262-.006-.459-.016-.593a2.981 2.981 0 0 1-1.274 1.562c-.598.363-1.316.545-2.155.545-1.126 0-2.015-.326-2.667-.978-.651-.651-.977-1.529-.977-2.635 0-1.169.352-2.096 1.057-2.779.705-.684 1.648-1.025 2.828-1.025 1.399 0 2.493.486 3.284 1.457.795.972 1.193 2.339 1.193 4.101 0 1.202-.192 2.259-.577 3.172-.379.913-.923 1.621-1.634 2.123-.71.496-1.545.745-2.507.745Zm.225-5.303c.592 0 1.108-.117 1.546-.352a2.563 2.563 0 0 0 1.009-.937c.235-.395.347-.823.336-1.282a2.293 2.293 0 0 0-.296-1.169 2.467 2.467 0 0 0-.945-.961c-.422-.257-.937-.385-1.546-.385-.823 0-1.485.235-1.987.705s-.753 1.105-.753 1.906c0 .764.238 1.367.713 1.81.476.444 1.116.665 1.923.665Z" fill="#6D6E71"/><defs><linearGradient id="b" x1="67.799" y1="16.09" x2="104.897" y2="5.775" gradientUnits="userSpaceOnUse"><stop stop-color="#F69923"/><stop offset=".312" stop-color="#F79A23"/><stop offset=".838" stop-color="#E97826"/></linearGradient><linearGradient id="c" x1="-13.402" y1="182.587" x2="62.053" y2="20.77" gradientUnits="userSpaceOnUse"><stop offset=".323" stop-color="#9E2064"/><stop offset=".63" stop-color="#C92037"/><stop offset=".751" stop-color="#CD2335"/><stop offset="1" stop-color="#E97826"/></linearGradient><linearGradient id="d" x1="11.937" y1="170.622" x2="56.901" y2="74.194" gradientUnits="userSpaceOnUse"><stop stop-color="#282662"/><stop offset=".095" stop-color="#662E8D"/><stop offset=".788" stop-color="#9F2064"/><stop offset=".949" stop-color="#CD2032"/></linearGradient><linearGradient id="e" x1="-10.671" y1="172.796" x2="64.783" y2="10.978" gradientUnits="userSpaceOnUse"><stop offset=".323" stop-color="#9E2064"/><stop offset=".63" stop-color="#C92037"/><stop offset=".751" stop-color="#CD2335"/><stop offset="1" stop-color="#E97826"/></linearGradient><linearGradient id="f" x1="-2.979" y1="162.015" x2="36.674" y2="76.975" gradientUnits="userSpaceOnUse"><stop stop-color="#282662"/><stop offset=".095" stop-color="#662E8D"/><stop offset=".788" stop-color="#9F2064"/><stop offset=".949" stop-color="#CD2032"/></linearGradient><linearGradient id="g" x1="6.076" y1="180.605" x2="81.531" y2="18.788" gradientUnits="userSpaceOnUse"><stop offset=".323" stop-color="#9E2064"/><stop offset=".63" stop-color="#C92037"/><stop offset=".751" stop-color="#CD2335"/><stop offset="1" stop-color="#E97826"/></linearGradient><linearGradient id="h" x1=".564" y1="190.255" x2="76.018" y2="28.438" gradientUnits="userSpaceOnUse"><stop offset=".323" stop-color="#9E2064"/><stop offset=".63" stop-color="#C92037"/><stop offset=".751" stop-color="#CD2335"/><stop offset="1" stop-color="#E97826"/></linearGradient><linearGradient id="i" x1="11.058" y1="182.928" x2="86.513" y2="21.11" gradientUnits="userSpaceOnUse"><stop offset=".323" stop-color="#9E2064"/><stop offset=".63" stop-color="#C92037"/><stop offset=".751" stop-color="#CD2335"/><stop offset="1" stop-color="#E97826"/></linearGradient><linearGradient id="j" x1="10.373" y1="182.923" x2="86.014" y2="20.725" gradientUnits="userSpaceOnUse"><stop offset=".323" stop-color="#9E2064"/><stop offset=".63" stop-color="#C92037"/><stop offset=".751" stop-color="#CD2335"/><stop offset="1" stop-color="#E97826"/></linearGradient><clipPath id="a"><path fill="#fff" transform="translate(1 1)" d="M0 0h437v177.24H0z"/></clipPath></defs></svg>