<?xml version="1.0" encoding="UTF-8" standalone="no"?><svg xmlns="http://www.w3.org/2000/svg" version="1.1" viewBox="0 0 256 64"><symbol id="twitter" viewBox="0 0 64 64"><title>Twitter</title><desc>Follow Apache Camel on Twitter</desc><path d="m 61.700728,13.082533 a 24.128816,24.128816 0 0 1 -7.03919,1.927481 12.337998,12.337998 0 0 0 5.401184,-6.7814856 24.697176,24.697176 0 0 1 -7.787589,2.9759456 12.256803,12.256803 0 0 0 -8.95255,-3.8620222 12.249743,12.249743 0 0 0 -12.260334,12.2532732 c 0,0.95315 0.105907,1.888649 0.317717,2.788846 A 34.818218,34.818218 0 0 1 6.1038395,9.5699991 12.274454,12.274454 0 0 0 4.4446513,15.733702 c 0,4.250343 2.1604742,8.00999 5.4506058,10.202235 A 12.327407,12.327407 0 0 1 4.3387469,24.407368 v 0.151797 a 12.260334,12.260334 0 0 0 9.8315651,12.023812 12.334467,12.334467 0 0 1 -5.5423909,0.21181 12.299166,12.299166 0 0 0 11.4483919,8.521866 24.59127,24.59127 0 0 1 -18.1557435,5.076406 34.680541,34.680541 0 0 0 18.8017665,5.50709 c 22.550824,0 34.892352,-18.685271 34.892352,-34.88882 0,-0.536589 -0.01059,-1.059056 -0.0353,-1.588584 a 24.584211,24.584211 0 0 0 6.11428,-6.333152 z"/></symbol><symbol id="github" viewBox="64 0 64 64"><title>GitHub</title><desc>Collaborate on GitHub</desc><path d="M 95.79968,2.7843607 A 29.966916,29.966916 0 0 0 86.325868,61.180023 c 1.497981,0.277675 2.046022,-0.650342 2.046022,-1.443176 0,-0.712453 -0.02558,-3.076339 -0.03654,-5.575409 -8.341192,1.81219 -10.09858,-3.536697 -10.09858,-3.536697 -1.362796,-3.467275 -3.324785,-4.384332 -3.324785,-4.384332 -2.718287,-1.863342 0.204601,-1.826807 0.204601,-1.826807 3.010576,0.21191 4.592589,3.090957 4.592589,3.090957 2.674443,4.577974 7.014934,3.251712 8.72117,2.488109 0.270367,-1.936415 1.044932,-3.259023 1.903532,-4.008013 C 83.677,45.228359 76.680333,42.659869 76.680333,31.176571 c 0,-3.269981 1.172811,-5.944425 3.087302,-8.041597 -0.310557,-0.756297 -1.337222,-3.803409 0.288635,-7.928336 0,0 2.517338,-0.807449 8.242547,3.069033 a 28.742956,28.742956 0 0 1 7.49721,-1.008397 c 2.546567,0.01096 5.115053,0.347093 7.508173,1.008397 5.7179,-3.872828 8.23158,-3.069033 8.23158,-3.069033 1.62951,4.12858 0.61015,7.175691 0.29595,7.928336 1.9218,2.097172 3.08364,4.771616 3.08364,8.037944 0,11.512527 -7.01493,14.04448 -13.68277,14.786163 1.07416,0.928017 2.03506,2.751168 2.03506,5.54618 0,4.008012 -0.0329,7.234151 -0.0329,8.220624 0,0.800142 0.54073,1.731813 2.06063,1.439525 A 29.966916,29.966916 0 0 0 95.79968,2.7697465 Z"/></symbol><symbol id="zulip" viewBox="128 0 64 64"><title>Zulip</title><desc>Chat on Zulip</desc><path d="m 131.6034,4 5.79516,12.766113 h 23.09009 L 131.44616,46.136718 137.94714,60 h 41.74537 L 173.0343,46.136718 H 150.95764 L 179.22253,16.608887 173.11291,4 Z"/></symbol><symbol id="linkedin" viewBox="192 0 64 64"><title>Linkedin</title><desc>Apache Camel group on Linkedin</desc><path d="M 192 4 L 192 60 L 254 60 L 254 4 Z M 213.332031 50.667969 L 205.332031 50.667969 L 205.332031 21.332031 L 213.332031 21.332031 Z M 209.332031 17.953125 C 210.757812 17.953125 204.667969 15.84375 204.667969 13.246094 C 204.667969 10.652344 206.757812 8.542969 209.332031 8.542969 C 211.910156 8.542969 214 10.652344 214 13.246094 C 214 15.84375 211.910156 17.953125 209.332031 17.953125 Z M 245.332031 50.667969 L 237.332031 50.667969 L 237.332031 35.722656 C 237.332031 26.742188 226.667969 27.421875 226.667969 35.722656 L 226.667969 50.667969 L 218.667969 50.667969 L 218.667969 21.332031 L 226.667969 21.332031 L 226.667969 26.039062 C 230.390625 19.144531 245.332031 18.632812 245.332031 32.644531 Z M 245.332031 50.667969"/></symbol></svg>