<svg xmlns="http://www.w3.org/2000/svg" version="1.1" id="Layer_1" x="0" y="0" viewBox="0 0 309.267 309.267" xml:space="preserve"><path d="M260.944 43.491H125.64s-18.324-28.994-28.994-28.994H48.323c-10.67 0-19.329 8.65-19.329 19.329v222.286c0 10.67 8.659 19.329 19.329 19.329h212.621c10.67 0 19.329-8.659 19.329-19.329V62.82c0-10.67-8.659-19.329-19.329-19.329z" fill="#fff"/><path d="M28.994 72.484h251.279v77.317H28.994V72.484z" fill="#e97826"/><path d="M19.329 91.814h270.609c10.67 0 19.329 8.65 19.329 19.329l-19.329 164.298c0 10.67-8.659 19.329-19.329 19.329H38.658c-10.67 0-19.329-8.659-19.329-19.329L0 111.143c0-10.68 8.659-19.329 19.329-19.329z" fill="#fff"/></svg>