<?xml version='1.0' encoding='utf-8'?>
<svg xmlns="http://www.w3.org/2000/svg" width="1815" height="925" viewBox="0 0 1815 925" version="1.1" id="svg5"> <defs id="defs2"> </defs> <g id="layer1" transform="translate(66135,35425)"> <g id="g6221"> <g id="g6150"> <g id="g3048" style="stroke:#0b5cd5"> <g id="g10503" style="stroke:#0b5cd5"> <path id="path113-3-4-3" style="fill:none;stroke:#0b5cd5;stroke-width:150;stroke-dasharray:none;stroke-opacity:1" d="m 7800,-4100 a 975,450 0 0 1 -975,450 975,450 0 0 1 -975,-450 975,450 0 0 1 975,-450 975,450 0 0 1 975,450 z" transform="matrix(0.1,0,0,0.1,-65797.5,-34962.5)"/> <path id="path113-6-5-4-9-9-2" style="fill:none;stroke:#0b5cd5;stroke-width:150;stroke-dasharray:none;stroke-opacity:1" d="m 7800,-3650 c 0,119.3475 -102.723,233.8065 -285.5715,318.198 -182.847,84.3915 -430.842,131.802 -689.4285,131.802 -258.5865,0 -506.5815,-47.4105 -689.4285,-131.802 C 5952.723,-3416.1935 5850,-3530.6525 5850,-3650" transform="matrix(0.1,0,0,0.1,-65797.5,-34962.5)"/> <path id="path113-6-5-7-8-2-4" style="fill:none;stroke:#0b5cd5;stroke-width:150;stroke-dasharray:none;stroke-opacity:1" d="m 7800,-3200 c 0,119.3475 -102.723,233.8065 -285.5715,318.198 -182.847,84.3915 -430.842,131.802 -689.4285,131.802 -258.5865,0 -506.5815,-47.4105 -689.4285,-131.802 C 5952.723,-2966.1935 5850,-3080.6525 5850,-3200" transform="matrix(0.1,0,0,0.1,-65797.5,-34962.5)"/> <path id="path113-6-5-2-5-3-0" style="fill:none;stroke:#0b5cd5;stroke-width:150;stroke-dasharray:none;stroke-opacity:1" d="m 7800,-2300 c 0,119.3475 -102.723,233.8065 -285.5715,318.198 -182.847,84.3915 -430.842,131.802 -689.4285,131.802 -258.5865,0 -506.5815,-47.4105 -689.4285,-131.802 C 5952.723,-2066.1935 5850,-2180.6525 5850,-2300" transform="matrix(0.1,0,0,0.1,-65797.5,-34962.5)"/> <path id="path113-6-5-5-4-1-626" style="fill:none;stroke:#0b5cd5;stroke-width:150;stroke-dasharray:none;stroke-opacity:1" d="m 7800,-2750 c 0,119.3475 -102.723,233.8065 -285.5715,318.198 -182.847,84.3915 -430.842,131.802 -689.4285,131.802 -258.5865,0 -506.5815,-47.4105 -689.4285,-131.802 C 5952.723,-2516.1935 5850,-2630.6525 5850,-2750" transform="matrix(0.1,0,0,0.1,-65797.5,-34962.5)"/> <path style="fill:none;stroke:#0b5cd5;stroke-width:150;stroke-linecap:butt;stroke-linejoin:miter;stroke-dasharray:none;stroke-opacity:1" d="m 5850,-4100 v 1800" id="path7129-9-9-46" transform="matrix(0.1,0,0,0.10055556,-65797.5,-34960.722)"/> <path style="fill:none;stroke:#0b5cd5;stroke-width:150;stroke-linecap:butt;stroke-linejoin:miter;stroke-dasharray:none;stroke-opacity:1" d="m 7800,-4100 v 1800" id="path7129-0-8-9-5" transform="matrix(0.1,0,0,0.10055556,-65797.5,-34960.722)"/> </g> <path style="fill:none;stroke:#0b5cd5;stroke-width:250;stroke-linecap:round;stroke-linejoin:round;stroke-dasharray:2000, 500, 250, 500;stroke-dashoffset:0;stroke-opacity:1" d="m -45675,-32575 c 0,175 0,350.01 -595.829,437.505 -595.828,87.495 -1787.504,87.495 -2979.171,87.495" id="path20635-5" transform="matrix(0.1,0,0,0.1,-60547.5,-31882.5)"/> </g> <g id="g3037" style="stroke:#1ba97f"> <g id="g10512" style="stroke:#1ba97f"> <path id="path113-3-4-9-8" style="fill:none;stroke:#1ba97f;stroke-width:150;stroke-dasharray:none" d="m 7800,-4100 a 975,450 0 0 1 -975,450 975,450 0 0 1 -975,-450 975,450 0 0 1 975,-450 975,450 0 0 1 975,450 z" transform="matrix(0.1,0,0,0.1,-65452.5,-34962.5)"/> <path id="path113-6-5-4-9-9-4-6" style="fill:none;stroke:#1ba97f;stroke-width:150;stroke-dasharray:none" d="m 7800,-3650 c 0,119.3475 -102.723,233.8065 -285.5715,318.198 -182.847,84.3915 -430.842,131.802 -689.4285,131.802 -258.5865,0 -506.5815,-47.4105 -689.4285,-131.802 C 5952.723,-3416.1935 5850,-3530.6525 5850,-3650" transform="matrix(0.1,0,0,0.1,-65452.5,-34962.5)"/> <path id="path113-6-5-7-8-2-0-1" style="fill:none;stroke:#1ba97f;stroke-width:150;stroke-dasharray:none" d="m 7800,-3200 c 0,119.3475 -102.723,233.8065 -285.5715,318.198 -182.847,84.3915 -430.842,131.802 -689.4285,131.802 -258.5865,0 -506.5815,-47.4105 -689.4285,-131.802 C 5952.723,-2966.1935 5850,-3080.6525 5850,-3200" transform="matrix(0.1,0,0,0.1,-65452.5,-34962.5)"/> <path id="path113-6-5-2-5-3-2-3" style="fill:none;stroke:#1ba97f;stroke-width:150;stroke-dasharray:none" d="m 7800,-2300 c 0,119.3475 -102.723,233.8065 -285.5715,318.198 -182.847,84.3915 -430.842,131.802 -689.4285,131.802 -258.5865,0 -506.5815,-47.4105 -689.4285,-131.802 C 5952.723,-2066.1935 5850,-2180.6525 5850,-2300" transform="matrix(0.1,0,0,0.1,-65452.5,-34962.5)"/> <path id="path113-6-5-5-4-1-6-1" style="fill:none;stroke:#1ba97f;stroke-width:150;stroke-dasharray:none" d="m 7800,-2750 c 0,119.3475 -102.723,233.8065 -285.5715,318.198 -182.847,84.3915 -430.842,131.802 -689.4285,131.802 -258.5865,0 -506.5815,-47.4105 -689.4285,-131.802 C 5952.723,-2516.1935 5850,-2630.6525 5850,-2750" transform="matrix(0.1,0,0,0.1,-65452.5,-34962.5)"/> <path style="fill:none;stroke:#1ba97f;stroke-width:150;stroke-linecap:butt;stroke-linejoin:miter;stroke-dasharray:none;stroke-opacity:1" d="m 5850,-4100 v 1800" id="path7129-9-9-6-8" transform="matrix(0.1,0,0,0.10055556,-65452.5,-34960.722)"/> <path style="fill:none;stroke:#1ba97f;stroke-width:150;stroke-linecap:butt;stroke-linejoin:miter;stroke-dasharray:none;stroke-opacity:1" d="m 7800,-4100 v 1800" id="path7129-0-8-9-1-9" transform="matrix(0.1,0,0,0.10055556,-65452.5,-34960.722)"/> </g> <path style="fill:none;stroke:#1ba97f;stroke-width:250;stroke-linecap:round;stroke-linejoin:round;stroke-dasharray:2000, 500, 250, 500;stroke-dashoffset:0;stroke-opacity:1" d="m -42225,-32575 c 0,341.667 0,683.343 -1170.829,854.172 C -44566.657,-31550 -46908.333,-31550 -49250,-31550" id="path20639-8" transform="matrix(0.1,0,0,0.1,-60547.5,-31882.5)"/> </g> <g id="g3026" style="stroke:#b42b6f"> <g id="g10521" style="stroke:#b42b6f"> <path id="path113-3-4-6-80" style="fill:none;stroke:#b42b6f;stroke-width:150;stroke-dasharray:none" d="m 7800,-4100 a 975,450 0 0 1 -975,450 975,450 0 0 1 -975,-450 975,450 0 0 1 975,-450 975,450 0 0 1 975,450 z" transform="matrix(0.1,0,0,0.1,-65107.5,-34962.5)"/> <path id="path113-6-5-4-9-9-3-9" style="fill:none;stroke:#b42b6f;stroke-width:150;stroke-dasharray:none" d="m 7800,-3650 c 0,119.3475 -102.723,233.8065 -285.5715,318.198 -182.847,84.3915 -430.842,131.802 -689.4285,131.802 -258.5865,0 -506.5815,-47.4105 -689.4285,-131.802 C 5952.723,-3416.1935 5850,-3530.6525 5850,-3650" transform="matrix(0.1,0,0,0.1,-65107.5,-34962.5)"/> <path id="path113-6-5-7-8-2-5-6" style="fill:none;stroke:#b42b6f;stroke-width:150;stroke-dasharray:none" d="m 7800,-3200 c 0,119.3475 -102.723,233.8065 -285.5715,318.198 -182.847,84.3915 -430.842,131.802 -689.4285,131.802 -258.5865,0 -506.5815,-47.4105 -689.4285,-131.802 C 5952.723,-2966.1935 5850,-3080.6525 5850,-3200" transform="matrix(0.1,0,0,0.1,-65107.5,-34962.5)"/> <path id="path113-6-5-2-5-3-5-9" style="fill:none;stroke:#b42b6f;stroke-width:150;stroke-dasharray:none" d="m 7800,-2300 c 0,119.3475 -102.723,233.8065 -285.5715,318.198 -182.847,84.3915 -430.842,131.802 -689.4285,131.802 -258.5865,0 -506.5815,-47.4105 -689.4285,-131.802 C 5952.723,-2066.1935 5850,-2180.6525 5850,-2300" transform="matrix(0.1,0,0,0.1,-65107.5,-34962.5)"/> <path id="path113-6-5-5-4-1-2-3" style="fill:none;stroke:#b42b6f;stroke-width:150;stroke-dasharray:none" d="m 7800,-2750 c 0,119.3475 -102.723,233.8065 -285.5715,318.198 -182.847,84.3915 -430.842,131.802 -689.4285,131.802 -258.5865,0 -506.5815,-47.4105 -689.4285,-131.802 C 5952.723,-2516.1935 5850,-2630.6525 5850,-2750" transform="matrix(0.1,0,0,0.1,-65107.5,-34962.5)"/> <path style="fill:none;stroke:#b42b6f;stroke-width:150;stroke-linecap:butt;stroke-linejoin:miter;stroke-dasharray:none;stroke-opacity:1" d="m 5850,-4100 v 1800" id="path7129-9-9-9-1" transform="matrix(0.1,0,0,0.10055556,-65107.5,-34960.722)"/> <path style="fill:none;stroke:#b42b6f;stroke-width:150;stroke-linecap:butt;stroke-linejoin:miter;stroke-dasharray:none;stroke-opacity:1" d="m 7800,-4100 v 1800" id="path7129-0-8-9-9-8" transform="matrix(0.1,0,0,0.10055556,-65107.5,-34960.722)"/> </g> <path style="fill:none;stroke:#b42b6f;stroke-width:250;stroke-linecap:round;stroke-linejoin:round;stroke-dasharray:2000, 500, 250, 500;stroke-dashoffset:0;stroke-opacity:1" d="m -38775,-32575 c 0,508.333 0,1016.677 -1745.829,1270.838 C -42266.657,-31050 -45758.333,-31050 -49250,-31050" id="path20643-02" transform="matrix(0.1,0,0,0.1,-60547.5,-31882.5)"/> </g> <g id="g3081" style="stroke:#5d37a2"> <g id="g10548" style="stroke:#5d37a2"> <path id="path113-3-4-8-7" style="fill:none;stroke:#5d37a2;stroke-width:150;stroke-dasharray:none" d="m 7800,-4100 a 975,450 0 0 1 -975,450 975,450 0 0 1 -975,-450 975,450 0 0 1 975,-450 975,450 0 0 1 975,450 z" transform="matrix(0.1,0,0,0.1,-65797.5,-34322.5)"/> <path id="path113-6-5-4-9-9-11-6" style="fill:none;stroke:#5d37a2;stroke-width:150;stroke-dasharray:none" d="m 7800,-3650 c 0,119.3475 -102.723,233.8065 -285.5715,318.198 -182.847,84.3915 -430.842,131.802 -689.4285,131.802 -258.5865,0 -506.5815,-47.4105 -689.4285,-131.802 C 5952.723,-3416.1935 5850,-3530.6525 5850,-3650" transform="matrix(0.1,0,0,0.1,-65797.5,-34322.5)"/> <path id="path113-6-5-7-8-2-53-1" style="fill:none;stroke:#5d37a2;stroke-width:150;stroke-dasharray:none" d="m 7800,-3200 c 0,119.3475 -102.723,233.8065 -285.5715,318.198 -182.847,84.3915 -430.842,131.802 -689.4285,131.802 -258.5865,0 -506.5815,-47.4105 -689.4285,-131.802 C 5952.723,-2966.1935 5850,-3080.6525 5850,-3200" transform="matrix(0.1,0,0,0.1,-65797.5,-34322.5)"/> <path id="path113-6-5-2-5-3-1-9" style="fill:none;stroke:#5d37a2;stroke-width:150;stroke-dasharray:none" d="m 7800,-2300 c 0,119.3475 -102.723,233.8065 -285.5715,318.198 -182.847,84.3915 -430.842,131.802 -689.4285,131.802 -258.5865,0 -506.5815,-47.4105 -689.4285,-131.802 C 5952.723,-2066.1935 5850,-2180.6525 5850,-2300" transform="matrix(0.1,0,0,0.1,-65797.5,-34322.5)"/> <path id="path113-6-5-5-4-1-62-8" style="fill:none;stroke:#5d37a2;stroke-width:150;stroke-dasharray:none" d="m 7800,-2750 c 0,119.3475 -102.723,233.8065 -285.5715,318.198 -182.847,84.3915 -430.842,131.802 -689.4285,131.802 -258.5865,0 -506.5815,-47.4105 -689.4285,-131.802 C 5952.723,-2516.1935 5850,-2630.6525 5850,-2750" transform="matrix(0.1,0,0,0.1,-65797.5,-34322.5)"/> <path style="fill:none;stroke:#5d37a2;stroke-width:150;stroke-linecap:butt;stroke-linejoin:miter;stroke-dasharray:none;stroke-opacity:1" d="m 5850,-4100 v 1800" id="path7129-9-9-5-4" transform="matrix(0.1,0,0,0.10055556,-65797.5,-34320.722)"/> <path style="fill:none;stroke:#5d37a2;stroke-width:150;stroke-linecap:butt;stroke-linejoin:miter;stroke-dasharray:none;stroke-opacity:1" d="m 7800,-4100 v 1800" id="path7129-0-8-9-15-0" transform="matrix(0.1,0,0,0.10055556,-65797.5,-34320.722)"/> </g> <path style="fill:none;stroke:#5d37a2;stroke-width:250;stroke-linecap:round;stroke-linejoin:round;stroke-dasharray:2000, 500, 250, 500;stroke-dashoffset:0;stroke-opacity:1" d="m -45675,-29025 c 0,-175 0,-349.99 -595.829,-437.495 C -46866.657,-29550 -48058.333,-29550 -49250,-29550" id="path20635-7-9" transform="matrix(0.1,0,0,0.1,-60547.5,-31882.5)"/> </g> <g id="g3070" style="stroke:#d56a11"> <g id="g10539" style="stroke:#d56a11"> <path id="path113-3-4-14-9" style="fill:none;stroke:#d56a11;stroke-width:150;stroke-dasharray:none" d="m 7800,-4100 a 975,450 0 0 1 -975,450 975,450 0 0 1 -975,-450 975,450 0 0 1 975,-450 975,450 0 0 1 975,450 z" transform="matrix(0.1,0,0,0.1,-65452.5,-34322.5)"/> <path id="path113-6-5-4-9-9-6-4" style="fill:none;stroke:#d56a11;stroke-width:150;stroke-dasharray:none" d="m 7800,-3650 c 0,119.3475 -102.723,233.8065 -285.5715,318.198 -182.847,84.3915 -430.842,131.802 -689.4285,131.802 -258.5865,0 -506.5815,-47.4105 -689.4285,-131.802 C 5952.723,-3416.1935 5850,-3530.6525 5850,-3650" transform="matrix(0.1,0,0,0.1,-65452.5,-34322.5)"/> <path id="path113-6-5-7-8-2-07-0" style="fill:none;stroke:#d56a11;stroke-width:150;stroke-dasharray:none" d="m 7800,-3200 c 0,119.3475 -102.723,233.8065 -285.5715,318.198 -182.847,84.3915 -430.842,131.802 -689.4285,131.802 -258.5865,0 -506.5815,-47.4105 -689.4285,-131.802 C 5952.723,-2966.1935 5850,-3080.6525 5850,-3200" transform="matrix(0.1,0,0,0.1,-65452.5,-34322.5)"/> <path id="path113-6-5-2-5-3-6-5" style="fill:none;stroke:#d56a11;stroke-width:150;stroke-dasharray:none" d="m 7800,-2300 c 0,119.3475 -102.723,233.8065 -285.5715,318.198 -182.847,84.3915 -430.842,131.802 -689.4285,131.802 -258.5865,0 -506.5815,-47.4105 -689.4285,-131.802 C 5952.723,-2066.1935 5850,-2180.6525 5850,-2300" transform="matrix(0.1,0,0,0.1,-65452.5,-34322.5)"/> <path id="path113-6-5-5-4-1-23-6" style="fill:none;stroke:#d56a11;stroke-width:150;stroke-dasharray:none" d="m 7800,-2750 c 0,119.3475 -102.723,233.8065 -285.5715,318.198 -182.847,84.3915 -430.842,131.802 -689.4285,131.802 -258.5865,0 -506.5815,-47.4105 -689.4285,-131.802 C 5952.723,-2516.1935 5850,-2630.6525 5850,-2750" transform="matrix(0.1,0,0,0.1,-65452.5,-34322.5)"/> <path style="fill:none;stroke:#d56a11;stroke-width:150;stroke-linecap:butt;stroke-linejoin:miter;stroke-dasharray:none;stroke-opacity:1" d="m 5850,-4100 v 1800" id="path7129-9-9-47-3" transform="matrix(0.1,0,0,0.10055556,-65452.5,-34320.722)"/> <path style="fill:none;stroke:#d56a11;stroke-width:150;stroke-linecap:butt;stroke-linejoin:miter;stroke-dasharray:none;stroke-opacity:1" d="m 7800,-4100 v 1800" id="path7129-0-8-9-14-9" transform="matrix(0.1,0,0,0.10055556,-65452.5,-34320.722)"/> </g> <path style="fill:none;stroke:#d56a11;stroke-width:250;stroke-linecap:round;stroke-linejoin:round;stroke-dasharray:2000, 500, 250, 500;stroke-dashoffset:0;stroke-opacity:1" d="m -42225,-29025 c 0,-341.667 0,-683.323 -1170.829,-854.162 C -44566.657,-30050 -46908.333,-30050 -49250,-30050" id="path20639-7-0" transform="matrix(0.1,0,0,0.1,-60547.5,-31882.5)"/> </g> <g id="g3059" style="stroke:#228c3a"> <g id="g10530" style="stroke:#228c3a"> <path id="path113-3-4-1-4" style="fill:none;stroke:#228c3a;stroke-width:150;stroke-dasharray:none" d="m 7800,-4100 a 975,450 0 0 1 -975,450 975,450 0 0 1 -975,-450 975,450 0 0 1 975,-450 975,450 0 0 1 975,450 z" transform="matrix(0.1,0,0,0.1,-65107.5,-34322.5)"/> <path id="path113-6-5-4-9-9-1-0" style="fill:none;stroke:#228c3a;stroke-width:150;stroke-dasharray:none" d="m 7800,-3650 c 0,119.3475 -102.723,233.8065 -285.5715,318.198 -182.847,84.3915 -430.842,131.802 -689.4285,131.802 -258.5865,0 -506.5815,-47.4105 -689.4285,-131.802 C 5952.723,-3416.1935 5850,-3530.6525 5850,-3650" transform="matrix(0.1,0,0,0.1,-65107.5,-34322.5)"/> <path id="path113-6-5-7-8-2-6-6" style="fill:none;stroke:#228c3a;stroke-width:150;stroke-dasharray:none" d="m 7800,-3200 c 0,119.3475 -102.723,233.8065 -285.5715,318.198 -182.847,84.3915 -430.842,131.802 -689.4285,131.802 -258.5865,0 -506.5815,-47.4105 -689.4285,-131.802 C 5952.723,-2966.1935 5850,-3080.6525 5850,-3200" transform="matrix(0.1,0,0,0.1,-65107.5,-34322.5)"/> <path id="path113-6-5-2-5-3-8-0" style="fill:none;stroke:#228c3a;stroke-width:150;stroke-dasharray:none" d="m 7800,-2300 c 0,119.3475 -102.723,233.8065 -285.5715,318.198 -182.847,84.3915 -430.842,131.802 -689.4285,131.802 -258.5865,0 -506.5815,-47.4105 -689.4285,-131.802 C 5952.723,-2066.1935 5850,-2180.6525 5850,-2300" transform="matrix(0.1,0,0,0.1,-65107.5,-34322.5)"/> <path id="path113-6-5-5-4-1-7-9" style="fill:none;stroke:#228c3a;stroke-width:150;stroke-dasharray:none" d="m 7800,-2750 c 0,119.3475 -102.723,233.8065 -285.5715,318.198 -182.847,84.3915 -430.842,131.802 -689.4285,131.802 -258.5865,0 -506.5815,-47.4105 -689.4285,-131.802 C 5952.723,-2516.1935 5850,-2630.6525 5850,-2750" transform="matrix(0.1,0,0,0.1,-65107.5,-34322.5)"/> <path style="fill:none;stroke:#228c3a;stroke-width:150;stroke-linecap:butt;stroke-linejoin:miter;stroke-dasharray:none;stroke-opacity:1" d="m 5850,-4100 v 1800" id="path7129-9-9-4-61" transform="matrix(0.1,0,0,0.10055556,-65107.5,-34320.722)"/> <path style="fill:none;stroke:#228c3a;stroke-width:150;stroke-linecap:butt;stroke-linejoin:miter;stroke-dasharray:none;stroke-opacity:1" d="m 7800,-4100 v 1800" id="path7129-0-8-9-3-5" transform="matrix(0.1,0,0,0.10055556,-65107.5,-34320.722)"/> </g> <path style="fill:none;stroke:#228c3a;stroke-width:250;stroke-linecap:round;stroke-linejoin:round;stroke-dasharray:2000, 500, 250, 500;stroke-dashoffset:0;stroke-opacity:1" d="m -38775,-29025 c 0,-508.333 0,-1016.657 -1745.829,-1270.829 C -42266.657,-30550 -45758.333,-30550 -49250,-30550" id="path20643-3-8" transform="matrix(0.1,0,0,0.1,-60547.5,-31882.5)"/> </g> </g> <g id="g641" style="stroke:#13889b;stroke-opacity:1"> <path id="path113-3-8-9" style="fill:none;stroke:#13889b;stroke-width:250;stroke-dasharray:none;stroke-opacity:1" d="M 3250,-3000 A 3250,1500 0 0 1 0,-1500 3250,1500 0 0 1 -3250,-3000 3250,1500 0 0 1 0,-4500 3250,1500 0 0 1 3250,-3000 Z" transform="matrix(0.1,0,0,0.1,-65797.5,-34962.5)"/> <path id="path113-6-5-4-9-4-7" style="fill:none;stroke:#13889b;stroke-width:250;stroke-dasharray:none;stroke-opacity:1" d="m 3250,-1500 c 0,397.825 -342.41,779.355 -951.905,1060.66 C 1688.605,-158.035 861.955,0 0,0 -861.955,0 -1688.605,-158.035 -2298.095,-439.34 -2907.59,-720.645 -3250,-1102.175 -3250,-1500" transform="matrix(0.1,0,0,0.1,-65797.5,-34962.5)"/> <path id="path113-6-5-7-8-3-8" style="fill:none;stroke:#13889b;stroke-width:250;stroke-dasharray:none;stroke-opacity:1" d="m 3250,0 c 0,397.825 -342.41,779.355 -951.905,1060.66 C 1688.605,1341.965 861.955,1500 0,1500 -861.955,1500 -1688.605,1341.965 -2298.095,1060.66 -2907.59,779.355 -3250,397.825 -3250,0" transform="matrix(0.1,0,0,0.1,-65797.5,-34962.5)"/> <path id="path113-6-5-2-5-1-2" style="fill:none;stroke:#13889b;stroke-width:250;stroke-dasharray:none;stroke-opacity:1" d="m 3250,3000 c 0,397.825 -342.41,779.355 -951.905,1060.66 C 1688.605,4341.965 861.955,4500 0,4500 -861.955,4500 -1688.605,4341.965 -2298.095,4060.66 -2907.59,3779.355 -3250,3397.825 -3250,3000" transform="matrix(0.1,0,0,0.1,-65797.5,-34962.5)"/> <path id="path113-6-5-5-4-8-54" style="fill:none;stroke:#13889b;stroke-width:250;stroke-dasharray:none;stroke-opacity:1" d="m 3250,1500 c 0,397.825 -342.41,779.355 -951.905,1060.66 C 1688.605,2841.965 861.955,3000 0,3000 -861.955,3000 -1688.605,2841.965 -2298.095,2560.66 -2907.59,2279.355 -3250,1897.825 -3250,1500" transform="matrix(0.1,0,0,0.1,-65797.5,-34962.5)"/> <path style="fill:none;stroke:#13889b;stroke-width:250;stroke-linecap:butt;stroke-linejoin:miter;stroke-dasharray:none;stroke-opacity:1" d="M -3250,-3000 V 3000" id="path7129-9-2-2" transform="matrix(0.1,0,0,0.1005,-65797.5,-34962.5)"/> <path style="fill:none;stroke:#13889b;stroke-width:250;stroke-linecap:butt;stroke-linejoin:miter;stroke-dasharray:none;stroke-opacity:1" d="M 3250,-3000 V 3000" id="path7129-0-8-4-7" transform="matrix(0.1,0,0,0.1005,-65797.5,-34962.5)"/> </g> </g> </g> </svg>