<?xml version="1.0" encoding="UTF-8"?>
<svg version="1.1" viewBox="0 0 130.21 130.01" xmlns="http://www.w3.org/2000/svg" xmlns:xlink="http://www.w3.org/1999/xlink" width="265" height="150">
<defs>
<linearGradient id="c" x1="333.48" x2="477" y1="702.6" y2="563.73" gradientTransform="matrix(.99206 0 0 .99206 94.038 276.06)" gradientUnits="userSpaceOnUse">
<stop stop-color="#F69923" offset="0"/>
<stop stop-color="#F79A23" offset=".10996"/>
<stop stop-color="#E97826" offset=".94502"/>
</linearGradient>
<linearGradient id="b" x1="333.48" x2="477" y1="702.6" y2="563.73" gradientTransform="matrix(.99206 0 0 .99206 94.038 276.06)" gradientUnits="userSpaceOnUse">
<stop stop-color="#F69923" offset="0"/>
<stop stop-color="#F79A23" offset=".080478"/>
<stop stop-color="#E97826" offset=".41874"/>
</linearGradient>
<linearGradient id="a" x1="633.55" x2="566.47" y1="814.6" y2="909.12" gradientTransform="translate(-85.421 56.236)" gradientUnits="userSpaceOnUse">
<stop stop-color="#f6e423" offset="0"/>
<stop stop-color="#F79A23" offset=".41191"/>
<stop stop-color="#E97826" offset=".73271"/>
</linearGradient>
</defs>
<g transform="translate(-486.89 -835.29)">
<circle cx="503.1" cy="900.29" r="62.52" fill="url(#c)" stroke="url(#b)" stroke-linejoin="round" stroke-width="4.9603"/>
<path d="m487.89 873.64c-0.88906-1e-3 -1.7897 5e-3 -2.6875 0.0312-1.0437 0.0308-2.4459 0.36218-4.0625 0.90625 27.309 20.737 37.127 58.146 20.25 90.656 0.57317 0.0149 1.142 0.0625 1.7188 0.0625 30.844 0 56.62-21.493 63.281-50.312-19.573-22.943-46.118-41.294-78.5-41.344z" fill="url(#a)" opacity=".75"/>
<path d="m481.14 874.58c-9.0682 3.0518-26.368 13.802-43 28.156 1.2631 34.195 28.961 61.607 63.25 62.5 16.877-32.51 7.0594-69.919-20.25-90.656z" fill="#28170b" opacity=".75"/>
<g transform="translate(-85.421 56.236)">
<path d="m590.31 806.31c-0.47239-0.0321-0.93151 0.0284-1.375 0.25-5.5992 2.8011 0 14 0 14-16.807 14.009-13.236 37.938-32.844 37.938-10.689 0-21.322-12.293-32.531-19.812-0.1443 1.7733-0.25 3.5645-0.25 5.375 0 24.515 13.51 45.863 33.469 57.063 5.5828-0.70321 11.158-2.1139 15.344-4.9062 21.992-14.662 27.452-42.557 36.438-56.031 5.5962-8.4063 31.824-7.6769 33.594-11.219 2.8041-5.6022-5.6021-14-8.4062-14h-22.406c-1.5655 0-4.0253-2.7812-5.5938-2.7812h-8.4062s-3.7245-5.6503-7.0312-5.875z" fill="#fff"/>
</g>
</g>

<g viewBox="0 0 65.184 105.833" transform="translate(96.3 9.3)">
<path d="M51.387 58.618c-4.121 0-7.816 1.826-10.346 4.701l-6.484-4.59a17.701 17.701 0 001.084-6.06 17.7 17.7 0 00-1.047-5.96l6.469-4.54c2.53 2.86 6.215 4.676 10.324 4.676 7.607 0 13.797-6.189 13.797-13.797 0-7.608-6.19-13.796-13.797-13.796S37.591 25.44 37.591 33.048c0 1.362.205 2.675.575 3.919l-6.474 4.543a17.809 17.809 0 00-11.033-6.412v-7.802c6.25-1.312 10.958-6.865 10.958-13.5C31.617 6.19 25.427 0 17.82 0S4.024 6.189 4.024 13.797c0 6.545 4.587 12.03 10.711 13.436v7.903C6.377 36.603 0 43.897 0 52.67c0 8.815 6.44 16.136 14.859 17.554v8.345C8.67 79.929 4.024 85.446 4.024 92.037c0 7.608 6.19 13.796 13.796 13.796 7.607 0 13.797-6.188 13.797-13.796 0-6.59-4.648-12.108-10.835-13.468v-8.346a17.815 17.815 0 0010.847-6.308l6.527 4.62a13.73 13.73 0 00-.565 3.88c0 7.608 6.19 13.797 13.796 13.797 7.607 0 13.797-6.19 13.797-13.797 0-7.608-6.19-13.797-13.797-13.797zm0-32.26a6.697 6.697 0 016.69 6.69c0 3.688-3.001 6.69-6.69 6.69a6.697 6.697 0 01-6.689-6.69c0-3.688 3-6.69 6.69-6.69zM11.131 13.798c0-3.688 3-6.69 6.69-6.69a6.697 6.697 0 016.688 6.69c0 3.687-3 6.688-6.689 6.688a6.697 6.697 0 01-6.689-6.688zm13.378 78.24c0 3.688-3 6.689-6.689 6.689a6.697 6.697 0 01-6.689-6.69c0-3.687 3-6.688 6.69-6.688a6.697 6.697 0 016.688 6.689zm-6.69-30.038c-5.144 0-9.33-4.185-9.33-9.33 0-5.144 4.186-9.329 9.33-9.329 5.145 0 9.33 4.185 9.33 9.33 0 5.144-4.185 9.329-9.33 9.329zm33.568 17.105a6.697 6.697 0 01-6.689-6.689c0-3.688 3-6.689 6.69-6.689a6.697 6.697 0 016.688 6.689c0 3.688-3 6.69-6.689 6.69z" stroke-width=".255"/>
</g>
</svg>
