<svg version="1.1" viewBox="0.0 0.0 302.0 191.0" fill="none" stroke="none" stroke-linecap="square" stroke-miterlimit="10" width="302" height="191" xmlns:xlink="http://www.w3.org/1999/xlink" xmlns="http://www.w3.org/2000/svg"><path fill="#ffffff" d="M0 0L302.0 0L302.0 191.0L0 191.0L0 0Z" fill-rule="nonzero"/><path fill="#ea4335" d="M151.0 9.55C186.95598 9.55 219.11209 31.931314 231.5998 65.64912L151.0 95.5Z" fill-rule="nonzero"/><path fill="#6aa84f" d="M231.5998 65.64912C244.64355 100.868324 233.30972 140.47827 203.6105 163.46718C173.9113 186.45607 132.72496 187.49977 101.8995 166.04462C71.074036 144.58946 57.74853 105.6044 68.99173 69.76974C80.23493 33.935074 113.44294 9.55 151.0 9.55L151.0 95.5Z" fill-rule="nonzero"/><path fill="#1a1a1a" d="M10.534375 158.01738L10.534375 149.42363L16.33125 149.42363L16.33125 150.43925L11.675 150.43925L11.675 153.0955L15.70625 153.0955L15.70625 154.11113L11.675 154.11113L11.675 158.01738L10.534375 158.01738ZM21.409374 157.25175Q20.815624 157.75175 20.26875 157.95488Q19.7375 158.158 19.1125 158.158Q18.08125 158.158 17.534374 157.658Q16.9875 157.158 16.9875 156.37675Q16.9875 155.92363 17.190624 155.54863Q17.39375 155.158 17.7375 154.93925Q18.08125 154.70488 18.503124 154.5955Q18.8 154.50175 19.440624 154.42363Q20.70625 154.283 21.315624 154.06425Q21.315624 153.8455 21.315624 153.79863Q21.315624 153.14238 21.01875 152.87675Q20.6125 152.533 19.815624 152.533Q19.08125 152.533 18.721874 152.79863Q18.3625 153.04863 18.190624 153.70488L17.159374 153.56425Q17.3 152.908 17.628124 152.50175Q17.95625 152.0955 18.565624 151.87675Q19.175 151.658 19.971874 151.658Q20.76875 151.658 21.26875 151.8455Q21.76875 152.033 22.003124 152.31425Q22.2375 152.5955 22.33125 153.033Q22.378124 153.29863 22.378124 154.00175L22.378124 155.408Q22.378124 156.87675 22.440624 157.26738Q22.51875 157.658 22.721874 158.01738L21.6125 158.01738Q21.45625 157.68925 21.409374 157.25175ZM21.315624 154.89238Q20.7375 155.12675 19.596874 155.29863Q18.940624 155.39238 18.675 155.51738Q18.409374 155.62675 18.253124 155.8455Q18.1125 156.06425 18.1125 156.3455Q18.1125 156.76738 18.425 157.04863Q18.753124 157.32988 19.3625 157.32988Q19.971874 157.32988 20.440624 157.06425Q20.925 156.79863 21.14375 156.32988Q21.315624 155.9705 21.315624 155.283L21.315624 154.89238ZM23.925 156.158L24.95625 156.00175Q25.05 156.62675 25.440624 156.95488Q25.846874 157.283 26.58125 157.283Q27.3 157.283 27.64375 157.00175Q28.003124 156.70488 28.003124 156.29863Q28.003124 155.93925 27.690624 155.73613Q27.471874 155.5955 26.6125 155.37675Q25.45625 155.07988 25.003124 154.87675Q24.565624 154.658 24.33125 154.283Q24.096874 153.908 24.096874 153.43925Q24.096874 153.033 24.284374 152.67363Q24.471874 152.31425 24.8 152.07988Q25.05 151.908 25.471874 151.783Q25.89375 151.658 26.39375 151.658Q27.1125 151.658 27.659374 151.87675Q28.221874 152.07988 28.4875 152.43925Q28.753124 152.79863 28.846874 153.39238L27.815624 153.533Q27.753124 153.06425 27.409374 152.79863Q27.08125 152.51738 26.45625 152.51738Q25.7375 152.51738 25.425 152.76738Q25.1125 153.00175 25.1125 153.32988Q25.1125 153.533 25.2375 153.68925Q25.378124 153.86113 25.64375 153.9705Q25.8 154.033 26.58125 154.23613Q27.70625 154.54863 28.14375 154.73613Q28.58125 154.92363 28.83125 155.283Q29.08125 155.64238 29.08125 156.18925Q29.08125 156.7205 28.76875 157.18925Q28.471874 157.64238 27.89375 157.908Q27.315624 158.158 26.58125 158.158Q25.3625 158.158 24.721874 157.658Q24.096874 157.14238 23.925 156.158ZM33.64375 157.07988L33.8 158.00175Q33.346874 158.0955 33.003124 158.0955Q32.425 158.0955 32.1125 157.92363Q31.8 157.73613 31.659374 157.43925Q31.534374 157.14238 31.534374 156.18925L31.534374 152.61113L30.76875 152.61113L30.76875 151.79863L31.534374 151.79863L31.534374 150.25175L32.58125 149.62675L32.58125 151.79863L33.64375 151.79863L33.64375 152.61113L32.58125 152.61113L32.58125 156.25175Q32.58125 156.70488 32.628124 156.82988Q32.690624 156.95488 32.815624 157.033Q32.940624 157.11113 33.175 157.11113Q33.3625 157.11113 33.64375 157.07988ZM38.596874 156.01738L39.690624 156.14238Q39.440624 157.0955 38.7375 157.62675Q38.034374 158.158 36.95625 158.158Q35.596874 158.158 34.784374 157.31425Q33.9875 156.4705 33.9875 154.95488Q33.9875 153.39238 34.8 152.533Q35.6125 151.658 36.89375 151.658Q38.14375 151.658 38.925 152.50175Q39.721874 153.3455 39.721874 154.89238Q39.721874 154.98613 39.721874 155.17363L35.08125 155.17363Q35.14375 156.20488 35.659374 156.75175Q36.175 157.283 36.95625 157.283Q37.534374 157.283 37.940624 156.98613Q38.3625 156.67363 38.596874 156.01738ZM35.14375 154.31425L38.6125 154.31425Q38.55 153.51738 38.221874 153.12675Q37.70625 152.51738 36.909374 152.51738Q36.175 152.51738 35.675 153.00175Q35.190624 153.48613 35.14375 154.31425ZM41.33125 158.01738L41.33125 151.79863L42.284374 151.79863L42.284374 152.73613Q42.64375 152.07988 42.940624 151.87675Q43.253124 151.658 43.628124 151.658Q44.159374 151.658 44.70625 151.98613L44.346874 152.9705Q43.95625 152.73613 43.58125 152.73613Q43.221874 152.73613 42.940624 152.95488Q42.675 153.158 42.565624 153.533Q42.378124 154.0955 42.378124 154.75175L42.378124 158.01738L41.33125 158.01738Z" fill-rule="nonzero"/><path fill="#9e9e9e" d="M11.675 170.36113Q11.01875 170.11113 10.690625 169.67363Q10.378125 169.2205 10.378125 168.61113Q10.378125 167.67363 11.05 167.033Q11.7375 166.39238 12.846875 166.39238Q13.971875 166.39238 14.659375 167.04863Q15.346875 167.70488 15.346875 168.64238Q15.346875 169.23613 15.034375 169.67363Q14.721875 170.11113 14.08125 170.36113Q14.878125 170.61113 15.284375 171.18925Q15.690625 171.76738 15.690625 172.56425Q15.690625 173.658 14.909375 174.408Q14.14375 175.158 12.8625 175.158Q11.596875 175.158 10.815625 174.408Q10.034375 173.658 10.034375 172.533Q10.034375 171.68925 10.45625 171.12675Q10.89375 170.56425 11.675 170.36113ZM11.45625 168.56425Q11.45625 169.17363 11.846875 169.56425Q12.253125 169.95488 12.878125 169.95488Q13.4875 169.95488 13.878125 169.57988Q14.26875 169.18925 14.26875 168.62675Q14.26875 168.04863 13.8625 167.658Q13.45625 167.25175 12.8625 167.25175Q12.253125 167.25175 11.846875 167.64238Q11.45625 168.033 11.45625 168.56425ZM11.128125 172.533Q11.128125 172.98613 11.33125 173.408Q11.55 173.82988 11.971875 174.06425Q12.39375 174.29863 12.878125 174.29863Q13.628125 174.29863 14.1125 173.81425Q14.6125 173.32988 14.6125 172.57988Q14.6125 171.81425 14.1125 171.31425Q13.6125 170.81425 12.846875 170.81425Q12.096875 170.81425 11.6125 171.31425Q11.128125 171.79863 11.128125 172.533ZM17.05 170.783Q17.05 169.25175 17.3625 168.32988Q17.675 167.39238 18.284374 166.89238Q18.909374 166.39238 19.846874 166.39238Q20.534374 166.39238 21.05 166.67363Q21.58125 166.95488 21.925 167.48613Q22.26875 168.00175 22.45625 168.75175Q22.64375 169.50175 22.64375 170.783Q22.64375 172.29863 22.33125 173.2205Q22.034374 174.14238 21.409374 174.658Q20.8 175.158 19.846874 175.158Q18.6125 175.158 17.89375 174.26738Q17.05 173.20488 17.05 170.783ZM18.128124 170.783Q18.128124 172.89238 18.628124 173.5955Q19.128124 174.29863 19.846874 174.29863Q20.58125 174.29863 21.065624 173.5955Q21.565624 172.89238 21.565624 170.783Q21.565624 168.658 21.065624 167.9705Q20.58125 167.26738 19.83125 167.26738Q19.1125 167.26738 18.675 167.87675Q18.128124 168.658 18.128124 170.783ZM24.64375 175.01738L24.64375 173.81425L25.846874 173.81425L25.846874 175.01738L24.64375 175.01738ZM32.51875 168.533L31.471874 168.61113Q31.33125 167.98613 31.08125 167.70488Q30.64375 167.25175 30.01875 167.25175Q29.51875 167.25175 29.128124 167.533Q28.64375 167.908 28.346874 168.61113Q28.065624 169.29863 28.05 170.57988Q28.425 170.00175 28.971874 169.7205Q29.534374 169.43925 30.14375 169.43925Q31.190624 169.43925 31.925 170.2205Q32.675 171.00175 32.675 172.2205Q32.675 173.033 32.315624 173.73613Q31.971874 174.42363 31.3625 174.79863Q30.753124 175.158 29.9875 175.158Q28.659374 175.158 27.83125 174.18925Q27.003124 173.2205 27.003124 171.00175Q27.003124 168.50175 27.925 167.37675Q28.721874 166.39238 30.08125 166.39238Q31.096874 166.39238 31.7375 166.9705Q32.39375 167.533 32.51875 168.533ZM28.221874 172.23613Q28.221874 172.783 28.440624 173.283Q28.675 173.76738 29.08125 174.033Q29.503124 174.29863 29.971874 174.29863Q30.628124 174.29863 31.1125 173.76738Q31.596874 173.2205 31.596874 172.29863Q31.596874 171.408 31.1125 170.89238Q30.64375 170.37675 29.925 170.37675Q29.20625 170.37675 28.70625 170.89238Q28.221874 171.408 28.221874 172.23613ZM34.253124 168.48613Q34.253124 167.56425 34.70625 166.92363Q35.175 166.283 36.05 166.283Q36.8625 166.283 37.39375 166.86113Q37.925 167.43925 37.925 168.54863Q37.925 169.64238 37.378124 170.23613Q36.846874 170.81425 36.065624 170.81425Q35.284374 170.81425 34.76875 170.23613Q34.253124 169.658 34.253124 168.48613ZM36.08125 167.00175Q35.690624 167.00175 35.425 167.3455Q35.175 167.68925 35.175 168.5955Q35.175 169.42363 35.425 169.76738Q35.690624 170.0955 36.08125 170.0955Q36.4875 170.0955 36.7375 169.75175Q37.003124 169.408 37.003124 168.51738Q37.003124 167.67363 36.7375 167.3455Q36.471874 167.00175 36.08125 167.00175ZM36.08125 175.32988L40.784374 166.283L41.64375 166.283L36.95625 175.32988L36.08125 175.32988ZM39.8 173.00175Q39.8 172.07988 40.253124 171.43925Q40.721874 170.79863 41.6125 170.79863Q42.425 170.79863 42.95625 171.37675Q43.4875 171.93925 43.4875 173.06425Q43.4875 174.158 42.940624 174.75175Q42.409374 175.32988 41.6125 175.32988Q40.846874 175.32988 40.315624 174.75175Q39.8 174.17363 39.8 173.00175ZM41.64375 171.51738Q41.2375 171.51738 40.971874 171.86113Q40.721874 172.20488 40.721874 173.11113Q40.721874 173.92363 40.9875 174.26738Q41.253124 174.61113 41.64375 174.61113Q42.034374 174.61113 42.3 174.26738Q42.565624 173.92363 42.565624 173.01738Q42.565624 172.18925 42.3 171.86113Q42.034374 171.51738 41.64375 171.51738Z" fill-rule="nonzero"/><path stroke="#757575" stroke-width="1.0" stroke-linecap="butt" d="M9.55 162.51738L59.05 162.51738L104.35452 162.51738" fill-rule="nonzero"/><path fill="#9e9e9e" d="M106.35452 162.51738C106.35452 161.41281 105.45909 160.51738 104.35452 160.51738C103.249954 160.51738 102.35452 161.41281 102.35452 162.51738C102.35452 163.62196 103.249954 164.51738 104.35452 164.51738C105.45909 164.51738 106.35452 163.62196 106.35452 162.51738" fill-rule="nonzero"/><path fill="#1a1a1a" d="M254.99687 21.216988L256.0594 21.123238Q256.1375 21.779488 256.41876 22.185738Q256.7 22.591988 257.27814 22.857613Q257.8719 23.107613 258.60626 23.107613Q259.2469 23.107613 259.7469 22.920113Q260.2469 22.716988 260.48126 22.388863Q260.73126 22.045113 260.73126 21.654488Q260.73126 21.248238 260.4969 20.951363Q260.2625 20.638863 259.73126 20.435738Q259.3719 20.295113 258.1844 20.013863Q257.0125 19.732613 256.54376 19.482613Q255.91875 19.154488 255.62187 18.685738Q255.325 18.201363 255.325 17.607613Q255.325 16.966988 255.68437 16.404488Q256.0594 15.826363 256.7625 15.545113Q257.48126 15.248238 258.34064 15.248238Q259.29376 15.248238 260.02814 15.560738Q260.7625 15.857613 261.15314 16.466988Q261.54376 17.060738 261.575 17.810738L260.48126 17.888863Q260.3875 17.076363 259.8719 16.670113Q259.3719 16.248238 258.3875 16.248238Q257.35626 16.248238 256.8875 16.623238Q256.41876 16.998238 256.41876 17.529488Q256.41876 17.998238 256.7469 18.295113Q257.075 18.591988 258.45 18.904488Q259.84064 19.216988 260.35626 19.451363Q261.10626 19.810738 261.46564 20.341988Q261.825 20.857613 261.825 21.560738Q261.825 22.248238 261.4344 22.857613Q261.04376 23.451363 260.3094 23.795113Q259.575 24.123238 258.65314 24.123238Q257.48126 24.123238 256.6844 23.795113Q255.90312 23.451363 255.45 22.763863Q255.0125 22.076363 254.99687 21.216988ZM263.21564 23.982613L263.21564 15.388863L264.27814 15.388863L264.27814 23.982613L263.21564 23.982613ZM265.85626 20.873238Q265.85626 19.138863 266.8094 18.310738Q267.60626 17.623238 268.7625 17.623238Q270.04376 17.623238 270.85626 18.466988Q271.6844 19.295113 271.6844 20.779488Q271.6844 21.982613 271.325 22.670113Q270.96564 23.357613 270.2625 23.748238Q269.575 24.123238 268.7625 24.123238Q267.46564 24.123238 266.65314 23.295113Q265.85626 22.451363 265.85626 20.873238ZM266.9344 20.873238Q266.9344 22.060738 267.45 22.654488Q267.98126 23.248238 268.7625 23.248238Q269.5594 23.248238 270.075 22.654488Q270.59064 22.060738 270.59064 20.841988Q270.59064 19.685738 270.0594 19.091988Q269.54376 18.498238 268.7625 18.498238Q267.98126 18.498238 267.45 19.091988Q266.9344 19.670113 266.9344 20.873238ZM274.3875 23.982613L272.48126 17.763863L273.575 17.763863L274.5594 21.357613L274.9344 22.685738Q274.96564 22.591988 275.2625 21.404488L276.2469 17.763863L277.325 17.763863L278.2625 21.373238L278.575 22.560738L278.9344 21.357613L279.9969 17.763863L281.02814 17.763863L279.075 23.982613L277.98126 23.982613L276.9969 20.248238L276.7469 19.201363L275.4969 23.982613L274.3875 23.982613ZM286.4969 21.982613L287.59064 22.107613Q287.34064 23.060738 286.6375 23.591988Q285.9344 24.123238 284.85626 24.123238Q283.4969 24.123238 282.6844 23.279488Q281.8875 22.435738 281.8875 20.920113Q281.8875 19.357613 282.7 18.498238Q283.5125 17.623238 284.79376 17.623238Q286.04376 17.623238 286.825 18.466988Q287.6219 19.310738 287.6219 20.857613Q287.6219 20.951363 287.6219 21.138863L282.98126 21.138863Q283.04376 22.170113 283.5594 22.716988Q284.075 23.248238 284.85626 23.248238Q285.4344 23.248238 285.84064 22.951363Q286.2625 22.638863 286.4969 21.982613ZM283.04376 20.279488L286.5125 20.279488Q286.45 19.482613 286.1219 19.091988Q285.60626 18.482613 284.8094 18.482613Q284.075 18.482613 283.575 18.966988Q283.09064 19.451363 283.04376 20.279488ZM289.23126 23.982613L289.23126 17.763863L290.1844 17.763863L290.1844 18.701363Q290.54376 18.045113 290.84064 17.841988Q291.15314 17.623238 291.52814 17.623238Q292.0594 17.623238 292.60626 17.951363L292.2469 18.935738Q291.85626 18.701363 291.48126 18.701363Q291.1219 18.701363 290.84064 18.920113Q290.575 19.123238 290.46564 19.498238Q290.27814 20.060738 290.27814 20.716988L290.27814 23.982613L289.23126 23.982613Z" fill-rule="nonzero"/><path fill="#9e9e9e" d="M261.91876 40.982613L260.8719 40.982613L260.8719 34.263863Q260.48126 34.623238 259.85626 34.998238Q259.2469 35.357613 258.7625 35.529488L258.7625 34.513863Q259.6375 34.091988 260.29376 33.513863Q260.96564 32.920113 261.2469 32.357613L261.91876 32.357613L261.91876 40.982613ZM265.10626 38.998238L266.1219 38.904488Q266.2469 39.623238 266.60626 39.951363Q266.98126 40.263863 267.54376 40.263863Q268.02814 40.263863 268.3875 40.045113Q268.7625 39.810738 268.9969 39.451363Q269.23126 39.076363 269.3875 38.451363Q269.54376 37.810738 269.54376 37.154488Q269.54376 37.076363 269.54376 36.935738Q269.23126 37.435738 268.6844 37.763863Q268.1375 38.076363 267.4969 38.076363Q266.41876 38.076363 265.6844 37.310738Q264.95 36.529488 264.95 35.263863Q264.95 33.951363 265.71564 33.154488Q266.4969 32.357613 267.65314 32.357613Q268.48126 32.357613 269.16876 32.810738Q269.8719 33.263863 270.23126 34.107613Q270.59064 34.935738 270.59064 36.513863Q270.59064 38.154488 270.23126 39.138863Q269.8875 40.107613 269.16876 40.623238Q268.46564 41.123238 267.52814 41.123238Q266.5125 41.123238 265.8719 40.576363Q265.23126 40.013863 265.10626 38.998238ZM269.41876 35.201363Q269.41876 34.295113 268.9344 33.763863Q268.46564 33.232613 267.77814 33.232613Q267.075 33.232613 266.54376 33.810738Q266.02814 34.373238 266.02814 35.295113Q266.02814 36.107613 266.52814 36.623238Q267.02814 37.138863 267.7469 37.138863Q268.48126 37.138863 268.95 36.623238Q269.41876 36.107613 269.41876 35.201363ZM272.54376 40.982613L272.54376 39.779488L273.7469 39.779488L273.7469 40.982613L272.54376 40.982613ZM278.325 40.982613L278.325 38.920113L274.60626 38.920113L274.60626 37.951363L278.52814 32.388863L279.3875 32.388863L279.3875 37.951363L280.54376 37.951363L280.54376 38.920113L279.3875 38.920113L279.3875 40.982613L278.325 40.982613ZM278.325 37.951363L278.325 34.091988L275.6375 37.951363L278.325 37.951363ZM282.15314 34.451363Q282.15314 33.529488 282.60626 32.888863Q283.075 32.248238 283.95 32.248238Q284.7625 32.248238 285.29376 32.826363Q285.825 33.404488 285.825 34.513863Q285.825 35.607613 285.27814 36.201363Q284.7469 36.779488 283.96564 36.779488Q283.1844 36.779488 282.66876 36.201363Q282.15314 35.623238 282.15314 34.451363ZM283.98126 32.966988Q283.59064 32.966988 283.325 33.310738Q283.075 33.654488 283.075 34.560738Q283.075 35.388863 283.325 35.732613Q283.59064 36.060738 283.98126 36.060738Q284.3875 36.060738 284.6375 35.716988Q284.90314 35.373238 284.90314 34.482613Q284.90314 33.638863 284.6375 33.310738Q284.3719 32.966988 283.98126 32.966988ZM283.98126 41.295113L288.6844 32.248238L289.54376 32.248238L284.85626 41.295113L283.98126 41.295113ZM287.7 38.966988Q287.7 38.045113 288.15314 37.404488Q288.6219 36.763863 289.5125 36.763863Q290.325 36.763863 290.85626 37.341988Q291.3875 37.904488 291.3875 39.029488Q291.3875 40.123238 290.84064 40.716988Q290.3094 41.295113 289.5125 41.295113Q288.7469 41.295113 288.21564 40.716988Q287.7 40.138863 287.7 38.966988ZM289.54376 37.482613Q289.1375 37.482613 288.8719 37.826363Q288.6219 38.170113 288.6219 39.076363Q288.6219 39.888863 288.8875 40.232613Q289.15314 40.576363 289.54376 40.576363Q289.9344 40.576363 290.2 40.232613Q290.46564 39.888863 290.46564 38.982613Q290.46564 38.154488 290.2 37.826363Q289.9344 37.482613 289.54376 37.482613Z" fill-rule="nonzero"/><path stroke="#757575" stroke-width="1.0" stroke-linecap="butt" d="M292.45 28.482613L242.95 28.482613L197.64548 28.482613" fill-rule="nonzero"/><path fill="#9e9e9e" d="M199.64548 28.482613C199.64548 27.378044 198.75005 26.482613 197.64548 26.482613C196.54091 26.482613 195.64548 27.378044 195.64548 28.482613C195.64548 29.587183 196.54091 30.482613 197.64548 30.482613C198.75005 30.482613 199.64548 29.587183 199.64548 28.482613" fill-rule="nonzero"/></svg>