<svg version="1.1" viewBox="0.0 0.0 302.0 191.0" fill="none" stroke="none" stroke-linecap="square" stroke-miterlimit="10" width="302" height="191" xmlns:xlink="http://www.w3.org/1999/xlink" xmlns="http://www.w3.org/2000/svg"><path fill="#ffffff" d="M0 0L302.0 0L302.0 191.0L0 191.0L0 0Z" fill-rule="nonzero"/><path fill="#ea4335" d="M151.0 9.55C188.2358 9.55 221.23682 33.52664 232.7433 68.93999L151.0 95.5Z" fill-rule="nonzero"/><path fill="#6aa84f" d="M232.7433 68.93999C244.2498 104.35334 231.64453 143.14836 201.52014 165.035C171.39575 186.92166 130.60425 186.92166 100.47986 165.035C70.35546 143.14836 57.7502 104.35334 69.25669 68.93999C80.76318 33.52664 113.764206 9.55 151.0 9.55L151.0 95.5Z" fill-rule="nonzero"/><path fill="#1a1a1a" d="M10.534375 157.05826L10.534375 148.46451L16.33125 148.46451L16.33125 149.48013L11.675 149.48013L11.675 152.13638L15.70625 152.13638L15.70625 153.15201L11.675 153.15201L11.675 157.05826L10.534375 157.05826ZM21.409374 156.29263Q20.815624 156.79263 20.26875 156.99576Q19.7375 157.19888 19.1125 157.19888Q18.08125 157.19888 17.534374 156.69888Q16.9875 156.19888 16.9875 155.41763Q16.9875 154.96451 17.190624 154.58951Q17.39375 154.19888 17.7375 153.98013Q18.08125 153.74576 18.503124 153.63638Q18.8 153.54263 19.440624 153.46451Q20.70625 153.32388 21.315624 153.10513Q21.315624 152.88638 21.315624 152.83951Q21.315624 152.18326 21.01875 151.91763Q20.6125 151.57388 19.815624 151.57388Q19.08125 151.57388 18.721874 151.83951Q18.3625 152.08951 18.190624 152.74576L17.159374 152.60513Q17.3 151.94888 17.628124 151.54263Q17.95625 151.13638 18.565624 150.91763Q19.175 150.69888 19.971874 150.69888Q20.76875 150.69888 21.26875 150.88638Q21.76875 151.07388 22.003124 151.35513Q22.2375 151.63638 22.33125 152.07388Q22.378124 152.33951 22.378124 153.04263L22.378124 154.44888Q22.378124 155.91763 22.440624 156.30826Q22.51875 156.69888 22.721874 157.05826L21.6125 157.05826Q21.45625 156.73013 21.409374 156.29263ZM21.315624 153.93326Q20.7375 154.16763 19.596874 154.33951Q18.940624 154.43326 18.675 154.55826Q18.409374 154.66763 18.253124 154.88638Q18.1125 155.10513 18.1125 155.38638Q18.1125 155.80826 18.425 156.08951Q18.753124 156.37076 19.3625 156.37076Q19.971874 156.37076 20.440624 156.10513Q20.925 155.83951 21.14375 155.37076Q21.315624 155.01138 21.315624 154.32388L21.315624 153.93326ZM23.925 155.19888L24.95625 155.04263Q25.05 155.66763 25.440624 155.99576Q25.846874 156.32388 26.58125 156.32388Q27.3 156.32388 27.64375 156.04263Q28.003124 155.74576 28.003124 155.33951Q28.003124 154.98013 27.690624 154.77701Q27.471874 154.63638 26.6125 154.41763Q25.45625 154.12076 25.003124 153.91763Q24.565624 153.69888 24.33125 153.32388Q24.096874 152.94888 24.096874 152.48013Q24.096874 152.07388 24.284374 151.71451Q24.471874 151.35513 24.8 151.12076Q25.05 150.94888 25.471874 150.82388Q25.89375 150.69888 26.39375 150.69888Q27.1125 150.69888 27.659374 150.91763Q28.221874 151.12076 28.4875 151.48013Q28.753124 151.83951 28.846874 152.43326L27.815624 152.57388Q27.753124 152.10513 27.409374 151.83951Q27.08125 151.55826 26.45625 151.55826Q25.7375 151.55826 25.425 151.80826Q25.1125 152.04263 25.1125 152.37076Q25.1125 152.57388 25.2375 152.73013Q25.378124 152.90201 25.64375 153.01138Q25.8 153.07388 26.58125 153.27701Q27.70625 153.58951 28.14375 153.77701Q28.58125 153.96451 28.83125 154.32388Q29.08125 154.68326 29.08125 155.23013Q29.08125 155.76138 28.76875 156.23013Q28.471874 156.68326 27.89375 156.94888Q27.315624 157.19888 26.58125 157.19888Q25.3625 157.19888 24.721874 156.69888Q24.096874 156.18326 23.925 155.19888ZM33.64375 156.12076L33.8 157.04263Q33.346874 157.13638 33.003124 157.13638Q32.425 157.13638 32.1125 156.96451Q31.8 156.77701 31.659374 156.48013Q31.534374 156.18326 31.534374 155.23013L31.534374 151.65201L30.76875 151.65201L30.76875 150.83951L31.534374 150.83951L31.534374 149.29263L32.58125 148.66763L32.58125 150.83951L33.64375 150.83951L33.64375 151.65201L32.58125 151.65201L32.58125 155.29263Q32.58125 155.74576 32.628124 155.87076Q32.690624 155.99576 32.815624 156.07388Q32.940624 156.15201 33.175 156.15201Q33.3625 156.15201 33.64375 156.12076ZM38.596874 155.05826L39.690624 155.18326Q39.440624 156.13638 38.7375 156.66763Q38.034374 157.19888 36.95625 157.19888Q35.596874 157.19888 34.784374 156.35513Q33.9875 155.51138 33.9875 153.99576Q33.9875 152.43326 34.8 151.57388Q35.6125 150.69888 36.89375 150.69888Q38.14375 150.69888 38.925 151.54263Q39.721874 152.38638 39.721874 153.93326Q39.721874 154.02701 39.721874 154.21451L35.08125 154.21451Q35.14375 155.24576 35.659374 155.79263Q36.175 156.32388 36.95625 156.32388Q37.534374 156.32388 37.940624 156.02701Q38.3625 155.71451 38.596874 155.05826ZM35.14375 153.35513L38.6125 153.35513Q38.55 152.55826 38.221874 152.16763Q37.70625 151.55826 36.909374 151.55826Q36.175 151.55826 35.675 152.04263Q35.190624 152.52701 35.14375 153.35513ZM41.33125 157.05826L41.33125 150.83951L42.284374 150.83951L42.284374 151.77701Q42.64375 151.12076 42.940624 150.91763Q43.253124 150.69888 43.628124 150.69888Q44.159374 150.69888 44.70625 151.02701L44.346874 152.01138Q43.95625 151.77701 43.58125 151.77701Q43.221874 151.77701 42.940624 151.99576Q42.675 152.19888 42.565624 152.57388Q42.378124 153.13638 42.378124 153.79263L42.378124 157.05826L41.33125 157.05826Z" fill-rule="nonzero"/><path fill="#9e9e9e" d="M11.675 169.40201Q11.01875 169.15201 10.690625 168.71451Q10.378125 168.26138 10.378125 167.65201Q10.378125 166.71451 11.05 166.07388Q11.7375 165.43326 12.846875 165.43326Q13.971875 165.43326 14.659375 166.08951Q15.346875 166.74576 15.346875 167.68326Q15.346875 168.27701 15.034375 168.71451Q14.721875 169.15201 14.08125 169.40201Q14.878125 169.65201 15.284375 170.23013Q15.690625 170.80826 15.690625 171.60513Q15.690625 172.69888 14.909375 173.44888Q14.14375 174.19888 12.8625 174.19888Q11.596875 174.19888 10.815625 173.44888Q10.034375 172.69888 10.034375 171.57388Q10.034375 170.73013 10.45625 170.16763Q10.89375 169.60513 11.675 169.40201ZM11.45625 167.60513Q11.45625 168.21451 11.846875 168.60513Q12.253125 168.99576 12.878125 168.99576Q13.4875 168.99576 13.878125 168.62076Q14.26875 168.23013 14.26875 167.66763Q14.26875 167.08951 13.8625 166.69888Q13.45625 166.29263 12.8625 166.29263Q12.253125 166.29263 11.846875 166.68326Q11.45625 167.07388 11.45625 167.60513ZM11.128125 171.57388Q11.128125 172.02701 11.33125 172.44888Q11.55 172.87076 11.971875 173.10513Q12.39375 173.33951 12.878125 173.33951Q13.628125 173.33951 14.1125 172.85513Q14.6125 172.37076 14.6125 171.62076Q14.6125 170.85513 14.1125 170.35513Q13.6125 169.85513 12.846875 169.85513Q12.096875 169.85513 11.6125 170.35513Q11.128125 170.83951 11.128125 171.57388ZM17.05 169.82388Q17.05 168.29263 17.3625 167.37076Q17.675 166.43326 18.284374 165.93326Q18.909374 165.43326 19.846874 165.43326Q20.534374 165.43326 21.05 165.71451Q21.58125 165.99576 21.925 166.52701Q22.26875 167.04263 22.45625 167.79263Q22.64375 168.54263 22.64375 169.82388Q22.64375 171.33951 22.33125 172.26138Q22.034374 173.18326 21.409374 173.69888Q20.8 174.19888 19.846874 174.19888Q18.6125 174.19888 17.89375 173.30826Q17.05 172.24576 17.05 169.82388ZM18.128124 169.82388Q18.128124 171.93326 18.628124 172.63638Q19.128124 173.33951 19.846874 173.33951Q20.58125 173.33951 21.065624 172.63638Q21.565624 171.93326 21.565624 169.82388Q21.565624 167.69888 21.065624 167.01138Q20.58125 166.30826 19.83125 166.30826Q19.1125 166.30826 18.675 166.91763Q18.128124 167.69888 18.128124 169.82388ZM24.64375 174.05826L24.64375 172.85513L25.846874 172.85513L25.846874 174.05826L24.64375 174.05826ZM27.05 169.82388Q27.05 168.29263 27.3625 167.37076Q27.675 166.43326 28.284374 165.93326Q28.909374 165.43326 29.846874 165.43326Q30.534374 165.43326 31.05 165.71451Q31.58125 165.99576 31.925 166.52701Q32.26875 167.04263 32.45625 167.79263Q32.64375 168.54263 32.64375 169.82388Q32.64375 171.33951 32.33125 172.26138Q32.034374 173.18326 31.409374 173.69888Q30.8 174.19888 29.846874 174.19888Q28.6125 174.19888 27.89375 173.30826Q27.05 172.24576 27.05 169.82388ZM28.128124 169.82388Q28.128124 171.93326 28.628124 172.63638Q29.128124 173.33951 29.846874 173.33951Q30.58125 173.33951 31.065624 172.63638Q31.565624 171.93326 31.565624 169.82388Q31.565624 167.69888 31.065624 167.01138Q30.58125 166.30826 29.83125 166.30826Q29.1125 166.30826 28.675 166.91763Q28.128124 167.69888 28.128124 169.82388ZM34.253124 167.52701Q34.253124 166.60513 34.70625 165.96451Q35.175 165.32388 36.05 165.32388Q36.8625 165.32388 37.39375 165.90201Q37.925 166.48013 37.925 167.58951Q37.925 168.68326 37.378124 169.27701Q36.846874 169.85513 36.065624 169.85513Q35.284374 169.85513 34.76875 169.27701Q34.253124 168.69888 34.253124 167.52701ZM36.08125 166.04263Q35.690624 166.04263 35.425 166.38638Q35.175 166.73013 35.175 167.63638Q35.175 168.46451 35.425 168.80826Q35.690624 169.13638 36.08125 169.13638Q36.4875 169.13638 36.7375 168.79263Q37.003124 168.44888 37.003124 167.55826Q37.003124 166.71451 36.7375 166.38638Q36.471874 166.04263 36.08125 166.04263ZM36.08125 174.37076L40.784374 165.32388L41.64375 165.32388L36.95625 174.37076L36.08125 174.37076ZM39.8 172.04263Q39.8 171.12076 40.253124 170.48013Q40.721874 169.83951 41.6125 169.83951Q42.425 169.83951 42.95625 170.41763Q43.4875 170.98013 43.4875 172.10513Q43.4875 173.19888 42.940624 173.79263Q42.409374 174.37076 41.6125 174.37076Q40.846874 174.37076 40.315624 173.79263Q39.8 173.21451 39.8 172.04263ZM41.64375 170.55826Q41.2375 170.55826 40.971874 170.90201Q40.721874 171.24576 40.721874 172.15201Q40.721874 172.96451 40.9875 173.30826Q41.253124 173.65201 41.64375 173.65201Q42.034374 173.65201 42.3 173.30826Q42.565624 172.96451 42.565624 172.05826Q42.565624 171.23013 42.3 170.90201Q42.034374 170.55826 41.64375 170.55826Z" fill-rule="nonzero"/><path stroke="#757575" stroke-width="1.0" stroke-linecap="butt" d="M9.55 161.55826L59.05 161.55826L103.00587 161.55826" fill-rule="nonzero"/><path fill="#9e9e9e" d="M105.00587 161.55826C105.00587 160.45369 104.110435 159.55826 103.00587 159.55826C101.9013 159.55826 101.00587 160.45369 101.00587 161.55826C101.00587 162.66283 101.9013 163.55826 103.00587 163.55826C104.110435 163.55826 105.00587 162.66283 105.00587 161.55826" fill-rule="nonzero"/><path fill="#1a1a1a" d="M254.99687 22.176115L256.0594 22.082365Q256.1375 22.738615 256.41876 23.144865Q256.7 23.551115 257.27814 23.81674Q257.8719 24.06674 258.60626 24.06674Q259.2469 24.06674 259.7469 23.87924Q260.2469 23.676115 260.48126 23.34799Q260.73126 23.00424 260.73126 22.613615Q260.73126 22.207365 260.4969 21.91049Q260.2625 21.59799 259.73126 21.394865Q259.3719 21.25424 258.1844 20.97299Q257.0125 20.69174 256.54376 20.44174Q255.91875 20.113615 255.62187 19.644865Q255.325 19.16049 255.325 18.56674Q255.325 17.926115 255.68437 17.363615Q256.0594 16.78549 256.7625 16.50424Q257.48126 16.207365 258.34064 16.207365Q259.29376 16.207365 260.02814 16.519865Q260.7625 16.81674 261.15314 17.426115Q261.54376 18.019865 261.575 18.769865L260.48126 18.84799Q260.3875 18.03549 259.8719 17.62924Q259.3719 17.207365 258.3875 17.207365Q257.35626 17.207365 256.8875 17.582365Q256.41876 17.957365 256.41876 18.488615Q256.41876 18.957365 256.7469 19.25424Q257.075 19.551115 258.45 19.863615Q259.84064 20.176115 260.35626 20.41049Q261.10626 20.769865 261.46564 21.301115Q261.825 21.81674 261.825 22.519865Q261.825 23.207365 261.4344 23.81674Q261.04376 24.41049 260.3094 24.75424Q259.575 25.082365 258.65314 25.082365Q257.48126 25.082365 256.6844 24.75424Q255.90312 24.41049 255.45 23.72299Q255.0125 23.03549 254.99687 22.176115ZM263.21564 24.94174L263.21564 16.34799L264.27814 16.34799L264.27814 24.94174L263.21564 24.94174ZM265.85626 21.832365Q265.85626 20.09799 266.8094 19.269865Q267.60626 18.582365 268.7625 18.582365Q270.04376 18.582365 270.85626 19.426115Q271.6844 20.25424 271.6844 21.738615Q271.6844 22.94174 271.325 23.62924Q270.96564 24.31674 270.2625 24.707365Q269.575 25.082365 268.7625 25.082365Q267.46564 25.082365 266.65314 24.25424Q265.85626 23.41049 265.85626 21.832365ZM266.9344 21.832365Q266.9344 23.019865 267.45 23.613615Q267.98126 24.207365 268.7625 24.207365Q269.5594 24.207365 270.075 23.613615Q270.59064 23.019865 270.59064 21.801115Q270.59064 20.644865 270.0594 20.051115Q269.54376 19.457365 268.7625 19.457365Q267.98126 19.457365 267.45 20.051115Q266.9344 20.62924 266.9344 21.832365ZM274.3875 24.94174L272.48126 18.72299L273.575 18.72299L274.5594 22.31674L274.9344 23.644865Q274.96564 23.551115 275.2625 22.363615L276.2469 18.72299L277.325 18.72299L278.2625 22.332365L278.575 23.519865L278.9344 22.31674L279.9969 18.72299L281.02814 18.72299L279.075 24.94174L277.98126 24.94174L276.9969 21.207365L276.7469 20.16049L275.4969 24.94174L274.3875 24.94174ZM286.4969 22.94174L287.59064 23.06674Q287.34064 24.019865 286.6375 24.551115Q285.9344 25.082365 284.85626 25.082365Q283.4969 25.082365 282.6844 24.238615Q281.8875 23.394865 281.8875 21.87924Q281.8875 20.31674 282.7 19.457365Q283.5125 18.582365 284.79376 18.582365Q286.04376 18.582365 286.825 19.426115Q287.6219 20.269865 287.6219 21.81674Q287.6219 21.91049 287.6219 22.09799L282.98126 22.09799Q283.04376 23.12924 283.5594 23.676115Q284.075 24.207365 284.85626 24.207365Q285.4344 24.207365 285.84064 23.91049Q286.2625 23.59799 286.4969 22.94174ZM283.04376 21.238615L286.5125 21.238615Q286.45 20.44174 286.1219 20.051115Q285.60626 19.44174 284.8094 19.44174Q284.075 19.44174 283.575 19.926115Q283.09064 20.41049 283.04376 21.238615ZM289.23126 24.94174L289.23126 18.72299L290.1844 18.72299L290.1844 19.66049Q290.54376 19.00424 290.84064 18.801115Q291.15314 18.582365 291.52814 18.582365Q292.0594 18.582365 292.60626 18.91049L292.2469 19.894865Q291.85626 19.66049 291.48126 19.66049Q291.1219 19.66049 290.84064 19.87924Q290.575 20.082365 290.46564 20.457365Q290.27814 21.019865 290.27814 21.676115L290.27814 24.94174L289.23126 24.94174Z" fill-rule="nonzero"/><path fill="#9e9e9e" d="M263.4969 40.926113L263.4969 41.94174L257.8094 41.94174Q257.8094 41.56674 257.9344 41.207363Q258.15314 40.62924 258.6219 40.06674Q259.10626 39.50424 260.0125 38.769863Q261.41876 37.613613 261.90314 36.94174Q262.40314 36.269863 262.40314 35.676113Q262.40314 35.051113 261.95 34.62924Q261.4969 34.19174 260.77814 34.19174Q260.0125 34.19174 259.5594 34.644863Q259.10626 35.09799 259.09064 35.91049L258.0125 35.801113Q258.1219 34.582363 258.84064 33.957363Q259.575 33.31674 260.8094 33.31674Q262.04376 33.31674 262.7625 34.00424Q263.48126 34.69174 263.48126 35.707363Q263.48126 36.22299 263.2625 36.72299Q263.0594 37.207363 262.5594 37.769863Q262.075 38.31674 260.95 39.269863Q259.9969 40.06674 259.71564 40.363613Q259.45 40.644863 259.27814 40.926113L263.4969 40.926113ZM264.95 37.707363Q264.95 36.176113 265.2625 35.25424Q265.575 34.31674 266.1844 33.81674Q266.8094 33.31674 267.7469 33.31674Q268.4344 33.31674 268.95 33.59799Q269.48126 33.87924 269.825 34.41049Q270.16876 34.926113 270.35626 35.676113Q270.54376 36.426113 270.54376 37.707363Q270.54376 39.22299 270.23126 40.144863Q269.9344 41.06674 269.3094 41.582363Q268.7 42.082363 267.7469 42.082363Q266.5125 42.082363 265.79376 41.19174Q264.95 40.12924 264.95 37.707363ZM266.02814 37.707363Q266.02814 39.81674 266.52814 40.519863Q267.02814 41.22299 267.7469 41.22299Q268.48126 41.22299 268.96564 40.519863Q269.46564 39.81674 269.46564 37.707363Q269.46564 35.582363 268.96564 34.894863Q268.48126 34.19174 267.73126 34.19174Q267.0125 34.19174 266.575 34.801113Q266.02814 35.582363 266.02814 37.707363ZM272.54376 41.94174L272.54376 40.738613L273.7469 40.738613L273.7469 41.94174L272.54376 41.94174ZM274.95 37.707363Q274.95 36.176113 275.2625 35.25424Q275.575 34.31674 276.1844 33.81674Q276.8094 33.31674 277.7469 33.31674Q278.4344 33.31674 278.95 33.59799Q279.48126 33.87924 279.825 34.41049Q280.16876 34.926113 280.35626 35.676113Q280.54376 36.426113 280.54376 37.707363Q280.54376 39.22299 280.23126 40.144863Q279.9344 41.06674 279.3094 41.582363Q278.7 42.082363 277.7469 42.082363Q276.5125 42.082363 275.79376 41.19174Q274.95 40.12924 274.95 37.707363ZM276.02814 37.707363Q276.02814 39.81674 276.52814 40.519863Q277.02814 41.22299 277.7469 41.22299Q278.48126 41.22299 278.96564 40.519863Q279.46564 39.81674 279.46564 37.707363Q279.46564 35.582363 278.96564 34.894863Q278.48126 34.19174 277.73126 34.19174Q277.0125 34.19174 276.575 34.801113Q276.02814 35.582363 276.02814 37.707363ZM282.15314 35.41049Q282.15314 34.488613 282.60626 33.84799Q283.075 33.207363 283.95 33.207363Q284.7625 33.207363 285.29376 33.78549Q285.825 34.363613 285.825 35.47299Q285.825 36.56674 285.27814 37.16049Q284.7469 37.738613 283.96564 37.738613Q283.1844 37.738613 282.66876 37.16049Q282.15314 36.582363 282.15314 35.41049ZM283.98126 33.926113Q283.59064 33.926113 283.325 34.269863Q283.075 34.613613 283.075 35.519863Q283.075 36.34799 283.325 36.69174Q283.59064 37.019863 283.98126 37.019863Q284.3875 37.019863 284.6375 36.676113Q284.90314 36.332363 284.90314 35.44174Q284.90314 34.59799 284.6375 34.269863Q284.3719 33.926113 283.98126 33.926113ZM283.98126 42.25424L288.6844 33.207363L289.54376 33.207363L284.85626 42.25424L283.98126 42.25424ZM287.7 39.926113Q287.7 39.00424 288.15314 38.363613Q288.6219 37.72299 289.5125 37.72299Q290.325 37.72299 290.85626 38.301113Q291.3875 38.863613 291.3875 39.988613Q291.3875 41.082363 290.84064 41.676113Q290.3094 42.25424 289.5125 42.25424Q288.7469 42.25424 288.21564 41.676113Q287.7 41.09799 287.7 39.926113ZM289.54376 38.44174Q289.1375 38.44174 288.8719 38.78549Q288.6219 39.12924 288.6219 40.03549Q288.6219 40.84799 288.8875 41.19174Q289.15314 41.53549 289.54376 41.53549Q289.9344 41.53549 290.2 41.19174Q290.46564 40.84799 290.46564 39.94174Q290.46564 39.113613 290.2 38.78549Q289.9344 38.44174 289.54376 38.44174Z" fill-rule="nonzero"/><path stroke="#757575" stroke-width="1.0" stroke-linecap="butt" d="M292.45 29.44174L242.95 29.44174L198.99414 29.44174" fill-rule="nonzero"/><path fill="#9e9e9e" d="M200.99414 29.44174C200.99414 28.33717 200.09871 27.44174 198.99414 27.44174C197.88957 27.44174 196.99414 28.33717 196.99414 29.44174C196.99414 30.546309 197.88957 31.44174 198.99414 31.44174C200.09871 31.44174 200.99414 30.546309 200.99414 29.44174" fill-rule="nonzero"/></svg>