<svg version="1.1" viewBox="0.0 0.0 302.0 191.0" fill="none" stroke="none" stroke-linecap="square" stroke-miterlimit="10" width="302" height="191" xmlns:xlink="http://www.w3.org/1999/xlink" xmlns="http://www.w3.org/2000/svg"><path fill="#ffffff" d="M0 0L302.0 0L302.0 191.0L0 191.0L0 0Z" fill-rule="nonzero"/><path fill="#ea4335" d="M151.0 9.55C162.65369 9.55 174.18564 11.919879 184.89488 16.515575L151.0 95.5Z" fill-rule="nonzero"/><path fill="#6aa84f" d="M184.89488 16.515575C225.42267 33.907417 246.21075 79.15091 233.00827 121.23026C219.80579 163.30962 176.89752 188.56825 133.6984 179.6906C90.49927 170.81296 61.029266 130.6802 65.49098 86.80458C69.9527 42.92896 106.8981 9.55 151.0 9.55L151.0 95.5Z" fill-rule="nonzero"/><path fill="#1a1a1a" d="M10.534375 161.45L10.534375 152.85625L16.33125 152.85625L16.33125 153.87187L11.675 153.87187L11.675 156.52812L15.70625 156.52812L15.70625 157.54375L11.675 157.54375L11.675 161.45L10.534375 161.45ZM21.409374 160.68437Q20.815624 161.18437 20.26875 161.3875Q19.7375 161.59062 19.1125 161.59062Q18.08125 161.59062 17.534374 161.09062Q16.9875 160.59062 16.9875 159.80937Q16.9875 159.35625 17.190624 158.98125Q17.39375 158.59062 17.7375 158.37187Q18.08125 158.1375 18.503124 158.02812Q18.8 157.93437 19.440624 157.85625Q20.70625 157.71562 21.315624 157.49687Q21.315624 157.27812 21.315624 157.23125Q21.315624 156.575 21.01875 156.30937Q20.6125 155.96562 19.815624 155.96562Q19.08125 155.96562 18.721874 156.23125Q18.3625 156.48125 18.190624 157.1375L17.159374 156.99687Q17.3 156.34062 17.628124 155.93437Q17.95625 155.52812 18.565624 155.30937Q19.175 155.09062 19.971874 155.09062Q20.76875 155.09062 21.26875 155.27812Q21.76875 155.46562 22.003124 155.74687Q22.2375 156.02812 22.33125 156.46562Q22.378124 156.73125 22.378124 157.43437L22.378124 158.84062Q22.378124 160.30937 22.440624 160.7Q22.51875 161.09062 22.721874 161.45L21.6125 161.45Q21.45625 161.12187 21.409374 160.68437ZM21.315624 158.325Q20.7375 158.55937 19.596874 158.73125Q18.940624 158.825 18.675 158.95Q18.409374 159.05937 18.253124 159.27812Q18.1125 159.49687 18.1125 159.77812Q18.1125 160.2 18.425 160.48125Q18.753124 160.7625 19.3625 160.7625Q19.971874 160.7625 20.440624 160.49687Q20.925 160.23125 21.14375 159.7625Q21.315624 159.40312 21.315624 158.71562L21.315624 158.325ZM23.925 159.59062L24.95625 159.43437Q25.05 160.05937 25.440624 160.3875Q25.846874 160.71562 26.58125 160.71562Q27.3 160.71562 27.64375 160.43437Q28.003124 160.1375 28.003124 159.73125Q28.003124 159.37187 27.690624 159.16875Q27.471874 159.02812 26.6125 158.80937Q25.45625 158.5125 25.003124 158.30937Q24.565624 158.09062 24.33125 157.71562Q24.096874 157.34062 24.096874 156.87187Q24.096874 156.46562 24.284374 156.10625Q24.471874 155.74687 24.8 155.5125Q25.05 155.34062 25.471874 155.21562Q25.89375 155.09062 26.39375 155.09062Q27.1125 155.09062 27.659374 155.30937Q28.221874 155.5125 28.4875 155.87187Q28.753124 156.23125 28.846874 156.825L27.815624 156.96562Q27.753124 156.49687 27.409374 156.23125Q27.08125 155.95 26.45625 155.95Q25.7375 155.95 25.425 156.2Q25.1125 156.43437 25.1125 156.7625Q25.1125 156.96562 25.2375 157.12187Q25.378124 157.29375 25.64375 157.40312Q25.8 157.46562 26.58125 157.66875Q27.70625 157.98125 28.14375 158.16875Q28.58125 158.35625 28.83125 158.71562Q29.08125 159.075 29.08125 159.62187Q29.08125 160.15312 28.76875 160.62187Q28.471874 161.075 27.89375 161.34062Q27.315624 161.59062 26.58125 161.59062Q25.3625 161.59062 24.721874 161.09062Q24.096874 160.575 23.925 159.59062ZM33.64375 160.5125L33.8 161.43437Q33.346874 161.52812 33.003124 161.52812Q32.425 161.52812 32.1125 161.35625Q31.8 161.16875 31.659374 160.87187Q31.534374 160.575 31.534374 159.62187L31.534374 156.04375L30.76875 156.04375L30.76875 155.23125L31.534374 155.23125L31.534374 153.68437L32.58125 153.05937L32.58125 155.23125L33.64375 155.23125L33.64375 156.04375L32.58125 156.04375L32.58125 159.68437Q32.58125 160.1375 32.628124 160.2625Q32.690624 160.3875 32.815624 160.46562Q32.940624 160.54375 33.175 160.54375Q33.3625 160.54375 33.64375 160.5125ZM38.596874 159.45L39.690624 159.575Q39.440624 160.52812 38.7375 161.05937Q38.034374 161.59062 36.95625 161.59062Q35.596874 161.59062 34.784374 160.74687Q33.9875 159.90312 33.9875 158.3875Q33.9875 156.825 34.8 155.96562Q35.6125 155.09062 36.89375 155.09062Q38.14375 155.09062 38.925 155.93437Q39.721874 156.77812 39.721874 158.325Q39.721874 158.41875 39.721874 158.60625L35.08125 158.60625Q35.14375 159.6375 35.659374 160.18437Q36.175 160.71562 36.95625 160.71562Q37.534374 160.71562 37.940624 160.41875Q38.3625 160.10625 38.596874 159.45ZM35.14375 157.74687L38.6125 157.74687Q38.55 156.95 38.221874 156.55937Q37.70625 155.95 36.909374 155.95Q36.175 155.95 35.675 156.43437Q35.190624 156.91875 35.14375 157.74687ZM41.33125 161.45L41.33125 155.23125L42.284374 155.23125L42.284374 156.16875Q42.64375 155.5125 42.940624 155.30937Q43.253124 155.09062 43.628124 155.09062Q44.159374 155.09062 44.70625 155.41875L44.346874 156.40312Q43.95625 156.16875 43.58125 156.16875Q43.221874 156.16875 42.940624 156.3875Q42.675 156.59062 42.565624 156.96562Q42.378124 157.52812 42.378124 158.18437L42.378124 161.45L41.33125 161.45Z" fill-rule="nonzero"/><path fill="#9e9e9e" d="M10.20625 176.46562L11.221875 176.37187Q11.346875 177.09062 11.70625 177.41875Q12.08125 177.73125 12.64375 177.73125Q13.128125 177.73125 13.4875 177.5125Q13.8625 177.27812 14.096875 176.91875Q14.33125 176.54375 14.4875 175.91875Q14.64375 175.27812 14.64375 174.62187Q14.64375 174.54375 14.64375 174.40312Q14.33125 174.90312 13.784375 175.23125Q13.2375 175.54375 12.596875 175.54375Q11.51875 175.54375 10.784375 174.77812Q10.05 173.99687 10.05 172.73125Q10.05 171.41875 10.815625 170.62187Q11.596875 169.825 12.753125 169.825Q13.58125 169.825 14.26875 170.27812Q14.971875 170.73125 15.33125 171.575Q15.690625 172.40312 15.690625 173.98125Q15.690625 175.62187 15.33125 176.60625Q14.9875 177.575 14.26875 178.09062Q13.565625 178.59062 12.628125 178.59062Q11.6125 178.59062 10.971875 178.04375Q10.33125 177.48125 10.20625 176.46562ZM14.51875 172.66875Q14.51875 171.7625 14.034375 171.23125Q13.565625 170.7 12.878125 170.7Q12.175 170.7 11.64375 171.27812Q11.128125 171.84062 11.128125 172.7625Q11.128125 173.575 11.628125 174.09062Q12.128125 174.60625 12.846875 174.60625Q13.58125 174.60625 14.05 174.09062Q14.51875 173.575 14.51875 172.66875ZM17.05 176.18437L18.1125 176.04375Q18.284374 176.93437 18.721874 177.34062Q19.159374 177.73125 19.784374 177.73125Q20.534374 177.73125 21.05 177.21562Q21.565624 176.7 21.565624 175.93437Q21.565624 175.21562 21.08125 174.74687Q20.6125 174.2625 19.878124 174.2625Q19.58125 174.2625 19.128124 174.3875L19.253124 173.45Q19.3625 173.46562 19.425 173.46562Q20.096874 173.46562 20.628124 173.12187Q21.175 172.7625 21.175 172.02812Q21.175 171.45 20.784374 171.075Q20.39375 170.68437 19.76875 170.68437Q19.159374 170.68437 18.7375 171.075Q18.33125 171.46562 18.221874 172.23125L17.159374 172.04375Q17.346874 170.99687 18.034374 170.41875Q18.721874 169.825 19.7375 169.825Q20.440624 169.825 21.034374 170.1375Q21.628124 170.43437 21.940624 170.95Q22.253124 171.46562 22.253124 172.05937Q22.253124 172.60625 21.95625 173.075Q21.659374 173.52812 21.08125 173.79375Q21.83125 173.96562 22.253124 174.52812Q22.675 175.075 22.675 175.91875Q22.675 177.04375 21.846874 177.825Q21.034374 178.60625 19.784374 178.60625Q18.659374 178.60625 17.909374 177.93437Q17.159374 177.24687 17.05 176.18437ZM24.64375 178.45L24.64375 177.24687L25.846874 177.24687L25.846874 178.45L24.64375 178.45ZM27.05 176.2L28.159374 176.10625Q28.284374 176.91875 28.721874 177.325Q29.175 177.73125 29.815624 177.73125Q30.565624 177.73125 31.096874 177.15312Q31.628124 176.575 31.628124 175.6375Q31.628124 174.73125 31.1125 174.21562Q30.6125 173.68437 29.784374 173.68437Q29.284374 173.68437 28.8625 173.91875Q28.45625 174.15312 28.221874 174.5125L27.2375 174.3875L28.065624 169.98125L32.346874 169.98125L32.346874 170.98125L28.909374 170.98125L28.45625 173.29375Q29.221874 172.74687 30.065624 172.74687Q31.190624 172.74687 31.95625 173.52812Q32.7375 174.30937 32.7375 175.54375Q32.7375 176.7 32.065624 177.55937Q31.2375 178.59062 29.815624 178.59062Q28.64375 178.59062 27.89375 177.93437Q27.159374 177.27812 27.05 176.2ZM34.253124 171.91875Q34.253124 170.99687 34.70625 170.35625Q35.175 169.71562 36.05 169.71562Q36.8625 169.71562 37.39375 170.29375Q37.925 170.87187 37.925 171.98125Q37.925 173.075 37.378124 173.66875Q36.846874 174.24687 36.065624 174.24687Q35.284374 174.24687 34.76875 173.66875Q34.253124 173.09062 34.253124 171.91875ZM36.08125 170.43437Q35.690624 170.43437 35.425 170.77812Q35.175 171.12187 35.175 172.02812Q35.175 172.85625 35.425 173.2Q35.690624 173.52812 36.08125 173.52812Q36.4875 173.52812 36.7375 173.18437Q37.003124 172.84062 37.003124 171.95Q37.003124 171.10625 36.7375 170.77812Q36.471874 170.43437 36.08125 170.43437ZM36.08125 178.7625L40.784374 169.71562L41.64375 169.71562L36.95625 178.7625L36.08125 178.7625ZM39.8 176.43437Q39.8 175.5125 40.253124 174.87187Q40.721874 174.23125 41.6125 174.23125Q42.425 174.23125 42.95625 174.80937Q43.4875 175.37187 43.4875 176.49687Q43.4875 177.59062 42.940624 178.18437Q42.409374 178.7625 41.6125 178.7625Q40.846874 178.7625 40.315624 178.18437Q39.8 177.60625 39.8 176.43437ZM41.64375 174.95Q41.2375 174.95 40.971874 175.29375Q40.721874 175.6375 40.721874 176.54375Q40.721874 177.35625 40.9875 177.7Q41.253124 178.04375 41.64375 178.04375Q42.034374 178.04375 42.3 177.7Q42.565624 177.35625 42.565624 176.45Q42.565624 175.62187 42.3 175.29375Q42.034374 174.95 41.64375 174.95Z" fill-rule="nonzero"/><path stroke="#757575" stroke-width="1.0" stroke-linecap="butt" d="M9.55 165.95L59.05 165.95L134.56348 175.48106" fill-rule="nonzero"/><path fill="#9e9e9e" d="M136.56348 175.48106C136.56348 174.3765 135.66805 173.48106 134.56348 173.48106C133.45891 173.48106 132.56348 174.3765 132.56348 175.48106C132.56348 176.58563 133.45891 177.48106 134.56348 177.48106C135.66805 177.48106 136.56348 176.58563 136.56348 175.48106" fill-rule="nonzero"/><path fill="#1a1a1a" d="M254.99687 17.784374L256.0594 17.690624Q256.1375 18.346874 256.41876 18.753124Q256.7 19.159374 257.27814 19.425Q257.8719 19.675 258.60626 19.675Q259.2469 19.675 259.7469 19.4875Q260.2469 19.284374 260.48126 18.95625Q260.73126 18.6125 260.73126 18.221874Q260.73126 17.815624 260.4969 17.51875Q260.2625 17.20625 259.73126 17.003124Q259.3719 16.8625 258.1844 16.58125Q257.0125 16.3 256.54376 16.05Q255.91875 15.721874 255.62187 15.253124Q255.325 14.768749 255.325 14.174999Q255.325 13.534374 255.68437 12.971874Q256.0594 12.393749 256.7625 12.112499Q257.48126 11.815624 258.34064 11.815624Q259.29376 11.815624 260.02814 12.128124Q260.7625 12.424999 261.15314 13.034374Q261.54376 13.628124 261.575 14.378124L260.48126 14.456249Q260.3875 13.643749 259.8719 13.237499Q259.3719 12.815624 258.3875 12.815624Q257.35626 12.815624 256.8875 13.190624Q256.41876 13.565624 256.41876 14.096874Q256.41876 14.565624 256.7469 14.862499Q257.075 15.159374 258.45 15.471874Q259.84064 15.784374 260.35626 16.01875Q261.10626 16.378124 261.46564 16.909374Q261.825 17.425 261.825 18.128124Q261.825 18.815624 261.4344 19.425Q261.04376 20.01875 260.3094 20.3625Q259.575 20.690624 258.65314 20.690624Q257.48126 20.690624 256.6844 20.3625Q255.90312 20.01875 255.45 19.33125Q255.0125 18.64375 254.99687 17.784374ZM263.21564 20.55L263.21564 11.956249L264.27814 11.956249L264.27814 20.55L263.21564 20.55ZM265.85626 17.440624Q265.85626 15.706249 266.8094 14.878124Q267.60626 14.190624 268.7625 14.190624Q270.04376 14.190624 270.85626 15.034374Q271.6844 15.862499 271.6844 17.346874Q271.6844 18.55 271.325 19.2375Q270.96564 19.925 270.2625 20.315624Q269.575 20.690624 268.7625 20.690624Q267.46564 20.690624 266.65314 19.8625Q265.85626 19.01875 265.85626 17.440624ZM266.9344 17.440624Q266.9344 18.628124 267.45 19.221874Q267.98126 19.815624 268.7625 19.815624Q269.5594 19.815624 270.075 19.221874Q270.59064 18.628124 270.59064 17.409374Q270.59064 16.253124 270.0594 15.659374Q269.54376 15.065624 268.7625 15.065624Q267.98126 15.065624 267.45 15.659374Q266.9344 16.2375 266.9344 17.440624ZM274.3875 20.55L272.48126 14.331249L273.575 14.331249L274.5594 17.925L274.9344 19.253124Q274.96564 19.159374 275.2625 17.971874L276.2469 14.331249L277.325 14.331249L278.2625 17.940624L278.575 19.128124L278.9344 17.925L279.9969 14.331249L281.02814 14.331249L279.075 20.55L277.98126 20.55L276.9969 16.815624L276.7469 15.768749L275.4969 20.55L274.3875 20.55ZM286.4969 18.55L287.59064 18.675Q287.34064 19.628124 286.6375 20.159374Q285.9344 20.690624 284.85626 20.690624Q283.4969 20.690624 282.6844 19.846874Q281.8875 19.003124 281.8875 17.4875Q281.8875 15.924999 282.7 15.065624Q283.5125 14.190624 284.79376 14.190624Q286.04376 14.190624 286.825 15.034374Q287.6219 15.878124 287.6219 17.425Q287.6219 17.51875 287.6219 17.70625L282.98126 17.70625Q283.04376 18.7375 283.5594 19.284374Q284.075 19.815624 284.85626 19.815624Q285.4344 19.815624 285.84064 19.51875Q286.2625 19.20625 286.4969 18.55ZM283.04376 16.846874L286.5125 16.846874Q286.45 16.05 286.1219 15.659374Q285.60626 15.049999 284.8094 15.049999Q284.075 15.049999 283.575 15.534374Q283.09064 16.01875 283.04376 16.846874ZM289.23126 20.55L289.23126 14.331249L290.1844 14.331249L290.1844 15.268749Q290.54376 14.612499 290.84064 14.409374Q291.15314 14.190624 291.52814 14.190624Q292.0594 14.190624 292.60626 14.518749L292.2469 15.503124Q291.85626 15.268749 291.48126 15.268749Q291.1219 15.268749 290.84064 15.487499Q290.575 15.690624 290.46564 16.065624Q290.27814 16.628124 290.27814 17.284374L290.27814 20.55L289.23126 20.55Z" fill-rule="nonzero"/><path fill="#9e9e9e" d="M270.41876 31.065624L269.3719 31.14375Q269.23126 30.51875 268.98126 30.2375Q268.54376 29.784374 267.91876 29.784374Q267.41876 29.784374 267.02814 30.065624Q266.54376 30.440624 266.2469 31.14375Q265.96564 31.83125 265.95 33.1125Q266.325 32.534374 266.8719 32.253124Q267.4344 31.971874 268.04376 31.971874Q269.09064 31.971874 269.825 32.753124Q270.575 33.534374 270.575 34.753124Q270.575 35.565624 270.21564 36.26875Q269.8719 36.95625 269.2625 37.33125Q268.65314 37.690624 267.8875 37.690624Q266.5594 37.690624 265.73126 36.721874Q264.90314 35.753124 264.90314 33.534374Q264.90314 31.034374 265.825 29.909374Q266.6219 28.925 267.98126 28.925Q268.9969 28.925 269.6375 29.503124Q270.29376 30.065624 270.41876 31.065624ZM266.1219 34.76875Q266.1219 35.315624 266.34064 35.815624Q266.575 36.3 266.98126 36.565624Q267.40314 36.83125 267.8719 36.83125Q268.52814 36.83125 269.0125 36.3Q269.4969 35.753124 269.4969 34.83125Q269.4969 33.940624 269.0125 33.425Q268.54376 32.909374 267.825 32.909374Q267.10626 32.909374 266.60626 33.425Q266.1219 33.940624 266.1219 34.76875ZM272.54376 37.55L272.54376 36.346874L273.7469 36.346874L273.7469 37.55L272.54376 37.55ZM274.95 35.3L276.0594 35.20625Q276.1844 36.01875 276.6219 36.425Q277.075 36.83125 277.71564 36.83125Q278.46564 36.83125 278.9969 36.253124Q279.52814 35.675 279.52814 34.7375Q279.52814 33.83125 279.0125 33.315624Q278.5125 32.784374 277.6844 32.784374Q277.1844 32.784374 276.7625 33.01875Q276.35626 33.253124 276.1219 33.6125L275.1375 33.4875L275.96564 29.08125L280.2469 29.08125L280.2469 30.08125L276.8094 30.08125L276.35626 32.39375Q277.1219 31.846874 277.96564 31.846874Q279.09064 31.846874 279.85626 32.628124Q280.6375 33.409374 280.6375 34.64375Q280.6375 35.8 279.96564 36.659374Q279.1375 37.690624 277.71564 37.690624Q276.54376 37.690624 275.79376 37.034374Q275.0594 36.378124 274.95 35.3ZM282.15314 31.01875Q282.15314 30.096874 282.60626 29.45625Q283.075 28.815624 283.95 28.815624Q284.7625 28.815624 285.29376 29.39375Q285.825 29.971874 285.825 31.08125Q285.825 32.175 285.27814 32.76875Q284.7469 33.346874 283.96564 33.346874Q283.1844 33.346874 282.66876 32.76875Q282.15314 32.190624 282.15314 31.01875ZM283.98126 29.534374Q283.59064 29.534374 283.325 29.878124Q283.075 30.221874 283.075 31.128124Q283.075 31.95625 283.325 32.3Q283.59064 32.628124 283.98126 32.628124Q284.3875 32.628124 284.6375 32.284374Q284.90314 31.940624 284.90314 31.05Q284.90314 30.20625 284.6375 29.878124Q284.3719 29.534374 283.98126 29.534374ZM283.98126 37.8625L288.6844 28.815624L289.54376 28.815624L284.85626 37.8625L283.98126 37.8625ZM287.7 35.534374Q287.7 34.6125 288.15314 33.971874Q288.6219 33.33125 289.5125 33.33125Q290.325 33.33125 290.85626 33.909374Q291.3875 34.471874 291.3875 35.596874Q291.3875 36.690624 290.84064 37.284374Q290.3094 37.8625 289.5125 37.8625Q288.7469 37.8625 288.21564 37.284374Q287.7 36.70625 287.7 35.534374ZM289.54376 34.05Q289.1375 34.05 288.8719 34.39375Q288.6219 34.7375 288.6219 35.64375Q288.6219 36.45625 288.8875 36.8Q289.15314 37.14375 289.54376 37.14375Q289.9344 37.14375 290.2 36.8Q290.46564 36.45625 290.46564 35.55Q290.46564 34.721874 290.2 34.39375Q289.9344 34.05 289.54376 34.05Z" fill-rule="nonzero"/><path stroke="#757575" stroke-width="1.0" stroke-linecap="butt" d="M292.45 25.05L242.95 25.05L167.43652 15.518931" fill-rule="nonzero"/><path fill="#9e9e9e" d="M169.43652 15.518931C169.43652 14.414362 168.54109 13.518931 167.43652 13.518931C166.33195 13.518931 165.43652 14.414362 165.43652 15.518931C165.43652 16.6235 166.33195 17.518932 167.43652 17.518932C168.54109 17.518932 169.43652 16.6235 169.43652 15.518931" fill-rule="nonzero"/></svg>