<svg id="Layer_1" data-name="Layer 1" xmlns="http://www.w3.org/2000/svg" viewBox="0 0 365.14 368.04"><defs><style>.cls-1{fill:#f26b3d;}.cls-2{fill:#fca468;}.cls-3{fill:#fca338;}.cls-10,.cls-4,.cls-6,.cls-8,.cls-9{fill:#fff;}.cls-5{fill:#a5664a;}.cls-6{font-size:82px;stroke-width:13px;letter-spacing:-0.04em;}.cls-10,.cls-6,.cls-8,.cls-9{stroke:#fff;stroke-miterlimit:10;}.cls-10,.cls-6,.cls-9{font-family:MyriadPro-Regular, Myriad Pro;}.cls-11,.cls-7,.cls-9{stroke-width:2px;}.cls-7{letter-spacing:-0.04em;}.cls-8{stroke-width:5px;}.cls-9{font-size:72px;}.cls-10{font-size:60px;stroke-width:3px;}</style></defs><circle class="cls-1" cx="89" cy="89" r="88.5"/><path class="cls-1" d="M462,190a88,88,0,1,1-88,88,88.1,88.1,0,0,1,88-88m0-1a89,89,0,1,0,89,89,89,89,0,0,0-89-89Z" transform="translate(-373 -189)"/><polygon class="cls-2" points="262.98 6.19 364.25 169.51 172.09 171.14 262.98 6.19"/><path class="cls-2" d="M636,196.18,736.35,358l-190.41,1.61L636,196.18m0-2L544.23,360.65,738.14,359,636,194.2Z" transform="translate(-373 -189)"/><rect class="cls-3" x="7.5" y="196.5" width="159" height="159"/><path class="cls-4" d="M539,386V544H381V386H539m1-1H380V545H540V385Z" transform="translate(-373 -189)"/><polygon class="cls-5" points="188.71 321.51 188.46 229.18 268.3 182.79 348.39 228.75 348.64 321.08 268.8 367.46 188.71 321.51"/><path class="cls-5" d="M641.3,372.37,720.89,418l.25,91.75-79.34,46.1-79.59-45.67L562,418.46l79.34-46.09m0-1.15L561,417.89l.25,92.91L641.8,557l80.34-46.67-.25-92.91L641.3,371.22Z" transform="translate(-373 -189)"/><text class="cls-6" transform="translate(242.8 301.23)">+<tspan class="cls-7" x="45.59" y="0"> </tspan></text><polygon class="cls-8" points="87.19 266.14 103.72 301.5 69.52 301.16 87.19 266.14"/><circle class="cls-4" cx="87.5" cy="262.5" r="10.5"/><path class="cls-4" d="M460.5,443.5a8,8,0,1,1-8,8,8,8,0,0,1,8-8m0-5a13,13,0,1,0,13,13,13,13,0,0,0-13-13Z" transform="translate(-373 -189)"/><path class="cls-4" d="M439.93,434.93c-8.08,7.47-9.58,20.83-3.3,29.88,1.09,1.58,3.69.08,2.59-1.51a20.57,20.57,0,0,1,2.83-26.25c1.42-1.32-.71-3.43-2.12-2.12Z" transform="translate(-373 -189)"/><path class="cls-4" d="M437.43,425a34,34,0,0,0-12.52,17.69,33.41,33.41,0,0,0,8.57,32.87,1.5,1.5,0,0,0,2.12-2.12,30.43,30.43,0,0,1-4.37-37.51,30.09,30.09,0,0,1,7.72-8.34c1.54-1.13.05-3.73-1.52-2.59Z" transform="translate(-373 -189)"/><path class="cls-4" d="M484.53,427c12.57,11.35,13.52,33.1,3,46.08-1.21,1.49.9,3.62,2.12,2.12,9.25-11.36,10.53-28.09,4-41.07a31.75,31.75,0,0,0-7-9.25c-1.43-1.3-3.55.82-2.12,2.12Z" transform="translate(-373 -189)"/><path class="cls-4" d="M479.68,437.05c7,6.65,8.17,18.27,2.76,26.25-1.08,1.6,1.51,3.11,2.59,1.51,6.14-9,4.71-22.36-3.23-29.88-1.4-1.33-3.53.79-2.12,2.12Z" transform="translate(-373 -189)"/><text class="cls-9" transform="translate(245.8 132.13)">$ </text><text class="cls-10" transform="translate(30 109.6)">&lt; / &gt;<tspan class="cls-11" x="117.54" y="0"> </tspan></text></svg>