<svg version="1.1" viewBox="0.0 0.0 1186.0 733.0" fill="none" stroke="none" stroke-linecap="square" stroke-miterlimit="10" width="1186" height="733" xmlns:xlink="http://www.w3.org/1999/xlink" xmlns="http://www.w3.org/2000/svg"><path fill="#ffffff" d="M0 0L1186.0 0L1186.0 733.0L0 733.0L0 0Z" fill-rule="nonzero"/><path stroke="#333333" stroke-width="1.0" stroke-linecap="butt" d="M187.5 144.5L187.5 676.5" fill-rule="nonzero"/><path stroke="#cccccc" stroke-width="1.0" stroke-linecap="butt" d="M508.5 144.5L508.5 676.5" fill-rule="nonzero"/><path stroke="#cccccc" stroke-width="1.0" stroke-linecap="butt" d="M828.5 144.5L828.5 676.5" fill-rule="nonzero"/><path stroke="#cccccc" stroke-width="1.0" stroke-linecap="butt" d="M1149.5 144.5L1149.5 676.5" fill-rule="nonzero"/><clipPath id="id_0"><path d="M187.65 144.51666L1149.35 144.51666L1149.35 676.35L187.65 676.35L187.65 144.51666Z" clip-rule="nonzero"/></clipPath><path stroke="#000000" stroke-width="2.0" stroke-linecap="butt" stroke-opacity="0.0" clip-path="url(#id_0)" d="M188.0 234.0L188.0 202.0L1003.0 202.0C1004.10455 202.0 1005.0 202.89543 1005.0 204.0L1005.0 232.0C1005.0 233.10457 1004.10455 234.0 1003.0 234.0Z" fill-rule="nonzero"/><path fill="#4285f4" clip-path="url(#id_0)" d="M188.0 234.0L188.0 202.0L1003.0 202.0C1004.10455 202.0 1005.0 202.89543 1005.0 204.0L1005.0 232.0C1005.0 233.10457 1004.10455 234.0 1003.0 234.0Z" fill-rule="nonzero"/><path stroke="#000000" stroke-width="2.0" stroke-linecap="butt" stroke-opacity="0.0" clip-path="url(#id_0)" d="M188.0 392.0L188.0 360.0L750.0 360.0C751.10455 360.0 752.0 360.89542 752.0 362.0L752.0 390.0C752.0 391.10458 751.10455 392.0 750.0 392.0Z" fill-rule="nonzero"/><path fill="#4285f4" clip-path="url(#id_0)" d="M188.0 392.0L188.0 360.0L750.0 360.0C751.10455 360.0 752.0 360.89542 752.0 362.0L752.0 390.0C752.0 391.10458 751.10455 392.0 750.0 392.0Z" fill-rule="nonzero"/><path stroke="#000000" stroke-width="2.0" stroke-linecap="butt" stroke-opacity="0.0" clip-path="url(#id_0)" d="M188.0 551.0L188.0 519.0L280.0 519.0C281.10458 519.0 282.0 519.89545 282.0 521.0L282.0 549.0C282.0 550.10455 281.10458 551.0 280.0 551.0Z" fill-rule="nonzero"/><path fill="#4285f4" clip-path="url(#id_0)" d="M188.0 551.0L188.0 519.0L280.0 519.0C281.10458 519.0 282.0 519.89545 282.0 521.0L282.0 549.0C282.0 550.10455 281.10458 551.0 280.0 551.0Z" fill-rule="nonzero"/><path stroke="#000000" stroke-width="2.0" stroke-linecap="butt" stroke-opacity="0.0" clip-path="url(#id_0)" d="M188.0 268.0L188.0 236.0L891.0 236.0C892.10455 236.0 893.0 236.89543 893.0 238.0L893.0 266.0C893.0 267.10458 892.10455 268.0 891.0 268.0Z" fill-rule="nonzero"/><path fill="#ea4335" clip-path="url(#id_0)" d="M188.0 268.0L188.0 236.0L891.0 236.0C892.10455 236.0 893.0 236.89543 893.0 238.0L893.0 266.0C893.0 267.10458 892.10455 268.0 891.0 268.0Z" fill-rule="nonzero"/><path stroke="#000000" stroke-width="2.0" stroke-linecap="butt" stroke-opacity="0.0" clip-path="url(#id_0)" d="M188.0 426.0L188.0 394.0L482.0 394.0C483.10458 394.0 484.0 394.89542 484.0 396.0L484.0 424.0C484.0 425.10458 483.10458 426.0 482.0 426.0Z" fill-rule="nonzero"/><path fill="#ea4335" clip-path="url(#id_0)" d="M188.0 426.0L188.0 394.0L482.0 394.0C483.10458 394.0 484.0 394.89542 484.0 396.0L484.0 424.0C484.0 425.10458 483.10458 426.0 482.0 426.0Z" fill-rule="nonzero"/><path stroke="#000000" stroke-width="2.0" stroke-linecap="butt" stroke-opacity="0.0" clip-path="url(#id_0)" d="M188.0 585.0L188.0 553.0L277.0 553.0C278.10458 553.0 279.0 553.89545 279.0 555.0L279.0 583.0C279.0 584.10455 278.10458 585.0 277.0 585.0Z" fill-rule="nonzero"/><path fill="#ea4335" clip-path="url(#id_0)" d="M188.0 585.0L188.0 553.0L277.0 553.0C278.10458 553.0 279.0 553.89545 279.0 555.0L279.0 583.0C279.0 584.10455 278.10458 585.0 277.0 585.0Z" fill-rule="nonzero"/><path stroke="#000000" stroke-width="2.0" stroke-linecap="butt" stroke-opacity="0.0" clip-path="url(#id_0)" d="M188.0 302.0L188.0 270.0L708.0 270.0C709.10455 270.0 710.0 270.89542 710.0 272.0L710.0 300.0C710.0 301.10458 709.10455 302.0 708.0 302.0Z" fill-rule="nonzero"/><path fill="#fbbc04" clip-path="url(#id_0)" d="M188.0 302.0L188.0 270.0L708.0 270.0C709.10455 270.0 710.0 270.89542 710.0 272.0L710.0 300.0C710.0 301.10458 709.10455 302.0 708.0 302.0Z" fill-rule="nonzero"/><path stroke="#000000" stroke-width="2.0" stroke-linecap="butt" stroke-opacity="0.0" clip-path="url(#id_0)" d="M188.0 460.0L188.0 428.0L258.0 428.0C259.10458 428.0 260.0 428.89542 260.0 430.0L260.0 458.0C260.0 459.10458 259.10458 460.0 258.0 460.0Z" fill-rule="nonzero"/><path fill="#fbbc04" clip-path="url(#id_0)" d="M188.0 460.0L188.0 428.0L258.0 428.0C259.10458 428.0 260.0 428.89542 260.0 430.0L260.0 458.0C260.0 459.10458 259.10458 460.0 258.0 460.0Z" fill-rule="nonzero"/><path stroke="#000000" stroke-width="2.0" stroke-linecap="butt" stroke-opacity="0.0" clip-path="url(#id_0)" d="M188.0 619.0L188.0 587.0L247.0 587.0C248.10457 587.0 249.0 587.89545 249.0 589.0L249.0 617.0C249.0 618.10455 248.10457 619.0 247.0 619.0Z" fill-rule="nonzero"/><path fill="#fbbc04" clip-path="url(#id_0)" d="M188.0 619.0L188.0 587.0L247.0 587.0C248.10457 587.0 249.0 587.89545 249.0 589.0L249.0 617.0C249.0 618.10455 248.10457 619.0 247.0 619.0Z" fill-rule="nonzero"/><path stroke="#4285f4" stroke-width="3.0" stroke-linejoin="round" stroke-linecap="round" d="M980.4981 218.21875L980.9356 213.96875L985.3106 213.96875L985.3106 214.96875L981.8575 214.96875L981.59186 217.29688Q982.2325 216.92188 983.02936 216.92188Q984.1856 216.92188 984.8731 217.70312Q985.5606 218.46875 985.5606 219.78125Q985.5606 221.09375 984.84186 221.85938Q984.13873 222.625 982.8575 222.625Q981.7325 222.625 981.01373 222.0Q980.295 221.35938 980.20123 220.25L981.21686 220.25Q981.32623 220.98438 981.7481 221.35938Q982.17 221.73438 982.8575 221.73438Q983.6075 221.73438 984.045 221.21875Q984.4825 220.70312 984.4825 219.79688Q984.4825 218.9375 984.01373 218.42188Q983.545 217.90625 982.76373 217.90625Q982.0606 217.90625 981.65436 218.20312L981.3731 218.4375L980.4981 218.21875ZM990.5606 222.5L989.4825 222.5L989.4825 215.28125L987.295 216.07812L987.295 215.09375L990.40436 213.92188L990.5606 213.92188L990.5606 222.5ZM999.3575 218.85938Q999.3575 220.76562 998.70123 221.70312Q998.0606 222.625 996.67 222.625Q995.3106 222.625 994.65436 221.71875Q993.9981 220.8125 993.96686 219.0L993.96686 217.5625Q993.96686 215.67188 994.6075 214.76562Q995.26373 213.84375 996.65436 213.84375Q998.02936 213.84375 998.6856 214.73438Q999.34186 215.60938 999.3575 217.45312L999.3575 218.85938ZM998.26373 217.375Q998.26373 216.0 997.8731 215.375Q997.4981 214.73438 996.65436 214.73438Q995.82623 214.73438 995.4356 215.375Q995.0606 216.0 995.0606 217.29688L995.0606 219.03125Q995.0606 220.40625 995.45123 221.07812Q995.8575 221.73438 996.67 221.73438Q997.46686 221.73438 997.8575 221.10938Q998.2481 220.48438 998.26373 219.15625L998.26373 217.375Z" fill-rule="nonzero"/><path fill="#ffffff" d="M980.4981 218.21875L980.9356 213.96875L985.3106 213.96875L985.3106 214.96875L981.8575 214.96875L981.59186 217.29688Q982.2325 216.92188 983.02936 216.92188Q984.1856 216.92188 984.8731 217.70312Q985.5606 218.46875 985.5606 219.78125Q985.5606 221.09375 984.84186 221.85938Q984.13873 222.625 982.8575 222.625Q981.7325 222.625 981.01373 222.0Q980.295 221.35938 980.20123 220.25L981.21686 220.25Q981.32623 220.98438 981.7481 221.35938Q982.17 221.73438 982.8575 221.73438Q983.6075 221.73438 984.045 221.21875Q984.4825 220.70312 984.4825 219.79688Q984.4825 218.9375 984.01373 218.42188Q983.545 217.90625 982.76373 217.90625Q982.0606 217.90625 981.65436 218.20312L981.3731 218.4375L980.4981 218.21875ZM990.5606 222.5L989.4825 222.5L989.4825 215.28125L987.295 216.07812L987.295 215.09375L990.40436 213.92188L990.5606 213.92188L990.5606 222.5ZM999.3575 218.85938Q999.3575 220.76562 998.70123 221.70312Q998.0606 222.625 996.67 222.625Q995.3106 222.625 994.65436 221.71875Q993.9981 220.8125 993.96686 219.0L993.96686 217.5625Q993.96686 215.67188 994.6075 214.76562Q995.26373 213.84375 996.65436 213.84375Q998.02936 213.84375 998.6856 214.73438Q999.34186 215.60938 999.3575 217.45312L999.3575 218.85938ZM998.26373 217.375Q998.26373 216.0 997.8731 215.375Q997.4981 214.73438 996.65436 214.73438Q995.82623 214.73438 995.4356 215.375Q995.0606 216.0 995.0606 217.29688L995.0606 219.03125Q995.0606 220.40625 995.45123 221.07812Q995.8575 221.73438 996.67 221.73438Q997.46686 221.73438 997.8575 221.10938Q998.2481 220.48438 998.26373 219.15625L998.26373 217.375Z" fill-rule="nonzero"/><path stroke="#4285f4" stroke-width="3.0" stroke-linejoin="round" stroke-linecap="round" d="M728.3286 375.70312L729.1411 375.70312Q729.92236 375.6875 730.35986 375.29688Q730.79736 374.90625 730.79736 374.23438Q730.79736 372.73438 729.29736 372.73438Q728.59424 372.73438 728.17236 373.14062Q727.7661 373.54688 727.7661 374.20312L726.67236 374.20312Q726.67236 373.1875 727.40674 372.51562Q728.15674 371.84375 729.29736 371.84375Q730.5005 371.84375 731.188 372.48438Q731.8755 373.125 731.8755 374.26562Q731.8755 374.82812 731.5161 375.34375Q731.15674 375.85938 730.53174 376.125Q731.23486 376.34375 731.60986 376.85938Q732.0005 377.375 732.0005 378.125Q732.0005 379.26562 731.2505 379.95312Q730.5005 380.625 729.29736 380.625Q728.10986 380.625 727.34424 379.96875Q726.59424 379.3125 726.59424 378.25L727.688 378.25Q727.688 378.92188 728.1255 379.32812Q728.563 379.73438 729.313 379.73438Q730.09424 379.73438 730.5005 379.32812Q730.92236 378.90625 730.92236 378.14062Q730.92236 377.40625 730.46924 377.01562Q730.0161 376.60938 729.1411 376.59375L728.3286 376.59375L728.3286 375.70312ZM734.2505 376.21875L734.688 371.96875L739.063 371.96875L739.063 372.96875L735.60986 372.96875L735.34424 375.29688Q735.98486 374.92188 736.78174 374.92188Q737.938 374.92188 738.6255 375.70312Q739.313 376.46875 739.313 377.78125Q739.313 379.09375 738.59424 379.85938Q737.8911 380.625 736.60986 380.625Q735.48486 380.625 734.7661 380.0Q734.04736 379.35938 733.9536 378.25L734.96924 378.25Q735.0786 378.98438 735.5005 379.35938Q735.92236 379.73438 736.60986 379.73438Q737.35986 379.73438 737.79736 379.21875Q738.23486 378.70312 738.23486 377.79688Q738.23486 376.9375 737.7661 376.42188Q737.29736 375.90625 736.5161 375.90625Q735.813 375.90625 735.40674 376.20312L735.1255 376.4375L734.2505 376.21875ZM746.34424 380.5L740.7505 380.5L740.7505 379.71875L743.7036 376.4375Q744.35986 375.6875 744.60986 375.23438Q744.85986 374.76562 744.85986 374.26562Q744.85986 373.59375 744.4536 373.17188Q744.063 372.73438 743.3755 372.73438Q742.5786 372.73438 742.1255 373.20312Q741.67236 373.65625 741.67236 374.48438L740.59424 374.48438Q740.59424 373.29688 741.34424 372.57812Q742.10986 371.84375 743.3755 371.84375Q744.5786 371.84375 745.2661 372.46875Q745.9536 373.09375 745.9536 374.14062Q745.9536 375.39062 744.34424 377.14062L742.063 379.60938L746.34424 379.60938L746.34424 380.5Z" fill-rule="nonzero"/><path fill="#ffffff" d="M728.3286 375.70312L729.1411 375.70312Q729.92236 375.6875 730.35986 375.29688Q730.79736 374.90625 730.79736 374.23438Q730.79736 372.73438 729.29736 372.73438Q728.59424 372.73438 728.17236 373.14062Q727.7661 373.54688 727.7661 374.20312L726.67236 374.20312Q726.67236 373.1875 727.40674 372.51562Q728.15674 371.84375 729.29736 371.84375Q730.5005 371.84375 731.188 372.48438Q731.8755 373.125 731.8755 374.26562Q731.8755 374.82812 731.5161 375.34375Q731.15674 375.85938 730.53174 376.125Q731.23486 376.34375 731.60986 376.85938Q732.0005 377.375 732.0005 378.125Q732.0005 379.26562 731.2505 379.95312Q730.5005 380.625 729.29736 380.625Q728.10986 380.625 727.34424 379.96875Q726.59424 379.3125 726.59424 378.25L727.688 378.25Q727.688 378.92188 728.1255 379.32812Q728.563 379.73438 729.313 379.73438Q730.09424 379.73438 730.5005 379.32812Q730.92236 378.90625 730.92236 378.14062Q730.92236 377.40625 730.46924 377.01562Q730.0161 376.60938 729.1411 376.59375L728.3286 376.59375L728.3286 375.70312ZM734.2505 376.21875L734.688 371.96875L739.063 371.96875L739.063 372.96875L735.60986 372.96875L735.34424 375.29688Q735.98486 374.92188 736.78174 374.92188Q737.938 374.92188 738.6255 375.70312Q739.313 376.46875 739.313 377.78125Q739.313 379.09375 738.59424 379.85938Q737.8911 380.625 736.60986 380.625Q735.48486 380.625 734.7661 380.0Q734.04736 379.35938 733.9536 378.25L734.96924 378.25Q735.0786 378.98438 735.5005 379.35938Q735.92236 379.73438 736.60986 379.73438Q737.35986 379.73438 737.79736 379.21875Q738.23486 378.70312 738.23486 377.79688Q738.23486 376.9375 737.7661 376.42188Q737.29736 375.90625 736.5161 375.90625Q735.813 375.90625 735.40674 376.20312L735.1255 376.4375L734.2505 376.21875ZM746.34424 380.5L740.7505 380.5L740.7505 379.71875L743.7036 376.4375Q744.35986 375.6875 744.60986 375.23438Q744.85986 374.76562 744.85986 374.26562Q744.85986 373.59375 744.4536 373.17188Q744.063 372.73438 743.3755 372.73438Q742.5786 372.73438 742.1255 373.20312Q741.67236 373.65625 741.67236 374.48438L740.59424 374.48438Q740.59424 373.29688 741.34424 372.57812Q742.10986 371.84375 743.3755 371.84375Q744.5786 371.84375 745.2661 372.46875Q745.9536 373.09375 745.9536 374.14062Q745.9536 375.39062 744.34424 377.14062L742.063 379.60938L746.34424 379.60938L746.34424 380.5Z" fill-rule="nonzero"/><path stroke="#4285f4" stroke-width="3.0" stroke-linejoin="round" stroke-linecap="round" d="M264.6203 535.21875L265.0578 530.96875L269.4328 530.96875L269.4328 531.96875L265.97968 531.96875L265.71405 534.2969Q266.35468 533.9219 267.15155 533.9219Q268.3078 533.9219 268.9953 534.7031Q269.6828 535.46875 269.6828 536.78125Q269.6828 538.09375 268.96405 538.8594Q268.26093 539.625 266.97968 539.625Q265.85468 539.625 265.13593 539.0Q264.41718 538.3594 264.32343 537.25L265.33905 537.25Q265.44843 537.9844 265.8703 538.3594Q266.29218 538.7344 266.97968 538.7344Q267.72968 538.7344 268.16718 538.21875Q268.60468 537.7031 268.60468 536.7969Q268.60468 535.9375 268.13593 535.4219Q267.66718 534.90625 266.88593 534.90625Q266.1828 534.90625 265.77655 535.2031L265.4953 535.4375L264.6203 535.21875ZM275.27655 535.75Q274.94843 536.15625 274.46405 536.40625Q273.9953 536.6406 273.4328 536.6406Q272.69843 536.6406 272.15155 536.28125Q271.60468 535.9219 271.3078 535.2656Q271.01093 534.59375 271.01093 533.7969Q271.01093 532.9531 271.32343 532.2656Q271.65155 531.5781 272.2453 531.21875Q272.85468 530.84375 273.65155 530.84375Q274.91718 530.84375 275.63593 531.7969Q276.3703 532.75 276.3703 534.375L276.3703 534.6875Q276.3703 537.1875 275.38593 538.3281Q274.40155 539.46875 272.41718 539.5L272.19843 539.5L272.19843 538.59375L272.4328 538.59375Q273.77655 538.5625 274.4953 537.8906Q275.21405 537.21875 275.27655 535.75ZM273.60468 535.75Q274.15155 535.75 274.60468 535.4219Q275.07343 535.0781 275.29218 534.59375L275.29218 534.15625Q275.29218 533.09375 274.82343 532.4219Q274.35468 531.75 273.65155 531.75Q272.9328 531.75 272.4953 532.2969Q272.07343 532.84375 272.07343 533.75Q272.07343 534.625 272.47968 535.1875Q272.90155 535.75 273.60468 535.75Z" fill-rule="nonzero"/><path fill="#ffffff" d="M264.6203 535.21875L265.0578 530.96875L269.4328 530.96875L269.4328 531.96875L265.97968 531.96875L265.71405 534.2969Q266.35468 533.9219 267.15155 533.9219Q268.3078 533.9219 268.9953 534.7031Q269.6828 535.46875 269.6828 536.78125Q269.6828 538.09375 268.96405 538.8594Q268.26093 539.625 266.97968 539.625Q265.85468 539.625 265.13593 539.0Q264.41718 538.3594 264.32343 537.25L265.33905 537.25Q265.44843 537.9844 265.8703 538.3594Q266.29218 538.7344 266.97968 538.7344Q267.72968 538.7344 268.16718 538.21875Q268.60468 537.7031 268.60468 536.7969Q268.60468 535.9375 268.13593 535.4219Q267.66718 534.90625 266.88593 534.90625Q266.1828 534.90625 265.77655 535.2031L265.4953 535.4375L264.6203 535.21875ZM275.27655 535.75Q274.94843 536.15625 274.46405 536.40625Q273.9953 536.6406 273.4328 536.6406Q272.69843 536.6406 272.15155 536.28125Q271.60468 535.9219 271.3078 535.2656Q271.01093 534.59375 271.01093 533.7969Q271.01093 532.9531 271.32343 532.2656Q271.65155 531.5781 272.2453 531.21875Q272.85468 530.84375 273.65155 530.84375Q274.91718 530.84375 275.63593 531.7969Q276.3703 532.75 276.3703 534.375L276.3703 534.6875Q276.3703 537.1875 275.38593 538.3281Q274.40155 539.46875 272.41718 539.5L272.19843 539.5L272.19843 538.59375L272.4328 538.59375Q273.77655 538.5625 274.4953 537.8906Q275.21405 537.21875 275.27655 535.75ZM273.60468 535.75Q274.15155 535.75 274.60468 535.4219Q275.07343 535.0781 275.29218 534.59375L275.29218 534.15625Q275.29218 533.09375 274.82343 532.4219Q274.35468 531.75 273.65155 531.75Q272.9328 531.75 272.4953 532.2969Q272.07343 532.84375 272.07343 533.75Q272.07343 534.625 272.47968 535.1875Q272.90155 535.75 273.60468 535.75Z" fill-rule="nonzero"/><path stroke="#ea4335" stroke-width="3.0" stroke-linejoin="round" stroke-linecap="round" d="M872.3779 253.64062L873.5654 253.64062L873.5654 254.51562L872.3779 254.51562L872.3779 256.5L871.2998 256.5L871.2998 254.51562L867.4092 254.51562L867.4092 253.875L871.2217 247.96875L872.3779 247.96875L872.3779 253.64062ZM868.64355 253.64062L871.2998 253.64062L871.2998 249.45312L871.1592 249.6875L868.64355 253.64062ZM879.3779 253.64062L880.5654 253.64062L880.5654 254.51562L879.3779 254.51562L879.3779 256.5L878.2998 256.5L878.2998 254.51562L874.4092 254.51562L874.4092 253.875L878.2217 247.96875L879.3779 247.96875L879.3779 253.64062ZM875.64355 253.64062L878.2998 253.64062L878.2998 249.45312L878.1592 249.6875L875.64355 253.64062ZM887.1592 252.85938Q887.1592 254.76562 886.5029 255.70312Q885.8623 256.625 884.4717 256.625Q883.1123 256.625 882.45605 255.71875Q881.7998 254.8125 881.76855 253.0L881.76855 251.5625Q881.76855 249.67188 882.4092 248.76562Q883.0654 247.84375 884.45605 247.84375Q885.83105 247.84375 886.4873 248.73438Q887.14355 249.60938 887.1592 251.45312L887.1592 252.85938ZM886.0654 251.375Q886.0654 250.0 885.6748 249.375Q885.2998 248.73438 884.45605 248.73438Q883.6279 248.73438 883.2373 249.375Q882.8623 250.0 882.8623 251.29688L882.8623 253.03125Q882.8623 254.40625 883.2529 255.07812Q883.6592 255.73438 884.4717 255.73438Q885.26855 255.73438 885.6592 255.10938Q886.0498 254.48438 886.0654 253.15625L886.0654 251.375Z" fill-rule="nonzero"/><path fill="#ffffff" d="M872.3779 253.64062L873.5654 253.64062L873.5654 254.51562L872.3779 254.51562L872.3779 256.5L871.2998 256.5L871.2998 254.51562L867.4092 254.51562L867.4092 253.875L871.2217 247.96875L872.3779 247.96875L872.3779 253.64062ZM868.64355 253.64062L871.2998 253.64062L871.2998 249.45312L871.1592 249.6875L868.64355 253.64062ZM879.3779 253.64062L880.5654 253.64062L880.5654 254.51562L879.3779 254.51562L879.3779 256.5L878.2998 256.5L878.2998 254.51562L874.4092 254.51562L874.4092 253.875L878.2217 247.96875L879.3779 247.96875L879.3779 253.64062ZM875.64355 253.64062L878.2998 253.64062L878.2998 249.45312L878.1592 249.6875L875.64355 253.64062ZM887.1592 252.85938Q887.1592 254.76562 886.5029 255.70312Q885.8623 256.625 884.4717 256.625Q883.1123 256.625 882.45605 255.71875Q881.7998 254.8125 881.76855 253.0L881.76855 251.5625Q881.76855 249.67188 882.4092 248.76562Q883.0654 247.84375 884.45605 247.84375Q885.83105 247.84375 886.4873 248.73438Q887.14355 249.60938 887.1592 251.45312L887.1592 252.85938ZM886.0654 251.375Q886.0654 250.0 885.6748 249.375Q885.2998 248.73438 884.45605 248.73438Q883.6279 248.73438 883.2373 249.375Q882.8623 250.0 882.8623 251.29688L882.8623 253.03125Q882.8623 254.40625 883.2529 255.07812Q883.6592 255.73438 884.4717 255.73438Q885.26855 255.73438 885.6592 255.10938Q886.0498 254.48438 886.0654 253.15625L886.0654 251.375Z" fill-rule="nonzero"/><path stroke="#ea4335" stroke-width="3.0" stroke-linejoin="round" stroke-linecap="round" d="M462.6398 414.5L461.56168 414.5L461.56168 407.28125L459.37418 408.07812L459.37418 407.09375L462.48355 405.92188L462.6398 405.92188L462.6398 414.5ZM471.2648 408.1875Q471.2648 408.82812 470.92105 409.32812Q470.5773 409.82812 470.0148 410.10938Q470.67105 410.39062 471.06168 410.95312Q471.4523 411.5 471.4523 412.20312Q471.4523 413.29688 470.7023 413.96875Q469.96793 414.625 468.74918 414.625Q467.5148 414.625 466.7648 413.96875Q466.03043 413.29688 466.03043 412.20312Q466.03043 411.5 466.40543 410.95312Q466.78043 410.39062 467.4523 410.10938Q466.8898 409.82812 466.56168 409.32812Q466.23355 408.82812 466.23355 408.1875Q466.23355 407.10938 466.92105 406.48438Q467.60855 405.84375 468.74918 405.84375Q469.87418 405.84375 470.56168 406.48438Q471.2648 407.10938 471.2648 408.1875ZM470.37418 412.17188Q470.37418 411.45312 469.92105 411.01562Q469.46793 410.5625 468.73355 410.5625Q467.99918 410.5625 467.54605 411.01562Q467.10855 411.45312 467.10855 412.1875Q467.10855 412.90625 467.54605 413.32812Q467.98355 413.73438 468.74918 413.73438Q469.49918 413.73438 469.93668 413.3125Q470.37418 412.89062 470.37418 412.17188ZM468.74918 406.73438Q468.10855 406.73438 467.7023 407.14062Q467.31168 407.53125 467.31168 408.21875Q467.31168 408.85938 467.7023 409.26562Q468.09293 409.67188 468.73355 409.67188Q469.3898 409.67188 469.78043 409.26562Q470.17105 408.85938 470.17105 408.21875Q470.17105 407.5625 469.7648 407.15625Q469.35855 406.73438 468.74918 406.73438ZM473.5773 410.21875L474.0148 405.96875L478.3898 405.96875L478.3898 406.96875L474.93668 406.96875L474.67105 409.29688Q475.31168 408.92188 476.10855 408.92188Q477.2648 408.92188 477.9523 409.70312Q478.6398 410.46875 478.6398 411.78125Q478.6398 413.09375 477.92105 413.85938Q477.21793 414.625 475.93668 414.625Q474.81168 414.625 474.09293 414.0Q473.37418 413.35938 473.28043 412.25L474.29605 412.25Q474.40543 412.98438 474.8273 413.35938Q475.24918 413.73438 475.93668 413.73438Q476.68668 413.73438 477.12418 413.21875Q477.56168 412.70312 477.56168 411.79688Q477.56168 410.9375 477.09293 410.42188Q476.62418 409.90625 475.84293 409.90625Q475.1398 409.90625 474.73355 410.20312L474.4523 410.4375L473.5773 410.21875Z" fill-rule="nonzero"/><path fill="#ffffff" d="M462.6398 414.5L461.56168 414.5L461.56168 407.28125L459.37418 408.07812L459.37418 407.09375L462.48355 405.92188L462.6398 405.92188L462.6398 414.5ZM471.2648 408.1875Q471.2648 408.82812 470.92105 409.32812Q470.5773 409.82812 470.0148 410.10938Q470.67105 410.39062 471.06168 410.95312Q471.4523 411.5 471.4523 412.20312Q471.4523 413.29688 470.7023 413.96875Q469.96793 414.625 468.74918 414.625Q467.5148 414.625 466.7648 413.96875Q466.03043 413.29688 466.03043 412.20312Q466.03043 411.5 466.40543 410.95312Q466.78043 410.39062 467.4523 410.10938Q466.8898 409.82812 466.56168 409.32812Q466.23355 408.82812 466.23355 408.1875Q466.23355 407.10938 466.92105 406.48438Q467.60855 405.84375 468.74918 405.84375Q469.87418 405.84375 470.56168 406.48438Q471.2648 407.10938 471.2648 408.1875ZM470.37418 412.17188Q470.37418 411.45312 469.92105 411.01562Q469.46793 410.5625 468.73355 410.5625Q467.99918 410.5625 467.54605 411.01562Q467.10855 411.45312 467.10855 412.1875Q467.10855 412.90625 467.54605 413.32812Q467.98355 413.73438 468.74918 413.73438Q469.49918 413.73438 469.93668 413.3125Q470.37418 412.89062 470.37418 412.17188ZM468.74918 406.73438Q468.10855 406.73438 467.7023 407.14062Q467.31168 407.53125 467.31168 408.21875Q467.31168 408.85938 467.7023 409.26562Q468.09293 409.67188 468.73355 409.67188Q469.3898 409.67188 469.78043 409.26562Q470.17105 408.85938 470.17105 408.21875Q470.17105 407.5625 469.7648 407.15625Q469.35855 406.73438 468.74918 406.73438ZM473.5773 410.21875L474.0148 405.96875L478.3898 405.96875L478.3898 406.96875L474.93668 406.96875L474.67105 409.29688Q475.31168 408.92188 476.10855 408.92188Q477.2648 408.92188 477.9523 409.70312Q478.6398 410.46875 478.6398 411.78125Q478.6398 413.09375 477.92105 413.85938Q477.21793 414.625 475.93668 414.625Q474.81168 414.625 474.09293 414.0Q473.37418 413.35938 473.28043 412.25L474.29605 412.25Q474.40543 412.98438 474.8273 413.35938Q475.24918 413.73438 475.93668 413.73438Q476.68668 413.73438 477.12418 413.21875Q477.56168 412.70312 477.56168 411.79688Q477.56168 410.9375 477.09293 410.42188Q476.62418 409.90625 475.84293 409.90625Q475.1398 409.90625 474.73355 410.20312L474.4523 410.4375L473.5773 410.21875Z" fill-rule="nonzero"/><path stroke="#ea4335" stroke-width="3.0" stroke-linejoin="round" stroke-linecap="round" d="M261.4146 569.21875L261.8521 564.96875L266.2271 564.96875L266.2271 565.96875L262.774 565.96875L262.50836 568.2969Q263.149 567.9219 263.94586 567.9219Q265.1021 567.9219 265.7896 568.7031Q266.4771 569.46875 266.4771 570.78125Q266.4771 572.09375 265.75836 572.8594Q265.05524 573.625 263.774 573.625Q262.649 573.625 261.93024 573.0Q261.2115 572.3594 261.11774 571.25L262.13336 571.25Q262.24274 571.9844 262.6646 572.3594Q263.0865 572.7344 263.774 572.7344Q264.524 572.7344 264.9615 572.21875Q265.399 571.7031 265.399 570.7969Q265.399 569.9375 264.93024 569.4219Q264.4615 568.90625 263.68024 568.90625Q262.9771 568.90625 262.57086 569.2031L262.2896 569.4375L261.4146 569.21875ZM273.43024 565.5781L269.899 573.5L268.75836 573.5L272.274 565.8594L267.6646 565.8594L267.6646 564.96875L273.43024 564.96875L273.43024 565.5781Z" fill-rule="nonzero"/><path fill="#ffffff" d="M261.4146 569.21875L261.8521 564.96875L266.2271 564.96875L266.2271 565.96875L262.774 565.96875L262.50836 568.2969Q263.149 567.9219 263.94586 567.9219Q265.1021 567.9219 265.7896 568.7031Q266.4771 569.46875 266.4771 570.78125Q266.4771 572.09375 265.75836 572.8594Q265.05524 573.625 263.774 573.625Q262.649 573.625 261.93024 573.0Q261.2115 572.3594 261.11774 571.25L262.13336 571.25Q262.24274 571.9844 262.6646 572.3594Q263.0865 572.7344 263.774 572.7344Q264.524 572.7344 264.9615 572.21875Q265.399 571.7031 265.399 570.7969Q265.399 569.9375 264.93024 569.4219Q264.4615 568.90625 263.68024 568.90625Q262.9771 568.90625 262.57086 569.2031L262.2896 569.4375L261.4146 569.21875ZM273.43024 565.5781L269.899 573.5L268.75836 573.5L272.274 565.8594L267.6646 565.8594L267.6646 564.96875L273.43024 564.96875L273.43024 565.5781Z" fill-rule="nonzero"/><path stroke="#fbbc04" stroke-width="3.0" stroke-linejoin="round" stroke-linecap="round" d="M686.6549 285.70312L687.4674 285.70312Q688.24866 285.6875 688.68616 285.29688Q689.12366 284.90625 689.12366 284.23438Q689.12366 282.73438 687.62366 282.73438Q686.92053 282.73438 686.49866 283.14062Q686.0924 283.54688 686.0924 284.20312L684.99866 284.20312Q684.99866 283.1875 685.73303 282.51562Q686.48303 281.84375 687.62366 281.84375Q688.8268 281.84375 689.5143 282.48438Q690.2018 283.125 690.2018 284.26562Q690.2018 284.82812 689.8424 285.34375Q689.48303 285.85938 688.85803 286.125Q689.56116 286.34375 689.93616 286.85938Q690.3268 287.375 690.3268 288.125Q690.3268 289.26562 689.5768 289.95312Q688.8268 290.625 687.62366 290.625Q686.43616 290.625 685.67053 289.96875Q684.92053 289.3125 684.92053 288.25L686.0143 288.25Q686.0143 288.92188 686.4518 289.32812Q686.8893 289.73438 687.6393 289.73438Q688.42053 289.73438 688.8268 289.32812Q689.24866 288.90625 689.24866 288.14062Q689.24866 287.40625 688.79553 287.01562Q688.3424 286.60938 687.4674 286.59375L686.6549 286.59375L686.6549 285.70312ZM697.67053 290.5L692.0768 290.5L692.0768 289.71875L695.0299 286.4375Q695.68616 285.6875 695.93616 285.23438Q696.18616 284.76562 696.18616 284.26562Q696.18616 283.59375 695.7799 283.17188Q695.3893 282.73438 694.7018 282.73438Q693.9049 282.73438 693.4518 283.20312Q692.99866 283.65625 692.99866 284.48438L691.92053 284.48438Q691.92053 283.29688 692.67053 282.57812Q693.43616 281.84375 694.7018 281.84375Q695.9049 281.84375 696.5924 282.46875Q697.2799 283.09375 697.2799 284.14062Q697.2799 285.39062 695.67053 287.14062L693.3893 289.60938L697.67053 289.60938L697.67053 290.5ZM703.3424 281.96875L703.3424 282.875L703.1393 282.875Q701.87366 282.90625 701.12366 283.64062Q700.37366 284.35938 700.24866 285.67188Q700.93616 284.90625 702.0924 284.90625Q703.2018 284.90625 703.87366 285.6875Q704.54553 286.46875 704.54553 287.71875Q704.54553 289.03125 703.8268 289.82812Q703.10803 290.625 701.8893 290.625Q700.67053 290.625 699.9049 289.6875Q699.1549 288.73438 699.1549 287.25L699.1549 286.84375Q699.1549 284.48438 700.1549 283.23438Q701.1549 281.98438 703.1393 281.96875L703.3424 281.96875ZM701.92053 285.8125Q701.35803 285.8125 700.8893 286.14062Q700.42053 286.46875 700.23303 286.98438L700.23303 287.375Q700.23303 288.4375 700.7018 289.07812Q701.18616 289.71875 701.8893 289.71875Q702.62366 289.71875 703.04553 289.1875Q703.4674 288.64062 703.4674 287.76562Q703.4674 286.89062 703.04553 286.35938Q702.62366 285.8125 701.92053 285.8125Z" fill-rule="nonzero"/><path fill="#000000" d="M686.6549 285.70312L687.4674 285.70312Q688.24866 285.6875 688.68616 285.29688Q689.12366 284.90625 689.12366 284.23438Q689.12366 282.73438 687.62366 282.73438Q686.92053 282.73438 686.49866 283.14062Q686.0924 283.54688 686.0924 284.20312L684.99866 284.20312Q684.99866 283.1875 685.73303 282.51562Q686.48303 281.84375 687.62366 281.84375Q688.8268 281.84375 689.5143 282.48438Q690.2018 283.125 690.2018 284.26562Q690.2018 284.82812 689.8424 285.34375Q689.48303 285.85938 688.85803 286.125Q689.56116 286.34375 689.93616 286.85938Q690.3268 287.375 690.3268 288.125Q690.3268 289.26562 689.5768 289.95312Q688.8268 290.625 687.62366 290.625Q686.43616 290.625 685.67053 289.96875Q684.92053 289.3125 684.92053 288.25L686.0143 288.25Q686.0143 288.92188 686.4518 289.32812Q686.8893 289.73438 687.6393 289.73438Q688.42053 289.73438 688.8268 289.32812Q689.24866 288.90625 689.24866 288.14062Q689.24866 287.40625 688.79553 287.01562Q688.3424 286.60938 687.4674 286.59375L686.6549 286.59375L686.6549 285.70312ZM697.67053 290.5L692.0768 290.5L692.0768 289.71875L695.0299 286.4375Q695.68616 285.6875 695.93616 285.23438Q696.18616 284.76562 696.18616 284.26562Q696.18616 283.59375 695.7799 283.17188Q695.3893 282.73438 694.7018 282.73438Q693.9049 282.73438 693.4518 283.20312Q692.99866 283.65625 692.99866 284.48438L691.92053 284.48438Q691.92053 283.29688 692.67053 282.57812Q693.43616 281.84375 694.7018 281.84375Q695.9049 281.84375 696.5924 282.46875Q697.2799 283.09375 697.2799 284.14062Q697.2799 285.39062 695.67053 287.14062L693.3893 289.60938L697.67053 289.60938L697.67053 290.5ZM703.3424 281.96875L703.3424 282.875L703.1393 282.875Q701.87366 282.90625 701.12366 283.64062Q700.37366 284.35938 700.24866 285.67188Q700.93616 284.90625 702.0924 284.90625Q703.2018 284.90625 703.87366 285.6875Q704.54553 286.46875 704.54553 287.71875Q704.54553 289.03125 703.8268 289.82812Q703.10803 290.625 701.8893 290.625Q700.67053 290.625 699.9049 289.6875Q699.1549 288.73438 699.1549 287.25L699.1549 286.84375Q699.1549 284.48438 700.1549 283.23438Q701.1549 281.98438 703.1393 281.96875L703.3424 281.96875ZM701.92053 285.8125Q701.35803 285.8125 700.8893 286.14062Q700.42053 286.46875 700.23303 286.98438L700.23303 287.375Q700.23303 288.4375 700.7018 289.07812Q701.18616 289.71875 701.8893 289.71875Q702.62366 289.71875 703.04553 289.1875Q703.4674 288.64062 703.4674 287.76562Q703.4674 286.89062 703.04553 286.35938Q702.62366 285.8125 701.92053 285.8125Z" fill-rule="nonzero"/><path stroke="#fbbc04" stroke-width="3.0" stroke-linejoin="round" stroke-linecap="round" d="M246.25874 445.64062L247.44624 445.64062L247.44624 446.51562L246.25874 446.51562L246.25874 448.5L245.18062 448.5L245.18062 446.51562L241.29 446.51562L241.29 445.875L245.1025 439.96875L246.25874 439.96875L246.25874 445.64062ZM242.52437 445.64062L245.18062 445.64062L245.18062 441.45312L245.04 441.6875L242.52437 445.64062ZM249.18062 444.21875L249.61812 439.96875L253.99312 439.96875L253.99312 440.96875L250.54 440.96875L250.27437 443.29688Q250.915 442.92188 251.71187 442.92188Q252.86812 442.92188 253.55562 443.70312Q254.24312 444.46875 254.24312 445.78125Q254.24312 447.09375 253.52437 447.85938Q252.82124 448.625 251.54 448.625Q250.415 448.625 249.69624 448.0Q248.9775 447.35938 248.88374 446.25L249.89937 446.25Q250.00874 446.98438 250.43062 447.35938Q250.8525 447.73438 251.54 447.73438Q252.29 447.73438 252.7275 447.21875Q253.165 446.70312 253.165 445.79688Q253.165 444.9375 252.69624 444.42188Q252.2275 443.90625 251.44624 443.90625Q250.74312 443.90625 250.33687 444.20312L250.05562 444.4375L249.18062 444.21875Z" fill-rule="nonzero"/><path fill="#000000" d="M246.25874 445.64062L247.44624 445.64062L247.44624 446.51562L246.25874 446.51562L246.25874 448.5L245.18062 448.5L245.18062 446.51562L241.29 446.51562L241.29 445.875L245.1025 439.96875L246.25874 439.96875L246.25874 445.64062ZM242.52437 445.64062L245.18062 445.64062L245.18062 441.45312L245.04 441.6875L242.52437 445.64062ZM249.18062 444.21875L249.61812 439.96875L253.99312 439.96875L253.99312 440.96875L250.54 440.96875L250.27437 443.29688Q250.915 442.92188 251.71187 442.92188Q252.86812 442.92188 253.55562 443.70312Q254.24312 444.46875 254.24312 445.78125Q254.24312 447.09375 253.52437 447.85938Q252.82124 448.625 251.54 448.625Q250.415 448.625 249.69624 448.0Q248.9775 447.35938 248.88374 446.25L249.89937 446.25Q250.00874 446.98438 250.43062 447.35938Q250.8525 447.73438 251.54 447.73438Q252.29 447.73438 252.7275 447.21875Q253.165 446.70312 253.165 445.79688Q253.165 444.9375 252.69624 444.42188Q252.2275 443.90625 251.44624 443.90625Q250.74312 443.90625 250.33687 444.20312L250.05562 444.4375L249.18062 444.21875Z" fill-rule="nonzero"/><path stroke="#fbbc04" stroke-width="3.0" stroke-linejoin="round" stroke-linecap="round" d="M232.03891 602.7031L232.85141 602.7031Q233.63266 602.6875 234.07016 602.2969Q234.50766 601.90625 234.50766 601.2344Q234.50766 599.7344 233.00766 599.7344Q232.30453 599.7344 231.88266 600.1406Q231.47641 600.5469 231.47641 601.2031L230.38266 601.2031Q230.38266 600.1875 231.11703 599.5156Q231.86703 598.84375 233.00766 598.84375Q234.21078 598.84375 234.89828 599.4844Q235.58578 600.125 235.58578 601.2656Q235.58578 601.8281 235.22641 602.34375Q234.86703 602.8594 234.24203 603.125Q234.94516 603.34375 235.32016 603.8594Q235.71078 604.375 235.71078 605.125Q235.71078 606.2656 234.96078 606.9531Q234.21078 607.625 233.00766 607.625Q231.82016 607.625 231.05453 606.96875Q230.30453 606.3125 230.30453 605.25L231.39828 605.25Q231.39828 605.9219 231.83578 606.3281Q232.27328 606.7344 233.02328 606.7344Q233.80453 606.7344 234.21078 606.3281Q234.63266 605.90625 234.63266 605.1406Q234.63266 604.40625 234.17953 604.0156Q233.72641 603.6094 232.85141 603.59375L232.03891 603.59375L232.03891 602.7031ZM242.64828 601.1875Q242.64828 601.8281 242.30453 602.3281Q241.96078 602.8281 241.39828 603.1094Q242.05453 603.3906 242.44516 603.9531Q242.83578 604.5 242.83578 605.2031Q242.83578 606.2969 242.08578 606.96875Q241.35141 607.625 240.13266 607.625Q238.89828 607.625 238.14828 606.96875Q237.41391 606.2969 237.41391 605.2031Q237.41391 604.5 237.78891 603.9531Q238.16391 603.3906 238.83578 603.1094Q238.27328 602.8281 237.94516 602.3281Q237.61703 601.8281 237.61703 601.1875Q237.61703 600.1094 238.30453 599.4844Q238.99203 598.84375 240.13266 598.84375Q241.25766 598.84375 241.94516 599.4844Q242.64828 600.1094 242.64828 601.1875ZM241.75766 605.1719Q241.75766 604.4531 241.30453 604.0156Q240.85141 603.5625 240.11703 603.5625Q239.38266 603.5625 238.92953 604.0156Q238.49203 604.4531 238.49203 605.1875Q238.49203 605.90625 238.92953 606.3281Q239.36703 606.7344 240.13266 606.7344Q240.88266 606.7344 241.32016 606.3125Q241.75766 605.8906 241.75766 605.1719ZM240.13266 599.7344Q239.49203 599.7344 239.08578 600.1406Q238.69516 600.53125 238.69516 601.21875Q238.69516 601.8594 239.08578 602.2656Q239.47641 602.6719 240.11703 602.6719Q240.77328 602.6719 241.16391 602.2656Q241.55453 601.8594 241.55453 601.21875Q241.55453 600.5625 241.14828 600.15625Q240.74203 599.7344 240.13266 599.7344Z" fill-rule="nonzero"/><path fill="#000000" d="M232.03891 602.7031L232.85141 602.7031Q233.63266 602.6875 234.07016 602.2969Q234.50766 601.90625 234.50766 601.2344Q234.50766 599.7344 233.00766 599.7344Q232.30453 599.7344 231.88266 600.1406Q231.47641 600.5469 231.47641 601.2031L230.38266 601.2031Q230.38266 600.1875 231.11703 599.5156Q231.86703 598.84375 233.00766 598.84375Q234.21078 598.84375 234.89828 599.4844Q235.58578 600.125 235.58578 601.2656Q235.58578 601.8281 235.22641 602.34375Q234.86703 602.8594 234.24203 603.125Q234.94516 603.34375 235.32016 603.8594Q235.71078 604.375 235.71078 605.125Q235.71078 606.2656 234.96078 606.9531Q234.21078 607.625 233.00766 607.625Q231.82016 607.625 231.05453 606.96875Q230.30453 606.3125 230.30453 605.25L231.39828 605.25Q231.39828 605.9219 231.83578 606.3281Q232.27328 606.7344 233.02328 606.7344Q233.80453 606.7344 234.21078 606.3281Q234.63266 605.90625 234.63266 605.1406Q234.63266 604.40625 234.17953 604.0156Q233.72641 603.6094 232.85141 603.59375L232.03891 603.59375L232.03891 602.7031ZM242.64828 601.1875Q242.64828 601.8281 242.30453 602.3281Q241.96078 602.8281 241.39828 603.1094Q242.05453 603.3906 242.44516 603.9531Q242.83578 604.5 242.83578 605.2031Q242.83578 606.2969 242.08578 606.96875Q241.35141 607.625 240.13266 607.625Q238.89828 607.625 238.14828 606.96875Q237.41391 606.2969 237.41391 605.2031Q237.41391 604.5 237.78891 603.9531Q238.16391 603.3906 238.83578 603.1094Q238.27328 602.8281 237.94516 602.3281Q237.61703 601.8281 237.61703 601.1875Q237.61703 600.1094 238.30453 599.4844Q238.99203 598.84375 240.13266 598.84375Q241.25766 598.84375 241.94516 599.4844Q242.64828 600.1094 242.64828 601.1875ZM241.75766 605.1719Q241.75766 604.4531 241.30453 604.0156Q240.85141 603.5625 240.11703 603.5625Q239.38266 603.5625 238.92953 604.0156Q238.49203 604.4531 238.49203 605.1875Q238.49203 605.90625 238.92953 606.3281Q239.36703 606.7344 240.13266 606.7344Q240.88266 606.7344 241.32016 606.3125Q241.75766 605.8906 241.75766 605.1719ZM240.13266 599.7344Q239.49203 599.7344 239.08578 600.1406Q238.69516 600.53125 238.69516 601.21875Q238.69516 601.8594 239.08578 602.2656Q239.47641 602.6719 240.11703 602.6719Q240.77328 602.6719 241.16391 602.2656Q241.55453 601.8594 241.55453 601.21875Q241.55453 600.5625 241.14828 600.15625Q240.74203 599.7344 240.13266 599.7344Z" fill-rule="nonzero"/><path fill="#000000" d="M97.11875 246.64586Q96.3375 247.31773 95.61875 247.59898Q94.9 247.86461 94.07188 247.86461Q92.69688 247.86461 91.9625 247.19273Q91.22813 246.52086 91.22813 245.48961Q91.22813 244.88023 91.50938 244.38023Q91.79063 243.86461 92.22813 243.56773Q92.68125 243.25523 93.24375 243.09898Q93.66563 242.98961 94.49375 242.89586Q96.19688 242.69273 97.00938 242.41148Q97.00938 242.11461 97.00938 242.03648Q97.00938 241.17711 96.61875 240.83336Q96.07188 240.34898 95.00938 240.34898Q94.025 240.34898 93.54063 240.70836Q93.07188 241.05211 92.85313 241.92711L91.47813 241.73961Q91.66563 240.86461 92.0875 240.31773Q92.525 239.77086 93.3375 239.48961Q94.15 239.19273 95.2125 239.19273Q96.275 239.19273 96.93125 239.44273Q97.60313 239.69273 97.91563 240.06773Q98.22813 240.44273 98.35313 241.02086Q98.43125 241.38023 98.43125 242.31773L98.43125 244.19273Q98.43125 246.16148 98.50938 246.67711Q98.60313 247.19273 98.86875 247.67711L97.4 247.67711Q97.18125 247.23961 97.11875 246.64586ZM97.00938 243.50523Q96.24375 243.81773 94.7125 244.03648Q93.8375 244.16148 93.47813 244.31773Q93.11875 244.47398 92.91563 244.78648Q92.72813 245.08336 92.72813 245.44273Q92.72813 246.00523 93.15 246.38023Q93.5875 246.75523 94.4 246.75523Q95.2125 246.75523 95.8375 246.41148Q96.47813 246.05211 96.775 245.42711Q97.00938 244.95836 97.00938 244.02086L97.00938 243.50523ZM103.00938 247.67711L99.85313 239.38023L101.3375 239.38023L103.11875 244.34898Q103.41563 245.14586 103.65 246.02086Q103.8375 245.36461 104.18125 244.44273L106.025 239.38023L107.4625 239.38023L104.32188 247.67711L103.00938 247.67711ZM107.44688 248.36461L108.82188 248.56773Q108.9 249.20836 109.29063 249.48961Q109.82188 249.88023 110.72813 249.88023Q111.69688 249.88023 112.22813 249.48961Q112.75938 249.09898 112.94688 248.39586Q113.05625 247.97398 113.05625 246.58336Q112.13438 247.67711 110.75938 247.67711Q109.04063 247.67711 108.10313 246.44273Q107.16563 245.20836 107.16563 243.47398Q107.16563 242.28648 107.5875 241.28648Q108.025 240.28648 108.8375 239.73961Q109.66563 239.19273 110.75938 239.19273Q112.22813 239.19273 113.18125 240.38023L113.18125 239.38023L114.47813 239.38023L114.47813 246.55211Q114.47813 248.48961 114.0875 249.30211Q113.69688 250.11461 112.8375 250.58336Q111.97813 251.05211 110.72813 251.05211Q109.24375 251.05211 108.32188 250.38023Q107.41563 249.70836 107.44688 248.36461ZM108.61875 243.38023Q108.61875 245.00523 109.25938 245.75523Q109.91563 246.50523 110.88438 246.50523Q111.85313 246.50523 112.50938 245.77086Q113.16563 245.02086 113.16563 243.42711Q113.16563 241.89586 112.49375 241.13023Q111.82188 240.34898 110.86875 240.34898Q109.93125 240.34898 109.275 241.11461Q108.61875 241.88023 108.61875 243.38023ZM117.10313 247.67711L117.10313 246.06773L118.7125 246.06773L118.7125 247.67711L117.10313 247.67711ZM124.8375 247.67711L124.8375 236.22398L127.11875 236.22398L129.8375 244.33336Q130.2125 245.45836 130.38437 246.02086Q130.57187 245.39586 130.99374 244.19273L133.72812 236.22398L135.775 236.22398L135.775 247.67711L134.30624 247.67711L134.30624 238.08336L130.97812 247.67711L129.61874 247.67711L126.30625 237.92711L126.30625 247.67711L124.8375 247.67711ZM143.38437 245.00523L144.8375 245.17711Q144.49374 246.45836 143.55624 247.16148Q142.63437 247.86461 141.19687 247.86461Q139.36874 247.86461 138.30624 246.73961Q137.24374 245.61461 137.24374 243.59898Q137.24374 241.50523 138.32187 240.34898Q139.4 239.19273 141.11874 239.19273Q142.775 239.19273 143.82187 240.33336Q144.88437 241.45836 144.88437 243.50523Q144.88437 243.63023 144.88437 243.88023L138.69687 243.88023Q138.775 245.25523 139.4625 245.98961Q140.16562 246.70836 141.19687 246.70836Q141.97812 246.70836 142.525 246.30211Q143.07187 245.89586 143.38437 245.00523ZM138.775 242.72398L143.4 242.72398Q143.30624 241.67711 142.86874 241.16148Q142.19687 240.34898 141.13437 240.34898Q140.16562 240.34898 139.49374 241.00523Q138.8375 241.64586 138.775 242.72398ZM146.7125 247.67711L146.7125 239.38023L147.9625 239.38023L147.9625 240.53648Q148.35312 239.92711 148.99374 239.56773Q149.65 239.19273 150.47812 239.19273Q151.4 239.19273 151.99374 239.58336Q152.5875 239.95836 152.82187 240.64586Q153.80624 239.19273 155.38437 239.19273Q156.61874 239.19273 157.275 239.88023Q157.94687 240.55211 157.94687 241.97398L157.94687 247.67711L156.55624 247.67711L156.55624 242.44273Q156.55624 241.59898 156.41562 241.23961Q156.275 240.86461 155.91562 240.64586Q155.55624 240.41148 155.07187 240.41148Q154.19687 240.41148 153.61874 240.98961Q153.04062 241.56773 153.04062 242.84898L153.04062 247.67711L151.63437 247.67711L151.63437 242.28648Q151.63437 241.34898 151.29062 240.88023Q150.94687 240.41148 150.16562 240.41148Q149.57187 240.41148 149.07187 240.72398Q148.57187 241.03648 148.3375 241.64586Q148.11874 242.23961 148.11874 243.36461L148.11874 247.67711L146.7125 247.67711ZM159.18124 243.52086Q159.18124 241.22398 160.4625 240.11461Q161.54062 239.19273 163.07187 239.19273Q164.79062 239.19273 165.86874 240.31773Q166.9625 241.42711 166.9625 243.41148Q166.9625 245.00523 166.47812 245.92711Q165.99374 246.84898 165.07187 247.36461Q164.16562 247.86461 163.07187 247.86461Q161.3375 247.86461 160.25937 246.75523Q159.18124 245.63023 159.18124 243.52086ZM160.63437 243.52086Q160.63437 245.11461 161.32187 245.91148Q162.025 246.70836 163.07187 246.70836Q164.11874 246.70836 164.80624 245.91148Q165.50937 245.11461 165.50937 243.47398Q165.50937 241.94273 164.80624 241.14586Q164.11874 240.34898 163.07187 240.34898Q162.025 240.34898 161.32187 241.14586Q160.63437 241.92711 160.63437 243.52086ZM168.69687 247.67711L168.69687 239.38023L169.9625 239.38023L169.9625 240.63023Q170.44687 239.75523 170.85312 239.47398Q171.25937 239.19273 171.75937 239.19273Q172.4625 239.19273 173.19687 239.64586L172.7125 240.94273Q172.19687 240.64586 171.68124 240.64586Q171.22812 240.64586 170.85312 240.92711Q170.49374 241.19273 170.3375 241.69273Q170.10312 242.44273 170.10312 243.33336L170.10312 247.67711L168.69687 247.67711ZM173.65 250.88023L173.49374 249.55211Q173.94687 249.67711 174.29062 249.67711Q174.75937 249.67711 175.04062 249.52086Q175.32187 249.36461 175.50937 249.08336Q175.63437 248.88023 175.93124 248.03648Q175.97812 247.92711 176.05624 247.69273L172.91562 239.38023L174.43124 239.38023L176.15 244.17711Q176.49374 245.09898 176.75937 246.09898Q176.99374 245.13023 177.3375 244.20836L179.10312 239.38023L180.50937 239.38023L177.35312 247.81773Q176.85312 249.19273 176.57187 249.70836Q176.19687 250.39586 175.7125 250.72398Q175.22812 251.05211 174.55624 251.05211Q174.15 251.05211 173.65 250.88023Z" fill-rule="nonzero"/><path fill="#000000" d="M145.4 270.05212Q144.22812 268.58337 143.41562 266.61462Q142.61874 264.63025 142.61874 262.52087Q142.61874 260.6615 143.22812 258.95837Q143.93124 256.98962 145.4 255.02087L146.4 255.02087Q145.4625 256.64587 145.15 257.349Q144.68124 258.42712 144.4 259.599Q144.07187 261.05212 144.07187 262.5365Q144.07187 266.2865 146.4 270.05212L145.4 270.05212ZM147.8375 266.67712L147.8375 255.224L150.11874 255.224L152.8375 263.33337Q153.2125 264.45837 153.38437 265.02087Q153.57187 264.39587 153.99374 263.19275L156.72812 255.224L158.775 255.224L158.775 266.67712L157.30624 266.67712L157.30624 257.08337L153.97812 266.67712L152.61874 266.67712L149.30624 256.92712L149.30624 266.67712L147.8375 266.67712ZM160.7125 256.83337L160.7125 255.224L162.11874 255.224L162.11874 256.83337L160.7125 256.83337ZM160.7125 266.67712L160.7125 258.38025L162.11874 258.38025L162.11874 266.67712L160.7125 266.67712ZM164.82187 266.67712L164.82187 255.224L169.11874 255.224Q170.43124 255.224 171.22812 255.56775Q172.025 255.9115 172.4625 256.64587Q172.91562 257.36462 172.91562 258.14587Q172.91562 258.88025 172.50937 259.5365Q172.11874 260.17712 171.32187 260.58337Q172.35312 260.88025 172.91562 261.61462Q173.47812 262.349 173.47812 263.349Q173.47812 264.1615 173.13437 264.849Q172.79062 265.5365 172.29062 265.9115Q171.79062 266.2865 171.04062 266.48962Q170.29062 266.67712 169.19687 266.67712L164.82187 266.67712ZM166.3375 260.0365L168.82187 260.0365Q169.82187 260.0365 170.25937 259.89587Q170.8375 259.724 171.13437 259.33337Q171.43124 258.92712 171.43124 258.33337Q171.43124 257.75525 171.15 257.33337Q170.88437 256.89587 170.36874 256.73962Q169.86874 256.56775 168.63437 256.56775L166.3375 256.56775L166.3375 260.0365ZM166.3375 265.31775L169.19687 265.31775Q169.93124 265.31775 170.22812 265.27087Q170.74374 265.17712 171.0875 264.95837Q171.44687 264.73962 171.66562 264.31775Q171.9 263.89587 171.9 263.349Q171.9 262.70837 171.57187 262.23962Q171.24374 261.77087 170.66562 261.58337Q170.0875 261.38025 168.99374 261.38025L166.3375 261.38025L166.3375 265.31775ZM176.63437 270.05212L175.61874 270.05212Q177.9625 266.2865 177.9625 262.5365Q177.9625 261.06775 177.61874 259.61462Q177.35312 258.44275 176.88437 257.36462Q176.57187 256.6615 175.61874 255.02087L176.63437 255.02087Q178.10312 256.98962 178.80624 258.95837Q179.4 260.6615 179.4 262.52087Q179.4 264.63025 178.5875 266.61462Q177.79062 268.58337 176.63437 270.05212Z" fill-rule="nonzero"/><path fill="#000000" d="M119.11875 405.40207Q118.3375 406.07394 117.61875 406.3552Q116.9 406.62082 116.07188 406.62082Q114.69688 406.62082 113.9625 405.94894Q113.22813 405.27707 113.22813 404.24582Q113.22813 403.63644 113.50938 403.13644Q113.79063 402.62082 114.22813 402.32394Q114.68125 402.01144 115.24375 401.8552Q115.66563 401.74582 116.49375 401.65207Q118.19688 401.44894 119.00938 401.1677Q119.00938 400.87082 119.00938 400.7927Q119.00938 399.93332 118.61875 399.58957Q118.07188 399.1052 117.00938 399.1052Q116.025 399.1052 115.54063 399.46457Q115.07188 399.80832 114.85313 400.68332L113.47813 400.49582Q113.66563 399.62082 114.0875 399.07394Q114.525 398.52707 115.3375 398.24582Q116.15 397.94894 117.2125 397.94894Q118.275 397.94894 118.93125 398.19894Q119.60313 398.44894 119.91563 398.82394Q120.22813 399.19894 120.35313 399.77707Q120.43125 400.13644 120.43125 401.07394L120.43125 402.94894Q120.43125 404.9177 120.50938 405.43332Q120.60313 405.94894 120.86875 406.43332L119.4 406.43332Q119.18125 405.99582 119.11875 405.40207ZM119.00938 402.26144Q118.24375 402.57394 116.7125 402.7927Q115.8375 402.9177 115.47813 403.07394Q115.11875 403.2302 114.91563 403.5427Q114.72813 403.83957 114.72813 404.19894Q114.72813 404.76144 115.15 405.13644Q115.5875 405.51144 116.4 405.51144Q117.2125 405.51144 117.8375 405.1677Q118.47813 404.80832 118.775 404.18332Q119.00938 403.71457 119.00938 402.77707L119.00938 402.26144ZM125.00938 406.43332L121.85313 398.13644L123.3375 398.13644L125.11875 403.1052Q125.41563 403.90207 125.65 404.77707Q125.8375 404.12082 126.18125 403.19894L128.025 398.13644L129.4625 398.13644L126.32188 406.43332L125.00938 406.43332ZM129.44687 407.12082L130.82187 407.32394Q130.9 407.96457 131.29062 408.24582Q131.82187 408.63644 132.72812 408.63644Q133.69687 408.63644 134.22812 408.24582Q134.75937 407.8552 134.94687 407.15207Q135.05624 406.7302 135.05624 405.33957Q134.13437 406.43332 132.75937 406.43332Q131.04062 406.43332 130.10312 405.19894Q129.16562 403.96457 129.16562 402.2302Q129.16562 401.0427 129.5875 400.0427Q130.025 399.0427 130.8375 398.49582Q131.66562 397.94894 132.75937 397.94894Q134.22812 397.94894 135.18124 399.13644L135.18124 398.13644L136.47812 398.13644L136.47812 405.30832Q136.47812 407.24582 136.0875 408.05832Q135.69687 408.87082 134.8375 409.33957Q133.97812 409.80832 132.72812 409.80832Q131.24374 409.80832 130.32187 409.13644Q129.41562 408.46457 129.44687 407.12082ZM130.61874 402.13644Q130.61874 403.76144 131.25937 404.51144Q131.91562 405.26144 132.88437 405.26144Q133.85312 405.26144 134.50937 404.52707Q135.16562 403.77707 135.16562 402.18332Q135.16562 400.65207 134.49374 399.88644Q133.82187 399.1052 132.86874 399.1052Q131.93124 399.1052 131.275 399.87082Q130.61874 400.63644 130.61874 402.13644ZM139.10312 406.43332L139.10312 404.82394L140.7125 404.82394L140.7125 406.43332L139.10312 406.43332ZM155.05624 402.4177L156.57187 402.7927Q156.10312 404.6677 154.85312 405.65207Q153.61874 406.63644 151.8375 406.63644Q149.97812 406.63644 148.82187 405.88644Q147.66562 405.12082 147.05624 403.69894Q146.44687 402.26144 146.44687 400.62082Q146.44687 398.82394 147.13437 397.49582Q147.82187 396.1677 149.07187 395.4802Q150.3375 394.77707 151.85312 394.77707Q153.57187 394.77707 154.74374 395.65207Q155.91562 396.52707 156.38437 398.12082L154.88437 398.46457Q154.49374 397.21457 153.72812 396.65207Q152.97812 396.07394 151.82187 396.07394Q150.50937 396.07394 149.61874 396.71457Q148.72812 397.33957 148.36874 398.4177Q148.00937 399.4802 148.00937 400.6052Q148.00937 402.07394 148.43124 403.1677Q148.86874 404.24582 149.75937 404.7927Q150.66562 405.32394 151.7125 405.32394Q152.97812 405.32394 153.85312 404.58957Q154.74374 403.8552 155.05624 402.4177ZM158.88437 406.43332L158.88437 394.9802L163.2125 394.9802Q164.35312 394.9802 164.94687 395.08957Q165.79062 395.2302 166.35312 395.62082Q166.93124 396.01144 167.275 396.7302Q167.63437 397.43332 167.63437 398.2927Q167.63437 399.74582 166.69687 400.76144Q165.775 401.77707 163.3375 401.77707L160.4 401.77707L160.4 406.43332L158.88437 406.43332ZM160.4 400.4177L163.36874 400.4177Q164.8375 400.4177 165.44687 399.87082Q166.07187 399.32394 166.07187 398.33957Q166.07187 397.62082 165.69687 397.1052Q165.3375 396.58957 164.74374 396.43332Q164.36874 396.32394 163.3375 396.32394L160.4 396.32394L160.4 400.4177ZM177.4 394.9802L178.91562 394.9802L178.91562 401.58957Q178.91562 403.32394 178.525 404.33957Q178.13437 405.3552 177.11874 405.99582Q176.10312 406.63644 174.44687 406.63644Q172.8375 406.63644 171.80624 406.07394Q170.79062 405.51144 170.35312 404.46457Q169.91562 403.4177 169.91562 401.58957L169.91562 394.9802L171.43124 394.9802L171.43124 401.58957Q171.43124 403.07394 171.69687 403.7927Q171.97812 404.49582 172.65 404.88644Q173.3375 405.26144 174.30624 405.26144Q175.97812 405.26144 176.68124 404.51144Q177.4 403.74582 177.4 401.58957L177.4 394.9802Z" fill-rule="nonzero"/><path fill="#000000" d="M107.4 428.80832Q106.22813 427.33957 105.41563 425.37082Q104.61875 423.38644 104.61875 421.27707Q104.61875 419.4177 105.22813 417.71457Q105.93125 415.74582 107.4 413.77707L108.4 413.77707Q107.4625 415.40207 107.15 416.1052Q106.68125 417.18332 106.4 418.3552Q106.07188 419.80832 106.07188 421.2927Q106.07188 425.0427 108.4 428.80832L107.4 428.80832ZM109.7125 425.43332L109.7125 417.13644L110.9625 417.13644L110.9625 418.2927Q111.35313 417.68332 111.99375 417.32394Q112.65 416.94894 113.47813 416.94894Q114.4 416.94894 114.99375 417.33957Q115.5875 417.71457 115.82188 418.40207Q116.80625 416.94894 118.38438 416.94894Q119.61875 416.94894 120.275 417.63644Q120.94688 418.30832 120.94688 419.7302L120.94688 425.43332L119.55625 425.43332L119.55625 420.19894Q119.55625 419.3552 119.41563 418.99582Q119.275 418.62082 118.91563 418.40207Q118.55625 418.1677 118.07188 418.1677Q117.19688 418.1677 116.61875 418.74582Q116.04063 419.32394 116.04063 420.6052L116.04063 425.43332L114.63438 425.43332L114.63438 420.0427Q114.63438 419.1052 114.29063 418.63644Q113.94688 418.1677 113.16563 418.1677Q112.57188 418.1677 112.07188 418.4802Q111.57188 418.7927 111.3375 419.40207Q111.11875 419.99582 111.11875 421.12082L111.11875 425.43332L109.7125 425.43332ZM122.7125 415.58957L122.7125 413.9802L124.11875 413.9802L124.11875 415.58957L122.7125 415.58957ZM122.7125 425.43332L122.7125 417.13644L124.11875 417.13644L124.11875 425.43332L122.7125 425.43332ZM126.68125 425.43332L126.68125 413.9802L128.0875 413.9802L128.0875 425.43332L126.68125 425.43332ZM129.68124 425.43332L129.68124 413.9802L131.0875 413.9802L131.0875 425.43332L129.68124 425.43332ZM132.7125 415.58957L132.7125 413.9802L134.11874 413.9802L134.11874 415.58957L132.7125 415.58957ZM132.7125 425.43332L132.7125 417.13644L134.11874 417.13644L134.11874 425.43332L132.7125 425.43332ZM142.11874 422.38644L143.50937 422.57394Q143.275 423.99582 142.3375 424.80832Q141.41562 425.62082 140.05624 425.62082Q138.35312 425.62082 137.30624 424.51144Q136.275 423.38644 136.275 421.30832Q136.275 419.96457 136.7125 418.96457Q137.16562 417.94894 138.07187 417.44894Q138.99374 416.94894 140.05624 416.94894Q141.41562 416.94894 142.275 417.63644Q143.13437 418.30832 143.36874 419.57394L142.00937 419.77707Q141.80624 418.94894 141.30624 418.52707Q140.82187 418.1052 140.11874 418.1052Q139.05624 418.1052 138.38437 418.87082Q137.72812 419.62082 137.72812 421.27707Q137.72812 422.94894 138.36874 423.71457Q139.00937 424.46457 140.04062 424.46457Q140.86874 424.46457 141.41562 423.96457Q141.97812 423.44894 142.11874 422.38644ZM144.18124 421.27707Q144.18124 418.9802 145.4625 417.87082Q146.54062 416.94894 148.07187 416.94894Q149.79062 416.94894 150.86874 418.07394Q151.9625 419.18332 151.9625 421.1677Q151.9625 422.76144 151.47812 423.68332Q150.99374 424.6052 150.07187 425.12082Q149.16562 425.62082 148.07187 425.62082Q146.3375 425.62082 145.25937 424.51144Q144.18124 423.38644 144.18124 421.27707ZM145.63437 421.27707Q145.63437 422.87082 146.32187 423.6677Q147.025 424.46457 148.07187 424.46457Q149.11874 424.46457 149.80624 423.6677Q150.50937 422.87082 150.50937 421.2302Q150.50937 419.69894 149.80624 418.90207Q149.11874 418.1052 148.07187 418.1052Q147.025 418.1052 146.32187 418.90207Q145.63437 419.68332 145.63437 421.27707ZM153.69687 425.43332L153.69687 417.13644L154.9625 417.13644L154.9625 418.38644Q155.44687 417.51144 155.85312 417.2302Q156.25937 416.94894 156.75937 416.94894Q157.4625 416.94894 158.19687 417.40207L157.7125 418.69894Q157.19687 418.40207 156.68124 418.40207Q156.22812 418.40207 155.85312 418.68332Q155.49374 418.94894 155.3375 419.44894Q155.10312 420.19894 155.10312 421.08957L155.10312 425.43332L153.69687 425.43332ZM164.38437 422.76144L165.8375 422.93332Q165.49374 424.21457 164.55624 424.9177Q163.63437 425.62082 162.19687 425.62082Q160.36874 425.62082 159.30624 424.49582Q158.24374 423.37082 158.24374 421.3552Q158.24374 419.26144 159.32187 418.1052Q160.4 416.94894 162.11874 416.94894Q163.775 416.94894 164.82187 418.08957Q165.88437 419.21457 165.88437 421.26144Q165.88437 421.38644 165.88437 421.63644L159.69687 421.63644Q159.775 423.01144 160.4625 423.74582Q161.16562 424.46457 162.19687 424.46457Q162.97812 424.46457 163.525 424.05832Q164.07187 423.65207 164.38437 422.76144ZM159.775 420.4802L164.4 420.4802Q164.30624 419.43332 163.86874 418.9177Q163.19687 418.1052 162.13437 418.1052Q161.16562 418.1052 160.49374 418.76144Q159.8375 419.40207 159.775 420.4802ZM167.15 422.94894L168.54062 422.7302Q168.65 423.57394 169.18124 424.02707Q169.72812 424.46457 170.68124 424.46457Q171.65 424.46457 172.11874 424.07394Q172.5875 423.6677 172.5875 423.13644Q172.5875 422.6677 172.18124 422.38644Q171.88437 422.19894 170.74374 421.9177Q169.19687 421.52707 168.5875 421.24582Q167.99374 420.94894 167.68124 420.44894Q167.38437 419.94894 167.38437 419.33957Q167.38437 418.77707 167.63437 418.30832Q167.88437 417.83957 168.32187 417.52707Q168.65 417.27707 169.2125 417.12082Q169.79062 416.94894 170.43124 416.94894Q171.41562 416.94894 172.15 417.2302Q172.88437 417.51144 173.22812 417.99582Q173.5875 418.46457 173.72812 419.27707L172.35312 419.46457Q172.25937 418.82394 171.80624 418.46457Q171.35312 418.1052 170.54062 418.1052Q169.57187 418.1052 169.15 418.43332Q168.74374 418.74582 168.74374 419.1677Q168.74374 419.44894 168.91562 419.6677Q169.0875 419.88644 169.44687 420.0427Q169.66562 420.12082 170.69687 420.40207Q172.18124 420.7927 172.775 421.05832Q173.36874 421.30832 173.69687 421.7927Q174.04062 422.27707 174.04062 422.99582Q174.04062 423.69894 173.61874 424.32394Q173.2125 424.93332 172.43124 425.27707Q171.66562 425.62082 170.69687 425.62082Q169.07187 425.62082 168.22812 424.94894Q167.38437 424.27707 167.15 422.94894ZM176.63437 428.80832L175.61874 428.80832Q177.9625 425.0427 177.9625 421.2927Q177.9625 419.82394 177.61874 418.37082Q177.35312 417.19894 176.88437 416.12082Q176.57187 415.4177 175.61874 413.77707L176.63437 413.77707Q178.10312 415.74582 178.80624 417.71457Q179.4 419.4177 179.4 421.27707Q179.4 423.38644 178.5875 425.37082Q177.79062 427.33957 176.63437 428.80832Z" fill-rule="nonzero"/><path fill="#000000" d="M148.80624 565.1896L148.80624 555.0802L145.025 555.0802L145.025 553.73645L154.10312 553.73645L154.10312 555.0802L150.32187 555.0802L150.32187 565.1896L148.80624 565.1896ZM154.7125 555.3458L154.7125 553.73645L156.11874 553.73645L156.11874 555.3458L154.7125 555.3458ZM154.7125 565.1896L154.7125 556.8927L156.11874 556.8927L156.11874 565.1896L154.7125 565.1896ZM158.7125 565.1896L158.7125 556.8927L159.9625 556.8927L159.9625 558.04895Q160.35312 557.4396 160.99374 557.0802Q161.65 556.7052 162.47812 556.7052Q163.4 556.7052 163.99374 557.0958Q164.5875 557.4708 164.82187 558.1583Q165.80624 556.7052 167.38437 556.7052Q168.61874 556.7052 169.275 557.3927Q169.94687 558.0646 169.94687 559.48645L169.94687 565.1896L168.55624 565.1896L168.55624 559.9552Q168.55624 559.11145 168.41562 558.7521Q168.275 558.3771 167.91562 558.1583Q167.55624 557.92395 167.07187 557.92395Q166.19687 557.92395 165.61874 558.5021Q165.04062 559.0802 165.04062 560.36145L165.04062 565.1896L163.63437 565.1896L163.63437 559.79895Q163.63437 558.86145 163.29062 558.3927Q162.94687 557.92395 162.16562 557.92395Q161.57187 557.92395 161.07187 558.23645Q160.57187 558.54895 160.3375 559.1583Q160.11874 559.7521 160.11874 560.8771L160.11874 565.1896L158.7125 565.1896ZM177.38437 562.5177L178.8375 562.6896Q178.49374 563.9708 177.55624 564.67395Q176.63437 565.3771 175.19687 565.3771Q173.36874 565.3771 172.30624 564.2521Q171.24374 563.1271 171.24374 561.11145Q171.24374 559.0177 172.32187 557.86145Q173.4 556.7052 175.11874 556.7052Q176.775 556.7052 177.82187 557.8458Q178.88437 558.9708 178.88437 561.0177Q178.88437 561.1427 178.88437 561.3927L172.69687 561.3927Q172.775 562.7677 173.4625 563.5021Q174.16562 564.2208 175.19687 564.2208Q175.97812 564.2208 176.525 563.8146Q177.07187 563.4083 177.38437 562.5177ZM172.775 560.23645L177.4 560.23645Q177.30624 559.1896 176.86874 558.67395Q176.19687 557.86145 175.13437 557.86145Q174.16562 557.86145 173.49374 558.5177Q172.8375 559.1583 172.775 560.23645Z" fill-rule="nonzero"/><path fill="#000000" d="M140.4 587.5646Q139.22812 586.0958 138.41562 584.1271Q137.61874 582.1427 137.61874 580.0333Q137.61874 578.17395 138.22812 576.4708Q138.93124 574.5021 140.4 572.5333L141.4 572.5333Q140.4625 574.1583 140.15 574.86145Q139.68124 575.9396 139.4 577.11145Q139.07187 578.5646 139.07187 580.04895Q139.07187 583.79895 141.4 587.5646L140.4 587.5646ZM142.7125 584.1896L142.7125 575.8927L143.9625 575.8927L143.9625 577.04895Q144.35312 576.4396 144.99374 576.0802Q145.65 575.7052 146.47812 575.7052Q147.4 575.7052 147.99374 576.0958Q148.5875 576.4708 148.82187 577.1583Q149.80624 575.7052 151.38437 575.7052Q152.61874 575.7052 153.275 576.3927Q153.94687 577.0646 153.94687 578.48645L153.94687 584.1896L152.55624 584.1896L152.55624 578.9552Q152.55624 578.11145 152.41562 577.7521Q152.275 577.3771 151.91562 577.1583Q151.55624 576.92395 151.07187 576.92395Q150.19687 576.92395 149.61874 577.5021Q149.04062 578.0802 149.04062 579.36145L149.04062 584.1896L147.63437 584.1896L147.63437 578.79895Q147.63437 577.86145 147.29062 577.3927Q146.94687 576.92395 146.16562 576.92395Q145.57187 576.92395 145.07187 577.23645Q144.57187 577.54895 144.3375 578.1583Q144.11874 578.7521 144.11874 579.8771L144.11874 584.1896L142.7125 584.1896ZM155.7125 574.3458L155.7125 572.73645L157.11874 572.73645L157.11874 574.3458L155.7125 574.3458ZM155.7125 584.1896L155.7125 575.8927L157.11874 575.8927L157.11874 584.1896L155.7125 584.1896ZM159.7125 584.1896L159.7125 575.8927L160.97812 575.8927L160.97812 577.0646Q161.88437 575.7052 163.61874 575.7052Q164.36874 575.7052 164.99374 575.9708Q165.61874 576.23645 165.93124 576.67395Q166.24374 577.11145 166.36874 577.7208Q166.44687 578.11145 166.44687 579.0802L166.44687 584.1896L165.04062 584.1896L165.04062 579.1427Q165.04062 578.2833 164.86874 577.86145Q164.7125 577.42395 164.29062 577.17395Q163.88437 576.92395 163.32187 576.92395Q162.41562 576.92395 161.75937 577.5021Q161.11874 578.0646 161.11874 579.6583L161.11874 584.1896L159.7125 584.1896ZM167.15 581.7052L168.54062 581.48645Q168.65 582.3302 169.18124 582.7833Q169.72812 583.2208 170.68124 583.2208Q171.65 583.2208 172.11874 582.8302Q172.5875 582.42395 172.5875 581.8927Q172.5875 581.42395 172.18124 581.1427Q171.88437 580.9552 170.74374 580.67395Q169.19687 580.2833 168.5875 580.0021Q167.99374 579.7052 167.68124 579.2052Q167.38437 578.7052 167.38437 578.0958Q167.38437 577.5333 167.63437 577.0646Q167.88437 576.5958 168.32187 576.2833Q168.65 576.0333 169.2125 575.8771Q169.79062 575.7052 170.43124 575.7052Q171.41562 575.7052 172.15 575.98645Q172.88437 576.2677 173.22812 576.7521Q173.5875 577.2208 173.72812 578.0333L172.35312 578.2208Q172.25937 577.5802 171.80624 577.2208Q171.35312 576.86145 170.54062 576.86145Q169.57187 576.86145 169.15 577.1896Q168.74374 577.5021 168.74374 577.92395Q168.74374 578.2052 168.91562 578.42395Q169.0875 578.6427 169.44687 578.79895Q169.66562 578.8771 170.69687 579.1583Q172.18124 579.54895 172.775 579.8146Q173.36874 580.0646 173.69687 580.54895Q174.04062 581.0333 174.04062 581.7521Q174.04062 582.4552 173.61874 583.0802Q173.2125 583.6896 172.43124 584.0333Q171.66562 584.3771 170.69687 584.3771Q169.07187 584.3771 168.22812 583.7052Q167.38437 583.0333 167.15 581.7052ZM176.63437 587.5646L175.61874 587.5646Q177.9625 583.79895 177.9625 580.04895Q177.9625 578.5802 177.61874 577.1271Q177.35312 575.9552 176.88437 574.8771Q176.57187 574.17395 175.61874 572.5333L176.63437 572.5333Q178.10312 574.5021 178.80624 576.4708Q179.4 578.17395 179.4 580.0333Q179.4 582.1427 178.5875 584.1271Q177.79062 586.0958 176.63437 587.5646Z" fill-rule="nonzero"/><path fill="#ffffff" d="M184.65 689.1156Q184.65 687.58435 184.9625 686.6625Q185.275 685.725 185.88437 685.225Q186.50937 684.725 187.44687 684.725Q188.13437 684.725 188.65 685.0062Q189.18124 685.2875 189.525 685.8187Q189.86874 686.33435 190.05624 687.08435Q190.24374 687.83435 190.24374 689.1156Q190.24374 690.6312 189.93124 691.5531Q189.63437 692.475 189.00937 692.9906Q188.4 693.4906 187.44687 693.4906Q186.2125 693.4906 185.49374 692.6Q184.65 691.5375 184.65 689.1156ZM185.72812 689.1156Q185.72812 691.225 186.22812 691.9281Q186.72812 692.6312 187.44687 692.6312Q188.18124 692.6312 188.66562 691.9281Q189.16562 691.225 189.16562 689.1156Q189.16562 686.9906 188.66562 686.3031Q188.18124 685.6 187.43124 685.6Q186.7125 685.6 186.275 686.20935Q185.72812 686.9906 185.72812 689.1156Z" fill-rule="nonzero"/><path fill="#ffffff" d="M503.76355 692.33435L503.76355 693.35L498.07605 693.35Q498.07605 692.975 498.20105 692.6156Q498.4198 692.0375 498.88855 691.475Q499.37292 690.9125 500.27917 690.1781Q501.68542 689.02185 502.1698 688.35Q502.6698 687.6781 502.6698 687.08435Q502.6698 686.45935 502.21667 686.0375Q501.76355 685.6 501.0448 685.6Q500.27917 685.6 499.82605 686.0531Q499.37292 686.5062 499.3573 687.3187L498.27917 687.20935Q498.38855 685.9906 499.1073 685.3656Q499.84167 684.725 501.07605 684.725Q502.31042 684.725 503.02917 685.4125Q503.74792 686.1 503.74792 687.1156Q503.74792 687.6312 503.52917 688.1312Q503.32605 688.6156 502.82605 689.1781Q502.34167 689.725 501.21667 690.6781Q500.26355 691.475 499.9823 691.77185Q499.71667 692.0531 499.5448 692.33435L503.76355 692.33435ZM505.21667 689.1156Q505.21667 687.58435 505.52917 686.6625Q505.84167 685.725 506.45105 685.225Q507.07605 684.725 508.01355 684.725Q508.70105 684.725 509.21667 685.0062Q509.74792 685.2875 510.09167 685.8187Q510.43542 686.33435 510.62292 687.08435Q510.81042 687.83435 510.81042 689.1156Q510.81042 690.6312 510.49792 691.5531Q510.20105 692.475 509.57605 692.9906Q508.96667 693.4906 508.01355 693.4906Q506.77917 693.4906 506.06042 692.6Q505.21667 691.5375 505.21667 689.1156ZM506.2948 689.1156Q506.2948 691.225 506.7948 691.9281Q507.2948 692.6312 508.01355 692.6312Q508.74792 692.6312 509.2323 691.9281Q509.7323 691.225 509.7323 689.1156Q509.7323 686.9906 509.2323 686.3031Q508.74792 685.6 507.99792 685.6Q507.27917 685.6 506.84167 686.20935Q506.2948 686.9906 506.2948 689.1156ZM512.2167 689.1156Q512.2167 687.58435 512.5292 686.6625Q512.8417 685.725 513.45105 685.225Q514.07605 684.725 515.01355 684.725Q515.70105 684.725 516.2167 685.0062Q516.7479 685.2875 517.0917 685.8187Q517.4354 686.33435 517.6229 687.08435Q517.8104 687.83435 517.8104 689.1156Q517.8104 690.6312 517.4979 691.5531Q517.20105 692.475 516.57605 692.9906Q515.9667 693.4906 515.01355 693.4906Q513.7792 693.4906 513.0604 692.6Q512.2167 691.5375 512.2167 689.1156ZM513.2948 689.1156Q513.2948 691.225 513.7948 691.9281Q514.2948 692.6312 515.01355 692.6312Q515.7479 692.6312 516.2323 691.9281Q516.7323 691.225 516.7323 689.1156Q516.7323 686.9906 516.2323 686.3031Q515.7479 685.6 514.9979 685.6Q514.2792 685.6 513.8417 686.20935Q513.2948 686.9906 513.2948 689.1156Z" fill-rule="nonzero"/><path fill="#ffffff" d="M822.1583 693.35L822.1583 691.2875L818.4396 691.2875L818.4396 690.3187L822.36145 684.7562L823.2208 684.7562L823.2208 690.3187L824.3771 690.3187L824.3771 691.2875L823.2208 691.2875L823.2208 693.35L822.1583 693.35ZM822.1583 690.3187L822.1583 686.45935L819.4708 690.3187L822.1583 690.3187ZM825.7833 689.1156Q825.7833 687.58435 826.0958 686.6625Q826.4083 685.725 827.0177 685.225Q827.6427 684.725 828.5802 684.725Q829.2677 684.725 829.7833 685.0062Q830.3146 685.2875 830.6583 685.8187Q831.0021 686.33435 831.1896 687.08435Q831.3771 687.83435 831.3771 689.1156Q831.3771 690.6312 831.0646 691.5531Q830.7677 692.475 830.1427 692.9906Q829.5333 693.4906 828.5802 693.4906Q827.3458 693.4906 826.6271 692.6Q825.7833 691.5375 825.7833 689.1156ZM826.86145 689.1156Q826.86145 691.225 827.36145 691.9281Q827.86145 692.6312 828.5802 692.6312Q829.3146 692.6312 829.79895 691.9281Q830.29895 691.225 830.29895 689.1156Q830.29895 686.9906 829.79895 686.3031Q829.3146 685.6 828.5646 685.6Q827.8458 685.6 827.4083 686.20935Q826.86145 686.9906 826.86145 689.1156ZM832.7833 689.1156Q832.7833 687.58435 833.0958 686.6625Q833.4083 685.725 834.0177 685.225Q834.6427 684.725 835.5802 684.725Q836.2677 684.725 836.7833 685.0062Q837.3146 685.2875 837.6583 685.8187Q838.0021 686.33435 838.1896 687.08435Q838.3771 687.83435 838.3771 689.1156Q838.3771 690.6312 838.0646 691.5531Q837.7677 692.475 837.1427 692.9906Q836.5333 693.4906 835.5802 693.4906Q834.3458 693.4906 833.6271 692.6Q832.7833 691.5375 832.7833 689.1156ZM833.86145 689.1156Q833.86145 691.225 834.36145 691.9281Q834.86145 692.6312 835.5802 692.6312Q836.3146 692.6312 836.79895 691.9281Q837.29895 691.225 837.29895 689.1156Q837.29895 686.9906 836.79895 686.3031Q836.3146 685.6 835.5646 685.6Q834.8458 685.6 834.4083 686.20935Q833.86145 686.9906 833.86145 689.1156Z" fill-rule="nonzero"/><path fill="#ffffff" d="M1144.8187 686.8656L1143.7719 686.9437Q1143.6312 686.3187 1143.3812 686.0375Q1142.9437 685.58435 1142.3187 685.58435Q1141.8187 685.58435 1141.4281 685.8656Q1140.9437 686.2406 1140.6469 686.9437Q1140.3656 687.6312 1140.35 688.9125Q1140.725 688.33435 1141.2719 688.0531Q1141.8344 687.77185 1142.4437 687.77185Q1143.4906 687.77185 1144.225 688.5531Q1144.975 689.33435 1144.975 690.5531Q1144.975 691.3656 1144.6156 692.0687Q1144.2719 692.7562 1143.6625 693.1312Q1143.0531 693.4906 1142.2875 693.4906Q1140.9594 693.4906 1140.1312 692.52185Q1139.3031 691.5531 1139.3031 689.33435Q1139.3031 686.83435 1140.225 685.70935Q1141.0219 684.725 1142.3812 684.725Q1143.3969 684.725 1144.0375 685.3031Q1144.6937 685.8656 1144.8187 686.8656ZM1140.5219 690.5687Q1140.5219 691.1156 1140.7406 691.6156Q1140.975 692.1 1141.3812 692.3656Q1141.8031 692.6312 1142.2719 692.6312Q1142.9281 692.6312 1143.4125 692.1Q1143.8969 691.5531 1143.8969 690.6312Q1143.8969 689.7406 1143.4125 689.225Q1142.9437 688.70935 1142.225 688.70935Q1141.5062 688.70935 1141.0062 689.225Q1140.5219 689.7406 1140.5219 690.5687ZM1146.35 689.1156Q1146.35 687.58435 1146.6625 686.6625Q1146.975 685.725 1147.5844 685.225Q1148.2094 684.725 1149.1469 684.725Q1149.8344 684.725 1150.35 685.0062Q1150.8812 685.2875 1151.225 685.8187Q1151.5687 686.33435 1151.7562 687.08435Q1151.9437 687.83435 1151.9437 689.1156Q1151.9437 690.6312 1151.6312 691.5531Q1151.3344 692.475 1150.7094 692.9906Q1150.1 693.4906 1149.1469 693.4906Q1147.9125 693.4906 1147.1937 692.6Q1146.35 691.5375 1146.35 689.1156ZM1147.4281 689.1156Q1147.4281 691.225 1147.9281 691.9281Q1148.4281 692.6312 1149.1469 692.6312Q1149.8812 692.6312 1150.3656 691.9281Q1150.8656 691.225 1150.8656 689.1156Q1150.8656 686.9906 1150.3656 686.3031Q1149.8812 685.6 1149.1312 685.6Q1148.4125 685.6 1147.975 686.20935Q1147.4281 686.9906 1147.4281 689.1156ZM1153.35 689.1156Q1153.35 687.58435 1153.6625 686.6625Q1153.975 685.725 1154.5844 685.225Q1155.2094 684.725 1156.1469 684.725Q1156.8344 684.725 1157.35 685.0062Q1157.8812 685.2875 1158.225 685.8187Q1158.5687 686.33435 1158.7562 687.08435Q1158.9437 687.83435 1158.9437 689.1156Q1158.9437 690.6312 1158.6312 691.5531Q1158.3344 692.475 1157.7094 692.9906Q1157.1 693.4906 1156.1469 693.4906Q1154.9125 693.4906 1154.1937 692.6Q1153.35 691.5375 1153.35 689.1156ZM1154.4281 689.1156Q1154.4281 691.225 1154.9281 691.9281Q1155.4281 692.6312 1156.1469 692.6312Q1156.8812 692.6312 1157.3656 691.9281Q1157.8656 691.225 1157.8656 689.1156Q1157.8656 686.9906 1157.3656 686.3031Q1156.8812 685.6 1156.1312 685.6Q1155.4125 685.6 1154.975 686.20935Q1154.4281 686.9906 1154.4281 689.1156Z" fill-rule="nonzero"/><path fill="#4285f4" d="M460.5 103.083336C460.5 102.53105 460.94772 102.083336 461.5 102.083336L471.5 102.083336C472.05228 102.083336 472.5 102.53105 472.5 103.083336L472.5 113.083336C472.5 113.63562 472.05228 114.083336 471.5 114.083336L461.5 114.083336C460.94772 114.083336 460.5 113.63562 460.5 113.083336Z" fill-rule="nonzero"/><path fill="#1a1a1a" d="M484.70312 115.083336L480.75 104.708336L482.60938 104.708336L484.84375 110.927086Q485.20312 111.927086 485.5 113.00521Q485.73438 112.19271 486.15625 111.03646L488.45312 104.708336L490.26562 104.708336L486.34375 115.083336L484.70312 115.083336ZM496.95312 115.083336L495.1875 115.083336L495.1875 103.88021Q494.5625 104.489586 493.53125 105.09896Q492.5 105.69271 491.67188 106.00521L491.67188 104.302086Q493.15625 103.614586 494.25 102.63021Q495.35938 101.63021 495.8125 100.708336L496.95312 100.708336L496.95312 115.083336ZM502.3125 115.083336L502.3125 113.083336L504.3125 113.083336L504.3125 115.083336L502.3125 115.083336ZM507.59375 111.770836L509.28125 111.614586Q509.5 112.802086 510.09375 113.34896Q510.70312 113.88021 511.65625 113.88021Q512.46875 113.88021 513.0781 113.520836Q513.6875 113.145836 514.0781 112.520836Q514.46875 111.895836 514.7344 110.84896Q515.0 109.78646 515.0 108.69271Q515.0 108.583336 514.9844 108.34896Q514.4531 109.177086 513.5469 109.708336Q512.6406 110.22396 511.5625 110.22396Q509.79688 110.22396 508.5625 108.94271Q507.32812 107.645836 507.32812 105.53646Q507.32812 103.364586 508.60938 102.03646Q509.90625 100.708336 511.82812 100.708336Q513.2344 100.708336 514.3906 101.458336Q515.5469 102.208336 516.1406 103.59896Q516.75 104.989586 516.75 107.63021Q516.75 110.38021 516.1406 112.00521Q515.5469 113.63021 514.375 114.489586Q513.2031 115.333336 511.625 115.333336Q509.9375 115.333336 508.875 114.395836Q507.8125 113.458336 507.59375 111.770836ZM514.7969 105.458336Q514.7969 103.94271 513.9844 103.052086Q513.1875 102.16146 512.0469 102.16146Q510.875 102.16146 510.0 103.13021Q509.14062 104.083336 509.14062 105.59896Q509.14062 106.97396 509.95312 107.833336Q510.78125 108.677086 512.0 108.677086Q513.21875 108.677086 514.0 107.833336Q514.7969 106.97396 514.7969 105.458336ZM519.3125 115.083336L519.3125 113.083336L521.3125 113.083336L521.3125 115.083336L519.3125 115.083336ZM524.3281 108.020836Q524.3281 105.489586 524.84375 103.94271Q525.375 102.38021 526.40625 101.552086Q527.4375 100.708336 529.0 100.708336Q530.15625 100.708336 531.0156 101.177086Q531.8906 101.63021 532.4531 102.50521Q533.0156 103.38021 533.34375 104.645836Q533.6719 105.895836 533.6719 108.020836Q533.6719 110.53646 533.1406 112.083336Q532.625 113.63021 531.59375 114.489586Q530.5781 115.333336 529.0 115.333336Q526.9219 115.333336 525.75 113.84896Q524.3281 112.052086 524.3281 108.020836ZM526.1406 108.020836Q526.1406 111.552086 526.9531 112.72396Q527.78125 113.88021 529.0 113.88021Q530.2031 113.88021 531.03125 112.708336Q531.8594 111.53646 531.8594 108.020836Q531.8594 104.489586 531.03125 103.333336Q530.2031 102.16146 528.9844 102.16146Q527.7656 102.16146 527.0469 103.19271Q526.1406 104.489586 526.1406 108.020836Z" fill-rule="nonzero"/><path fill="#ea4335" d="M550.5 103.083336C550.5 102.53105 550.9477 102.083336 551.5 102.083336L561.5 102.083336C562.0523 102.083336 562.5 102.53105 562.5 103.083336L562.5 113.083336C562.5 113.63562 562.0523 114.083336 561.5 114.083336L551.5 114.083336C550.9477 114.083336 550.5 113.63562 550.5 113.083336Z" fill-rule="nonzero"/><path fill="#1a1a1a" d="M574.7031 115.083336L570.75 104.708336L572.6094 104.708336L574.84375 110.927086Q575.2031 111.927086 575.5 113.00521Q575.7344 112.19271 576.15625 111.03646L578.4531 104.708336L580.2656 104.708336L576.34375 115.083336L574.7031 115.083336ZM586.9531 115.083336L585.1875 115.083336L585.1875 103.88021Q584.5625 104.489586 583.53125 105.09896Q582.5 105.69271 581.6719 106.00521L581.6719 104.302086Q583.15625 103.614586 584.25 102.63021Q585.3594 101.63021 585.8125 100.708336L586.9531 100.708336L586.9531 115.083336ZM592.3125 115.083336L592.3125 113.083336L594.3125 113.083336L594.3125 115.083336L592.3125 115.083336ZM603.9531 115.083336L602.1875 115.083336L602.1875 103.88021Q601.5625 104.489586 600.53125 105.09896Q599.5 105.69271 598.6719 106.00521L598.6719 104.302086Q600.15625 103.614586 601.25 102.63021Q602.3594 101.63021 602.8125 100.708336L603.9531 100.708336L603.9531 115.083336ZM617.5625 113.395836L617.5625 115.083336L608.1094 115.083336Q608.09375 114.44271 608.3125 113.864586Q608.6719 112.895836 609.46875 111.958336Q610.2656 111.020836 611.7656 109.78646Q614.1094 107.88021 614.9219 106.770836Q615.75 105.645836 615.75 104.645836Q615.75 103.59896 615.0 102.88021Q614.25 102.16146 613.0469 102.16146Q611.78125 102.16146 611.0156 102.927086Q610.25 103.69271 610.25 105.03646L608.4375 104.84896Q608.625 102.833336 609.8281 101.770836Q611.0469 100.708336 613.09375 100.708336Q615.1406 100.708336 616.34375 101.84896Q617.5469 102.989586 617.5469 104.677086Q617.5469 105.53646 617.1875 106.38021Q616.84375 107.208336 616.03125 108.13021Q615.21875 109.03646 613.3281 110.645836Q611.7344 111.97396 611.28125 112.44271Q610.84375 112.91146 610.5469 113.395836L617.5625 113.395836ZM620.3125 115.083336L620.3125 113.083336L622.3125 113.083336L622.3125 115.083336L620.3125 115.083336ZM631.9531 115.083336L630.1875 115.083336L630.1875 103.88021Q629.5625 104.489586 628.53125 105.09896Q627.5 105.69271 626.6719 106.00521L626.6719 104.302086Q628.15625 103.614586 629.25 102.63021Q630.3594 101.63021 630.8125 100.708336L631.9531 100.708336L631.9531 115.083336Z" fill-rule="nonzero"/><path fill="#fbbc04" d="M651.5 103.083336C651.5 102.53105 651.9477 102.083336 652.5 102.083336L662.5 102.083336C663.0523 102.083336 663.5 102.53105 663.5 103.083336L663.5 113.083336C663.5 113.63562 663.0523 114.083336 662.5 114.083336L652.5 114.083336C651.9477 114.083336 651.5 113.63562 651.5 113.083336Z" fill-rule="nonzero"/><path fill="#1a1a1a" d="M675.7031 115.083336L671.75 104.708336L673.6094 104.708336L675.84375 110.927086Q676.2031 111.927086 676.5 113.00521Q676.7344 112.19271 677.15625 111.03646L679.4531 104.708336L681.2656 104.708336L677.34375 115.083336L675.7031 115.083336ZM690.5625 113.395836L690.5625 115.083336L681.1094 115.083336Q681.09375 114.44271 681.3125 113.864586Q681.6719 112.895836 682.46875 111.958336Q683.2656 111.020836 684.7656 109.78646Q687.1094 107.88021 687.9219 106.770836Q688.75 105.645836 688.75 104.645836Q688.75 103.59896 688.0 102.88021Q687.25 102.16146 686.0469 102.16146Q684.78125 102.16146 684.0156 102.927086Q683.25 103.69271 683.25 105.03646L681.4375 104.84896Q681.625 102.833336 682.8281 101.770836Q684.0469 100.708336 686.09375 100.708336Q688.1406 100.708336 689.34375 101.84896Q690.5469 102.989586 690.5469 104.677086Q690.5469 105.53646 690.1875 106.38021Q689.84375 107.208336 689.03125 108.13021Q688.21875 109.03646 686.3281 110.645836Q684.7344 111.97396 684.28125 112.44271Q683.84375 112.91146 683.5469 113.395836L690.5625 113.395836ZM693.3125 115.083336L693.3125 113.083336L695.3125 113.083336L695.3125 115.083336L693.3125 115.083336ZM698.3281 108.020836Q698.3281 105.489586 698.84375 103.94271Q699.375 102.38021 700.40625 101.552086Q701.4375 100.708336 703.0 100.708336Q704.15625 100.708336 705.0156 101.177086Q705.8906 101.63021 706.4531 102.50521Q707.0156 103.38021 707.34375 104.645836Q707.6719 105.895836 707.6719 108.020836Q707.6719 110.53646 707.1406 112.083336Q706.625 113.63021 705.59375 114.489586Q704.5781 115.333336 703.0 115.333336Q700.9219 115.333336 699.75 113.84896Q698.3281 112.052086 698.3281 108.020836ZM700.1406 108.020836Q700.1406 111.552086 700.9531 112.72396Q701.78125 113.88021 703.0 113.88021Q704.2031 113.88021 705.03125 112.708336Q705.8594 111.53646 705.8594 108.020836Q705.8594 104.489586 705.03125 103.333336Q704.2031 102.16146 702.9844 102.16146Q701.7656 102.16146 701.0469 103.19271Q700.1406 104.489586 700.1406 108.020836ZM710.3125 115.083336L710.3125 113.083336L712.3125 113.083336L712.3125 115.083336L710.3125 115.083336ZM715.3281 108.020836Q715.3281 105.489586 715.84375 103.94271Q716.375 102.38021 717.40625 101.552086Q718.4375 100.708336 720.0 100.708336Q721.15625 100.708336 722.0156 101.177086Q722.8906 101.63021 723.4531 102.50521Q724.0156 103.38021 724.34375 104.645836Q724.6719 105.895836 724.6719 108.020836Q724.6719 110.53646 724.1406 112.083336Q723.625 113.63021 722.59375 114.489586Q721.5781 115.333336 720.0 115.333336Q717.9219 115.333336 716.75 113.84896Q715.3281 112.052086 715.3281 108.020836ZM717.1406 108.020836Q717.1406 111.552086 717.9531 112.72396Q718.78125 113.88021 720.0 113.88021Q721.2031 113.88021 722.03125 112.708336Q722.8594 111.53646 722.8594 108.020836Q722.8594 104.489586 722.03125 103.333336Q721.2031 102.16146 719.9844 102.16146Q718.7656 102.16146 718.0469 103.19271Q717.1406 104.489586 717.1406 108.020836Z" fill-rule="nonzero"/><path fill="#757575" d="M427.35938 64.65L427.35938 43.18125L436.875 43.18125Q439.75 43.18125 441.23438 43.759377Q442.73438 44.3375 443.625 45.80625Q444.53125 47.259377 444.53125 49.040627Q444.53125 51.321877 443.04688 52.884377Q441.5625 54.446877 438.48438 54.884377Q439.60938 55.415627 440.1875 55.946877Q441.4375 57.0875 442.54688 58.80625L446.28125 64.65L442.70312 64.65L439.875 60.18125Q438.625 58.24375 437.8125 57.228127Q437.01562 56.196877 436.375 55.790627Q435.73438 55.384377 435.07812 55.2125Q434.59375 55.11875 433.5 55.11875L430.20312 55.11875L430.20312 64.65L427.35938 64.65ZM430.20312 52.65L436.3125 52.65Q438.25 52.65 439.34375 52.259377Q440.45312 51.853127 441.01562 50.9625Q441.59375 50.071877 441.59375 49.040627Q441.59375 47.509377 440.48438 46.525Q439.39062 45.540627 437.0 45.540627L430.20312 45.540627L430.20312 52.65ZM459.17188 64.65L459.17188 62.36875Q457.35938 65.00938 454.23438 65.00938Q452.85938 65.00938 451.65625 64.47813Q450.46875 63.946877 449.89062 63.15Q449.3125 62.353127 449.07812 61.196877Q448.92188 60.415627 448.92188 58.728127L448.92188 49.0875L451.5625 49.0875L451.5625 57.728127Q451.5625 59.790627 451.71875 60.509377Q451.96875 61.540627 452.76562 62.134377Q453.57812 62.728127 454.76562 62.728127Q455.95312 62.728127 456.98438 62.11875Q458.03125 61.509377 458.45312 60.4625Q458.89062 59.415627 458.89062 57.43125L458.89062 49.0875L461.53125 49.0875L461.53125 64.65L459.17188 64.65ZM465.98438 64.65L465.98438 49.0875L468.34375 49.0875L468.34375 51.30625Q470.0625 48.74375 473.29688 48.74375Q474.70312 48.74375 475.875 49.259377Q477.0625 49.759377 477.64062 50.5875Q478.23438 51.4 478.46875 52.525Q478.625 53.259377 478.625 55.0875L478.625 64.65L475.98438 64.65L475.98438 55.18125Q475.98438 53.571877 475.67188 52.775Q475.375 51.978127 474.57812 51.509377Q473.79688 51.025 472.75 51.025Q471.0625 51.025 469.82812 52.103127Q468.60938 53.165627 468.60938 56.15L468.60938 64.65L465.98438 64.65ZM490.25 59.025L493.01562 58.790627Q493.32812 60.80625 494.4375 61.8375Q495.5625 62.853127 497.14062 62.853127Q499.04688 62.853127 500.35938 61.415627Q501.6875 59.978127 501.6875 57.603127Q501.6875 55.353127 500.42188 54.05625Q499.15625 52.74375 497.09375 52.74375Q495.82812 52.74375 494.79688 53.321877Q493.78125 53.9 493.1875 54.821877L490.71875 54.49375L492.79688 43.4625L503.46875 43.4625L503.46875 45.99375L494.90625 45.99375L493.75 51.759377Q495.6875 50.415627 497.79688 50.415627Q500.60938 50.415627 502.54688 52.36875Q504.48438 54.30625 504.48438 57.36875Q504.48438 60.290627 502.78125 62.415627Q500.71875 65.00938 497.14062 65.00938Q494.21875 65.00938 492.35938 63.36875Q490.51562 61.728127 490.25 59.025ZM507.25 54.05625Q507.25 50.24375 508.03125 47.93125Q508.8125 45.603127 510.35938 44.353127Q511.90625 43.0875 514.25 43.0875Q515.96875 43.0875 517.2656 43.790627Q518.5781 44.478127 519.4219 45.790627Q520.28125 47.103127 520.7656 48.99375Q521.25 50.86875 521.25 54.05625Q521.25 57.8375 520.46875 60.165627Q519.7031 62.478127 518.15625 63.74375Q516.6094 65.00938 514.25 65.00938Q511.14062 65.00938 509.375 62.790627Q507.25 60.103127 507.25 54.05625ZM509.95312 54.05625Q509.95312 59.353127 511.1875 61.103127Q512.4375 62.853127 514.25 62.853127Q516.0625 62.853127 517.2969 61.103127Q518.5469 59.3375 518.5469 54.05625Q518.5469 48.759377 517.2969 47.025Q516.0625 45.275 514.21875 45.275Q512.40625 45.275 511.3125 46.80625Q509.95312 48.775 509.95312 54.05625ZM533.7969 64.65L533.7969 43.18125L536.6406 43.18125L536.6406 64.65L533.7969 64.65ZM539.9844 64.65L539.9844 49.0875L542.34375 49.0875L542.34375 51.30625Q544.0625 48.74375 547.2969 48.74375Q548.7031 48.74375 549.875 49.259377Q551.0625 49.759377 551.6406 50.5875Q552.2344 51.4 552.46875 52.525Q552.625 53.259377 552.625 55.0875L552.625 64.65L549.9844 64.65L549.9844 55.18125Q549.9844 53.571877 549.6719 52.775Q549.375 51.978127 548.5781 51.509377Q547.7969 51.025 546.75 51.025Q545.0625 51.025 543.8281 52.103127Q542.6094 53.165627 542.6094 56.15L542.6094 64.65L539.9844 64.65ZM562.7344 62.290627L563.1094 64.61875Q562.0 64.85313 561.125 64.85313Q559.6875 64.85313 558.8906 64.4Q558.1094 63.946877 557.78125 63.2125Q557.46875 62.4625 557.46875 60.0875L557.46875 51.15L555.53125 51.15L555.53125 49.0875L557.46875 49.0875L557.46875 45.24375L560.0781 43.665627L560.0781 49.0875L562.7344 49.0875L562.7344 51.15L560.0781 51.15L560.0781 60.24375Q560.0781 61.36875 560.21875 61.696877Q560.3594 62.009377 560.6719 62.2125Q560.9844 62.4 561.5781 62.4Q562.0156 62.4 562.7344 62.290627ZM575.625 59.634377L578.3594 59.978127Q577.7031 62.36875 575.9531 63.696877Q574.21875 65.00938 571.5156 65.00938Q568.09375 65.00938 566.09375 62.9Q564.09375 60.790627 564.09375 57.009377Q564.09375 53.071877 566.1094 50.915627Q568.1406 48.74375 571.3594 48.74375Q574.4844 48.74375 576.4531 50.86875Q578.4375 52.99375 578.4375 56.8375Q578.4375 57.071877 578.4219 57.540627L566.8281 57.540627Q566.96875 60.103127 568.2656 61.478127Q569.5781 62.8375 571.53125 62.8375Q572.96875 62.8375 574.0 62.071877Q575.03125 61.30625 575.625 59.634377ZM566.96875 55.384377L575.65625 55.384377Q575.4844 53.415627 574.65625 52.43125Q573.40625 50.915627 571.3906 50.915627Q569.5781 50.915627 568.34375 52.134377Q567.1094 53.3375 566.96875 55.384377ZM580.5 65.94688L583.0625 66.32188Q583.21875 67.50938 583.9531 68.05625Q584.9375 68.775 586.625 68.775Q588.46875 68.775 589.4531 68.04063Q590.4531 67.32188 590.8125 65.99375Q591.0156 65.19688 591.0 62.61875Q589.2656 64.65 586.6875 64.65Q583.4844 64.65 581.71875 62.3375Q579.96875 60.025 579.96875 56.790627Q579.96875 54.55625 580.7656 52.68125Q581.5781 50.790627 583.1094 49.775Q584.6406 48.74375 586.7031 48.74375Q589.4531 48.74375 591.25 50.9625L591.25 49.0875L593.6719 49.0875L593.6719 62.540627Q593.6719 66.18125 592.9375 67.69688Q592.2031 69.2125 590.59375 70.0875Q588.9844 70.9625 586.6406 70.9625Q583.8594 70.9625 582.1406 69.7125Q580.4375 68.4625 580.5 65.94688ZM582.6719 56.5875Q582.6719 59.65 583.8906 61.05625Q585.1094 62.4625 586.9375 62.4625Q588.75 62.4625 589.9844 61.071877Q591.21875 59.665627 591.21875 56.68125Q591.21875 53.821877 589.9531 52.384377Q588.6875 50.93125 586.8906 50.93125Q585.1406 50.93125 583.90625 52.353127Q582.6719 53.775 582.6719 56.5875ZM597.9531 64.65L597.9531 49.0875L600.3281 49.0875L600.3281 51.446877Q601.2344 49.790627 602.0 49.275Q602.7656 48.74375 603.6875 48.74375Q605.03125 48.74375 606.40625 49.5875L605.5 52.040627Q604.53125 51.4625 603.5625 51.4625Q602.6875 51.4625 602.0 51.99375Q601.3125 52.509377 601.03125 53.43125Q600.5781 54.8375 600.5781 56.509377L600.5781 64.65L597.9531 64.65ZM618.125 62.728127Q616.6719 63.978127 615.3125 64.49375Q613.9531 65.00938 612.40625 65.00938Q609.84375 65.00938 608.4531 63.759377Q607.0781 62.49375 607.0781 60.540627Q607.0781 59.4 607.59375 58.4625Q608.125 57.509377 608.96875 56.946877Q609.8125 56.36875 610.8594 56.0875Q611.6406 55.86875 613.2031 55.68125Q616.40625 55.30625 617.90625 54.775Q617.9219 54.228127 617.9219 54.0875Q617.9219 52.478127 617.1719 51.821877Q616.1719 50.93125 614.1719 50.93125Q612.3125 50.93125 611.4219 51.5875Q610.5469 52.228127 610.1094 53.884377L607.53125 53.525Q607.8906 51.86875 608.6875 50.853127Q609.5 49.8375 611.0156 49.290627Q612.5469 48.74375 614.5625 48.74375Q616.5469 48.74375 617.78125 49.2125Q619.03125 49.68125 619.6094 50.4Q620.2031 51.103127 620.4375 52.18125Q620.5781 52.853127 620.5781 54.61875L620.5781 58.134377Q620.5781 61.80625 620.7344 62.790627Q620.90625 63.759377 621.40625 64.65L618.65625 64.65Q618.25 63.821877 618.125 62.728127ZM617.90625 56.8375Q616.46875 57.43125 613.6094 57.8375Q611.9844 58.071877 611.2969 58.36875Q610.625 58.665627 610.25 59.228127Q609.8906 59.790627 609.8906 60.478127Q609.8906 61.525 610.6875 62.228127Q611.5 62.93125 613.03125 62.93125Q614.5625 62.93125 615.7344 62.275Q616.9219 61.603127 617.4844 60.446877Q617.90625 59.55625 617.90625 57.80625L617.90625 56.8375ZM629.7344 62.290627L630.1094 64.61875Q629.0 64.85313 628.125 64.85313Q626.6875 64.85313 625.8906 64.4Q625.1094 63.946877 624.78125 63.2125Q624.46875 62.4625 624.46875 60.0875L624.46875 51.15L622.53125 51.15L622.53125 49.0875L624.46875 49.0875L624.46875 45.24375L627.0781 43.665627L627.0781 49.0875L629.7344 49.0875L629.7344 51.15L627.0781 51.15L627.0781 60.24375Q627.0781 61.36875 627.21875 61.696877Q627.3594 62.009377 627.6719 62.2125Q627.9844 62.4 628.5781 62.4Q629.0156 62.4 629.7344 62.290627ZM632.0 46.2125L632.0 43.18125L634.625 43.18125L634.625 46.2125L632.0 46.2125ZM632.0 64.65L632.0 49.0875L634.625 49.0875L634.625 64.65L632.0 64.65ZM638.0 56.86875Q638.0 52.55625 640.40625 50.4625Q642.40625 48.74375 645.2969 48.74375Q648.5 48.74375 650.53125 50.853127Q652.5781 52.946877 652.5781 56.65Q652.5781 59.65 651.6719 61.384377Q650.7656 63.103127 649.0469 64.05625Q647.3281 65.00938 645.2969 65.00938Q642.03125 65.00938 640.0156 62.915627Q638.0 60.80625 638.0 56.86875ZM640.7031 56.86875Q640.7031 59.853127 642.0 61.353127Q643.3125 62.8375 645.2969 62.8375Q647.25 62.8375 648.5469 61.3375Q649.8594 59.8375 649.8594 56.790627Q649.8594 53.9 648.5469 52.415627Q647.2344 50.93125 645.2969 50.93125Q643.3125 50.93125 642.0 52.415627Q640.7031 53.884377 640.7031 56.86875ZM654.9844 64.65L654.9844 49.0875L657.34375 49.0875L657.34375 51.30625Q659.0625 48.74375 662.2969 48.74375Q663.7031 48.74375 664.875 49.259377Q666.0625 49.759377 666.6406 50.5875Q667.2344 51.4 667.46875 52.525Q667.625 53.259377 667.625 55.0875L667.625 64.65L664.9844 64.65L664.9844 55.18125Q664.9844 53.571877 664.6719 52.775Q664.375 51.978127 663.5781 51.509377Q662.7969 51.025 661.75 51.025Q660.0625 51.025 658.8281 52.103127Q657.6094 53.165627 657.6094 56.15L657.6094 64.65L654.9844 64.65ZM680.2031 64.65L680.2031 43.18125L688.25 43.18125Q690.71875 43.18125 692.2031 43.8375Q693.6875 44.478127 694.53125 45.8375Q695.375 47.18125 695.375 48.665627Q695.375 50.040627 694.625 51.259377Q693.875 52.478127 692.375 53.228127Q694.3125 53.790627 695.3594 55.18125Q696.40625 56.55625 696.40625 58.43125Q696.40625 59.93125 695.7656 61.228127Q695.1406 62.525 694.2031 63.228127Q693.2656 63.93125 691.84375 64.29063Q690.4375 64.65 688.3906 64.65L680.2031 64.65ZM683.0469 52.196877L687.6875 52.196877Q689.5781 52.196877 690.3906 51.946877Q691.4844 51.634377 692.03125 50.884377Q692.5781 50.134377 692.5781 49.009377Q692.5781 47.93125 692.0625 47.11875Q691.5469 46.30625 690.59375 46.009377Q689.6406 45.7125 687.3281 45.7125L683.0469 45.7125L683.0469 52.196877ZM683.0469 62.11875L688.3906 62.11875Q689.7656 62.11875 690.3125 62.009377Q691.2969 61.8375 691.9531 61.43125Q692.625 61.009377 693.0469 60.228127Q693.46875 59.446877 693.46875 58.43125Q693.46875 57.228127 692.84375 56.3375Q692.2344 55.446877 691.1406 55.0875Q690.0625 54.728127 688.0 54.728127L683.0469 54.728127L683.0469 62.11875ZM710.1719 64.65L710.1719 62.36875Q708.3594 65.00938 705.2344 65.00938Q703.8594 65.00938 702.65625 64.47813Q701.46875 63.946877 700.8906 63.15Q700.3125 62.353127 700.0781 61.196877Q699.9219 60.415627 699.9219 58.728127L699.9219 49.0875L702.5625 49.0875L702.5625 57.728127Q702.5625 59.790627 702.71875 60.509377Q702.96875 61.540627 703.7656 62.134377Q704.5781 62.728127 705.7656 62.728127Q706.9531 62.728127 707.9844 62.11875Q709.03125 61.509377 709.4531 60.4625Q709.8906 59.415627 709.8906 57.43125L709.8906 49.0875L712.53125 49.0875L712.53125 64.65L710.1719 64.65ZM717.0 46.2125L717.0 43.18125L719.625 43.18125L719.625 46.2125L717.0 46.2125ZM717.0 64.65L717.0 49.0875L719.625 49.0875L719.625 64.65L717.0 64.65ZM723.9219 64.65L723.9219 43.18125L726.5625 43.18125L726.5625 64.65L723.9219 64.65ZM741.0781 64.65L741.0781 62.68125Q739.59375 65.00938 736.71875 65.00938Q734.8594 65.00938 733.2969 63.978127Q731.7344 62.946877 730.875 61.11875Q730.03125 59.275 730.03125 56.884377Q730.03125 54.55625 730.7969 52.665627Q731.5781 50.759377 733.125 49.759377Q734.6875 48.74375 736.6094 48.74375Q738.0156 48.74375 739.1094 49.3375Q740.2031 49.93125 740.8906 50.884377L740.8906 43.18125L743.5156 43.18125L743.5156 64.65L741.0781 64.65ZM732.7344 56.884377Q732.7344 59.86875 733.9844 61.353127Q735.25 62.8375 736.96875 62.8375Q738.7031 62.8375 739.90625 61.43125Q741.1094 60.009377 741.1094 57.103127Q741.1094 53.915627 739.875 52.43125Q738.65625 50.93125 736.8594 50.93125Q735.09375 50.93125 733.90625 52.36875Q732.7344 53.790627 732.7344 56.884377ZM746.9219 60.009377L749.53125 59.603127Q749.75 61.165627 750.75 62.009377Q751.75 62.8375 753.5625 62.8375Q755.375 62.8375 756.25 62.103127Q757.1406 61.353127 757.1406 60.353127Q757.1406 59.4625 756.3594 58.946877Q755.8125 58.603127 753.65625 58.05625Q750.7656 57.321877 749.6406 56.790627Q748.5156 56.259377 747.9375 55.321877Q747.3594 54.36875 747.3594 53.228127Q747.3594 52.18125 747.8281 51.30625Q748.3125 50.415627 749.1406 49.821877Q749.75 49.36875 750.8125 49.05625Q751.875 48.74375 753.09375 48.74375Q754.9219 48.74375 756.2969 49.275Q757.6875 49.790627 758.34375 50.696877Q759.0156 51.603127 759.25 53.103127L756.6719 53.4625Q756.5 52.259377 755.65625 51.5875Q754.8125 50.915627 753.28125 50.915627Q751.46875 50.915627 750.6875 51.509377Q749.90625 52.103127 749.90625 52.915627Q749.90625 53.43125 750.2344 53.8375Q750.5625 54.259377 751.25 54.540627Q751.6406 54.68125 753.5781 55.2125Q756.375 55.9625 757.46875 56.446877Q758.5781 56.915627 759.2031 57.821877Q759.84375 58.728127 759.84375 60.071877Q759.84375 61.4 759.0781 62.571877Q758.3125 63.728127 756.8594 64.36875Q755.40625 65.00938 753.5781 65.00938Q750.5469 65.00938 748.9531 63.74375Q747.3594 62.478127 746.9219 60.009377Z" fill-rule="nonzero"/></svg>