<svg version="1.1" viewBox="0.0 0.0 1186.0 733.0" fill="none" stroke="none" stroke-linecap="square" stroke-miterlimit="10" width="1186" height="733" xmlns:xlink="http://www.w3.org/1999/xlink" xmlns="http://www.w3.org/2000/svg"><path fill="#ffffff" d="M0 0L1186.0 0L1186.0 733.0L0 733.0L0 0Z" fill-rule="nonzero"/><path stroke="#333333" stroke-width="1.0" stroke-linecap="butt" d="M183.5 144.5L183.5 676.5" fill-rule="nonzero"/><path stroke="#cccccc" stroke-width="1.0" stroke-linecap="butt" d="M505.5 144.5L505.5 676.5" fill-rule="nonzero"/><path stroke="#cccccc" stroke-width="1.0" stroke-linecap="butt" d="M827.5 144.5L827.5 676.5" fill-rule="nonzero"/><path stroke="#cccccc" stroke-width="1.0" stroke-linecap="butt" d="M1149.5 144.5L1149.5 676.5" fill-rule="nonzero"/><clipPath id="id_0"><path d="M183.65 144.51666L1149.35 144.51666L1149.35 676.35L183.65 676.35L183.65 144.51666Z" clip-rule="nonzero"/></clipPath><path stroke="#000000" stroke-width="2.0" stroke-linecap="butt" stroke-opacity="0.0" clip-path="url(#id_0)" d="M184.0 234.0L184.0 202.0L1033.0 202.0C1034.1046 202.0 1035.0 202.89543 1035.0 204.0L1035.0 232.0C1035.0 233.10457 1034.1046 234.0 1033.0 234.0Z" fill-rule="nonzero"/><path fill="#4285f4" clip-path="url(#id_0)" d="M184.0 234.0L184.0 202.0L1033.0 202.0C1034.1046 202.0 1035.0 202.89543 1035.0 204.0L1035.0 232.0C1035.0 233.10457 1034.1046 234.0 1033.0 234.0Z" fill-rule="nonzero"/><path stroke="#000000" stroke-width="2.0" stroke-linecap="butt" stroke-opacity="0.0" clip-path="url(#id_0)" d="M184.0 392.0L184.0 360.0L603.0 360.0C604.10455 360.0 605.0 360.89542 605.0 362.0L605.0 390.0C605.0 391.10458 604.10455 392.0 603.0 392.0Z" fill-rule="nonzero"/><path fill="#4285f4" clip-path="url(#id_0)" d="M184.0 392.0L184.0 360.0L603.0 360.0C604.10455 360.0 605.0 360.89542 605.0 362.0L605.0 390.0C605.0 391.10458 604.10455 392.0 603.0 392.0Z" fill-rule="nonzero"/><path stroke="#000000" stroke-width="2.0" stroke-linecap="butt" stroke-opacity="0.0" clip-path="url(#id_0)" d="M184.0 551.0L184.0 519.0L228.0 519.0C229.10457 519.0 230.0 519.89545 230.0 521.0L230.0 549.0C230.0 550.10455 229.10457 551.0 228.0 551.0Z" fill-rule="nonzero"/><path fill="#4285f4" clip-path="url(#id_0)" d="M184.0 551.0L184.0 519.0L228.0 519.0C229.10457 519.0 230.0 519.89545 230.0 521.0L230.0 549.0C230.0 550.10455 229.10457 551.0 228.0 551.0Z" fill-rule="nonzero"/><path stroke="#000000" stroke-width="2.0" stroke-linecap="butt" stroke-opacity="0.0" clip-path="url(#id_0)" d="M184.0 268.0L184.0 236.0L735.0 236.0C736.10455 236.0 737.0 236.89543 737.0 238.0L737.0 266.0C737.0 267.10458 736.10455 268.0 735.0 268.0Z" fill-rule="nonzero"/><path fill="#ea4335" clip-path="url(#id_0)" d="M184.0 268.0L184.0 236.0L735.0 236.0C736.10455 236.0 737.0 236.89543 737.0 238.0L737.0 266.0C737.0 267.10458 736.10455 268.0 735.0 268.0Z" fill-rule="nonzero"/><path stroke="#000000" stroke-width="2.0" stroke-linecap="butt" stroke-opacity="0.0" clip-path="url(#id_0)" d="M184.0 426.0L184.0 394.0L269.0 394.0C270.10458 394.0 271.0 394.89542 271.0 396.0L271.0 424.0C271.0 425.10458 270.10458 426.0 269.0 426.0Z" fill-rule="nonzero"/><path fill="#ea4335" clip-path="url(#id_0)" d="M184.0 426.0L184.0 394.0L269.0 394.0C270.10458 394.0 271.0 394.89542 271.0 396.0L271.0 424.0C271.0 425.10458 270.10458 426.0 269.0 426.0Z" fill-rule="nonzero"/><path stroke="#000000" stroke-width="2.0" stroke-linecap="butt" stroke-opacity="0.0" clip-path="url(#id_0)" d="M184.0 585.0L184.0 553.0L215.0 553.0C216.10457 553.0 217.0 553.89545 217.0 555.0L217.0 583.0C217.0 584.10455 216.10457 585.0 215.0 585.0Z" fill-rule="nonzero"/><path fill="#ea4335" clip-path="url(#id_0)" d="M184.0 585.0L184.0 553.0L215.0 553.0C216.10457 553.0 217.0 553.89545 217.0 555.0L217.0 583.0C217.0 584.10455 216.10457 585.0 215.0 585.0Z" fill-rule="nonzero"/><path stroke="#000000" stroke-width="2.0" stroke-linecap="butt" stroke-opacity="0.0" clip-path="url(#id_0)" d="M184.0 302.0L184.0 270.0L674.0 270.0C675.10455 270.0 676.0 270.89542 676.0 272.0L676.0 300.0C676.0 301.10458 675.10455 302.0 674.0 302.0Z" fill-rule="nonzero"/><path fill="#fbbc04" clip-path="url(#id_0)" d="M184.0 302.0L184.0 270.0L674.0 270.0C675.10455 270.0 676.0 270.89542 676.0 272.0L676.0 300.0C676.0 301.10458 675.10455 302.0 674.0 302.0Z" fill-rule="nonzero"/><path stroke="#000000" stroke-width="2.0" stroke-linecap="butt" stroke-opacity="0.0" clip-path="url(#id_0)" d="M184.0 460.0L184.0 428.0L278.0 428.0C279.10458 428.0 280.0 428.89542 280.0 430.0L280.0 458.0C280.0 459.10458 279.10458 460.0 278.0 460.0Z" fill-rule="nonzero"/><path fill="#fbbc04" clip-path="url(#id_0)" d="M184.0 460.0L184.0 428.0L278.0 428.0C279.10458 428.0 280.0 428.89542 280.0 430.0L280.0 458.0C280.0 459.10458 279.10458 460.0 278.0 460.0Z" fill-rule="nonzero"/><path stroke="#000000" stroke-width="2.0" stroke-linecap="butt" stroke-opacity="0.0" clip-path="url(#id_0)" d="M184.0 619.0L184.0 587.0L214.0 587.0C215.10457 587.0 216.0 587.89545 216.0 589.0L216.0 617.0C216.0 618.10455 215.10457 619.0 214.0 619.0Z" fill-rule="nonzero"/><path fill="#fbbc04" clip-path="url(#id_0)" d="M184.0 619.0L184.0 587.0L214.0 587.0C215.10457 587.0 216.0 587.89545 216.0 589.0L216.0 617.0C216.0 618.10455 215.10457 619.0 214.0 619.0Z" fill-rule="nonzero"/><path stroke="#4285f4" stroke-width="3.0" stroke-linejoin="round" stroke-linecap="round" d="M1010.47864 218.21875L1010.91614 213.96875L1015.29114 213.96875L1015.29114 214.96875L1011.838 214.96875L1011.5724 217.29688Q1012.213 216.92188 1013.0099 216.92188Q1014.16614 216.92188 1014.85364 217.70312Q1015.54114 218.46875 1015.54114 219.78125Q1015.54114 221.09375 1014.8224 221.85938Q1014.11926 222.625 1012.838 222.625Q1011.713 222.625 1010.99426 222.0Q1010.2755 221.35938 1010.18176 220.25L1011.1974 220.25Q1011.30676 220.98438 1011.72864 221.35938Q1012.1505 221.73438 1012.838 221.73438Q1013.588 221.73438 1014.0255 221.21875Q1014.463 220.70312 1014.463 219.79688Q1014.463 218.9375 1013.99426 218.42188Q1013.5255 217.90625 1012.74426 217.90625Q1012.04114 217.90625 1011.6349 218.20312L1011.35364 218.4375L1010.47864 218.21875ZM1022.5724 222.5L1016.97864 222.5L1016.97864 221.71875L1019.93176 218.4375Q1020.588 217.6875 1020.838 217.23438Q1021.088 216.76562 1021.088 216.26562Q1021.088 215.59375 1020.68176 215.17188Q1020.29114 214.73438 1019.60364 214.73438Q1018.80676 214.73438 1018.35364 215.20312Q1017.9005 215.65625 1017.9005 216.48438L1016.8224 216.48438Q1016.8224 215.29688 1017.5724 214.57812Q1018.338 213.84375 1019.60364 213.84375Q1020.80676 213.84375 1021.49426 214.46875Q1022.18176 215.09375 1022.18176 216.14062Q1022.18176 217.39062 1020.5724 219.14062L1018.29114 221.60938L1022.5724 221.60938L1022.5724 222.5ZM1028.1349 218.75Q1027.8068 219.15625 1027.3224 219.40625Q1026.8536 219.64062 1026.2911 219.64062Q1025.5568 219.64062 1025.0099 219.28125Q1024.463 218.92188 1024.1661 218.26562Q1023.86926 217.59375 1023.86926 216.79688Q1023.86926 215.95312 1024.1818 215.26562Q1024.5099 214.57812 1025.1036 214.21875Q1025.713 213.84375 1026.5099 213.84375Q1027.7755 213.84375 1028.4943 214.79688Q1029.2286 215.75 1029.2286 217.375L1029.2286 217.6875Q1029.2286 220.1875 1028.2443 221.32812Q1027.2599 222.46875 1025.2755 222.5L1025.0568 222.5L1025.0568 221.59375L1025.2911 221.59375Q1026.6349 221.5625 1027.3536 220.89062Q1028.0724 220.21875 1028.1349 218.75ZM1026.463 218.75Q1027.0099 218.75 1027.463 218.42188Q1027.9318 218.07812 1028.1505 217.59375L1028.1505 217.15625Q1028.1505 216.09375 1027.6818 215.42188Q1027.213 214.75 1026.5099 214.75Q1025.7911 214.75 1025.3536 215.29688Q1024.9318 215.84375 1024.9318 216.75Q1024.9318 217.625 1025.338 218.1875Q1025.7599 218.75 1026.463 218.75Z" fill-rule="nonzero"/><path fill="#ffffff" d="M1010.47864 218.21875L1010.91614 213.96875L1015.29114 213.96875L1015.29114 214.96875L1011.838 214.96875L1011.5724 217.29688Q1012.213 216.92188 1013.0099 216.92188Q1014.16614 216.92188 1014.85364 217.70312Q1015.54114 218.46875 1015.54114 219.78125Q1015.54114 221.09375 1014.8224 221.85938Q1014.11926 222.625 1012.838 222.625Q1011.713 222.625 1010.99426 222.0Q1010.2755 221.35938 1010.18176 220.25L1011.1974 220.25Q1011.30676 220.98438 1011.72864 221.35938Q1012.1505 221.73438 1012.838 221.73438Q1013.588 221.73438 1014.0255 221.21875Q1014.463 220.70312 1014.463 219.79688Q1014.463 218.9375 1013.99426 218.42188Q1013.5255 217.90625 1012.74426 217.90625Q1012.04114 217.90625 1011.6349 218.20312L1011.35364 218.4375L1010.47864 218.21875ZM1022.5724 222.5L1016.97864 222.5L1016.97864 221.71875L1019.93176 218.4375Q1020.588 217.6875 1020.838 217.23438Q1021.088 216.76562 1021.088 216.26562Q1021.088 215.59375 1020.68176 215.17188Q1020.29114 214.73438 1019.60364 214.73438Q1018.80676 214.73438 1018.35364 215.20312Q1017.9005 215.65625 1017.9005 216.48438L1016.8224 216.48438Q1016.8224 215.29688 1017.5724 214.57812Q1018.338 213.84375 1019.60364 213.84375Q1020.80676 213.84375 1021.49426 214.46875Q1022.18176 215.09375 1022.18176 216.14062Q1022.18176 217.39062 1020.5724 219.14062L1018.29114 221.60938L1022.5724 221.60938L1022.5724 222.5ZM1028.1349 218.75Q1027.8068 219.15625 1027.3224 219.40625Q1026.8536 219.64062 1026.2911 219.64062Q1025.5568 219.64062 1025.0099 219.28125Q1024.463 218.92188 1024.1661 218.26562Q1023.86926 217.59375 1023.86926 216.79688Q1023.86926 215.95312 1024.1818 215.26562Q1024.5099 214.57812 1025.1036 214.21875Q1025.713 213.84375 1026.5099 213.84375Q1027.7755 213.84375 1028.4943 214.79688Q1029.2286 215.75 1029.2286 217.375L1029.2286 217.6875Q1029.2286 220.1875 1028.2443 221.32812Q1027.2599 222.46875 1025.2755 222.5L1025.0568 222.5L1025.0568 221.59375L1025.2911 221.59375Q1026.6349 221.5625 1027.3536 220.89062Q1028.0724 220.21875 1028.1349 218.75ZM1026.463 218.75Q1027.0099 218.75 1027.463 218.42188Q1027.9318 218.07812 1028.1505 217.59375L1028.1505 217.15625Q1028.1505 216.09375 1027.6818 215.42188Q1027.213 214.75 1026.5099 214.75Q1025.7911 214.75 1025.3536 215.29688Q1024.9318 215.84375 1024.9318 216.75Q1024.9318 217.625 1025.338 218.1875Q1025.7599 218.75 1026.463 218.75Z" fill-rule="nonzero"/><path stroke="#4285f4" stroke-width="3.0" stroke-linejoin="round" stroke-linecap="round" d="M585.8359 380.5L580.2421 380.5L580.2421 379.71875L583.19525 376.4375Q583.8515 375.6875 584.1015 375.23438Q584.3515 374.76562 584.3515 374.26562Q584.3515 373.59375 583.94525 373.17188Q583.5546 372.73438 582.8671 372.73438Q582.07025 372.73438 581.6171 373.20312Q581.164 373.65625 581.164 374.48438L580.0859 374.48438Q580.0859 373.29688 580.8359 372.57812Q581.6015 371.84375 582.8671 371.84375Q584.07025 371.84375 584.75775 372.46875Q585.44525 373.09375 585.44525 374.14062Q585.44525 375.39062 583.8359 377.14062L581.5546 379.60938L585.8359 379.60938L585.8359 380.5ZM591.50775 371.96875L591.50775 372.875L591.3046 372.875Q590.039 372.90625 589.289 373.64062Q588.539 374.35938 588.414 375.67188Q589.1015 374.90625 590.25775 374.90625Q591.3671 374.90625 592.039 375.6875Q592.7109 376.46875 592.7109 377.71875Q592.7109 379.03125 591.9921 379.82812Q591.2734 380.625 590.0546 380.625Q588.8359 380.625 588.07025 379.6875Q587.32025 378.73438 587.32025 377.25L587.32025 376.84375Q587.32025 374.48438 588.32025 373.23438Q589.32025 371.98438 591.3046 371.96875L591.50775 371.96875ZM590.0859 375.8125Q589.5234 375.8125 589.0546 376.14062Q588.5859 376.46875 588.3984 376.98438L588.3984 377.375Q588.3984 378.4375 588.8671 379.07812Q589.3515 379.71875 590.0546 379.71875Q590.789 379.71875 591.2109 379.1875Q591.63275 378.64062 591.63275 377.76562Q591.63275 376.89062 591.2109 376.35938Q590.789 375.8125 590.0859 375.8125ZM599.8359 380.5L594.2421 380.5L594.2421 379.71875L597.19525 376.4375Q597.8515 375.6875 598.1015 375.23438Q598.3515 374.76562 598.3515 374.26562Q598.3515 373.59375 597.94525 373.17188Q597.5546 372.73438 596.8671 372.73438Q596.07025 372.73438 595.6171 373.20312Q595.164 373.65625 595.164 374.48438L594.0859 374.48438Q594.0859 373.29688 594.8359 372.57812Q595.6015 371.84375 596.8671 371.84375Q598.07025 371.84375 598.75775 372.46875Q599.44525 373.09375 599.44525 374.14062Q599.44525 375.39062 597.8359 377.14062L595.5546 379.60938L599.8359 379.60938L599.8359 380.5Z" fill-rule="nonzero"/><path fill="#ffffff" d="M585.8359 380.5L580.2421 380.5L580.2421 379.71875L583.19525 376.4375Q583.8515 375.6875 584.1015 375.23438Q584.3515 374.76562 584.3515 374.26562Q584.3515 373.59375 583.94525 373.17188Q583.5546 372.73438 582.8671 372.73438Q582.07025 372.73438 581.6171 373.20312Q581.164 373.65625 581.164 374.48438L580.0859 374.48438Q580.0859 373.29688 580.8359 372.57812Q581.6015 371.84375 582.8671 371.84375Q584.07025 371.84375 584.75775 372.46875Q585.44525 373.09375 585.44525 374.14062Q585.44525 375.39062 583.8359 377.14062L581.5546 379.60938L585.8359 379.60938L585.8359 380.5ZM591.50775 371.96875L591.50775 372.875L591.3046 372.875Q590.039 372.90625 589.289 373.64062Q588.539 374.35938 588.414 375.67188Q589.1015 374.90625 590.25775 374.90625Q591.3671 374.90625 592.039 375.6875Q592.7109 376.46875 592.7109 377.71875Q592.7109 379.03125 591.9921 379.82812Q591.2734 380.625 590.0546 380.625Q588.8359 380.625 588.07025 379.6875Q587.32025 378.73438 587.32025 377.25L587.32025 376.84375Q587.32025 374.48438 588.32025 373.23438Q589.32025 371.98438 591.3046 371.96875L591.50775 371.96875ZM590.0859 375.8125Q589.5234 375.8125 589.0546 376.14062Q588.5859 376.46875 588.3984 376.98438L588.3984 377.375Q588.3984 378.4375 588.8671 379.07812Q589.3515 379.71875 590.0546 379.71875Q590.789 379.71875 591.2109 379.1875Q591.63275 378.64062 591.63275 377.76562Q591.63275 376.89062 591.2109 376.35938Q590.789 375.8125 590.0859 375.8125ZM599.8359 380.5L594.2421 380.5L594.2421 379.71875L597.19525 376.4375Q597.8515 375.6875 598.1015 375.23438Q598.3515 374.76562 598.3515 374.26562Q598.3515 373.59375 597.94525 373.17188Q597.5546 372.73438 596.8671 372.73438Q596.07025 372.73438 595.6171 373.20312Q595.164 373.65625 595.164 374.48438L594.0859 374.48438Q594.0859 373.29688 594.8359 372.57812Q595.6015 371.84375 596.8671 371.84375Q598.07025 371.84375 598.75775 372.46875Q599.44525 373.09375 599.44525 374.14062Q599.44525 375.39062 597.8359 377.14062L595.5546 379.60938L599.8359 379.60938L599.8359 380.5Z" fill-rule="nonzero"/><path stroke="#4285f4" stroke-width="3.0" stroke-linejoin="round" stroke-linecap="round" d="M217.82237 539.5L212.22862 539.5L212.22862 538.71875L215.18175 535.4375Q215.838 534.6875 216.088 534.2344Q216.338 533.7656 216.338 533.2656Q216.338 532.59375 215.93175 532.1719Q215.54112 531.7344 214.85362 531.7344Q214.05675 531.7344 213.60362 532.2031Q213.1505 532.65625 213.1505 533.4844L212.07237 533.4844Q212.07237 532.2969 212.82237 531.5781Q213.588 530.84375 214.85362 530.84375Q216.05675 530.84375 216.74425 531.46875Q217.43175 532.09375 217.43175 533.1406Q217.43175 534.3906 215.82237 536.1406L213.54112 538.6094L217.82237 538.6094L217.82237 539.5ZM223.38487 535.75Q223.05675 536.15625 222.57237 536.40625Q222.10362 536.6406 221.54112 536.6406Q220.80675 536.6406 220.25987 536.28125Q219.713 535.9219 219.41612 535.2656Q219.11925 534.59375 219.11925 533.7969Q219.11925 532.9531 219.43175 532.2656Q219.75987 531.5781 220.35362 531.21875Q220.963 530.84375 221.75987 530.84375Q223.0255 530.84375 223.74425 531.7969Q224.47862 532.75 224.47862 534.375L224.47862 534.6875Q224.47862 537.1875 223.49425 538.3281Q222.50987 539.46875 220.5255 539.5L220.30675 539.5L220.30675 538.59375L220.54112 538.59375Q221.88487 538.5625 222.60362 537.8906Q223.32237 537.21875 223.38487 535.75ZM221.713 535.75Q222.25987 535.75 222.713 535.4219Q223.18175 535.0781 223.4005 534.59375L223.4005 534.15625Q223.4005 533.09375 222.93175 532.4219Q222.463 531.75 221.75987 531.75Q221.04112 531.75 220.60362 532.2969Q220.18175 532.84375 220.18175 533.75Q220.18175 534.625 220.588 535.1875Q221.00987 535.75 221.713 535.75Z" fill-rule="nonzero"/><path fill="#ffffff" d="M217.82237 539.5L212.22862 539.5L212.22862 538.71875L215.18175 535.4375Q215.838 534.6875 216.088 534.2344Q216.338 533.7656 216.338 533.2656Q216.338 532.59375 215.93175 532.1719Q215.54112 531.7344 214.85362 531.7344Q214.05675 531.7344 213.60362 532.2031Q213.1505 532.65625 213.1505 533.4844L212.07237 533.4844Q212.07237 532.2969 212.82237 531.5781Q213.588 530.84375 214.85362 530.84375Q216.05675 530.84375 216.74425 531.46875Q217.43175 532.09375 217.43175 533.1406Q217.43175 534.3906 215.82237 536.1406L213.54112 538.6094L217.82237 538.6094L217.82237 539.5ZM223.38487 535.75Q223.05675 536.15625 222.57237 536.40625Q222.10362 536.6406 221.54112 536.6406Q220.80675 536.6406 220.25987 536.28125Q219.713 535.9219 219.41612 535.2656Q219.11925 534.59375 219.11925 533.7969Q219.11925 532.9531 219.43175 532.2656Q219.75987 531.5781 220.35362 531.21875Q220.963 530.84375 221.75987 530.84375Q223.0255 530.84375 223.74425 531.7969Q224.47862 532.75 224.47862 534.375L224.47862 534.6875Q224.47862 537.1875 223.49425 538.3281Q222.50987 539.46875 220.5255 539.5L220.30675 539.5L220.30675 538.59375L220.54112 538.59375Q221.88487 538.5625 222.60362 537.8906Q223.32237 537.21875 223.38487 535.75ZM221.713 535.75Q222.25987 535.75 222.713 535.4219Q223.18175 535.0781 223.4005 534.59375L223.4005 534.15625Q223.4005 533.09375 222.93175 532.4219Q222.463 531.75 221.75987 531.75Q221.04112 531.75 220.60362 532.2969Q220.18175 532.84375 220.18175 533.75Q220.18175 534.625 220.588 535.1875Q221.00987 535.75 221.713 535.75Z" fill-rule="nonzero"/><path stroke="#ea4335" stroke-width="3.0" stroke-linejoin="round" stroke-linecap="round" d="M713.79926 251.70312L714.61176 251.70312Q715.393 251.6875 715.8305 251.29688Q716.268 250.90625 716.268 250.23438Q716.268 248.73438 714.768 248.73438Q714.0649 248.73438 713.643 249.14062Q713.23676 249.54688 713.23676 250.20312L712.143 250.20312Q712.143 249.1875 712.8774 248.51562Q713.6274 247.84375 714.768 247.84375Q715.9711 247.84375 716.6586 248.48438Q717.3461 249.125 717.3461 250.26562Q717.3461 250.82812 716.98676 251.34375Q716.6274 251.85938 716.0024 252.125Q716.7055 252.34375 717.0805 252.85938Q717.4711 253.375 717.4711 254.125Q717.4711 255.26562 716.7211 255.95312Q715.9711 256.625 714.768 256.625Q713.5805 256.625 712.8149 255.96875Q712.0649 255.3125 712.0649 254.25L713.1586 254.25Q713.1586 254.92188 713.5961 255.32812Q714.0336 255.73438 714.7836 255.73438Q715.5649 255.73438 715.9711 255.32812Q716.393 254.90625 716.393 254.14062Q716.393 253.40625 715.9399 253.01562Q715.48676 252.60938 714.61176 252.59375L713.79926 252.59375L713.79926 251.70312ZM723.79926 253.64062L724.98676 253.64062L724.98676 254.51562L723.79926 254.51562L723.79926 256.5L722.7211 256.5L722.7211 254.51562L718.8305 254.51562L718.8305 253.875L722.643 247.96875L723.79926 247.96875L723.79926 253.64062ZM720.0649 253.64062L722.7211 253.64062L722.7211 249.45312L722.5805 249.6875L720.0649 253.64062ZM730.79926 253.64062L731.98676 253.64062L731.98676 254.51562L730.79926 254.51562L730.79926 256.5L729.7211 256.5L729.7211 254.51562L725.8305 254.51562L725.8305 253.875L729.643 247.96875L730.79926 247.96875L730.79926 253.64062ZM727.0649 253.64062L729.7211 253.64062L729.7211 249.45312L729.5805 249.6875L727.0649 253.64062Z" fill-rule="nonzero"/><path fill="#ffffff" d="M713.79926 251.70312L714.61176 251.70312Q715.393 251.6875 715.8305 251.29688Q716.268 250.90625 716.268 250.23438Q716.268 248.73438 714.768 248.73438Q714.0649 248.73438 713.643 249.14062Q713.23676 249.54688 713.23676 250.20312L712.143 250.20312Q712.143 249.1875 712.8774 248.51562Q713.6274 247.84375 714.768 247.84375Q715.9711 247.84375 716.6586 248.48438Q717.3461 249.125 717.3461 250.26562Q717.3461 250.82812 716.98676 251.34375Q716.6274 251.85938 716.0024 252.125Q716.7055 252.34375 717.0805 252.85938Q717.4711 253.375 717.4711 254.125Q717.4711 255.26562 716.7211 255.95312Q715.9711 256.625 714.768 256.625Q713.5805 256.625 712.8149 255.96875Q712.0649 255.3125 712.0649 254.25L713.1586 254.25Q713.1586 254.92188 713.5961 255.32812Q714.0336 255.73438 714.7836 255.73438Q715.5649 255.73438 715.9711 255.32812Q716.393 254.90625 716.393 254.14062Q716.393 253.40625 715.9399 253.01562Q715.48676 252.60938 714.61176 252.59375L713.79926 252.59375L713.79926 251.70312ZM723.79926 253.64062L724.98676 253.64062L724.98676 254.51562L723.79926 254.51562L723.79926 256.5L722.7211 256.5L722.7211 254.51562L718.8305 254.51562L718.8305 253.875L722.643 247.96875L723.79926 247.96875L723.79926 253.64062ZM720.0649 253.64062L722.7211 253.64062L722.7211 249.45312L722.5805 249.6875L720.0649 253.64062ZM730.79926 253.64062L731.98676 253.64062L731.98676 254.51562L730.79926 254.51562L730.79926 256.5L729.7211 256.5L729.7211 254.51562L725.8305 254.51562L725.8305 253.875L729.643 247.96875L730.79926 247.96875L730.79926 253.64062ZM727.0649 253.64062L729.7211 253.64062L729.7211 249.45312L729.5805 249.6875L727.0649 253.64062Z" fill-rule="nonzero"/><path stroke="#ea4335" stroke-width="3.0" stroke-linejoin="round" stroke-linecap="round" d="M252.96613 410.21875L253.40363 405.96875L257.77863 405.96875L257.77863 406.96875L254.3255 406.96875L254.05988 409.29688Q254.7005 408.92188 255.49738 408.92188Q256.65363 408.92188 257.34113 409.70312Q258.02863 410.46875 258.02863 411.78125Q258.02863 413.09375 257.30988 413.85938Q256.60675 414.625 255.3255 414.625Q254.2005 414.625 253.48175 414.0Q252.763 413.35938 252.66925 412.25L253.68488 412.25Q253.79425 412.98438 254.21613 413.35938Q254.638 413.73438 255.3255 413.73438Q256.0755 413.73438 256.513 413.21875Q256.9505 412.70312 256.9505 411.79688Q256.9505 410.9375 256.48175 410.42188Q256.013 409.90625 255.23175 409.90625Q254.52863 409.90625 254.12238 410.20312L253.84113 410.4375L252.96613 410.21875ZM264.04425 411.64062L265.23175 411.64062L265.23175 412.51562L264.04425 412.51562L264.04425 414.5L262.96613 414.5L262.96613 412.51562L259.0755 412.51562L259.0755 411.875L262.888 405.96875L264.04425 405.96875L264.04425 411.64062ZM260.30988 411.64062L262.96613 411.64062L262.96613 407.45312L262.8255 407.6875L260.30988 411.64062Z" fill-rule="nonzero"/><path fill="#ffffff" d="M252.96613 410.21875L253.40363 405.96875L257.77863 405.96875L257.77863 406.96875L254.3255 406.96875L254.05988 409.29688Q254.7005 408.92188 255.49738 408.92188Q256.65363 408.92188 257.34113 409.70312Q258.02863 410.46875 258.02863 411.78125Q258.02863 413.09375 257.30988 413.85938Q256.60675 414.625 255.3255 414.625Q254.2005 414.625 253.48175 414.0Q252.763 413.35938 252.66925 412.25L253.68488 412.25Q253.79425 412.98438 254.21613 413.35938Q254.638 413.73438 255.3255 413.73438Q256.0755 413.73438 256.513 413.21875Q256.9505 412.70312 256.9505 411.79688Q256.9505 410.9375 256.48175 410.42188Q256.013 409.90625 255.23175 409.90625Q254.52863 409.90625 254.12238 410.20312L253.84113 410.4375L252.96613 410.21875ZM264.04425 411.64062L265.23175 411.64062L265.23175 412.51562L264.04425 412.51562L264.04425 414.5L262.96613 414.5L262.96613 412.51562L259.0755 412.51562L259.0755 411.875L262.888 405.96875L264.04425 405.96875L264.04425 411.64062ZM260.30988 411.64062L262.96613 411.64062L262.96613 407.45312L262.8255 407.6875L260.30988 411.64062Z" fill-rule="nonzero"/><path stroke="#ea4335" stroke-width="3.0" stroke-linejoin="round" stroke-linecap="round" d="M204.94638 573.5L199.35263 573.5L199.35263 572.71875L202.30576 569.4375Q202.962 568.6875 203.212 568.2344Q203.462 567.7656 203.462 567.2656Q203.462 566.59375 203.05576 566.1719Q202.66513 565.7344 201.97763 565.7344Q201.18076 565.7344 200.72763 566.2031Q200.2745 566.65625 200.2745 567.4844L199.19638 567.4844Q199.19638 566.2969 199.94638 565.5781Q200.712 564.84375 201.97763 564.84375Q203.18076 564.84375 203.86826 565.46875Q204.55576 566.09375 204.55576 567.1406Q204.55576 568.3906 202.94638 570.1406L200.66513 572.6094L204.94638 572.6094L204.94638 573.5ZM209.91513 573.5L208.837 573.5L208.837 566.28125L206.6495 567.0781L206.6495 566.09375L209.75888 564.9219L209.91513 564.9219L209.91513 573.5Z" fill-rule="nonzero"/><path fill="#ffffff" d="M204.94638 573.5L199.35263 573.5L199.35263 572.71875L202.30576 569.4375Q202.962 568.6875 203.212 568.2344Q203.462 567.7656 203.462 567.2656Q203.462 566.59375 203.05576 566.1719Q202.66513 565.7344 201.97763 565.7344Q201.18076 565.7344 200.72763 566.2031Q200.2745 566.65625 200.2745 567.4844L199.19638 567.4844Q199.19638 566.2969 199.94638 565.5781Q200.712 564.84375 201.97763 564.84375Q203.18076 564.84375 203.86826 565.46875Q204.55576 566.09375 204.55576 567.1406Q204.55576 568.3906 202.94638 570.1406L200.66513 572.6094L204.94638 572.6094L204.94638 573.5ZM209.91513 573.5L208.837 573.5L208.837 566.28125L206.6495 567.0781L206.6495 566.09375L209.75888 564.9219L209.91513 564.9219L209.91513 573.5Z" fill-rule="nonzero"/><path stroke="#fbbc04" stroke-width="3.0" stroke-linejoin="round" stroke-linecap="round" d="M652.63824 285.70312L653.45074 285.70312Q654.232 285.6875 654.6695 285.29688Q655.107 284.90625 655.107 284.23438Q655.107 282.73438 653.607 282.73438Q652.9039 282.73438 652.482 283.14062Q652.07574 283.54688 652.07574 284.20312L650.982 284.20312Q650.982 283.1875 651.7164 282.51562Q652.4664 281.84375 653.607 281.84375Q654.8101 281.84375 655.4976 282.48438Q656.1851 283.125 656.1851 284.26562Q656.1851 284.82812 655.82574 285.34375Q655.4664 285.85938 654.8414 286.125Q655.5445 286.34375 655.9195 286.85938Q656.3101 287.375 656.3101 288.125Q656.3101 289.26562 655.5601 289.95312Q654.8101 290.625 653.607 290.625Q652.4195 290.625 651.6539 289.96875Q650.9039 289.3125 650.9039 288.25L651.9976 288.25Q651.9976 288.92188 652.4351 289.32812Q652.8726 289.73438 653.6226 289.73438Q654.4039 289.73438 654.8101 289.32812Q655.232 288.90625 655.232 288.14062Q655.232 287.40625 654.7789 287.01562Q654.32574 286.60938 653.45074 286.59375L652.63824 286.59375L652.63824 285.70312ZM663.4195 286.85938Q663.4195 288.76562 662.76324 289.70312Q662.1226 290.625 660.732 290.625Q659.3726 290.625 658.7164 289.71875Q658.0601 288.8125 658.0289 287.0L658.0289 285.5625Q658.0289 283.67188 658.6695 282.76562Q659.32574 281.84375 660.7164 281.84375Q662.0914 281.84375 662.7476 282.73438Q663.4039 283.60938 663.4195 285.45312L663.4195 286.85938ZM662.32574 285.375Q662.32574 284.0 661.9351 283.375Q661.5601 282.73438 660.7164 282.73438Q659.88824 282.73438 659.4976 283.375Q659.1226 284.0 659.1226 285.29688L659.1226 287.03125Q659.1226 288.40625 659.51324 289.07812Q659.9195 289.73438 660.732 289.73438Q661.5289 289.73438 661.9195 289.10938Q662.3101 288.48438 662.32574 287.15625L662.32574 285.375ZM669.32574 281.96875L669.32574 282.875L669.1226 282.875Q667.857 282.90625 667.107 283.64062Q666.357 284.35938 666.232 285.67188Q666.9195 284.90625 668.07574 284.90625Q669.1851 284.90625 669.857 285.6875Q670.5289 286.46875 670.5289 287.71875Q670.5289 289.03125 669.8101 289.82812Q669.0914 290.625 667.8726 290.625Q666.6539 290.625 665.88824 289.6875Q665.13824 288.73438 665.13824 287.25L665.13824 286.84375Q665.13824 284.48438 666.13824 283.23438Q667.13824 281.98438 669.1226 281.96875L669.32574 281.96875ZM667.9039 285.8125Q667.3414 285.8125 666.8726 286.14062Q666.4039 286.46875 666.2164 286.98438L666.2164 287.375Q666.2164 288.4375 666.6851 289.07812Q667.1695 289.71875 667.8726 289.71875Q668.607 289.71875 669.0289 289.1875Q669.45074 288.64062 669.45074 287.76562Q669.45074 286.89062 669.0289 286.35938Q668.607 285.8125 667.9039 285.8125Z" fill-rule="nonzero"/><path fill="#000000" d="M652.63824 285.70312L653.45074 285.70312Q654.232 285.6875 654.6695 285.29688Q655.107 284.90625 655.107 284.23438Q655.107 282.73438 653.607 282.73438Q652.9039 282.73438 652.482 283.14062Q652.07574 283.54688 652.07574 284.20312L650.982 284.20312Q650.982 283.1875 651.7164 282.51562Q652.4664 281.84375 653.607 281.84375Q654.8101 281.84375 655.4976 282.48438Q656.1851 283.125 656.1851 284.26562Q656.1851 284.82812 655.82574 285.34375Q655.4664 285.85938 654.8414 286.125Q655.5445 286.34375 655.9195 286.85938Q656.3101 287.375 656.3101 288.125Q656.3101 289.26562 655.5601 289.95312Q654.8101 290.625 653.607 290.625Q652.4195 290.625 651.6539 289.96875Q650.9039 289.3125 650.9039 288.25L651.9976 288.25Q651.9976 288.92188 652.4351 289.32812Q652.8726 289.73438 653.6226 289.73438Q654.4039 289.73438 654.8101 289.32812Q655.232 288.90625 655.232 288.14062Q655.232 287.40625 654.7789 287.01562Q654.32574 286.60938 653.45074 286.59375L652.63824 286.59375L652.63824 285.70312ZM663.4195 286.85938Q663.4195 288.76562 662.76324 289.70312Q662.1226 290.625 660.732 290.625Q659.3726 290.625 658.7164 289.71875Q658.0601 288.8125 658.0289 287.0L658.0289 285.5625Q658.0289 283.67188 658.6695 282.76562Q659.32574 281.84375 660.7164 281.84375Q662.0914 281.84375 662.7476 282.73438Q663.4039 283.60938 663.4195 285.45312L663.4195 286.85938ZM662.32574 285.375Q662.32574 284.0 661.9351 283.375Q661.5601 282.73438 660.7164 282.73438Q659.88824 282.73438 659.4976 283.375Q659.1226 284.0 659.1226 285.29688L659.1226 287.03125Q659.1226 288.40625 659.51324 289.07812Q659.9195 289.73438 660.732 289.73438Q661.5289 289.73438 661.9195 289.10938Q662.3101 288.48438 662.32574 287.15625L662.32574 285.375ZM669.32574 281.96875L669.32574 282.875L669.1226 282.875Q667.857 282.90625 667.107 283.64062Q666.357 284.35938 666.232 285.67188Q666.9195 284.90625 668.07574 284.90625Q669.1851 284.90625 669.857 285.6875Q670.5289 286.46875 670.5289 287.71875Q670.5289 289.03125 669.8101 289.82812Q669.0914 290.625 667.8726 290.625Q666.6539 290.625 665.88824 289.6875Q665.13824 288.73438 665.13824 287.25L665.13824 286.84375Q665.13824 284.48438 666.13824 283.23438Q667.13824 281.98438 669.1226 281.96875L669.32574 281.96875ZM667.9039 285.8125Q667.3414 285.8125 666.8726 286.14062Q666.4039 286.46875 666.2164 286.98438L666.2164 287.375Q666.2164 288.4375 666.6851 289.07812Q667.1695 289.71875 667.8726 289.71875Q668.607 289.71875 669.0289 289.1875Q669.45074 288.64062 669.45074 287.76562Q669.45074 286.89062 669.0289 286.35938Q668.607 285.8125 667.9039 285.8125Z" fill-rule="nonzero"/><path stroke="#fbbc04" stroke-width="3.0" stroke-linejoin="round" stroke-linecap="round" d="M266.38876 439.96875L266.38876 440.875L266.18564 440.875Q264.92 440.90625 264.17 441.64062Q263.42 442.35938 263.295 443.67188Q263.9825 442.90625 265.13876 442.90625Q266.24814 442.90625 266.92 443.6875Q267.5919 444.46875 267.5919 445.71875Q267.5919 447.03125 266.87314 447.82812Q266.1544 448.625 264.93564 448.625Q263.7169 448.625 262.95126 447.6875Q262.20126 446.73438 262.20126 445.25L262.20126 444.84375Q262.20126 442.48438 263.20126 441.23438Q264.20126 439.98438 266.18564 439.96875L266.38876 439.96875ZM264.9669 443.8125Q264.4044 443.8125 263.93564 444.14062Q263.4669 444.46875 263.2794 444.98438L263.2794 445.375Q263.2794 446.4375 263.74814 447.07812Q264.2325 447.71875 264.93564 447.71875Q265.67 447.71875 266.0919 447.1875Q266.51376 446.64062 266.51376 445.76562Q266.51376 444.89062 266.0919 444.35938Q265.67 443.8125 264.9669 443.8125ZM274.4825 444.85938Q274.4825 446.76562 273.82626 447.70312Q273.18564 448.625 271.795 448.625Q270.43564 448.625 269.7794 447.71875Q269.12314 446.8125 269.0919 445.0L269.0919 443.5625Q269.0919 441.67188 269.7325 440.76562Q270.38876 439.84375 271.7794 439.84375Q273.1544 439.84375 273.81064 440.73438Q274.4669 441.60938 274.4825 443.45312L274.4825 444.85938ZM273.38876 443.375Q273.38876 442.0 272.99814 441.375Q272.62314 440.73438 271.7794 440.73438Q270.95126 440.73438 270.56064 441.375Q270.18564 442.0 270.18564 443.29688L270.18564 445.03125Q270.18564 446.40625 270.57626 447.07812Q270.9825 447.73438 271.795 447.73438Q272.5919 447.73438 272.9825 447.10938Q273.37314 446.48438 273.38876 445.15625L273.38876 443.375Z" fill-rule="nonzero"/><path fill="#000000" d="M266.38876 439.96875L266.38876 440.875L266.18564 440.875Q264.92 440.90625 264.17 441.64062Q263.42 442.35938 263.295 443.67188Q263.9825 442.90625 265.13876 442.90625Q266.24814 442.90625 266.92 443.6875Q267.5919 444.46875 267.5919 445.71875Q267.5919 447.03125 266.87314 447.82812Q266.1544 448.625 264.93564 448.625Q263.7169 448.625 262.95126 447.6875Q262.20126 446.73438 262.20126 445.25L262.20126 444.84375Q262.20126 442.48438 263.20126 441.23438Q264.20126 439.98438 266.18564 439.96875L266.38876 439.96875ZM264.9669 443.8125Q264.4044 443.8125 263.93564 444.14062Q263.4669 444.46875 263.2794 444.98438L263.2794 445.375Q263.2794 446.4375 263.74814 447.07812Q264.2325 447.71875 264.93564 447.71875Q265.67 447.71875 266.0919 447.1875Q266.51376 446.64062 266.51376 445.76562Q266.51376 444.89062 266.0919 444.35938Q265.67 443.8125 264.9669 443.8125ZM274.4825 444.85938Q274.4825 446.76562 273.82626 447.70312Q273.18564 448.625 271.795 448.625Q270.43564 448.625 269.7794 447.71875Q269.12314 446.8125 269.0919 445.0L269.0919 443.5625Q269.0919 441.67188 269.7325 440.76562Q270.38876 439.84375 271.7794 439.84375Q273.1544 439.84375 273.81064 440.73438Q274.4669 441.60938 274.4825 443.45312L274.4825 444.85938ZM273.38876 443.375Q273.38876 442.0 272.99814 441.375Q272.62314 440.73438 271.7794 440.73438Q270.95126 440.73438 270.56064 441.375Q270.18564 442.0 270.18564 443.29688L270.18564 445.03125Q270.18564 446.40625 270.57626 447.07812Q270.9825 447.73438 271.795 447.73438Q272.5919 447.73438 272.9825 447.10938Q273.37314 446.48438 273.38876 445.15625L273.38876 443.375Z" fill-rule="nonzero"/><path stroke="#fbbc04" stroke-width="3.0" stroke-linejoin="round" stroke-linecap="round" d="M203.33687 607.5L197.74312 607.5L197.74312 606.71875L200.69624 603.4375Q201.3525 602.6875 201.6025 602.2344Q201.8525 601.7656 201.8525 601.2656Q201.8525 600.59375 201.44624 600.1719Q201.05562 599.7344 200.36812 599.7344Q199.57124 599.7344 199.11812 600.2031Q198.665 600.65625 198.665 601.4844L197.58687 601.4844Q197.58687 600.2969 198.33687 599.5781Q199.1025 598.84375 200.36812 598.84375Q201.57124 598.84375 202.25874 599.46875Q202.94624 600.09375 202.94624 601.1406Q202.94624 602.3906 201.33687 604.1406L199.05562 606.6094L203.33687 606.6094L203.33687 607.5ZM210.1025 603.8594Q210.1025 605.7656 209.44624 606.7031Q208.80562 607.625 207.415 607.625Q206.05562 607.625 205.39937 606.71875Q204.74312 605.8125 204.71187 604.0L204.71187 602.5625Q204.71187 600.6719 205.3525 599.7656Q206.00874 598.84375 207.39937 598.84375Q208.77437 598.84375 209.43062 599.7344Q210.08687 600.6094 210.1025 602.4531L210.1025 603.8594ZM209.00874 602.375Q209.00874 601.0 208.61812 600.375Q208.24312 599.7344 207.39937 599.7344Q206.57124 599.7344 206.18062 600.375Q205.80562 601.0 205.80562 602.2969L205.80562 604.03125Q205.80562 605.40625 206.19624 606.0781Q206.6025 606.7344 207.415 606.7344Q208.21187 606.7344 208.6025 606.1094Q208.99312 605.4844 209.00874 604.15625L209.00874 602.375Z" fill-rule="nonzero"/><path fill="#000000" d="M203.33687 607.5L197.74312 607.5L197.74312 606.71875L200.69624 603.4375Q201.3525 602.6875 201.6025 602.2344Q201.8525 601.7656 201.8525 601.2656Q201.8525 600.59375 201.44624 600.1719Q201.05562 599.7344 200.36812 599.7344Q199.57124 599.7344 199.11812 600.2031Q198.665 600.65625 198.665 601.4844L197.58687 601.4844Q197.58687 600.2969 198.33687 599.5781Q199.1025 598.84375 200.36812 598.84375Q201.57124 598.84375 202.25874 599.46875Q202.94624 600.09375 202.94624 601.1406Q202.94624 602.3906 201.33687 604.1406L199.05562 606.6094L203.33687 606.6094L203.33687 607.5ZM210.1025 603.8594Q210.1025 605.7656 209.44624 606.7031Q208.80562 607.625 207.415 607.625Q206.05562 607.625 205.39937 606.71875Q204.74312 605.8125 204.71187 604.0L204.71187 602.5625Q204.71187 600.6719 205.3525 599.7656Q206.00874 598.84375 207.39937 598.84375Q208.77437 598.84375 209.43062 599.7344Q210.08687 600.6094 210.1025 602.4531L210.1025 603.8594ZM209.00874 602.375Q209.00874 601.0 208.61812 600.375Q208.24312 599.7344 207.39937 599.7344Q206.57124 599.7344 206.18062 600.375Q205.80562 601.0 205.80562 602.2969L205.80562 604.03125Q205.80562 605.40625 206.19624 606.0781Q206.6025 606.7344 207.415 606.7344Q208.21187 606.7344 208.6025 606.1094Q208.99312 605.4844 209.00874 604.15625L209.00874 602.375Z" fill-rule="nonzero"/><path fill="#000000" d="M93.11875 246.64586Q92.3375 247.31773 91.61875 247.59898Q90.9 247.86461 90.07188 247.86461Q88.69688 247.86461 87.9625 247.19273Q87.22813 246.52086 87.22813 245.48961Q87.22813 244.88023 87.50938 244.38023Q87.79063 243.86461 88.22813 243.56773Q88.68125 243.25523 89.24375 243.09898Q89.66563 242.98961 90.49375 242.89586Q92.19688 242.69273 93.00938 242.41148Q93.00938 242.11461 93.00938 242.03648Q93.00938 241.17711 92.61875 240.83336Q92.07188 240.34898 91.00938 240.34898Q90.025 240.34898 89.54063 240.70836Q89.07188 241.05211 88.85313 241.92711L87.47813 241.73961Q87.66563 240.86461 88.0875 240.31773Q88.525 239.77086 89.3375 239.48961Q90.15 239.19273 91.2125 239.19273Q92.275 239.19273 92.93125 239.44273Q93.60313 239.69273 93.91563 240.06773Q94.22813 240.44273 94.35313 241.02086Q94.43125 241.38023 94.43125 242.31773L94.43125 244.19273Q94.43125 246.16148 94.50938 246.67711Q94.60313 247.19273 94.86875 247.67711L93.4 247.67711Q93.18125 247.23961 93.11875 246.64586ZM93.00938 243.50523Q92.24375 243.81773 90.7125 244.03648Q89.8375 244.16148 89.47813 244.31773Q89.11875 244.47398 88.91563 244.78648Q88.72813 245.08336 88.72813 245.44273Q88.72813 246.00523 89.15 246.38023Q89.5875 246.75523 90.4 246.75523Q91.2125 246.75523 91.8375 246.41148Q92.47813 246.05211 92.775 245.42711Q93.00938 244.95836 93.00938 244.02086L93.00938 243.50523ZM99.00938 247.67711L95.85313 239.38023L97.3375 239.38023L99.11875 244.34898Q99.41563 245.14586 99.65 246.02086Q99.8375 245.36461 100.18125 244.44273L102.025 239.38023L103.4625 239.38023L100.32188 247.67711L99.00938 247.67711ZM103.44688 248.36461L104.82188 248.56773Q104.9 249.20836 105.29063 249.48961Q105.82188 249.88023 106.72813 249.88023Q107.69688 249.88023 108.22813 249.48961Q108.75938 249.09898 108.94688 248.39586Q109.05625 247.97398 109.05625 246.58336Q108.13438 247.67711 106.75938 247.67711Q105.04063 247.67711 104.10313 246.44273Q103.16563 245.20836 103.16563 243.47398Q103.16563 242.28648 103.5875 241.28648Q104.025 240.28648 104.8375 239.73961Q105.66563 239.19273 106.75938 239.19273Q108.22813 239.19273 109.18125 240.38023L109.18125 239.38023L110.47813 239.38023L110.47813 246.55211Q110.47813 248.48961 110.0875 249.30211Q109.69688 250.11461 108.8375 250.58336Q107.97813 251.05211 106.72813 251.05211Q105.24375 251.05211 104.32188 250.38023Q103.41563 249.70836 103.44688 248.36461ZM104.61875 243.38023Q104.61875 245.00523 105.25938 245.75523Q105.91563 246.50523 106.88438 246.50523Q107.85313 246.50523 108.50938 245.77086Q109.16563 245.02086 109.16563 243.42711Q109.16563 241.89586 108.49375 241.13023Q107.82188 240.34898 106.86875 240.34898Q105.93125 240.34898 105.275 241.11461Q104.61875 241.88023 104.61875 243.38023ZM113.10313 247.67711L113.10313 246.06773L114.7125 246.06773L114.7125 247.67711L113.10313 247.67711ZM120.8375 247.67711L120.8375 236.22398L123.11875 236.22398L125.8375 244.33336Q126.2125 245.45836 126.38438 246.02086Q126.57188 245.39586 126.99375 244.19273L129.72812 236.22398L131.775 236.22398L131.775 247.67711L130.30624 247.67711L130.30624 238.08336L126.97813 247.67711L125.61875 247.67711L122.30625 237.92711L122.30625 247.67711L120.8375 247.67711ZM139.38437 245.00523L140.8375 245.17711Q140.49374 246.45836 139.55624 247.16148Q138.63437 247.86461 137.19687 247.86461Q135.36874 247.86461 134.30624 246.73961Q133.24374 245.61461 133.24374 243.59898Q133.24374 241.50523 134.32187 240.34898Q135.4 239.19273 137.11874 239.19273Q138.775 239.19273 139.82187 240.33336Q140.88437 241.45836 140.88437 243.50523Q140.88437 243.63023 140.88437 243.88023L134.69687 243.88023Q134.775 245.25523 135.4625 245.98961Q136.16562 246.70836 137.19687 246.70836Q137.97812 246.70836 138.525 246.30211Q139.07187 245.89586 139.38437 245.00523ZM134.775 242.72398L139.4 242.72398Q139.30624 241.67711 138.86874 241.16148Q138.19687 240.34898 137.13437 240.34898Q136.16562 240.34898 135.49374 241.00523Q134.8375 241.64586 134.775 242.72398ZM142.7125 247.67711L142.7125 239.38023L143.9625 239.38023L143.9625 240.53648Q144.35312 239.92711 144.99374 239.56773Q145.65 239.19273 146.47812 239.19273Q147.4 239.19273 147.99374 239.58336Q148.5875 239.95836 148.82187 240.64586Q149.80624 239.19273 151.38437 239.19273Q152.61874 239.19273 153.275 239.88023Q153.94687 240.55211 153.94687 241.97398L153.94687 247.67711L152.55624 247.67711L152.55624 242.44273Q152.55624 241.59898 152.41562 241.23961Q152.275 240.86461 151.91562 240.64586Q151.55624 240.41148 151.07187 240.41148Q150.19687 240.41148 149.61874 240.98961Q149.04062 241.56773 149.04062 242.84898L149.04062 247.67711L147.63437 247.67711L147.63437 242.28648Q147.63437 241.34898 147.29062 240.88023Q146.94687 240.41148 146.16562 240.41148Q145.57187 240.41148 145.07187 240.72398Q144.57187 241.03648 144.3375 241.64586Q144.11874 242.23961 144.11874 243.36461L144.11874 247.67711L142.7125 247.67711ZM155.18124 243.52086Q155.18124 241.22398 156.4625 240.11461Q157.54062 239.19273 159.07187 239.19273Q160.79062 239.19273 161.86874 240.31773Q162.9625 241.42711 162.9625 243.41148Q162.9625 245.00523 162.47812 245.92711Q161.99374 246.84898 161.07187 247.36461Q160.16562 247.86461 159.07187 247.86461Q157.3375 247.86461 156.25937 246.75523Q155.18124 245.63023 155.18124 243.52086ZM156.63437 243.52086Q156.63437 245.11461 157.32187 245.91148Q158.025 246.70836 159.07187 246.70836Q160.11874 246.70836 160.80624 245.91148Q161.50937 245.11461 161.50937 243.47398Q161.50937 241.94273 160.80624 241.14586Q160.11874 240.34898 159.07187 240.34898Q158.025 240.34898 157.32187 241.14586Q156.63437 241.92711 156.63437 243.52086ZM164.69687 247.67711L164.69687 239.38023L165.9625 239.38023L165.9625 240.63023Q166.44687 239.75523 166.85312 239.47398Q167.25937 239.19273 167.75937 239.19273Q168.4625 239.19273 169.19687 239.64586L168.7125 240.94273Q168.19687 240.64586 167.68124 240.64586Q167.22812 240.64586 166.85312 240.92711Q166.49374 241.19273 166.3375 241.69273Q166.10312 242.44273 166.10312 243.33336L166.10312 247.67711L164.69687 247.67711ZM169.65 250.88023L169.49374 249.55211Q169.94687 249.67711 170.29062 249.67711Q170.75937 249.67711 171.04062 249.52086Q171.32187 249.36461 171.50937 249.08336Q171.63437 248.88023 171.93124 248.03648Q171.97812 247.92711 172.05624 247.69273L168.91562 239.38023L170.43124 239.38023L172.15 244.17711Q172.49374 245.09898 172.75937 246.09898Q172.99374 245.13023 173.3375 244.20836L175.10312 239.38023L176.50937 239.38023L173.35312 247.81773Q172.85312 249.19273 172.57187 249.70836Q172.19687 250.39586 171.7125 250.72398Q171.22812 251.05211 170.55624 251.05211Q170.15 251.05211 169.65 250.88023Z" fill-rule="nonzero"/><path fill="#000000" d="M141.4 270.05212Q140.22812 268.58337 139.41562 266.61462Q138.61874 264.63025 138.61874 262.52087Q138.61874 260.6615 139.22812 258.95837Q139.93124 256.98962 141.4 255.02087L142.4 255.02087Q141.4625 256.64587 141.15 257.349Q140.68124 258.42712 140.4 259.599Q140.07187 261.05212 140.07187 262.5365Q140.07187 266.2865 142.4 270.05212L141.4 270.05212ZM143.8375 266.67712L143.8375 255.224L146.11874 255.224L148.8375 263.33337Q149.2125 264.45837 149.38437 265.02087Q149.57187 264.39587 149.99374 263.19275L152.72812 255.224L154.775 255.224L154.775 266.67712L153.30624 266.67712L153.30624 257.08337L149.97812 266.67712L148.61874 266.67712L145.30624 256.92712L145.30624 266.67712L143.8375 266.67712ZM156.7125 256.83337L156.7125 255.224L158.11874 255.224L158.11874 256.83337L156.7125 256.83337ZM156.7125 266.67712L156.7125 258.38025L158.11874 258.38025L158.11874 266.67712L156.7125 266.67712ZM160.82187 266.67712L160.82187 255.224L165.11874 255.224Q166.43124 255.224 167.22812 255.56775Q168.025 255.9115 168.4625 256.64587Q168.91562 257.36462 168.91562 258.14587Q168.91562 258.88025 168.50937 259.5365Q168.11874 260.17712 167.32187 260.58337Q168.35312 260.88025 168.91562 261.61462Q169.47812 262.349 169.47812 263.349Q169.47812 264.1615 169.13437 264.849Q168.79062 265.5365 168.29062 265.9115Q167.79062 266.2865 167.04062 266.48962Q166.29062 266.67712 165.19687 266.67712L160.82187 266.67712ZM162.3375 260.0365L164.82187 260.0365Q165.82187 260.0365 166.25937 259.89587Q166.8375 259.724 167.13437 259.33337Q167.43124 258.92712 167.43124 258.33337Q167.43124 257.75525 167.15 257.33337Q166.88437 256.89587 166.36874 256.73962Q165.86874 256.56775 164.63437 256.56775L162.3375 256.56775L162.3375 260.0365ZM162.3375 265.31775L165.19687 265.31775Q165.93124 265.31775 166.22812 265.27087Q166.74374 265.17712 167.0875 264.95837Q167.44687 264.73962 167.66562 264.31775Q167.9 263.89587 167.9 263.349Q167.9 262.70837 167.57187 262.23962Q167.24374 261.77087 166.66562 261.58337Q166.0875 261.38025 164.99374 261.38025L162.3375 261.38025L162.3375 265.31775ZM172.63437 270.05212L171.61874 270.05212Q173.9625 266.2865 173.9625 262.5365Q173.9625 261.06775 173.61874 259.61462Q173.35312 258.44275 172.88437 257.36462Q172.57187 256.6615 171.61874 255.02087L172.63437 255.02087Q174.10312 256.98962 174.80624 258.95837Q175.4 260.6615 175.4 262.52087Q175.4 264.63025 174.5875 266.61462Q173.79062 268.58337 172.63437 270.05212Z" fill-rule="nonzero"/><path fill="#000000" d="M119.11875 405.40207Q118.3375 406.07394 117.61875 406.3552Q116.9 406.62082 116.07188 406.62082Q114.69688 406.62082 113.9625 405.94894Q113.22813 405.27707 113.22813 404.24582Q113.22813 403.63644 113.50938 403.13644Q113.79063 402.62082 114.22813 402.32394Q114.68125 402.01144 115.24375 401.8552Q115.66563 401.74582 116.49375 401.65207Q118.19688 401.44894 119.00938 401.1677Q119.00938 400.87082 119.00938 400.7927Q119.00938 399.93332 118.61875 399.58957Q118.07188 399.1052 117.00938 399.1052Q116.025 399.1052 115.54063 399.46457Q115.07188 399.80832 114.85313 400.68332L113.47813 400.49582Q113.66563 399.62082 114.0875 399.07394Q114.525 398.52707 115.3375 398.24582Q116.15 397.94894 117.2125 397.94894Q118.275 397.94894 118.93125 398.19894Q119.60313 398.44894 119.91563 398.82394Q120.22813 399.19894 120.35313 399.77707Q120.43125 400.13644 120.43125 401.07394L120.43125 402.94894Q120.43125 404.9177 120.50938 405.43332Q120.60313 405.94894 120.86875 406.43332L119.4 406.43332Q119.18125 405.99582 119.11875 405.40207ZM119.00938 402.26144Q118.24375 402.57394 116.7125 402.7927Q115.8375 402.9177 115.47813 403.07394Q115.11875 403.2302 114.91563 403.5427Q114.72813 403.83957 114.72813 404.19894Q114.72813 404.76144 115.15 405.13644Q115.5875 405.51144 116.4 405.51144Q117.2125 405.51144 117.8375 405.1677Q118.47813 404.80832 118.775 404.18332Q119.00938 403.71457 119.00938 402.77707L119.00938 402.26144ZM125.00938 406.43332L121.85313 398.13644L123.3375 398.13644L125.11875 403.1052Q125.41563 403.90207 125.65 404.77707Q125.8375 404.12082 126.18125 403.19894L128.025 398.13644L129.4625 398.13644L126.32188 406.43332L125.00938 406.43332ZM129.44687 407.12082L130.82187 407.32394Q130.9 407.96457 131.29062 408.24582Q131.82187 408.63644 132.72812 408.63644Q133.69687 408.63644 134.22812 408.24582Q134.75937 407.8552 134.94687 407.15207Q135.05624 406.7302 135.05624 405.33957Q134.13437 406.43332 132.75937 406.43332Q131.04062 406.43332 130.10312 405.19894Q129.16562 403.96457 129.16562 402.2302Q129.16562 401.0427 129.5875 400.0427Q130.025 399.0427 130.8375 398.49582Q131.66562 397.94894 132.75937 397.94894Q134.22812 397.94894 135.18124 399.13644L135.18124 398.13644L136.47812 398.13644L136.47812 405.30832Q136.47812 407.24582 136.0875 408.05832Q135.69687 408.87082 134.8375 409.33957Q133.97812 409.80832 132.72812 409.80832Q131.24374 409.80832 130.32187 409.13644Q129.41562 408.46457 129.44687 407.12082ZM130.61874 402.13644Q130.61874 403.76144 131.25937 404.51144Q131.91562 405.26144 132.88437 405.26144Q133.85312 405.26144 134.50937 404.52707Q135.16562 403.77707 135.16562 402.18332Q135.16562 400.65207 134.49374 399.88644Q133.82187 399.1052 132.86874 399.1052Q131.93124 399.1052 131.275 399.87082Q130.61874 400.63644 130.61874 402.13644ZM139.10312 406.43332L139.10312 404.82394L140.7125 404.82394L140.7125 406.43332L139.10312 406.43332ZM151.05624 402.4177L152.57187 402.7927Q152.10312 404.6677 150.85312 405.65207Q149.61874 406.63644 147.8375 406.63644Q145.97812 406.63644 144.82187 405.88644Q143.66562 405.12082 143.05624 403.69894Q142.44687 402.26144 142.44687 400.62082Q142.44687 398.82394 143.13437 397.49582Q143.82187 396.1677 145.07187 395.4802Q146.3375 394.77707 147.85312 394.77707Q149.57187 394.77707 150.74374 395.65207Q151.91562 396.52707 152.38437 398.12082L150.88437 398.46457Q150.49374 397.21457 149.72812 396.65207Q148.97812 396.07394 147.82187 396.07394Q146.50937 396.07394 145.61874 396.71457Q144.72812 397.33957 144.36874 398.4177Q144.00937 399.4802 144.00937 400.6052Q144.00937 402.07394 144.43124 403.1677Q144.86874 404.24582 145.75937 404.7927Q146.66562 405.32394 147.7125 405.32394Q148.97812 405.32394 149.85312 404.58957Q150.74374 403.8552 151.05624 402.4177ZM154.88437 406.43332L154.88437 394.9802L159.2125 394.9802Q160.35312 394.9802 160.94687 395.08957Q161.79062 395.2302 162.35312 395.62082Q162.93124 396.01144 163.275 396.7302Q163.63437 397.43332 163.63437 398.2927Q163.63437 399.74582 162.69687 400.76144Q161.775 401.77707 159.3375 401.77707L156.4 401.77707L156.4 406.43332L154.88437 406.43332ZM156.4 400.4177L159.36874 400.4177Q160.8375 400.4177 161.44687 399.87082Q162.07187 399.32394 162.07187 398.33957Q162.07187 397.62082 161.69687 397.1052Q161.3375 396.58957 160.74374 396.43332Q160.36874 396.32394 159.3375 396.32394L156.4 396.32394L156.4 400.4177ZM173.4 394.9802L174.91562 394.9802L174.91562 401.58957Q174.91562 403.32394 174.525 404.33957Q174.13437 405.3552 173.11874 405.99582Q172.10312 406.63644 170.44687 406.63644Q168.8375 406.63644 167.80624 406.07394Q166.79062 405.51144 166.35312 404.46457Q165.91562 403.4177 165.91562 401.58957L165.91562 394.9802L167.43124 394.9802L167.43124 401.58957Q167.43124 403.07394 167.69687 403.7927Q167.97812 404.49582 168.65 404.88644Q169.3375 405.26144 170.30624 405.26144Q171.97812 405.26144 172.68124 404.51144Q173.4 403.74582 173.4 401.58957L173.4 394.9802Z" fill-rule="nonzero"/><path fill="#000000" d="M103.4 428.80832Q102.22813 427.33957 101.41563 425.37082Q100.61875 423.38644 100.61875 421.27707Q100.61875 419.4177 101.22813 417.71457Q101.93125 415.74582 103.4 413.77707L104.4 413.77707Q103.4625 415.40207 103.15 416.1052Q102.68125 417.18332 102.4 418.3552Q102.07188 419.80832 102.07188 421.2927Q102.07188 425.0427 104.4 428.80832L103.4 428.80832ZM105.7125 425.43332L105.7125 417.13644L106.9625 417.13644L106.9625 418.2927Q107.35313 417.68332 107.99375 417.32394Q108.65 416.94894 109.47813 416.94894Q110.4 416.94894 110.99375 417.33957Q111.5875 417.71457 111.82188 418.40207Q112.80625 416.94894 114.38438 416.94894Q115.61875 416.94894 116.275 417.63644Q116.94688 418.30832 116.94688 419.7302L116.94688 425.43332L115.55625 425.43332L115.55625 420.19894Q115.55625 419.3552 115.41563 418.99582Q115.275 418.62082 114.91563 418.40207Q114.55625 418.1677 114.07188 418.1677Q113.19688 418.1677 112.61875 418.74582Q112.04063 419.32394 112.04063 420.6052L112.04063 425.43332L110.63438 425.43332L110.63438 420.0427Q110.63438 419.1052 110.29063 418.63644Q109.94688 418.1677 109.16563 418.1677Q108.57188 418.1677 108.07188 418.4802Q107.57188 418.7927 107.3375 419.40207Q107.11875 419.99582 107.11875 421.12082L107.11875 425.43332L105.7125 425.43332ZM118.7125 415.58957L118.7125 413.9802L120.11875 413.9802L120.11875 415.58957L118.7125 415.58957ZM118.7125 425.43332L118.7125 417.13644L120.11875 417.13644L120.11875 425.43332L118.7125 425.43332ZM122.68125 425.43332L122.68125 413.9802L124.0875 413.9802L124.0875 425.43332L122.68125 425.43332ZM125.68125 425.43332L125.68125 413.9802L127.0875 413.9802L127.0875 425.43332L125.68125 425.43332ZM128.7125 415.58957L128.7125 413.9802L130.11874 413.9802L130.11874 415.58957L128.7125 415.58957ZM128.7125 425.43332L128.7125 417.13644L130.11874 417.13644L130.11874 425.43332L128.7125 425.43332ZM138.11874 422.38644L139.50937 422.57394Q139.275 423.99582 138.3375 424.80832Q137.41562 425.62082 136.05624 425.62082Q134.35312 425.62082 133.30624 424.51144Q132.275 423.38644 132.275 421.30832Q132.275 419.96457 132.7125 418.96457Q133.16562 417.94894 134.07187 417.44894Q134.99374 416.94894 136.05624 416.94894Q137.41562 416.94894 138.275 417.63644Q139.13437 418.30832 139.36874 419.57394L138.00937 419.77707Q137.80624 418.94894 137.30624 418.52707Q136.82187 418.1052 136.11874 418.1052Q135.05624 418.1052 134.38437 418.87082Q133.72812 419.62082 133.72812 421.27707Q133.72812 422.94894 134.36874 423.71457Q135.00937 424.46457 136.04062 424.46457Q136.86874 424.46457 137.41562 423.96457Q137.97812 423.44894 138.11874 422.38644ZM140.18124 421.27707Q140.18124 418.9802 141.4625 417.87082Q142.54062 416.94894 144.07187 416.94894Q145.79062 416.94894 146.86874 418.07394Q147.9625 419.18332 147.9625 421.1677Q147.9625 422.76144 147.47812 423.68332Q146.99374 424.6052 146.07187 425.12082Q145.16562 425.62082 144.07187 425.62082Q142.3375 425.62082 141.25937 424.51144Q140.18124 423.38644 140.18124 421.27707ZM141.63437 421.27707Q141.63437 422.87082 142.32187 423.6677Q143.025 424.46457 144.07187 424.46457Q145.11874 424.46457 145.80624 423.6677Q146.50937 422.87082 146.50937 421.2302Q146.50937 419.69894 145.80624 418.90207Q145.11874 418.1052 144.07187 418.1052Q143.025 418.1052 142.32187 418.90207Q141.63437 419.68332 141.63437 421.27707ZM149.69687 425.43332L149.69687 417.13644L150.9625 417.13644L150.9625 418.38644Q151.44687 417.51144 151.85312 417.2302Q152.25937 416.94894 152.75937 416.94894Q153.4625 416.94894 154.19687 417.40207L153.7125 418.69894Q153.19687 418.40207 152.68124 418.40207Q152.22812 418.40207 151.85312 418.68332Q151.49374 418.94894 151.3375 419.44894Q151.10312 420.19894 151.10312 421.08957L151.10312 425.43332L149.69687 425.43332ZM160.38437 422.76144L161.8375 422.93332Q161.49374 424.21457 160.55624 424.9177Q159.63437 425.62082 158.19687 425.62082Q156.36874 425.62082 155.30624 424.49582Q154.24374 423.37082 154.24374 421.3552Q154.24374 419.26144 155.32187 418.1052Q156.4 416.94894 158.11874 416.94894Q159.775 416.94894 160.82187 418.08957Q161.88437 419.21457 161.88437 421.26144Q161.88437 421.38644 161.88437 421.63644L155.69687 421.63644Q155.775 423.01144 156.4625 423.74582Q157.16562 424.46457 158.19687 424.46457Q158.97812 424.46457 159.525 424.05832Q160.07187 423.65207 160.38437 422.76144ZM155.775 420.4802L160.4 420.4802Q160.30624 419.43332 159.86874 418.9177Q159.19687 418.1052 158.13437 418.1052Q157.16562 418.1052 156.49374 418.76144Q155.8375 419.40207 155.775 420.4802ZM163.15 422.94894L164.54062 422.7302Q164.65 423.57394 165.18124 424.02707Q165.72812 424.46457 166.68124 424.46457Q167.65 424.46457 168.11874 424.07394Q168.5875 423.6677 168.5875 423.13644Q168.5875 422.6677 168.18124 422.38644Q167.88437 422.19894 166.74374 421.9177Q165.19687 421.52707 164.5875 421.24582Q163.99374 420.94894 163.68124 420.44894Q163.38437 419.94894 163.38437 419.33957Q163.38437 418.77707 163.63437 418.30832Q163.88437 417.83957 164.32187 417.52707Q164.65 417.27707 165.2125 417.12082Q165.79062 416.94894 166.43124 416.94894Q167.41562 416.94894 168.15 417.2302Q168.88437 417.51144 169.22812 417.99582Q169.5875 418.46457 169.72812 419.27707L168.35312 419.46457Q168.25937 418.82394 167.80624 418.46457Q167.35312 418.1052 166.54062 418.1052Q165.57187 418.1052 165.15 418.43332Q164.74374 418.74582 164.74374 419.1677Q164.74374 419.44894 164.91562 419.6677Q165.0875 419.88644 165.44687 420.0427Q165.66562 420.12082 166.69687 420.40207Q168.18124 420.7927 168.775 421.05832Q169.36874 421.30832 169.69687 421.7927Q170.04062 422.27707 170.04062 422.99582Q170.04062 423.69894 169.61874 424.32394Q169.2125 424.93332 168.43124 425.27707Q167.66562 425.62082 166.69687 425.62082Q165.07187 425.62082 164.22812 424.94894Q163.38437 424.27707 163.15 422.94894ZM172.63437 428.80832L171.61874 428.80832Q173.9625 425.0427 173.9625 421.2927Q173.9625 419.82394 173.61874 418.37082Q173.35312 417.19894 172.88437 416.12082Q172.57187 415.4177 171.61874 413.77707L172.63437 413.77707Q174.10312 415.74582 174.80624 417.71457Q175.4 419.4177 175.4 421.27707Q175.4 423.38644 174.5875 425.37082Q173.79062 427.33957 172.63437 428.80832Z" fill-rule="nonzero"/><path fill="#000000" d="M144.80624 565.1896L144.80624 555.0802L141.025 555.0802L141.025 553.73645L150.10312 553.73645L150.10312 555.0802L146.32187 555.0802L146.32187 565.1896L144.80624 565.1896ZM150.7125 555.3458L150.7125 553.73645L152.11874 553.73645L152.11874 555.3458L150.7125 555.3458ZM150.7125 565.1896L150.7125 556.8927L152.11874 556.8927L152.11874 565.1896L150.7125 565.1896ZM154.7125 565.1896L154.7125 556.8927L155.9625 556.8927L155.9625 558.04895Q156.35312 557.4396 156.99374 557.0802Q157.65 556.7052 158.47812 556.7052Q159.4 556.7052 159.99374 557.0958Q160.5875 557.4708 160.82187 558.1583Q161.80624 556.7052 163.38437 556.7052Q164.61874 556.7052 165.275 557.3927Q165.94687 558.0646 165.94687 559.48645L165.94687 565.1896L164.55624 565.1896L164.55624 559.9552Q164.55624 559.11145 164.41562 558.7521Q164.275 558.3771 163.91562 558.1583Q163.55624 557.92395 163.07187 557.92395Q162.19687 557.92395 161.61874 558.5021Q161.04062 559.0802 161.04062 560.36145L161.04062 565.1896L159.63437 565.1896L159.63437 559.79895Q159.63437 558.86145 159.29062 558.3927Q158.94687 557.92395 158.16562 557.92395Q157.57187 557.92395 157.07187 558.23645Q156.57187 558.54895 156.3375 559.1583Q156.11874 559.7521 156.11874 560.8771L156.11874 565.1896L154.7125 565.1896ZM173.38437 562.5177L174.8375 562.6896Q174.49374 563.9708 173.55624 564.67395Q172.63437 565.3771 171.19687 565.3771Q169.36874 565.3771 168.30624 564.2521Q167.24374 563.1271 167.24374 561.11145Q167.24374 559.0177 168.32187 557.86145Q169.4 556.7052 171.11874 556.7052Q172.775 556.7052 173.82187 557.8458Q174.88437 558.9708 174.88437 561.0177Q174.88437 561.1427 174.88437 561.3927L168.69687 561.3927Q168.775 562.7677 169.4625 563.5021Q170.16562 564.2208 171.19687 564.2208Q171.97812 564.2208 172.525 563.8146Q173.07187 563.4083 173.38437 562.5177ZM168.775 560.23645L173.4 560.23645Q173.30624 559.1896 172.86874 558.67395Q172.19687 557.86145 171.13437 557.86145Q170.16562 557.86145 169.49374 558.5177Q168.8375 559.1583 168.775 560.23645Z" fill-rule="nonzero"/><path fill="#000000" d="M136.4 587.5646Q135.22812 586.0958 134.41562 584.1271Q133.61874 582.1427 133.61874 580.0333Q133.61874 578.17395 134.22812 576.4708Q134.93124 574.5021 136.4 572.5333L137.4 572.5333Q136.4625 574.1583 136.15 574.86145Q135.68124 575.9396 135.4 577.11145Q135.07187 578.5646 135.07187 580.04895Q135.07187 583.79895 137.4 587.5646L136.4 587.5646ZM138.7125 584.1896L138.7125 575.8927L139.9625 575.8927L139.9625 577.04895Q140.35312 576.4396 140.99374 576.0802Q141.65 575.7052 142.47812 575.7052Q143.4 575.7052 143.99374 576.0958Q144.5875 576.4708 144.82187 577.1583Q145.80624 575.7052 147.38437 575.7052Q148.61874 575.7052 149.275 576.3927Q149.94687 577.0646 149.94687 578.48645L149.94687 584.1896L148.55624 584.1896L148.55624 578.9552Q148.55624 578.11145 148.41562 577.7521Q148.275 577.3771 147.91562 577.1583Q147.55624 576.92395 147.07187 576.92395Q146.19687 576.92395 145.61874 577.5021Q145.04062 578.0802 145.04062 579.36145L145.04062 584.1896L143.63437 584.1896L143.63437 578.79895Q143.63437 577.86145 143.29062 577.3927Q142.94687 576.92395 142.16562 576.92395Q141.57187 576.92395 141.07187 577.23645Q140.57187 577.54895 140.3375 578.1583Q140.11874 578.7521 140.11874 579.8771L140.11874 584.1896L138.7125 584.1896ZM151.7125 574.3458L151.7125 572.73645L153.11874 572.73645L153.11874 574.3458L151.7125 574.3458ZM151.7125 584.1896L151.7125 575.8927L153.11874 575.8927L153.11874 584.1896L151.7125 584.1896ZM155.7125 584.1896L155.7125 575.8927L156.97812 575.8927L156.97812 577.0646Q157.88437 575.7052 159.61874 575.7052Q160.36874 575.7052 160.99374 575.9708Q161.61874 576.23645 161.93124 576.67395Q162.24374 577.11145 162.36874 577.7208Q162.44687 578.11145 162.44687 579.0802L162.44687 584.1896L161.04062 584.1896L161.04062 579.1427Q161.04062 578.2833 160.86874 577.86145Q160.7125 577.42395 160.29062 577.17395Q159.88437 576.92395 159.32187 576.92395Q158.41562 576.92395 157.75937 577.5021Q157.11874 578.0646 157.11874 579.6583L157.11874 584.1896L155.7125 584.1896ZM163.15 581.7052L164.54062 581.48645Q164.65 582.3302 165.18124 582.7833Q165.72812 583.2208 166.68124 583.2208Q167.65 583.2208 168.11874 582.8302Q168.5875 582.42395 168.5875 581.8927Q168.5875 581.42395 168.18124 581.1427Q167.88437 580.9552 166.74374 580.67395Q165.19687 580.2833 164.5875 580.0021Q163.99374 579.7052 163.68124 579.2052Q163.38437 578.7052 163.38437 578.0958Q163.38437 577.5333 163.63437 577.0646Q163.88437 576.5958 164.32187 576.2833Q164.65 576.0333 165.2125 575.8771Q165.79062 575.7052 166.43124 575.7052Q167.41562 575.7052 168.15 575.98645Q168.88437 576.2677 169.22812 576.7521Q169.5875 577.2208 169.72812 578.0333L168.35312 578.2208Q168.25937 577.5802 167.80624 577.2208Q167.35312 576.86145 166.54062 576.86145Q165.57187 576.86145 165.15 577.1896Q164.74374 577.5021 164.74374 577.92395Q164.74374 578.2052 164.91562 578.42395Q165.0875 578.6427 165.44687 578.79895Q165.66562 578.8771 166.69687 579.1583Q168.18124 579.54895 168.775 579.8146Q169.36874 580.0646 169.69687 580.54895Q170.04062 581.0333 170.04062 581.7521Q170.04062 582.4552 169.61874 583.0802Q169.2125 583.6896 168.43124 584.0333Q167.66562 584.3771 166.69687 584.3771Q165.07187 584.3771 164.22812 583.7052Q163.38437 583.0333 163.15 581.7052ZM172.63437 587.5646L171.61874 587.5646Q173.9625 583.79895 173.9625 580.04895Q173.9625 578.5802 173.61874 577.1271Q173.35312 575.9552 172.88437 574.8771Q172.57187 574.17395 171.61874 572.5333L172.63437 572.5333Q174.10312 574.5021 174.80624 576.4708Q175.4 578.17395 175.4 580.0333Q175.4 582.1427 174.5875 584.1271Q173.79062 586.0958 172.63437 587.5646Z" fill-rule="nonzero"/><path fill="#ffffff" d="M180.65 689.1156Q180.65 687.58435 180.9625 686.6625Q181.275 685.725 181.88437 685.225Q182.50937 684.725 183.44687 684.725Q184.13437 684.725 184.65 685.0062Q185.18124 685.2875 185.525 685.8187Q185.86874 686.33435 186.05624 687.08435Q186.24374 687.83435 186.24374 689.1156Q186.24374 690.6312 185.93124 691.5531Q185.63437 692.475 185.00937 692.9906Q184.4 693.4906 183.44687 693.4906Q182.2125 693.4906 181.49374 692.6Q180.65 691.5375 180.65 689.1156ZM181.72812 689.1156Q181.72812 691.225 182.22812 691.9281Q182.72812 692.6312 183.44687 692.6312Q184.18124 692.6312 184.66562 691.9281Q185.16562 691.225 185.16562 689.1156Q185.16562 686.9906 184.66562 686.3031Q184.18124 685.6 183.43124 685.6Q182.7125 685.6 182.275 686.20935Q181.72812 686.9906 181.72812 689.1156Z" fill-rule="nonzero"/><path fill="#ffffff" d="M501.09686 692.33435L501.09686 693.35L495.40936 693.35Q495.40936 692.975 495.53436 692.6156Q495.7531 692.0375 496.22186 691.475Q496.70624 690.9125 497.6125 690.1781Q499.01874 689.02185 499.5031 688.35Q500.0031 687.6781 500.0031 687.08435Q500.0031 686.45935 499.55 686.0375Q499.09686 685.6 498.3781 685.6Q497.6125 685.6 497.15936 686.0531Q496.70624 686.5062 496.6906 687.3187L495.6125 687.20935Q495.72186 685.9906 496.4406 685.3656Q497.175 684.725 498.40936 684.725Q499.64374 684.725 500.3625 685.4125Q501.08124 686.1 501.08124 687.1156Q501.08124 687.6312 500.8625 688.1312Q500.65936 688.6156 500.15936 689.1781Q499.675 689.725 498.55 690.6781Q497.59686 691.475 497.3156 691.77185Q497.05 692.0531 496.8781 692.33435L501.09686 692.33435ZM502.55 689.1156Q502.55 687.58435 502.8625 686.6625Q503.175 685.725 503.78436 685.225Q504.40936 684.725 505.34686 684.725Q506.03436 684.725 506.55 685.0062Q507.08124 685.2875 507.425 685.8187Q507.76874 686.33435 507.95624 687.08435Q508.14374 687.83435 508.14374 689.1156Q508.14374 690.6312 507.83124 691.5531Q507.53436 692.475 506.90936 692.9906Q506.3 693.4906 505.34686 693.4906Q504.1125 693.4906 503.39374 692.6Q502.55 691.5375 502.55 689.1156ZM503.6281 689.1156Q503.6281 691.225 504.1281 691.9281Q504.6281 692.6312 505.34686 692.6312Q506.08124 692.6312 506.5656 691.9281Q507.0656 691.225 507.0656 689.1156Q507.0656 686.9906 506.5656 686.3031Q506.08124 685.6 505.33124 685.6Q504.6125 685.6 504.175 686.20935Q503.6281 686.9906 503.6281 689.1156ZM509.55 689.1156Q509.55 687.58435 509.8625 686.6625Q510.175 685.725 510.78436 685.225Q511.40936 684.725 512.34686 684.725Q513.03436 684.725 513.55 685.0062Q514.08124 685.2875 514.425 685.8187Q514.76874 686.33435 514.95624 687.08435Q515.14374 687.83435 515.14374 689.1156Q515.14374 690.6312 514.83124 691.5531Q514.53436 692.475 513.90936 692.9906Q513.3 693.4906 512.34686 693.4906Q511.1125 693.4906 510.39374 692.6Q509.55 691.5375 509.55 689.1156ZM510.6281 689.1156Q510.6281 691.225 511.1281 691.9281Q511.6281 692.6312 512.34686 692.6312Q513.08124 692.6312 513.5656 691.9281Q514.0656 691.225 514.0656 689.1156Q514.0656 686.9906 513.5656 686.3031Q513.08124 685.6 512.33124 685.6Q511.6125 685.6 511.175 686.20935Q510.6281 686.9906 510.6281 689.1156Z" fill-rule="nonzero"/><path fill="#ffffff" d="M820.825 693.35L820.825 691.2875L817.10626 691.2875L817.10626 690.3187L821.02814 684.7562L821.8875 684.7562L821.8875 690.3187L823.04376 690.3187L823.04376 691.2875L821.8875 691.2875L821.8875 693.35L820.825 693.35ZM820.825 690.3187L820.825 686.45935L818.1375 690.3187L820.825 690.3187ZM824.45 689.1156Q824.45 687.58435 824.7625 686.6625Q825.075 685.725 825.6844 685.225Q826.3094 684.725 827.2469 684.725Q827.9344 684.725 828.45 685.0062Q828.98126 685.2875 829.325 685.8187Q829.66876 686.33435 829.85626 687.08435Q830.04376 687.83435 830.04376 689.1156Q830.04376 690.6312 829.73126 691.5531Q829.4344 692.475 828.8094 692.9906Q828.2 693.4906 827.2469 693.4906Q826.0125 693.4906 825.29376 692.6Q824.45 691.5375 824.45 689.1156ZM825.52814 689.1156Q825.52814 691.225 826.02814 691.9281Q826.52814 692.6312 827.2469 692.6312Q827.98126 692.6312 828.46564 691.9281Q828.96564 691.225 828.96564 689.1156Q828.96564 686.9906 828.46564 686.3031Q827.98126 685.6 827.23126 685.6Q826.5125 685.6 826.075 686.20935Q825.52814 686.9906 825.52814 689.1156ZM831.45 689.1156Q831.45 687.58435 831.7625 686.6625Q832.075 685.725 832.6844 685.225Q833.3094 684.725 834.2469 684.725Q834.9344 684.725 835.45 685.0062Q835.98126 685.2875 836.325 685.8187Q836.66876 686.33435 836.85626 687.08435Q837.04376 687.83435 837.04376 689.1156Q837.04376 690.6312 836.73126 691.5531Q836.4344 692.475 835.8094 692.9906Q835.2 693.4906 834.2469 693.4906Q833.0125 693.4906 832.29376 692.6Q831.45 691.5375 831.45 689.1156ZM832.52814 689.1156Q832.52814 691.225 833.02814 691.9281Q833.52814 692.6312 834.2469 692.6312Q834.98126 692.6312 835.46564 691.9281Q835.96564 691.225 835.96564 689.1156Q835.96564 686.9906 835.46564 686.3031Q834.98126 685.6 834.23126 685.6Q833.5125 685.6 833.075 686.20935Q832.52814 686.9906 832.52814 689.1156Z" fill-rule="nonzero"/><path fill="#ffffff" d="M1144.8187 686.8656L1143.7719 686.9437Q1143.6312 686.3187 1143.3812 686.0375Q1142.9437 685.58435 1142.3187 685.58435Q1141.8187 685.58435 1141.4281 685.8656Q1140.9437 686.2406 1140.6469 686.9437Q1140.3656 687.6312 1140.35 688.9125Q1140.725 688.33435 1141.2719 688.0531Q1141.8344 687.77185 1142.4437 687.77185Q1143.4906 687.77185 1144.225 688.5531Q1144.975 689.33435 1144.975 690.5531Q1144.975 691.3656 1144.6156 692.0687Q1144.2719 692.7562 1143.6625 693.1312Q1143.0531 693.4906 1142.2875 693.4906Q1140.9594 693.4906 1140.1312 692.52185Q1139.3031 691.5531 1139.3031 689.33435Q1139.3031 686.83435 1140.225 685.70935Q1141.0219 684.725 1142.3812 684.725Q1143.3969 684.725 1144.0375 685.3031Q1144.6937 685.8656 1144.8187 686.8656ZM1140.5219 690.5687Q1140.5219 691.1156 1140.7406 691.6156Q1140.975 692.1 1141.3812 692.3656Q1141.8031 692.6312 1142.2719 692.6312Q1142.9281 692.6312 1143.4125 692.1Q1143.8969 691.5531 1143.8969 690.6312Q1143.8969 689.7406 1143.4125 689.225Q1142.9437 688.70935 1142.225 688.70935Q1141.5062 688.70935 1141.0062 689.225Q1140.5219 689.7406 1140.5219 690.5687ZM1146.35 689.1156Q1146.35 687.58435 1146.6625 686.6625Q1146.975 685.725 1147.5844 685.225Q1148.2094 684.725 1149.1469 684.725Q1149.8344 684.725 1150.35 685.0062Q1150.8812 685.2875 1151.225 685.8187Q1151.5687 686.33435 1151.7562 687.08435Q1151.9437 687.83435 1151.9437 689.1156Q1151.9437 690.6312 1151.6312 691.5531Q1151.3344 692.475 1150.7094 692.9906Q1150.1 693.4906 1149.1469 693.4906Q1147.9125 693.4906 1147.1937 692.6Q1146.35 691.5375 1146.35 689.1156ZM1147.4281 689.1156Q1147.4281 691.225 1147.9281 691.9281Q1148.4281 692.6312 1149.1469 692.6312Q1149.8812 692.6312 1150.3656 691.9281Q1150.8656 691.225 1150.8656 689.1156Q1150.8656 686.9906 1150.3656 686.3031Q1149.8812 685.6 1149.1312 685.6Q1148.4125 685.6 1147.975 686.20935Q1147.4281 686.9906 1147.4281 689.1156ZM1153.35 689.1156Q1153.35 687.58435 1153.6625 686.6625Q1153.975 685.725 1154.5844 685.225Q1155.2094 684.725 1156.1469 684.725Q1156.8344 684.725 1157.35 685.0062Q1157.8812 685.2875 1158.225 685.8187Q1158.5687 686.33435 1158.7562 687.08435Q1158.9437 687.83435 1158.9437 689.1156Q1158.9437 690.6312 1158.6312 691.5531Q1158.3344 692.475 1157.7094 692.9906Q1157.1 693.4906 1156.1469 693.4906Q1154.9125 693.4906 1154.1937 692.6Q1153.35 691.5375 1153.35 689.1156ZM1154.4281 689.1156Q1154.4281 691.225 1154.9281 691.9281Q1155.4281 692.6312 1156.1469 692.6312Q1156.8812 692.6312 1157.3656 691.9281Q1157.8656 691.225 1157.8656 689.1156Q1157.8656 686.9906 1157.3656 686.3031Q1156.8812 685.6 1156.1312 685.6Q1155.4125 685.6 1154.975 686.20935Q1154.4281 686.9906 1154.4281 689.1156Z" fill-rule="nonzero"/><path fill="#4285f4" d="M460.5 103.083336C460.5 102.53105 460.94772 102.083336 461.5 102.083336L471.5 102.083336C472.05228 102.083336 472.5 102.53105 472.5 103.083336L472.5 113.083336C472.5 113.63562 472.05228 114.083336 471.5 114.083336L461.5 114.083336C460.94772 114.083336 460.5 113.63562 460.5 113.083336Z" fill-rule="nonzero"/><path fill="#1a1a1a" d="M484.70312 115.083336L480.75 104.708336L482.60938 104.708336L484.84375 110.927086Q485.20312 111.927086 485.5 113.00521Q485.73438 112.19271 486.15625 111.03646L488.45312 104.708336L490.26562 104.708336L486.34375 115.083336L484.70312 115.083336ZM496.95312 115.083336L495.1875 115.083336L495.1875 103.88021Q494.5625 104.489586 493.53125 105.09896Q492.5 105.69271 491.67188 106.00521L491.67188 104.302086Q493.15625 103.614586 494.25 102.63021Q495.35938 101.63021 495.8125 100.708336L496.95312 100.708336L496.95312 115.083336ZM502.3125 115.083336L502.3125 113.083336L504.3125 113.083336L504.3125 115.083336L502.3125 115.083336ZM507.59375 111.770836L509.28125 111.614586Q509.5 112.802086 510.09375 113.34896Q510.70312 113.88021 511.65625 113.88021Q512.46875 113.88021 513.0781 113.520836Q513.6875 113.145836 514.0781 112.520836Q514.46875 111.895836 514.7344 110.84896Q515.0 109.78646 515.0 108.69271Q515.0 108.583336 514.9844 108.34896Q514.4531 109.177086 513.5469 109.708336Q512.6406 110.22396 511.5625 110.22396Q509.79688 110.22396 508.5625 108.94271Q507.32812 107.645836 507.32812 105.53646Q507.32812 103.364586 508.60938 102.03646Q509.90625 100.708336 511.82812 100.708336Q513.2344 100.708336 514.3906 101.458336Q515.5469 102.208336 516.1406 103.59896Q516.75 104.989586 516.75 107.63021Q516.75 110.38021 516.1406 112.00521Q515.5469 113.63021 514.375 114.489586Q513.2031 115.333336 511.625 115.333336Q509.9375 115.333336 508.875 114.395836Q507.8125 113.458336 507.59375 111.770836ZM514.7969 105.458336Q514.7969 103.94271 513.9844 103.052086Q513.1875 102.16146 512.0469 102.16146Q510.875 102.16146 510.0 103.13021Q509.14062 104.083336 509.14062 105.59896Q509.14062 106.97396 509.95312 107.833336Q510.78125 108.677086 512.0 108.677086Q513.21875 108.677086 514.0 107.833336Q514.7969 106.97396 514.7969 105.458336ZM519.3125 115.083336L519.3125 113.083336L521.3125 113.083336L521.3125 115.083336L519.3125 115.083336ZM524.3281 108.020836Q524.3281 105.489586 524.84375 103.94271Q525.375 102.38021 526.40625 101.552086Q527.4375 100.708336 529.0 100.708336Q530.15625 100.708336 531.0156 101.177086Q531.8906 101.63021 532.4531 102.50521Q533.0156 103.38021 533.34375 104.645836Q533.6719 105.895836 533.6719 108.020836Q533.6719 110.53646 533.1406 112.083336Q532.625 113.63021 531.59375 114.489586Q530.5781 115.333336 529.0 115.333336Q526.9219 115.333336 525.75 113.84896Q524.3281 112.052086 524.3281 108.020836ZM526.1406 108.020836Q526.1406 111.552086 526.9531 112.72396Q527.78125 113.88021 529.0 113.88021Q530.2031 113.88021 531.03125 112.708336Q531.8594 111.53646 531.8594 108.020836Q531.8594 104.489586 531.03125 103.333336Q530.2031 102.16146 528.9844 102.16146Q527.7656 102.16146 527.0469 103.19271Q526.1406 104.489586 526.1406 108.020836Z" fill-rule="nonzero"/><path fill="#ea4335" d="M550.5 103.083336C550.5 102.53105 550.9477 102.083336 551.5 102.083336L561.5 102.083336C562.0523 102.083336 562.5 102.53105 562.5 103.083336L562.5 113.083336C562.5 113.63562 562.0523 114.083336 561.5 114.083336L551.5 114.083336C550.9477 114.083336 550.5 113.63562 550.5 113.083336Z" fill-rule="nonzero"/><path fill="#1a1a1a" d="M574.7031 115.083336L570.75 104.708336L572.6094 104.708336L574.84375 110.927086Q575.2031 111.927086 575.5 113.00521Q575.7344 112.19271 576.15625 111.03646L578.4531 104.708336L580.2656 104.708336L576.34375 115.083336L574.7031 115.083336ZM586.9531 115.083336L585.1875 115.083336L585.1875 103.88021Q584.5625 104.489586 583.53125 105.09896Q582.5 105.69271 581.6719 106.00521L581.6719 104.302086Q583.15625 103.614586 584.25 102.63021Q585.3594 101.63021 585.8125 100.708336L586.9531 100.708336L586.9531 115.083336ZM592.3125 115.083336L592.3125 113.083336L594.3125 113.083336L594.3125 115.083336L592.3125 115.083336ZM603.9531 115.083336L602.1875 115.083336L602.1875 103.88021Q601.5625 104.489586 600.53125 105.09896Q599.5 105.69271 598.6719 106.00521L598.6719 104.302086Q600.15625 103.614586 601.25 102.63021Q602.3594 101.63021 602.8125 100.708336L603.9531 100.708336L603.9531 115.083336ZM617.5625 113.395836L617.5625 115.083336L608.1094 115.083336Q608.09375 114.44271 608.3125 113.864586Q608.6719 112.895836 609.46875 111.958336Q610.2656 111.020836 611.7656 109.78646Q614.1094 107.88021 614.9219 106.770836Q615.75 105.645836 615.75 104.645836Q615.75 103.59896 615.0 102.88021Q614.25 102.16146 613.0469 102.16146Q611.78125 102.16146 611.0156 102.927086Q610.25 103.69271 610.25 105.03646L608.4375 104.84896Q608.625 102.833336 609.8281 101.770836Q611.0469 100.708336 613.09375 100.708336Q615.1406 100.708336 616.34375 101.84896Q617.5469 102.989586 617.5469 104.677086Q617.5469 105.53646 617.1875 106.38021Q616.84375 107.208336 616.03125 108.13021Q615.21875 109.03646 613.3281 110.645836Q611.7344 111.97396 611.28125 112.44271Q610.84375 112.91146 610.5469 113.395836L617.5625 113.395836ZM620.3125 115.083336L620.3125 113.083336L622.3125 113.083336L622.3125 115.083336L620.3125 115.083336ZM631.9531 115.083336L630.1875 115.083336L630.1875 103.88021Q629.5625 104.489586 628.53125 105.09896Q627.5 105.69271 626.6719 106.00521L626.6719 104.302086Q628.15625 103.614586 629.25 102.63021Q630.3594 101.63021 630.8125 100.708336L631.9531 100.708336L631.9531 115.083336Z" fill-rule="nonzero"/><path fill="#fbbc04" d="M651.5 103.083336C651.5 102.53105 651.9477 102.083336 652.5 102.083336L662.5 102.083336C663.0523 102.083336 663.5 102.53105 663.5 103.083336L663.5 113.083336C663.5 113.63562 663.0523 114.083336 662.5 114.083336L652.5 114.083336C651.9477 114.083336 651.5 113.63562 651.5 113.083336Z" fill-rule="nonzero"/><path fill="#1a1a1a" d="M675.7031 115.083336L671.75 104.708336L673.6094 104.708336L675.84375 110.927086Q676.2031 111.927086 676.5 113.00521Q676.7344 112.19271 677.15625 111.03646L679.4531 104.708336L681.2656 104.708336L677.34375 115.083336L675.7031 115.083336ZM690.5625 113.395836L690.5625 115.083336L681.1094 115.083336Q681.09375 114.44271 681.3125 113.864586Q681.6719 112.895836 682.46875 111.958336Q683.2656 111.020836 684.7656 109.78646Q687.1094 107.88021 687.9219 106.770836Q688.75 105.645836 688.75 104.645836Q688.75 103.59896 688.0 102.88021Q687.25 102.16146 686.0469 102.16146Q684.78125 102.16146 684.0156 102.927086Q683.25 103.69271 683.25 105.03646L681.4375 104.84896Q681.625 102.833336 682.8281 101.770836Q684.0469 100.708336 686.09375 100.708336Q688.1406 100.708336 689.34375 101.84896Q690.5469 102.989586 690.5469 104.677086Q690.5469 105.53646 690.1875 106.38021Q689.84375 107.208336 689.03125 108.13021Q688.21875 109.03646 686.3281 110.645836Q684.7344 111.97396 684.28125 112.44271Q683.84375 112.91146 683.5469 113.395836L690.5625 113.395836ZM693.3125 115.083336L693.3125 113.083336L695.3125 113.083336L695.3125 115.083336L693.3125 115.083336ZM698.3281 108.020836Q698.3281 105.489586 698.84375 103.94271Q699.375 102.38021 700.40625 101.552086Q701.4375 100.708336 703.0 100.708336Q704.15625 100.708336 705.0156 101.177086Q705.8906 101.63021 706.4531 102.50521Q707.0156 103.38021 707.34375 104.645836Q707.6719 105.895836 707.6719 108.020836Q707.6719 110.53646 707.1406 112.083336Q706.625 113.63021 705.59375 114.489586Q704.5781 115.333336 703.0 115.333336Q700.9219 115.333336 699.75 113.84896Q698.3281 112.052086 698.3281 108.020836ZM700.1406 108.020836Q700.1406 111.552086 700.9531 112.72396Q701.78125 113.88021 703.0 113.88021Q704.2031 113.88021 705.03125 112.708336Q705.8594 111.53646 705.8594 108.020836Q705.8594 104.489586 705.03125 103.333336Q704.2031 102.16146 702.9844 102.16146Q701.7656 102.16146 701.0469 103.19271Q700.1406 104.489586 700.1406 108.020836ZM710.3125 115.083336L710.3125 113.083336L712.3125 113.083336L712.3125 115.083336L710.3125 115.083336ZM715.3281 108.020836Q715.3281 105.489586 715.84375 103.94271Q716.375 102.38021 717.40625 101.552086Q718.4375 100.708336 720.0 100.708336Q721.15625 100.708336 722.0156 101.177086Q722.8906 101.63021 723.4531 102.50521Q724.0156 103.38021 724.34375 104.645836Q724.6719 105.895836 724.6719 108.020836Q724.6719 110.53646 724.1406 112.083336Q723.625 113.63021 722.59375 114.489586Q721.5781 115.333336 720.0 115.333336Q717.9219 115.333336 716.75 113.84896Q715.3281 112.052086 715.3281 108.020836ZM717.1406 108.020836Q717.1406 111.552086 717.9531 112.72396Q718.78125 113.88021 720.0 113.88021Q721.2031 113.88021 722.03125 112.708336Q722.8594 111.53646 722.8594 108.020836Q722.8594 104.489586 722.03125 103.333336Q721.2031 102.16146 719.9844 102.16146Q718.7656 102.16146 718.0469 103.19271Q717.1406 104.489586 717.1406 108.020836Z" fill-rule="nonzero"/><path fill="#757575" d="M452.84375 57.74375L455.53125 57.509377Q455.71875 59.134377 456.40625 60.165627Q457.10938 61.196877 458.57812 61.8375Q460.04688 62.4625 461.875 62.4625Q463.5 62.4625 464.73438 61.978127Q465.98438 61.49375 466.59375 60.665627Q467.20312 59.821877 467.20312 58.821877Q467.20312 57.80625 466.60938 57.05625Q466.03125 56.30625 464.6875 55.790627Q463.8125 55.446877 460.85938 54.74375Q457.90625 54.025 456.71875 53.4Q455.17188 52.5875 454.42188 51.4Q453.67188 50.2125 453.67188 48.728127Q453.67188 47.103127 454.59375 45.696877Q455.51562 44.275 457.28125 43.540627Q459.0625 42.80625 461.23438 42.80625Q463.60938 42.80625 465.4375 43.5875Q467.26562 44.353127 468.23438 45.853127Q469.21875 47.3375 469.29688 49.228127L466.57812 49.43125Q466.35938 47.4 465.07812 46.353127Q463.8125 45.30625 461.34375 45.30625Q458.76562 45.30625 457.57812 46.259377Q456.40625 47.196877 456.40625 48.540627Q456.40625 49.696877 457.25 50.446877Q458.0625 51.18125 461.51562 51.978127Q464.98438 52.759377 466.28125 53.3375Q468.15625 54.2125 469.04688 55.540627Q469.9375 56.853127 469.9375 58.5875Q469.9375 60.30625 468.95312 61.821877Q467.98438 63.3375 466.14062 64.18125Q464.29688 65.00938 462.0 65.00938Q459.09375 65.00938 457.10938 64.16563Q455.14062 63.321877 454.01562 61.61875Q452.90625 59.9 452.84375 57.74375ZM479.23438 62.290627L479.60938 64.61875Q478.5 64.85313 477.625 64.85313Q476.1875 64.85313 475.39062 64.4Q474.60938 63.946877 474.28125 63.2125Q473.96875 62.4625 473.96875 60.0875L473.96875 51.15L472.03125 51.15L472.03125 49.0875L473.96875 49.0875L473.96875 45.24375L476.57812 43.665627L476.57812 49.0875L479.23438 49.0875L479.23438 51.15L476.57812 51.15L476.57812 60.24375Q476.57812 61.36875 476.71875 61.696877Q476.85938 62.009377 477.17188 62.2125Q477.48438 62.4 478.07812 62.4Q478.51562 62.4 479.23438 62.290627ZM491.625 62.728127Q490.17188 63.978127 488.8125 64.49375Q487.45312 65.00938 485.90625 65.00938Q483.34375 65.00938 481.95312 63.759377Q480.57812 62.49375 480.57812 60.540627Q480.57812 59.4 481.09375 58.4625Q481.625 57.509377 482.46875 56.946877Q483.3125 56.36875 484.35938 56.0875Q485.14062 55.86875 486.70312 55.68125Q489.90625 55.30625 491.40625 54.775Q491.42188 54.228127 491.42188 54.0875Q491.42188 52.478127 490.67188 51.821877Q489.67188 50.93125 487.67188 50.93125Q485.8125 50.93125 484.92188 51.5875Q484.04688 52.228127 483.60938 53.884377L481.03125 53.525Q481.39062 51.86875 482.1875 50.853127Q483.0 49.8375 484.51562 49.290627Q486.04688 48.74375 488.0625 48.74375Q490.04688 48.74375 491.28125 49.2125Q492.53125 49.68125 493.10938 50.4Q493.70312 51.103127 493.9375 52.18125Q494.07812 52.853127 494.07812 54.61875L494.07812 58.134377Q494.07812 61.80625 494.23438 62.790627Q494.40625 63.759377 494.90625 64.65L492.15625 64.65Q491.75 63.821877 491.625 62.728127ZM491.40625 56.8375Q489.96875 57.43125 487.10938 57.8375Q485.48438 58.071877 484.79688 58.36875Q484.125 58.665627 483.75 59.228127Q483.39062 59.790627 483.39062 60.478127Q483.39062 61.525 484.1875 62.228127Q485.0 62.93125 486.53125 62.93125Q488.0625 62.93125 489.23438 62.275Q490.42188 61.603127 490.98438 60.446877Q491.40625 59.55625 491.40625 57.80625L491.40625 56.8375ZM497.45312 64.65L497.45312 49.0875L499.82812 49.0875L499.82812 51.446877Q500.73438 49.790627 501.5 49.275Q502.26562 48.74375 503.1875 48.74375Q504.53125 48.74375 505.90625 49.5875L505.0 52.040627Q504.03125 51.4625 503.0625 51.4625Q502.1875 51.4625 501.5 51.99375Q500.8125 52.509377 500.53125 53.43125Q500.07812 54.8375 500.07812 56.509377L500.07812 64.65L497.45312 64.65ZM513.2344 62.290627L513.6094 64.61875Q512.5 64.85313 511.625 64.85313Q510.1875 64.85313 509.39062 64.4Q508.60938 63.946877 508.28125 63.2125Q507.96875 62.4625 507.96875 60.0875L507.96875 51.15L506.03125 51.15L506.03125 49.0875L507.96875 49.0875L507.96875 45.24375L510.57812 43.665627L510.57812 49.0875L513.2344 49.0875L513.2344 51.15L510.57812 51.15L510.57812 60.24375Q510.57812 61.36875 510.71875 61.696877Q510.85938 62.009377 511.17188 62.2125Q511.48438 62.4 512.0781 62.4Q512.5156 62.4 513.2344 62.290627ZM536.4219 48.43125L533.8125 48.634377Q533.4531 47.0875 532.8125 46.384377Q531.7344 45.259377 530.1719 45.259377Q528.90625 45.259377 527.9531 45.9625Q526.71875 46.86875 526.0 48.61875Q525.28125 50.353127 525.25 53.571877Q526.2031 52.11875 527.5781 51.415627Q528.9531 50.7125 530.46875 50.7125Q533.1094 50.7125 534.9531 52.665627Q536.8125 54.603127 536.8125 57.68125Q536.8125 59.696877 535.9375 61.43125Q535.0625 63.165627 533.53125 64.0875Q532.0156 65.00938 530.0781 65.00938Q526.78125 65.00938 524.7031 62.5875Q522.625 60.165627 522.625 54.603127Q522.625 48.36875 524.9219 45.540627Q526.9375 43.0875 530.3281 43.0875Q532.875 43.0875 534.4844 44.509377Q536.1094 45.93125 536.4219 48.43125ZM525.65625 57.696877Q525.65625 59.05625 526.2344 60.30625Q526.8125 61.540627 527.84375 62.196877Q528.8906 62.853127 530.0469 62.853127Q531.7031 62.853127 532.90625 61.509377Q534.1094 60.15 534.1094 57.8375Q534.1094 55.61875 532.9219 54.3375Q531.7344 53.040627 529.9375 53.040627Q528.15625 53.040627 526.90625 54.3375Q525.65625 55.61875 525.65625 57.696877ZM539.75 54.05625Q539.75 50.24375 540.53125 47.93125Q541.3125 45.603127 542.8594 44.353127Q544.40625 43.0875 546.75 43.0875Q548.46875 43.0875 549.7656 43.790627Q551.0781 44.478127 551.9219 45.790627Q552.78125 47.103127 553.2656 48.99375Q553.75 50.86875 553.75 54.05625Q553.75 57.8375 552.96875 60.165627Q552.2031 62.478127 550.65625 63.74375Q549.1094 65.00938 546.75 65.00938Q543.6406 65.00938 541.875 62.790627Q539.75 60.103127 539.75 54.05625ZM542.4531 54.05625Q542.4531 59.353127 543.6875 61.103127Q544.9375 62.853127 546.75 62.853127Q548.5625 62.853127 549.7969 61.103127Q551.0469 59.3375 551.0469 54.05625Q551.0469 48.759377 549.7969 47.025Q548.5625 45.275 546.71875 45.275Q544.90625 45.275 543.8125 46.80625Q542.4531 48.775 542.4531 54.05625ZM556.75 54.05625Q556.75 50.24375 557.53125 47.93125Q558.3125 45.603127 559.8594 44.353127Q561.40625 43.0875 563.75 43.0875Q565.46875 43.0875 566.7656 43.790627Q568.0781 44.478127 568.9219 45.790627Q569.78125 47.103127 570.2656 48.99375Q570.75 50.86875 570.75 54.05625Q570.75 57.8375 569.96875 60.165627Q569.2031 62.478127 567.65625 63.74375Q566.1094 65.00938 563.75 65.00938Q560.6406 65.00938 558.875 62.790627Q556.75 60.103127 556.75 54.05625ZM559.4531 54.05625Q559.4531 59.353127 560.6875 61.103127Q561.9375 62.853127 563.75 62.853127Q565.5625 62.853127 566.7969 61.103127Q568.0469 59.3375 568.0469 54.05625Q568.0469 48.759377 566.7969 47.025Q565.5625 45.275 563.71875 45.275Q561.90625 45.275 560.8125 46.80625Q559.4531 48.775 559.4531 54.05625ZM583.2969 64.65L583.2969 43.18125L586.1406 43.18125L586.1406 64.65L583.2969 64.65ZM589.4844 64.65L589.4844 49.0875L591.84375 49.0875L591.84375 51.30625Q593.5625 48.74375 596.7969 48.74375Q598.2031 48.74375 599.375 49.259377Q600.5625 49.759377 601.1406 50.5875Q601.7344 51.4 601.96875 52.525Q602.125 53.259377 602.125 55.0875L602.125 64.65L599.4844 64.65L599.4844 55.18125Q599.4844 53.571877 599.1719 52.775Q598.875 51.978127 598.0781 51.509377Q597.2969 51.025 596.25 51.025Q594.5625 51.025 593.3281 52.103127Q592.1094 53.165627 592.1094 56.15L592.1094 64.65L589.4844 64.65ZM612.2344 62.290627L612.6094 64.61875Q611.5 64.85313 610.625 64.85313Q609.1875 64.85313 608.3906 64.4Q607.6094 63.946877 607.28125 63.2125Q606.96875 62.4625 606.96875 60.0875L606.96875 51.15L605.03125 51.15L605.03125 49.0875L606.96875 49.0875L606.96875 45.24375L609.5781 43.665627L609.5781 49.0875L612.2344 49.0875L612.2344 51.15L609.5781 51.15L609.5781 60.24375Q609.5781 61.36875 609.71875 61.696877Q609.8594 62.009377 610.1719 62.2125Q610.4844 62.4 611.0781 62.4Q611.5156 62.4 612.2344 62.290627ZM625.125 59.634377L627.8594 59.978127Q627.2031 62.36875 625.4531 63.696877Q623.71875 65.00938 621.0156 65.00938Q617.59375 65.00938 615.59375 62.9Q613.59375 60.790627 613.59375 57.009377Q613.59375 53.071877 615.6094 50.915627Q617.6406 48.74375 620.8594 48.74375Q623.9844 48.74375 625.9531 50.86875Q627.9375 52.99375 627.9375 56.8375Q627.9375 57.071877 627.9219 57.540627L616.3281 57.540627Q616.46875 60.103127 617.7656 61.478127Q619.0781 62.8375 621.03125 62.8375Q622.46875 62.8375 623.5 62.071877Q624.53125 61.30625 625.125 59.634377ZM616.46875 55.384377L625.15625 55.384377Q624.9844 53.415627 624.15625 52.43125Q622.90625 50.915627 620.8906 50.915627Q619.0781 50.915627 617.84375 52.134377Q616.6094 53.3375 616.46875 55.384377ZM630.0 65.94688L632.5625 66.32188Q632.71875 67.50938 633.4531 68.05625Q634.4375 68.775 636.125 68.775Q637.96875 68.775 638.9531 68.04063Q639.9531 67.32188 640.3125 65.99375Q640.5156 65.19688 640.5 62.61875Q638.7656 64.65 636.1875 64.65Q632.9844 64.65 631.21875 62.3375Q629.46875 60.025 629.46875 56.790627Q629.46875 54.55625 630.2656 52.68125Q631.0781 50.790627 632.6094 49.775Q634.1406 48.74375 636.2031 48.74375Q638.9531 48.74375 640.75 50.9625L640.75 49.0875L643.1719 49.0875L643.1719 62.540627Q643.1719 66.18125 642.4375 67.69688Q641.7031 69.2125 640.09375 70.0875Q638.4844 70.9625 636.1406 70.9625Q633.3594 70.9625 631.6406 69.7125Q629.9375 68.4625 630.0 65.94688ZM632.1719 56.5875Q632.1719 59.65 633.3906 61.05625Q634.6094 62.4625 636.4375 62.4625Q638.25 62.4625 639.4844 61.071877Q640.71875 59.665627 640.71875 56.68125Q640.71875 53.821877 639.4531 52.384377Q638.1875 50.93125 636.3906 50.93125Q634.6406 50.93125 633.40625 52.353127Q632.1719 53.775 632.1719 56.5875ZM647.4531 64.65L647.4531 49.0875L649.8281 49.0875L649.8281 51.446877Q650.7344 49.790627 651.5 49.275Q652.2656 48.74375 653.1875 48.74375Q654.53125 48.74375 655.90625 49.5875L655.0 52.040627Q654.03125 51.4625 653.0625 51.4625Q652.1875 51.4625 651.5 51.99375Q650.8125 52.509377 650.53125 53.43125Q650.0781 54.8375 650.0781 56.509377L650.0781 64.65L647.4531 64.65ZM667.625 62.728127Q666.1719 63.978127 664.8125 64.49375Q663.4531 65.00938 661.90625 65.00938Q659.34375 65.00938 657.9531 63.759377Q656.5781 62.49375 656.5781 60.540627Q656.5781 59.4 657.09375 58.4625Q657.625 57.509377 658.46875 56.946877Q659.3125 56.36875 660.3594 56.0875Q661.1406 55.86875 662.7031 55.68125Q665.90625 55.30625 667.40625 54.775Q667.4219 54.228127 667.4219 54.0875Q667.4219 52.478127 666.6719 51.821877Q665.6719 50.93125 663.6719 50.93125Q661.8125 50.93125 660.9219 51.5875Q660.0469 52.228127 659.6094 53.884377L657.03125 53.525Q657.3906 51.86875 658.1875 50.853127Q659.0 49.8375 660.5156 49.290627Q662.0469 48.74375 664.0625 48.74375Q666.0469 48.74375 667.28125 49.2125Q668.53125 49.68125 669.1094 50.4Q669.7031 51.103127 669.9375 52.18125Q670.0781 52.853127 670.0781 54.61875L670.0781 58.134377Q670.0781 61.80625 670.2344 62.790627Q670.40625 63.759377 670.90625 64.65L668.15625 64.65Q667.75 63.821877 667.625 62.728127ZM667.40625 56.8375Q665.96875 57.43125 663.1094 57.8375Q661.4844 58.071877 660.7969 58.36875Q660.125 58.665627 659.75 59.228127Q659.3906 59.790627 659.3906 60.478127Q659.3906 61.525 660.1875 62.228127Q661.0 62.93125 662.53125 62.93125Q664.0625 62.93125 665.2344 62.275Q666.4219 61.603127 666.9844 60.446877Q667.40625 59.55625 667.40625 57.80625L667.40625 56.8375ZM679.2344 62.290627L679.6094 64.61875Q678.5 64.85313 677.625 64.85313Q676.1875 64.85313 675.3906 64.4Q674.6094 63.946877 674.28125 63.2125Q673.96875 62.4625 673.96875 60.0875L673.96875 51.15L672.03125 51.15L672.03125 49.0875L673.96875 49.0875L673.96875 45.24375L676.5781 43.665627L676.5781 49.0875L679.2344 49.0875L679.2344 51.15L676.5781 51.15L676.5781 60.24375Q676.5781 61.36875 676.71875 61.696877Q676.8594 62.009377 677.1719 62.2125Q677.4844 62.4 678.0781 62.4Q678.5156 62.4 679.2344 62.290627ZM681.5 46.2125L681.5 43.18125L684.125 43.18125L684.125 46.2125L681.5 46.2125ZM681.5 64.65L681.5 49.0875L684.125 49.0875L684.125 64.65L681.5 64.65ZM687.5 56.86875Q687.5 52.55625 689.90625 50.4625Q691.90625 48.74375 694.7969 48.74375Q698.0 48.74375 700.03125 50.853127Q702.0781 52.946877 702.0781 56.65Q702.0781 59.65 701.1719 61.384377Q700.2656 63.103127 698.5469 64.05625Q696.8281 65.00938 694.7969 65.00938Q691.53125 65.00938 689.5156 62.915627Q687.5 60.80625 687.5 56.86875ZM690.2031 56.86875Q690.2031 59.853127 691.5 61.353127Q692.8125 62.8375 694.7969 62.8375Q696.75 62.8375 698.0469 61.3375Q699.3594 59.8375 699.3594 56.790627Q699.3594 53.9 698.0469 52.415627Q696.7344 50.93125 694.7969 50.93125Q692.8125 50.93125 691.5 52.415627Q690.2031 53.884377 690.2031 56.86875ZM704.4844 64.65L704.4844 49.0875L706.84375 49.0875L706.84375 51.30625Q708.5625 48.74375 711.7969 48.74375Q713.2031 48.74375 714.375 49.259377Q715.5625 49.759377 716.1406 50.5875Q716.7344 51.4 716.96875 52.525Q717.125 53.259377 717.125 55.0875L717.125 64.65L714.4844 64.65L714.4844 55.18125Q714.4844 53.571877 714.1719 52.775Q713.875 51.978127 713.0781 51.509377Q712.2969 51.025 711.25 51.025Q709.5625 51.025 708.3281 52.103127Q707.1094 53.165627 707.1094 56.15L707.1094 64.65L704.4844 64.65ZM720.4219 60.009377L723.03125 59.603127Q723.25 61.165627 724.25 62.009377Q725.25 62.8375 727.0625 62.8375Q728.875 62.8375 729.75 62.103127Q730.6406 61.353127 730.6406 60.353127Q730.6406 59.4625 729.8594 58.946877Q729.3125 58.603127 727.15625 58.05625Q724.2656 57.321877 723.1406 56.790627Q722.0156 56.259377 721.4375 55.321877Q720.8594 54.36875 720.8594 53.228127Q720.8594 52.18125 721.3281 51.30625Q721.8125 50.415627 722.6406 49.821877Q723.25 49.36875 724.3125 49.05625Q725.375 48.74375 726.59375 48.74375Q728.4219 48.74375 729.7969 49.275Q731.1875 49.790627 731.84375 50.696877Q732.5156 51.603127 732.75 53.103127L730.1719 53.4625Q730.0 52.259377 729.15625 51.5875Q728.3125 50.915627 726.78125 50.915627Q724.96875 50.915627 724.1875 51.509377Q723.40625 52.103127 723.40625 52.915627Q723.40625 53.43125 723.7344 53.8375Q724.0625 54.259377 724.75 54.540627Q725.1406 54.68125 727.0781 55.2125Q729.875 55.9625 730.96875 56.446877Q732.0781 56.915627 732.7031 57.821877Q733.34375 58.728127 733.34375 60.071877Q733.34375 61.4 732.5781 62.571877Q731.8125 63.728127 730.3594 64.36875Q728.90625 65.00938 727.0781 65.00938Q724.0469 65.00938 722.4531 63.74375Q720.8594 62.478127 720.4219 60.009377Z" fill-rule="nonzero"/></svg>