<svg xmlns="http://www.w3.org/2000/svg" viewBox="0 0 1200 630">
  <defs>
    <linearGradient id="bg" x1="0%" y1="0%" x2="100%" y2="100%">
      <stop offset="0%" style="stop-color:#1a1a2e"/>
      <stop offset="100%" style="stop-color:#16213e"/>
    </linearGradient>
    <linearGradient id="accent" x1="0%" y1="0%" x2="100%" y2="0%">
      <stop offset="0%" style="stop-color:#e94560"/>
      <stop offset="100%" style="stop-color:#f5a623"/>
    </linearGradient>
    <linearGradient id="codeGlow" x1="0%" y1="0%" x2="0%" y2="100%">
      <stop offset="0%" style="stop-color:#64ffda;stop-opacity:0.15"/>
      <stop offset="100%" style="stop-color:#64ffda;stop-opacity:0"/>
    </linearGradient>
  </defs>
  <rect width="1200" height="630" fill="url(#bg)"/>
  <rect x="0" y="580" width="1200" height="6" fill="url(#accent)"/>

  <!-- DNA helix suggestion - two intertwining curves -->
  <path d="M 50 200 Q 150 150, 250 200 Q 350 250, 450 200 Q 550 150, 650 200 Q 750 250, 850 200 Q 950 150, 1050 200 Q 1150 250, 1200 200" stroke="#e94560" stroke-width="2" fill="none" opacity="0.3"/>
  <path d="M 50 250 Q 150 300, 250 250 Q 350 200, 450 250 Q 550 300, 650 250 Q 750 200, 850 250 Q 950 300, 1050 250 Q 1150 200, 1200 250" stroke="#f5a623" stroke-width="2" fill="none" opacity="0.3"/>

  <!-- Title -->
  <text x="600" y="160" text-anchor="middle" font-family="system-ui, -apple-system, sans-serif" font-size="64" font-weight="700" fill="#ffffff">The DNA of</text>
  <text x="600" y="235" text-anchor="middle" font-family="system-ui, -apple-system, sans-serif" font-size="64" font-weight="700" fill="#ffffff">Apache Camel</text>

  <line x1="350" y1="270" x2="850" y2="270" stroke="url(#accent)" stroke-width="3"/>

  <!-- Code snippet - the original from().to() -->
  <rect x="250" y="310" width="700" height="80" rx="8" fill="#0d1117" stroke="#30363d" stroke-width="1"/>
  <rect x="250" y="310" width="700" height="80" rx="8" fill="url(#codeGlow)"/>
  <text x="290" y="345" font-family="'SF Mono', 'Fira Code', monospace" font-size="16" fill="#8b949e">// commit 77b260b6 — March 19, 2007</text>
  <text x="290" y="375" font-family="'SF Mono', 'Fira Code', monospace" font-size="18" fill="#c9d1d9">from(<tspan fill="#a5d6ff">"seda://a"</tspan>).<tspan fill="#d2a8ff">to</tspan>(<tspan fill="#a5d6ff">"seda://b"</tspan>);</text>

  <!-- Stats bar -->
  <text x="170" y="475" text-anchor="middle" font-family="system-ui, -apple-system, sans-serif" font-size="42" font-weight="700" fill="#e94560">42</text>
  <text x="170" y="505" text-anchor="middle" font-family="system-ui, -apple-system, sans-serif" font-size="16" fill="#8892b0">files in commit #1</text>

  <text x="400" y="475" text-anchor="middle" font-family="system-ui, -apple-system, sans-serif" font-size="42" font-weight="700" fill="#f5a623">100K+</text>
  <text x="400" y="505" text-anchor="middle" font-family="system-ui, -apple-system, sans-serif" font-size="16" fill="#8892b0">commits today</text>

  <text x="600" y="475" text-anchor="middle" font-family="system-ui, -apple-system, sans-serif" font-size="42" font-weight="700" fill="#e94560">350+</text>
  <text x="600" y="505" text-anchor="middle" font-family="system-ui, -apple-system, sans-serif" font-size="16" fill="#8892b0">components</text>

  <text x="800" y="475" text-anchor="middle" font-family="system-ui, -apple-system, sans-serif" font-size="42" font-weight="700" fill="#f5a623">19</text>
  <text x="800" y="505" text-anchor="middle" font-family="system-ui, -apple-system, sans-serif" font-size="16" fill="#8892b0">years</text>

  <text x="1020" y="475" text-anchor="middle" font-family="system-ui, -apple-system, sans-serif" font-size="42" font-weight="700" fill="#e94560">1</text>
  <text x="1020" y="505" text-anchor="middle" font-family="system-ui, -apple-system, sans-serif" font-size="16" fill="#8892b0">Processor method</text>

  <text x="600" y="560" text-anchor="middle" font-family="system-ui, -apple-system, sans-serif" font-size="20" fill="#ccd6f6">The pattern that survived five technology eras</text>
</svg>
