<svg xmlns="http://www.w3.org/2000/svg" viewBox="0 0 65.184 105.833" height="400" width="246.363"><path d="M51.387 58.618c-4.121 0-7.816 1.826-10.346 4.701l-6.484-4.59a17.701 17.701 0 0 0 1.084-6.06 17.7 17.7 0 0 0-1.047-5.96l6.469-4.54c2.53 2.86 6.215 4.676 10.324 4.676 7.607 0 13.797-6.189 13.797-13.797 0-7.608-6.19-13.796-13.797-13.796S37.591 25.44 37.591 33.048c0 1.362.205 2.675.575 3.919l-6.474 4.543a17.809 17.809 0 0 0-11.033-6.412v-7.802c6.25-1.312 10.958-6.865 10.958-13.5C31.617 6.19 25.427 0 17.82 0S4.024 6.189 4.024 13.797c0 6.545 4.587 12.03 10.711 13.436v7.903C6.377 36.603 0 43.897 0 52.67c0 8.815 6.44 16.136 14.859 17.554v8.345C8.67 79.929 4.024 85.446 4.024 92.037c0 7.608 6.19 13.796 13.796 13.796 7.607 0 13.797-6.188 13.797-13.796 0-6.59-4.648-12.108-10.835-13.468v-8.346a17.815 17.815 0 0 0 10.847-6.308l6.527 4.62a13.73 13.73 0 0 0-.565 3.88c0 7.608 6.19 13.797 13.796 13.797 7.607 0 13.797-6.19 13.797-13.797 0-7.608-6.19-13.797-13.797-13.797zm0-32.26a6.697 6.697 0 0 1 6.69 6.69 6.698 6.698 0 0 1-6.69 6.69 6.697 6.697 0 0 1-6.689-6.69c0-3.688 3-6.69 6.69-6.69zm-40.256-12.56c0-3.688 3-6.69 6.69-6.69a6.697 6.697 0 0 1 6.688 6.69c0 3.687-3 6.688-6.689 6.688a6.697 6.697 0 0 1-6.689-6.688zm13.378 78.24c0 3.688-3 6.689-6.689 6.689a6.697 6.697 0 0 1-6.689-6.69c0-3.687 3-6.688 6.69-6.688a6.697 6.697 0 0 1 6.688 6.689zM17.819 62c-5.144 0-9.33-4.185-9.33-9.33 0-5.144 4.186-9.329 9.33-9.329 5.145 0 9.33 4.185 9.33 9.33 0 5.144-4.185 9.329-9.33 9.329zm33.568 17.105a6.697 6.697 0 0 1-6.689-6.689c0-3.688 3-6.689 6.69-6.689a6.697 6.697 0 0 1 6.688 6.689c0 3.688-3 6.69-6.689 6.69z"/></svg>