<svg xmlns="http://www.w3.org/2000/svg" viewBox="0 0 192 64"><symbol id="twitter" viewBox="0 0 64 64"><title>Twitter</title><desc>Follow Apache Camel on Twitter</desc><path d="M61.7 13.083a24.129 24.129 0 0 1-7.038 1.927 12.338 12.338 0 0 0 5.4-6.781 24.697 24.697 0 0 1-7.787 2.975 12.257 12.257 0 0 0-8.952-3.862 12.25 12.25 0 0 0-12.26 12.254c0 .953.105 1.888.317 2.789A34.818 34.818 0 0 1 6.104 9.57a12.274 12.274 0 0 0-1.66 6.164c0 4.25 2.161 8.01 5.451 10.202a12.327 12.327 0 0 1-5.556-1.529v.152a12.26 12.26 0 0 0 9.831 12.024 12.334 12.334 0 0 1-5.542.212 12.3 12.3 0 0 0 11.448 8.522 24.591 24.591 0 0 1-18.155 5.076A34.68 34.68 0 0 0 20.722 55.9c22.551 0 34.893-18.685 34.893-34.889 0-.536-.01-1.059-.036-1.588a24.584 24.584 0 0 0 6.115-6.333z"/></symbol><symbol id="github" viewBox="64 0 64 64"><title>GitHub</title><desc>Collaborate on GitHub</desc><path d="M95.8 2.784a29.967 29.967 0 0 0-9.474 58.396c1.498.278 2.046-.65 2.046-1.443 0-.713-.026-3.076-.037-5.576-8.34 1.813-10.098-3.536-10.098-3.536-1.363-3.468-3.325-4.385-3.325-4.385-2.718-1.863.205-1.826.205-1.826 3.01.212 4.592 3.09 4.592 3.09 2.675 4.579 7.015 3.252 8.721 2.489.27-1.937 1.045-3.26 1.904-4.008-6.657-.757-13.654-3.325-13.654-14.808 0-3.27 1.173-5.945 3.088-8.042-.31-.756-1.338-3.803.288-7.928 0 0 2.518-.808 8.243 3.069a28.743 28.743 0 0 1 7.497-1.009c2.547.011 5.115.347 7.508 1.009 5.718-3.873 8.232-3.07 8.232-3.07 1.63 4.13.61 7.176.296 7.929 1.922 2.097 3.083 4.772 3.083 8.038 0 11.512-7.015 14.044-13.682 14.786 1.074.928 2.035 2.751 2.035 5.546 0 4.008-.033 7.234-.033 8.22 0 .801.54 1.733 2.06 1.44A29.967 29.967 0 0 0 95.8 2.77z"/></symbol><symbol id="zulip" viewBox="128 0 64 64"><title>Zulip</title><desc>Chat on Zulip</desc><path d="M131.603 4l5.796 12.766h23.09l-29.043 29.37L137.947 60h41.746l-6.659-13.863h-22.076l28.265-29.528L173.113 4z"/></symbol></svg>