<svg xmlns="http://www.w3.org/2000/svg" version="1.1" id="Layer_1" x="0" y="0" viewBox="0 0 57.087 37.591" xml:space="preserve" fill="#fff"><switch><g><path d="M11.325 17.191c1.004-.026 1.822-.293 2.454-.809.633-.515 1.053-1.226 1.262-2.125.209-.898.319-2.437.333-4.614.013-2.178.052-3.612.117-4.303.117-1.095.336-1.976.655-2.641s.714-1.196 1.183-1.594c.47-.398 1.069-.701 1.8-.91C19.624.065 20.433 0 21.555 0h1.095v3.071h-.606c-1.355 0-2.256.245-2.699.734-.443.489-.665 1.581-.665 3.276 0 3.417-.071 5.575-.215 6.474-.234 1.394-.636 2.469-1.203 3.226-.566.756-1.457 1.428-2.67 2.015 1.435.6 2.475 1.519 3.12 2.751s.968 3.247.968 6.051c0 2.542.026 4.055.079 4.537.104.887.368 1.507.792 1.858.424.353 1.255.528 2.493.528h.606v3.07h-1.095c-1.278 0-2.204-.104-2.777-.313a4.644 4.644 0 0 1-2.074-1.454c-.547-.672-.902-1.525-1.065-2.556s-.251-2.719-.264-5.065c-.014-2.348-.124-3.971-.333-4.871-.209-.899-.629-1.61-1.262-2.132-.632-.521-1.45-.795-2.454-.821v-3.188zm34.437 0v3.188c-1.004.026-1.822.3-2.454.821-.633.521-1.053 1.232-1.262 2.126-.209.893-.319 2.425-.333 4.603-.013 2.178-.052 3.612-.117 4.303-.117 1.108-.336 1.995-.655 2.654-.319.658-.714 1.187-1.183 1.584-.47.397-1.069.697-1.8.906-.496.144-1.304.215-2.426.215h-1.095v-3.07h.606c1.355 0 2.256-.241 2.699-.73s.665-1.591.665-3.299c0-3.26.059-5.327.176-6.2.208-1.447.626-2.602 1.252-3.469s1.513-1.545 2.659-2.027c-1.499-.718-2.556-1.663-3.168-2.843-.613-1.18-.919-3.174-.919-5.977 0-2.543-.033-4.062-.099-4.558-.091-.874-.349-1.483-.772-1.829s-1.255-.519-2.493-.519h-.606V0h1.095c1.278 0 2.204.104 2.777.313.835.287 1.526.77 2.073 1.448.548.678.903 1.532 1.066 2.562s.251 2.719.264 5.066c.014 2.347.124 3.967.333 4.862.209.893.629 1.597 1.262 2.119.632.521 1.451.795 2.455.821z"/></g></switch></svg>