<svg xmlns="http://www.w3.org/2000/svg" viewBox="0 0 117.9 105.833" height="400" width="445.605"><path d="M116.386 46.564L93.164 6.348C91.148 2.858 86.201 0 82.17 0H35.73c-4.034 0-8.983 2.857-10.995 6.348L1.514 46.564c-2.019 3.495-2.019 9.208 0 12.7l23.221 40.219c2.016 3.49 6.966 6.35 11 6.35h46.434c4.032 0 8.98-2.86 11-6.35l23.217-40.225c2.018-3.486 2.018-9.199 0-12.694zM53.933 22.239a4.788 4.788 0 1 1 9.576 0v28.604a4.788 4.788 0 1 1-9.576 0zM58.72 83.3c-17.896 0-32.458-14.564-32.458-32.457a32.596 32.596 0 0 1 13.103-26.05 4.256 4.256 0 1 1 5.086 6.828 23.943 23.943 0 1 0 38.216 19.222 24.056 24.056 0 0 0-9.75-19.285 4.257 4.257 0 0 1 5.053-6.852 32.61 32.61 0 0 1 13.21 26.137C91.174 68.741 76.61 83.3 58.719 83.3z" class="cls-1" fill="#68bd45" stroke-width=".231"/></svg>