<svg xmlns="http://www.w3.org/2000/svg" width="80pt" height="85pt" viewBox="-4.167 0 106.667 100"><path xmlns="http://www.w3.org/2000/svg" fill="#e97826" d="M77.083 7.99c6.074 0 10.998 4.923 10.998 10.997s-4.923 10.998-10.998 10.998c-6.069 0-10.993-4.923-10.993-10.998 0-6.074 4.924-10.997 10.993-10.997zm-55.704 0c6.074 0 10.997 4.923 10.997 10.997s-4.923 10.998-10.997 10.998-10.997-4.923-10.997-10.998c0-6.074 4.923-10.997 10.997-10.997zm29.596 11.443c8.096 0 14.658 6.563 14.658 14.66 0 8.1-6.563 14.663-14.658 14.663-8.101 0-14.663-6.563-14.663-14.663 0-8.097 6.562-14.66 14.663-14.66zm38.682 14.38H68.695c.003.097.016.19.016.287 0 5.912-2.902 11.134-7.35 14.358h5.477c7.087 0 12.831 5.128 12.831 11.454v8.826h20.015V43.839c0-5.539-4.489-10.026-10.027-10.026z"/><path xmlns="http://www.w3.org/2000/svg" fill="#e97826" d="M76.775 91.369V62.557c0-6.324-5.129-11.457-11.455-11.457H35.646c-6.326 0-11.454 5.133-11.454 11.457V91.37h52.583z"/><path xmlns="http://www.w3.org/2000/svg" fill="#e97826" d="M33.232 34.094c0-.095.013-.187.014-.282H9.709C4.173 33.812-.317 38.3-.317 43.839v24.897h21.073v-8.863c0-6.325 5.745-11.454 12.832-11.454h6.952c-4.423-3.226-7.308-8.432-7.308-14.325z"/></svg>