<svg xmlns="http://www.w3.org/2000/svg" width="80pt" height="85pt" viewBox="0 0 512 512"><path xmlns="http://www.w3.org/2000/svg" fill="#e97826" d="M95.332 401.668C42.684 401.668 0 444.348 0 497c0 8.285 6.715 15 15 15h160.668c8.281 0 15-6.715 15-15 0-52.652-42.684-95.332-95.336-95.332zm0 0c35.438 0 64.266-28.832 64.266-64.27 0-35.433-28.828-64.265-64.266-64.265-35.434 0-64.266 28.832-64.266 64.265 0 35.438 28.832 64.27 64.266 64.27zM350.578 150.5c-18.398 0-33.2 14.887-33.2 33.184v9.117h66.403v-9.102c0-18.304-14.894-33.199-33.203-33.199zm0-30c9.45 0 17.137-7.688 17.137-17.133s-7.688-17.133-17.137-17.133c-9.445 0-17.133 7.688-17.133 17.133s7.688 17.133 17.133 17.133zm0 0"/><path xmlns="http://www.w3.org/2000/svg" fill="#e97826" d="M456.832 0H244.328c-30.422 0-55.168 24.746-55.168 55.168v265.098c0 6.07 3.656 11.539 9.262 13.859 5.183 2.148 11.738 1.355 16.344-3.254l43.808-43.805h198.262c14.726 0 28.578-5.734 39.016-16.16C506.266 260.48 512 246.63 512 231.898V55.168C512 24.746 487.254 0 456.832 0zm-43.05 207.8c0 8.286-6.72 15-15 15h-96.403c-8.281 0-15-6.714-15-15v-24.116c0-7.555 1.488-33.286 26.172-51.207-6.32-8.024-10.106-18.13-10.106-29.11 0-25.988 21.145-47.133 47.133-47.133 25.992 0 47.137 21.145 47.137 47.133 0 10.996-3.797 21.117-10.137 29.145 15.86 11.496 26.203 30.152 26.203 51.187zm0 0"/></svg>