<svg xmlns="http://www.w3.org/2000/svg" height="149.333" width="746.667"><defs><clipPath id="a" clipPathUnits="userSpaceOnUse"><path d="M-971.005 83.773v35h-35v35h-35v70h630v-35h35v-35h35v-70h-601z" fill="#59cfe6"/></clipPath></defs><path d="M3052.936 2786.782h661.334v-37.333h37.333v-37.334h37.334" fill="none" stroke="#fff" stroke-width="4.76" stroke-linecap="round"/><text style="line-height:0%;-inkscape-font-specification:'Alfphabet Extra-Expanded';text-align:start" x="131.391" y="707.347" font-weight="400" font-stretch="extra-expanded" font-size="12.8" font-family="Alfphabet" letter-spacing="9.992" word-spacing="0" fill="#fff" stroke-width="1.067" transform="matrix(.9843 0 0 .9843 3008.238 2063.137)"><tspan x="131.391" y="707.347" style="line-height:0%;-inkscape-font-specification:'Alfphabet Extra-Expanded';text-align:start" font-size="68.392">OUTREACHY</tspan></text><path d="M74.667 0v37.333H37.333v37.334H0v74.666h672V112h37.333V74.667h37.334V0z" fill="#59cfe6"/><path clip-path="url(#a)" transform="matrix(1.06667 0 0 1.06667 1110.405 -89.357)" d="M-1021.005 198.773h590v-35h30v-30h65.511" fill="#59cfe6" stroke="#fff" stroke-width="5" stroke-linecap="round"/><g style="line-height:0%;-inkscape-font-specification:'Anke Bold';text-align:start" font-weight="700" font-size="65.497" font-family="Anke" letter-spacing="16.51" word-spacing="0" fill="#fff" stroke="#fff" stroke-width="2.133"><path d="M110.392 102.456c3.494 0 6.917-.699 10.06-2.026 3.145-1.328 5.87-3.214 8.245-5.59 2.375-2.375 4.261-5.1 5.589-8.243a25.876 25.876 0 002.026-10.06c0-3.494-.699-6.917-2.026-10.06-1.328-3.145-3.214-5.87-5.59-8.245-2.375-2.375-5.1-4.261-8.243-5.589a25.876 25.876 0 00-10.06-2.026c-3.494 0-6.917.699-10.061 2.026-3.144 1.328-5.868 3.214-8.244 5.59-2.375 2.375-4.262 5.1-5.589 8.243a25.873 25.873 0 00-2.026 10.06c0 3.494.699 6.917 2.026 10.06 1.327 3.145 3.214 5.87 5.59 8.245 2.375 2.375 5.1 4.261 8.243 5.589a25.877 25.877 0 0010.06 2.026m0-45.551c5.24 0 10.2 2.026 13.903 5.729 3.703 3.703 5.729 8.663 5.729 13.903s-2.026 10.2-5.729 13.902c-3.703 3.703-8.663 5.73-13.903 5.73s-10.2-2.027-13.902-5.73c-3.703-3.702-5.73-8.663-5.73-13.902 0-5.24 2.027-10.2 5.73-13.903 3.702-3.703 8.663-5.729 13.902-5.729M179.7 102.456c3.004 0 5.938-.559 8.663-1.747a22.042 22.042 0 007.056-4.75 22.042 22.042 0 004.75-7.057c1.188-2.724 1.747-5.659 1.747-8.663V50.617h-6.287V80.24c0 4.262-1.677 8.244-4.681 11.248-3.004 3.004-6.987 4.681-11.248 4.681-4.262 0-8.244-1.677-11.248-4.68-3.004-3.005-4.681-6.987-4.681-11.249V50.617h-6.288V80.24c0 3.004.56 5.939 1.747 8.663a22.042 22.042 0 004.75 7.057 22.042 22.042 0 007.057 4.75c2.724 1.188 5.659 1.747 8.663 1.747M264.068 50.617h-41.08v6.288h17.396v45.55h6.288v-45.55h17.396v-6.288M317.896 102.456h7.685l-14.81-20.96c3.632-.279 6.986-1.885 9.57-4.47 2.935-2.935 4.542-6.777 4.542-10.969 0-4.122-1.607-7.964-4.541-10.899-2.935-2.934-6.777-4.54-10.899-4.54h-22.496 0v51.838h6.288v-20.89h9.85l14.811 20.89m-24.661-45.551h16.208c5.03 0 9.152 4.122 9.152 9.152 0 5.1-4.122 9.222-9.152 9.222h-16.208V56.905M356.7 96.168V77.794h21.029v-6.288h-21.03V56.905h24.732v-6.288h-31.02v51.839h32.627v-6.288H356.7M426.321 50.617l-23.195 51.839h6.917l5.38-12.017h28.993l5.38 12.017h6.916l-23.265-51.839h-7.126m-8.104 33.535l11.667-26.13 11.737 26.13h-23.404M497.315 102.456c3.493 0 6.916-.699 10.06-2.026 3.144-1.328 5.868-3.214 8.244-5.59l-4.402-4.4c-3.702 3.702-8.663 5.728-13.902 5.728-5.24 0-10.2-2.026-13.903-5.729-3.703-3.702-5.729-8.663-5.729-13.902 0-5.24 2.026-10.2 5.729-13.903 3.702-3.703 8.663-5.729 13.903-5.729s10.2 2.026 13.902 5.729l4.402-4.402c-2.376-2.375-5.1-4.261-8.244-5.589a25.876 25.876 0 00-10.06-2.026c-3.494 0-6.917.699-10.06 2.026-3.145 1.328-5.87 3.214-8.245 5.59-2.375 2.375-4.261 5.1-5.589 8.243a25.877 25.877 0 00-2.026 10.06c0 3.494.699 6.917 2.026 10.06 1.328 3.145 3.214 5.87 5.59 8.245 2.375 2.375 5.1 4.261 8.243 5.589a25.878 25.878 0 0010.06 2.026M571.556 50.827v20.889h-28.504v-20.89h-6.288v51.63h6.288V78.004h28.504v24.662h6.288v-51.84h-6.288M633.367 50.617l-13.343 18.584-13.275-18.584h-7.754l17.885 25.011v26.828h6.287V75.628l17.955-25.01h-7.755" style="line-height:0%;-inkscape-font-specification:'Anke Bold'"/></g></svg>