<svg version="1.1" viewBox="0.0 0.0 645.0 399.0" fill="none" stroke="none" stroke-linecap="square" stroke-miterlimit="10" width="645" height="399" xmlns:xlink="http://www.w3.org/1999/xlink" xmlns="http://www.w3.org/2000/svg"><path fill="#ffffff" d="M0 0L645.0 0L645.0 399.0L0 399.0L0 0Z" fill-rule="nonzero"/><path stroke="#333333" stroke-width="1.0" stroke-linecap="butt" d="M98.5 372.5L625.5 372.5" fill-rule="nonzero"/><path stroke="#cccccc" stroke-width="1.0" stroke-linecap="butt" d="M98.5 301.5L625.5 301.5" fill-rule="nonzero"/><path stroke="#cccccc" stroke-width="1.0" stroke-linecap="butt" d="M98.5 231.5L625.5 231.5" fill-rule="nonzero"/><path stroke="#cccccc" stroke-width="1.0" stroke-linecap="butt" d="M98.5 161.5L625.5 161.5" fill-rule="nonzero"/><path stroke="#cccccc" stroke-width="1.0" stroke-linecap="butt" d="M98.5 91.5L625.5 91.5" fill-rule="nonzero"/><path stroke="#e6e6e6" stroke-width="1.0" stroke-linecap="butt" d="M98.5 360.5L625.5 360.5" fill-rule="nonzero"/><path stroke="#e6e6e6" stroke-width="1.0" stroke-linecap="butt" d="M98.5 348.5L625.5 348.5" fill-rule="nonzero"/><path stroke="#e6e6e6" stroke-width="1.0" stroke-linecap="butt" d="M98.5 336.5L625.5 336.5" fill-rule="nonzero"/><path stroke="#e6e6e6" stroke-width="1.0" stroke-linecap="butt" d="M98.5 325.5L625.5 325.5" fill-rule="nonzero"/><path stroke="#e6e6e6" stroke-width="1.0" stroke-linecap="butt" d="M98.5 313.5L625.5 313.5" fill-rule="nonzero"/><path stroke="#e6e6e6" stroke-width="1.0" stroke-linecap="butt" d="M98.5 290.5L625.5 290.5" fill-rule="nonzero"/><path stroke="#e6e6e6" stroke-width="1.0" stroke-linecap="butt" d="M98.5 278.5L625.5 278.5" fill-rule="nonzero"/><path stroke="#e6e6e6" stroke-width="1.0" stroke-linecap="butt" d="M98.5 266.5L625.5 266.5" fill-rule="nonzero"/><path stroke="#e6e6e6" stroke-width="1.0" stroke-linecap="butt" d="M98.5 255.5L625.5 255.5" fill-rule="nonzero"/><path stroke="#e6e6e6" stroke-width="1.0" stroke-linecap="butt" d="M98.5 243.5L625.5 243.5" fill-rule="nonzero"/><path stroke="#e6e6e6" stroke-width="1.0" stroke-linecap="butt" d="M98.5 220.5L625.5 220.5" fill-rule="nonzero"/><path stroke="#e6e6e6" stroke-width="1.0" stroke-linecap="butt" d="M98.5 208.5L625.5 208.5" fill-rule="nonzero"/><path stroke="#e6e6e6" stroke-width="1.0" stroke-linecap="butt" d="M98.5 196.5L625.5 196.5" fill-rule="nonzero"/><path stroke="#e6e6e6" stroke-width="1.0" stroke-linecap="butt" d="M98.5 185.5L625.5 185.5" fill-rule="nonzero"/><path stroke="#e6e6e6" stroke-width="1.0" stroke-linecap="butt" d="M98.5 173.5L625.5 173.5" fill-rule="nonzero"/><path stroke="#e6e6e6" stroke-width="1.0" stroke-linecap="butt" d="M98.5 149.5L625.5 149.5" fill-rule="nonzero"/><path stroke="#e6e6e6" stroke-width="1.0" stroke-linecap="butt" d="M98.5 138.5L625.5 138.5" fill-rule="nonzero"/><path stroke="#e6e6e6" stroke-width="1.0" stroke-linecap="butt" d="M98.5 126.5L625.5 126.5" fill-rule="nonzero"/><path stroke="#e6e6e6" stroke-width="1.0" stroke-linecap="butt" d="M98.5 114.5L625.5 114.5" fill-rule="nonzero"/><path stroke="#e6e6e6" stroke-width="1.0" stroke-linecap="butt" d="M98.5 103.5L625.5 103.5" fill-rule="nonzero"/><path stroke="#000000" stroke-width="1.0" stroke-linecap="butt" d="M98.5 372.5L98.5 91.5" fill-rule="nonzero"/><clipPath id="id_0"><path d="M98.95 91.55L625.05 91.55L625.05 372.05L98.95 372.05L98.95 91.55Z" clip-rule="nonzero"/></clipPath><path stroke="#4285f4" stroke-width="2.0" stroke-linecap="butt" clip-path="url(#id_0)" d="M151.56 130.25642C151.56 130.25642 221.70667 133.22073 256.78 137.46115C291.85333 141.70157 326.92667 154.67903 362.0 155.69893C397.07333 156.71884 432.14667 145.15883 467.22 143.5806C502.29333 142.00235 572.44 146.22946 572.44 146.22946" fill-rule="nonzero"/><path stroke="#ea4335" stroke-width="2.0" stroke-linecap="butt" clip-path="url(#id_0)" d="M151.56 290.29324C151.56 290.29324 221.70667 293.3211 256.78 293.46634C291.85333 293.61157 326.92667 291.1345 362.0 291.16455C397.07333 291.1946 467.22 293.64667 467.22 293.64667" fill-rule="nonzero"/><path stroke="#fbbc04" stroke-width="2.0" stroke-linecap="butt" clip-path="url(#id_0)" d="M151.56 118.579445C151.56 118.579445 221.70667 128.5298 256.78 128.18178C291.85333 127.83378 326.92667 115.37534 362.0 116.49139C397.07333 117.60743 432.14667 130.61691 467.22 134.87804C502.29333 139.13916 572.44 142.0581 572.44 142.0581" fill-rule="nonzero"/><path fill="#4285f4" clip-path="url(#id_0)" d="M157.56 130.25642C157.56 133.57013 154.8737 136.25642 151.56 136.25642C148.24629 136.25642 145.56 133.57013 145.56 130.25642C145.56 126.94271 148.24629 124.25642 151.56 124.25642C154.8737 124.25642 157.56 126.94271 157.56 130.25642Z" fill-rule="nonzero"/><path fill="#4285f4" clip-path="url(#id_0)" d="M262.78 137.46115C262.78 140.77486 260.09372 143.46115 256.78 143.46115C253.4663 143.46115 250.78 140.77486 250.78 137.46115C250.78 134.14743 253.4663 131.46115 256.78 131.46115C260.09372 131.46115 262.78 134.14743 262.78 137.46115Z" fill-rule="nonzero"/><path fill="#4285f4" clip-path="url(#id_0)" d="M368.0 155.69893C368.0 159.01265 365.31372 161.69893 362.0 161.69893C358.68628 161.69893 356.0 159.01265 356.0 155.69893C356.0 152.38522 358.68628 149.69893 362.0 149.69893C365.31372 149.69893 368.0 152.38522 368.0 155.69893Z" fill-rule="nonzero"/><path fill="#4285f4" clip-path="url(#id_0)" d="M473.22 143.5806C473.22 146.8943 470.53372 149.5806 467.22 149.5806C463.90628 149.5806 461.22 146.8943 461.22 143.5806C461.22 140.26688 463.90628 137.5806 467.22 137.5806C470.53372 137.5806 473.22 140.26688 473.22 143.5806Z" fill-rule="nonzero"/><path fill="#4285f4" clip-path="url(#id_0)" d="M578.44 146.22946C578.44 149.54317 575.7537 152.22946 572.44 152.22946C569.1263 152.22946 566.44 149.54317 566.44 146.22946C566.44 142.91576 569.1263 140.22946 572.44 140.22946C575.7537 140.22946 578.44 142.91576 578.44 146.22946Z" fill-rule="nonzero"/><path fill="#ea4335" clip-path="url(#id_0)" d="M157.56 290.29324C157.56 293.60693 154.8737 296.29324 151.56 296.29324C148.24629 296.29324 145.56 293.60693 145.56 290.29324C145.56 286.97952 148.24629 284.29324 151.56 284.29324C154.8737 284.29324 157.56 286.97952 157.56 290.29324Z" fill-rule="nonzero"/><path fill="#ea4335" clip-path="url(#id_0)" d="M262.78 293.46634C262.78 296.78006 260.09372 299.46634 256.78 299.46634C253.4663 299.46634 250.78 296.78006 250.78 293.46634C250.78 290.15262 253.4663 287.46634 256.78 287.46634C260.09372 287.46634 262.78 290.15262 262.78 293.46634Z" fill-rule="nonzero"/><path fill="#ea4335" clip-path="url(#id_0)" d="M368.0 291.16455C368.0 294.47827 365.31372 297.16455 362.0 297.16455C358.68628 297.16455 356.0 294.47827 356.0 291.16455C356.0 287.85086 358.68628 285.16455 362.0 285.16455C365.31372 285.16455 368.0 287.85086 368.0 291.16455Z" fill-rule="nonzero"/><path fill="#ea4335" clip-path="url(#id_0)" d="M473.22 293.64667C473.22 296.96036 470.53372 299.64667 467.22 299.64667C463.90628 299.64667 461.22 296.96036 461.22 293.64667C461.22 290.33295 463.90628 287.64667 467.22 287.64667C470.53372 287.64667 473.22 290.33295 473.22 293.64667Z" fill-rule="nonzero"/><path fill="#fbbc04" clip-path="url(#id_0)" d="M157.56 118.579445C157.56 121.89315 154.8737 124.579445 151.56 124.579445C148.24629 124.579445 145.56 121.89315 145.56 118.579445C145.56 115.26573 148.24629 112.579445 151.56 112.579445C154.8737 112.579445 157.56 115.26573 157.56 118.579445Z" fill-rule="nonzero"/><path fill="#fbbc04" clip-path="url(#id_0)" d="M262.78 128.18178C262.78 131.4955 260.09372 134.18178 256.78 134.18178C253.4663 134.18178 250.78 131.4955 250.78 128.18178C250.78 124.86808 253.4663 122.181786 256.78 122.181786C260.09372 122.181786 262.78 124.86808 262.78 128.18178Z" fill-rule="nonzero"/><path fill="#fbbc04" clip-path="url(#id_0)" d="M368.0 116.49139C368.0 119.80509 365.31372 122.49139 362.0 122.49139C358.68628 122.49139 356.0 119.80509 356.0 116.49139C356.0 113.17768 358.68628 110.49139 362.0 110.49139C365.31372 110.49139 368.0 113.17768 368.0 116.49139Z" fill-rule="nonzero"/><path fill="#fbbc04" clip-path="url(#id_0)" d="M473.22 134.87804C473.22 138.19174 470.53372 140.87804 467.22 140.87804C463.90628 140.87804 461.22 138.19174 461.22 134.87804C461.22 131.56433 463.90628 128.87804 467.22 128.87804C470.53372 128.87804 473.22 131.56433 473.22 134.87804Z" fill-rule="nonzero"/><path fill="#fbbc04" clip-path="url(#id_0)" d="M578.44 142.0581C578.44 145.37181 575.7537 148.0581 572.44 148.0581C569.1263 148.0581 566.44 145.37181 566.44 142.0581C566.44 138.7444 569.1263 136.0581 572.44 136.0581C575.7537 136.0581 578.44 138.7444 578.44 142.0581Z" fill-rule="nonzero"/><path stroke="#000000" stroke-width="1.0" stroke-linecap="butt" d="M92.5 372.5L104.5 372.5" fill-rule="nonzero"/><path stroke="#000000" stroke-width="1.0" stroke-linecap="butt" d="M92.5 301.5L104.5 301.5" fill-rule="nonzero"/><path stroke="#000000" stroke-width="1.0" stroke-linecap="butt" d="M92.5 231.5L104.5 231.5" fill-rule="nonzero"/><path stroke="#000000" stroke-width="1.0" stroke-linecap="butt" d="M92.5 161.5L104.5 161.5" fill-rule="nonzero"/><path stroke="#000000" stroke-width="1.0" stroke-linecap="butt" d="M92.5 91.5L104.5 91.5" fill-rule="nonzero"/><path fill="#000000" d="M30.949987 269.3625L22.356237 269.3625L22.356237 265.55Q22.356237 264.39374 22.590612 263.8Q22.824987 263.20624 23.418737 262.84686Q23.996862 262.4875 24.699987 262.4875Q25.621862 262.4875 26.246862 263.08124Q26.871862 263.675 27.043737 264.90936Q27.262487 264.45624 27.465612 264.22186Q27.918737 263.72186 28.606237 263.28436L30.949987 261.78436L30.949987 263.22186L29.168737 264.34686Q28.387487 264.84686 27.981237 265.175Q27.574987 265.4875 27.418737 265.7531Q27.246862 266.0031 27.168737 266.26874Q27.137487 266.45624 27.137487 266.89374L27.137487 268.22186L30.949987 268.22186L30.949987 269.3625ZM26.153112 268.22186L26.153112 265.76874Q26.153112 265.0031 25.996862 264.5656Q25.824987 264.1125 25.481237 263.89374Q25.121862 263.65936 24.699987 263.65936Q24.090612 263.65936 23.699987 264.1125Q23.309362 264.55 23.309362 265.5031L23.309362 268.22186L26.153112 268.22186ZM28.949987 256.2531L29.074987 255.15938Q30.028112 255.40938 30.559362 256.1125Q31.090612 256.8156 31.090612 257.89374Q31.090612 259.2531 30.246862 260.0656Q29.403112 260.8625 27.887487 260.8625Q26.324987 260.8625 25.465612 260.05Q24.590612 259.2375 24.590612 257.95624Q24.590612 256.70624 25.434362 255.925Q26.278112 255.12813 27.824987 255.12813Q27.918737 255.12813 28.106237 255.12813L28.106237 259.76874Q29.137487 259.70624 29.684362 259.1906Q30.215612 258.675 30.215612 257.89374Q30.215612 257.3156 29.918737 256.90936Q29.606237 256.4875 28.949987 256.2531ZM27.246862 259.70624L27.246862 256.2375Q26.449987 256.3 26.059362 256.6281Q25.449987 257.14374 25.449987 257.9406Q25.449987 258.675 25.934362 259.175Q26.418737 259.65936 27.246862 259.70624ZM33.340614 249.53438L30.293737 249.53438Q30.637487 249.78438 30.871862 250.2375Q31.090612 250.675 31.090612 251.175Q31.090612 252.28438 30.215612 253.08125Q29.324987 253.87813 27.778112 253.87813Q26.840612 253.87813 26.106237 253.55Q25.356237 253.22188 24.981237 252.6125Q24.590612 251.9875 24.590612 251.25313Q24.590612 250.09688 25.559362 249.44063L24.731237 249.44063L24.731237 248.4875L33.340614 248.4875L33.340614 249.53438ZM27.824987 252.8Q29.028112 252.8 29.621862 252.3Q30.215612 251.78438 30.215612 251.08125Q30.215612 250.40938 29.653112 249.925Q29.074987 249.44063 27.918737 249.44063Q26.668737 249.44063 26.043737 249.95625Q25.418737 250.45625 25.418737 251.15938Q25.418737 251.83125 26.012487 252.31563Q26.590612 252.8 27.824987 252.8ZM30.949987 242.425L30.028112 242.425Q31.090612 243.15938 31.090612 244.40938Q31.090612 244.95625 30.887487 245.44063Q30.668737 245.90938 30.356237 246.14375Q30.028112 246.37813 29.559362 246.47188Q29.262487 246.53438 28.574987 246.53438L24.731237 246.53438L24.731237 245.47188L28.184362 245.47188Q28.996862 245.47188 29.293737 245.40938Q29.699987 245.31563 29.949987 245.00313Q30.184362 244.675 30.184362 244.19063Q30.184362 243.72188 29.949987 243.31563Q29.699987 242.89375 29.278112 242.72188Q28.856237 242.53438 28.059362 242.53438L24.731237 242.53438L24.731237 241.4875L30.949987 241.4875L30.949987 242.425ZM28.949987 235.25313L29.074987 234.15938Q30.028112 234.40938 30.559362 235.1125Q31.090612 235.81563 31.090612 236.89375Q31.090612 238.25313 30.246862 239.06563Q29.403112 239.8625 27.887487 239.8625Q26.324987 239.8625 25.465612 239.05Q24.590612 238.2375 24.590612 236.95625Q24.590612 235.70625 25.434362 234.925Q26.278112 234.12813 27.824987 234.12813Q27.918737 234.12813 28.106237 234.12813L28.106237 238.76875Q29.137487 238.70625 29.684362 238.19063Q30.215612 237.675 30.215612 236.89375Q30.215612 236.31563 29.918737 235.90938Q29.606237 235.4875 28.949987 235.25313ZM27.246862 238.70625L27.246862 235.2375Q26.449987 235.3 26.059362 235.62813Q25.449987 236.14375 25.449987 236.94063Q25.449987 237.675 25.934362 238.175Q26.418737 238.65938 27.246862 238.70625ZM29.090612 232.925L28.934362 231.89375Q29.559362 231.8 29.887487 231.40938Q30.215612 231.00313 30.215612 230.26875Q30.215612 229.55 29.934362 229.20625Q29.637487 228.84688 29.231237 228.84688Q28.871862 228.84688 28.668737 229.15938Q28.528112 229.37813 28.309362 230.2375Q28.012487 231.39375 27.809362 231.84688Q27.590612 232.28438 27.215612 232.51875Q26.840612 232.75313 26.371862 232.75313Q25.965612 232.75313 25.606237 232.56563Q25.246862 232.37813 25.012487 232.05Q24.840612 231.8 24.715612 231.37813Q24.590612 230.95625 24.590612 230.45625Q24.590612 229.7375 24.809362 229.19063Q25.012487 228.62813 25.371862 228.3625Q25.731237 228.09688 26.324987 228.00313L26.465612 229.03438Q25.996862 229.09688 25.731237 229.44063Q25.449987 229.76875 25.449987 230.39375Q25.449987 231.1125 25.699987 231.425Q25.934362 231.7375 26.262487 231.7375Q26.465612 231.7375 26.621862 231.6125Q26.793737 231.47188 26.903112 231.20625Q26.965612 231.05 27.168737 230.26875Q27.481237 229.14375 27.668737 228.70625Q27.856237 228.26875 28.215612 228.01875Q28.574987 227.76875 29.121862 227.76875Q29.653112 227.76875 30.121862 228.08125Q30.574987 228.37813 30.840612 228.95625Q31.090612 229.53438 31.090612 230.26875Q31.090612 231.4875 30.590612 232.12813Q30.074987 232.75313 29.090612 232.925ZM30.012487 223.20625L30.934362 223.05Q31.028112 223.50313 31.028112 223.84688Q31.028112 224.425 30.856237 224.7375Q30.668737 225.05 30.371862 225.19063Q30.074987 225.31563 29.121862 225.31563L25.543737 225.31563L25.543737 226.08125L24.731237 226.08125L24.731237 225.31563L23.184362 225.31563L22.559362 224.26875L24.731237 224.26875L24.731237 223.20625L25.543737 223.20625L25.543737 224.26875L29.184362 224.26875Q29.637487 224.26875 29.762487 224.22188Q29.887487 224.15938 29.965612 224.03438Q30.043737 223.90938 30.043737 223.675Q30.043737 223.4875 30.012487 223.20625ZM29.090612 222.925L28.934362 221.89375Q29.559362 221.8 29.887487 221.40938Q30.215612 221.00313 30.215612 220.26875Q30.215612 219.55 29.934362 219.20625Q29.637487 218.84688 29.231237 218.84688Q28.871862 218.84688 28.668737 219.15938Q28.528112 219.37813 28.309362 220.2375Q28.012487 221.39375 27.809362 221.84688Q27.590612 222.28438 27.215612 222.51875Q26.840612 222.75313 26.371862 222.75313Q25.965612 222.75313 25.606237 222.56563Q25.246862 222.37813 25.012487 222.05Q24.840612 221.8 24.715612 221.37813Q24.590612 220.95625 24.590612 220.45625Q24.590612 219.7375 24.809362 219.19063Q25.012487 218.62813 25.371862 218.3625Q25.731237 218.09688 26.324987 218.00313L26.465612 219.03438Q25.996862 219.09688 25.731237 219.44063Q25.449987 219.76875 25.449987 220.39375Q25.449987 221.1125 25.699987 221.425Q25.934362 221.7375 26.262487 221.7375Q26.465612 221.7375 26.621862 221.6125Q26.793737 221.47188 26.903112 221.20625Q26.965612 221.05 27.168737 220.26875Q27.481237 219.14375 27.668737 218.70625Q27.856237 218.26875 28.215612 218.01875Q28.574987 217.76875 29.121862 217.76875Q29.653112 217.76875 30.121862 218.08125Q30.574987 218.37813 30.840612 218.95625Q31.090612 219.53438 31.090612 220.26875Q31.090612 221.4875 30.590612 222.12813Q30.074987 222.75313 29.090612 222.925ZM31.090612 216.3L22.215612 213.81563L22.215612 212.97188L31.090612 215.45625L31.090612 216.3ZM29.090612 212.925L28.934362 211.89375Q29.559362 211.8 29.887487 211.40938Q30.215612 211.00313 30.215612 210.26875Q30.215612 209.55 29.934362 209.20625Q29.637487 208.84688 29.231237 208.84688Q28.871862 208.84688 28.668737 209.15938Q28.528112 209.37813 28.309362 210.2375Q28.012487 211.39375 27.809362 211.84688Q27.590612 212.28438 27.215612 212.51875Q26.840612 212.75313 26.371862 212.75313Q25.965612 212.75313 25.606237 212.56563Q25.246862 212.37813 25.012487 212.05Q24.840612 211.8 24.715612 211.37813Q24.590612 210.95625 24.590612 210.45625Q24.590612 209.7375 24.809362 209.19063Q25.012487 208.62813 25.371862 208.3625Q25.731237 208.09688 26.324987 208.00313L26.465612 209.03438Q25.996862 209.09688 25.731237 209.44063Q25.449987 209.76875 25.449987 210.39375Q25.449987 211.1125 25.699987 211.425Q25.934362 211.7375 26.262487 211.7375Q26.465612 211.7375 26.621862 211.6125Q26.793737 211.47188 26.903112 211.20625Q26.965612 211.05 27.168737 210.26875Q27.481237 209.14375 27.668737 208.70625Q27.856237 208.26875 28.215612 208.01875Q28.574987 207.76875 29.121862 207.76875Q29.653112 207.76875 30.121862 208.08125Q30.574987 208.37813 30.840612 208.95625Q31.090612 209.53438 31.090612 210.26875Q31.090612 211.4875 30.590612 212.12813Q30.074987 212.75313 29.090612 212.925ZM28.949987 201.25313L29.074987 200.15938Q30.028112 200.40938 30.559362 201.1125Q31.090612 201.81563 31.090612 202.89375Q31.090612 204.25313 30.246862 205.06563Q29.403112 205.8625 27.887487 205.8625Q26.324987 205.8625 25.465612 205.05Q24.590612 204.2375 24.590612 202.95625Q24.590612 201.70625 25.434362 200.925Q26.278112 200.12813 27.824987 200.12813Q27.918737 200.12813 28.106237 200.12813L28.106237 204.76875Q29.137487 204.70625 29.684362 204.19063Q30.215612 203.675 30.215612 202.89375Q30.215612 202.31563 29.918737 201.90938Q29.606237 201.4875 28.949987 201.25313ZM27.246862 204.70625L27.246862 201.2375Q26.449987 201.3 26.059362 201.62813Q25.449987 202.14375 25.449987 202.94063Q25.449987 203.675 25.934362 204.175Q26.418737 204.65938 27.246862 204.70625ZM28.668737 194.44063L28.809362 193.40938Q29.871862 193.58125 30.481237 194.28438Q31.090612 194.9875 31.090612 196.00313Q31.090612 197.28438 30.262487 198.06563Q29.418737 198.83125 27.856237 198.83125Q26.856237 198.83125 26.106237 198.50313Q25.340612 198.15938 24.965612 197.4875Q24.590612 196.8 24.590612 195.9875Q24.590612 194.9875 25.106237 194.34688Q25.606237 193.69063 26.559362 193.50313L26.715612 194.53438Q26.090612 194.675 25.778112 195.05Q25.449987 195.425 25.449987 195.95625Q25.449987 196.75313 26.028112 197.25313Q26.590612 197.75313 27.824987 197.75313Q29.090612 197.75313 29.653112 197.26875Q30.215612 196.78438 30.215612 196.01875Q30.215612 195.39375 29.840612 194.9875Q29.465612 194.56563 28.668737 194.44063Z" fill-rule="nonzero"/><path fill="#000000" d="M80.45 371.8156Q80.45 370.28436 80.7625 369.3625Q81.075 368.425 81.68437 367.925Q82.30937 367.425 83.24687 367.425Q83.93437 367.425 84.45 367.70624Q84.98125 367.9875 85.325 368.51874Q85.66875 369.03436 85.85625 369.78436Q86.04375 370.53436 86.04375 371.8156Q86.04375 373.33124 85.73125 374.2531Q85.43437 375.175 84.80937 375.6906Q84.2 376.1906 83.24687 376.1906Q82.0125 376.1906 81.29375 375.3Q80.45 374.2375 80.45 371.8156ZM81.52812 371.8156Q81.52812 373.925 82.02812 374.6281Q82.52812 375.33124 83.24687 375.33124Q83.98125 375.33124 84.46562 374.6281Q84.96562 373.925 84.96562 371.8156Q84.96562 369.6906 84.46562 369.0031Q83.98125 368.3 83.23125 368.3Q82.5125 368.3 82.075 368.90936Q81.52812 369.6906 81.52812 371.8156Z" fill-rule="nonzero"/><path fill="#000000" d="M59.45 303.675L60.559376 303.58124Q60.684376 304.39374 61.121876 304.8Q61.575 305.20624 62.215626 305.20624Q62.965626 305.20624 63.496876 304.6281Q64.02812 304.05 64.02812 303.1125Q64.02812 302.20624 63.5125 301.6906Q63.0125 301.15936 62.184376 301.15936Q61.684376 301.15936 61.2625 301.39374Q60.85625 301.6281 60.621876 301.9875L59.6375 301.8625L60.465626 297.45624L64.74687 297.45624L64.74687 298.45624L61.309376 298.45624L60.85625 300.76874Q61.621876 300.22186 62.465626 300.22186Q63.590626 300.22186 64.35625 301.0031Q65.1375 301.78436 65.1375 303.01874Q65.1375 304.175 64.46562 305.03436Q63.6375 306.0656 62.215626 306.0656Q61.04375 306.0656 60.29375 305.40936Q59.559376 304.7531 59.45 303.675ZM66.45 301.6906Q66.45 300.15936 66.7625 299.2375Q67.075 298.3 67.68437 297.8Q68.30937 297.3 69.24687 297.3Q69.93437 297.3 70.45 297.58124Q70.98125 297.8625 71.325 298.39374Q71.66875 298.90936 71.85625 299.65936Q72.04375 300.40936 72.04375 301.6906Q72.04375 303.20624 71.73125 304.1281Q71.43437 305.05 70.80937 305.5656Q70.2 306.0656 69.24687 306.0656Q68.0125 306.0656 67.29375 305.175Q66.45 304.1125 66.45 301.6906ZM67.52812 301.6906Q67.52812 303.8 68.02812 304.5031Q68.52812 305.20624 69.24687 305.20624Q69.98125 305.20624 70.46562 304.5031Q70.96562 303.8 70.96562 301.6906Q70.96562 299.5656 70.46562 298.8781Q69.98125 298.175 69.23125 298.175Q68.5125 298.175 68.075 298.78436Q67.52812 299.5656 67.52812 301.6906ZM73.45 301.6906Q73.45 300.15936 73.7625 299.2375Q74.075 298.3 74.68437 297.8Q75.30937 297.3 76.24687 297.3Q76.93437 297.3 77.45 297.58124Q77.98125 297.8625 78.325 298.39374Q78.66875 298.90936 78.85625 299.65936Q79.04375 300.40936 79.04375 301.6906Q79.04375 303.20624 78.73125 304.1281Q78.43437 305.05 77.80937 305.5656Q77.2 306.0656 76.24687 306.0656Q75.0125 306.0656 74.29375 305.175Q73.45 304.1125 73.45 301.6906ZM74.52812 301.6906Q74.52812 303.8 75.02812 304.5031Q75.52812 305.20624 76.24687 305.20624Q76.98125 305.20624 77.46562 304.5031Q77.96562 303.8 77.96562 301.6906Q77.96562 299.5656 77.46562 298.8781Q76.98125 298.175 76.23125 298.175Q75.5125 298.175 75.075 298.78436Q74.52812 299.5656 74.52812 301.6906ZM80.45 301.6906Q80.45 300.15936 80.7625 299.2375Q81.075 298.3 81.68437 297.8Q82.30937 297.3 83.24687 297.3Q83.93437 297.3 84.45 297.58124Q84.98125 297.8625 85.325 298.39374Q85.66875 298.90936 85.85625 299.65936Q86.04375 300.40936 86.04375 301.6906Q86.04375 303.20624 85.73125 304.1281Q85.43437 305.05 84.80937 305.5656Q84.2 306.0656 83.24687 306.0656Q82.0125 306.0656 81.29375 305.175Q80.45 304.1125 80.45 301.6906ZM81.52812 301.6906Q81.52812 303.8 82.02812 304.5031Q82.52812 305.20624 83.24687 305.20624Q83.98125 305.20624 84.46562 304.5031Q84.96562 303.8 84.96562 301.6906Q84.96562 299.5656 84.46562 298.8781Q83.98125 298.175 83.23125 298.175Q82.5125 298.175 82.075 298.78436Q81.52812 299.5656 81.52812 301.6906Z" fill-rule="nonzero"/><path fill="#000000" d="M56.41875 235.8L55.371876 235.8L55.371876 229.08125Q54.98125 229.44063 54.35625 229.81563Q53.746876 230.175 53.2625 230.34688L53.2625 229.33125Q54.1375 228.90938 54.79375 228.33125Q55.465626 227.7375 55.746876 227.175L56.41875 227.175L56.41875 235.8ZM59.45 231.56563Q59.45 230.03438 59.7625 229.1125Q60.075 228.175 60.684376 227.675Q61.309376 227.175 62.246876 227.175Q62.934376 227.175 63.45 227.45625Q63.98125 227.7375 64.325 228.26875Q64.66875 228.78438 64.85625 229.53438Q65.04375 230.28438 65.04375 231.56563Q65.04375 233.08125 64.73125 234.00313Q64.43437 234.925 63.809376 235.44063Q63.2 235.94063 62.246876 235.94063Q61.0125 235.94063 60.29375 235.05Q59.45 233.9875 59.45 231.56563ZM60.528126 231.56563Q60.528126 233.675 61.028126 234.37813Q61.528126 235.08125 62.246876 235.08125Q62.98125 235.08125 63.465626 234.37813Q63.965626 233.675 63.965626 231.56563Q63.965626 229.44063 63.465626 228.75313Q62.98125 228.05 62.23125 228.05Q61.5125 228.05 61.075 228.65938Q60.528126 229.44063 60.528126 231.56563ZM66.45 231.56563Q66.45 230.03438 66.7625 229.1125Q67.075 228.175 67.68437 227.675Q68.30937 227.175 69.24687 227.175Q69.93437 227.175 70.45 227.45625Q70.98125 227.7375 71.325 228.26875Q71.66875 228.78438 71.85625 229.53438Q72.04375 230.28438 72.04375 231.56563Q72.04375 233.08125 71.73125 234.00313Q71.43437 234.925 70.80937 235.44063Q70.2 235.94063 69.24687 235.94063Q68.0125 235.94063 67.29375 235.05Q66.45 233.9875 66.45 231.56563ZM67.52812 231.56563Q67.52812 233.675 68.02812 234.37813Q68.52812 235.08125 69.24687 235.08125Q69.98125 235.08125 70.46562 234.37813Q70.96562 233.675 70.96562 231.56563Q70.96562 229.44063 70.46562 228.75313Q69.98125 228.05 69.23125 228.05Q68.5125 228.05 68.075 228.65938Q67.52812 229.44063 67.52812 231.56563ZM73.45 231.56563Q73.45 230.03438 73.7625 229.1125Q74.075 228.175 74.68437 227.675Q75.30937 227.175 76.24687 227.175Q76.93437 227.175 77.45 227.45625Q77.98125 227.7375 78.325 228.26875Q78.66875 228.78438 78.85625 229.53438Q79.04375 230.28438 79.04375 231.56563Q79.04375 233.08125 78.73125 234.00313Q78.43437 234.925 77.80937 235.44063Q77.2 235.94063 76.24687 235.94063Q75.0125 235.94063 74.29375 235.05Q73.45 233.9875 73.45 231.56563ZM74.52812 231.56563Q74.52812 233.675 75.02812 234.37813Q75.52812 235.08125 76.24687 235.08125Q76.98125 235.08125 77.46562 234.37813Q77.96562 233.675 77.96562 231.56563Q77.96562 229.44063 77.46562 228.75313Q76.98125 228.05 76.23125 228.05Q75.5125 228.05 75.075 228.65938Q74.52812 229.44063 74.52812 231.56563ZM80.45 231.56563Q80.45 230.03438 80.7625 229.1125Q81.075 228.175 81.68437 227.675Q82.30937 227.175 83.24687 227.175Q83.93437 227.175 84.45 227.45625Q84.98125 227.7375 85.325 228.26875Q85.66875 228.78438 85.85625 229.53438Q86.04375 230.28438 86.04375 231.56563Q86.04375 233.08125 85.73125 234.00313Q85.43437 234.925 84.80937 235.44063Q84.2 235.94063 83.24687 235.94063Q82.0125 235.94063 81.29375 235.05Q80.45 233.9875 80.45 231.56563ZM81.52812 231.56563Q81.52812 233.675 82.02812 234.37813Q82.52812 235.08125 83.24687 235.08125Q83.98125 235.08125 84.46562 234.37813Q84.96562 233.675 84.96562 231.56563Q84.96562 229.44063 84.46562 228.75313Q83.98125 228.05 83.23125 228.05Q82.5125 228.05 82.075 228.65938Q81.52812 229.44063 81.52812 231.56563Z" fill-rule="nonzero"/><path fill="#000000" d="M56.41875 165.675L55.371876 165.675L55.371876 158.95625Q54.98125 159.31563 54.35625 159.69063Q53.746876 160.05 53.2625 160.22188L53.2625 159.20625Q54.1375 158.78438 54.79375 158.20625Q55.465626 157.6125 55.746876 157.05L56.41875 157.05L56.41875 165.675ZM59.45 163.425L60.559376 163.33125Q60.684376 164.14375 61.121876 164.55Q61.575 164.95625 62.215626 164.95625Q62.965626 164.95625 63.496876 164.37813Q64.02812 163.8 64.02812 162.8625Q64.02812 161.95625 63.5125 161.44063Q63.0125 160.90938 62.184376 160.90938Q61.684376 160.90938 61.2625 161.14375Q60.85625 161.37813 60.621876 161.7375L59.6375 161.6125L60.465626 157.20625L64.74687 157.20625L64.74687 158.20625L61.309376 158.20625L60.85625 160.51875Q61.621876 159.97188 62.465626 159.97188Q63.590626 159.97188 64.35625 160.75313Q65.1375 161.53438 65.1375 162.76875Q65.1375 163.925 64.46562 164.78438Q63.6375 165.81563 62.215626 165.81563Q61.04375 165.81563 60.29375 165.15938Q59.559376 164.50313 59.45 163.425ZM66.45 161.44063Q66.45 159.90938 66.7625 158.9875Q67.075 158.05 67.68437 157.55Q68.30937 157.05 69.24687 157.05Q69.93437 157.05 70.45 157.33125Q70.98125 157.6125 71.325 158.14375Q71.66875 158.65938 71.85625 159.40938Q72.04375 160.15938 72.04375 161.44063Q72.04375 162.95625 71.73125 163.87813Q71.43437 164.8 70.80937 165.31563Q70.2 165.81563 69.24687 165.81563Q68.0125 165.81563 67.29375 164.925Q66.45 163.8625 66.45 161.44063ZM67.52812 161.44063Q67.52812 163.55 68.02812 164.25313Q68.52812 164.95625 69.24687 164.95625Q69.98125 164.95625 70.46562 164.25313Q70.96562 163.55 70.96562 161.44063Q70.96562 159.31563 70.46562 158.62813Q69.98125 157.925 69.23125 157.925Q68.5125 157.925 68.075 158.53438Q67.52812 159.31563 67.52812 161.44063ZM73.45 161.44063Q73.45 159.90938 73.7625 158.9875Q74.075 158.05 74.68437 157.55Q75.30937 157.05 76.24687 157.05Q76.93437 157.05 77.45 157.33125Q77.98125 157.6125 78.325 158.14375Q78.66875 158.65938 78.85625 159.40938Q79.04375 160.15938 79.04375 161.44063Q79.04375 162.95625 78.73125 163.87813Q78.43437 164.8 77.80937 165.31563Q77.2 165.81563 76.24687 165.81563Q75.0125 165.81563 74.29375 164.925Q73.45 163.8625 73.45 161.44063ZM74.52812 161.44063Q74.52812 163.55 75.02812 164.25313Q75.52812 164.95625 76.24687 164.95625Q76.98125 164.95625 77.46562 164.25313Q77.96562 163.55 77.96562 161.44063Q77.96562 159.31563 77.46562 158.62813Q76.98125 157.925 76.23125 157.925Q75.5125 157.925 75.075 158.53438Q74.52812 159.31563 74.52812 161.44063ZM80.45 161.44063Q80.45 159.90938 80.7625 158.9875Q81.075 158.05 81.68437 157.55Q82.30937 157.05 83.24687 157.05Q83.93437 157.05 84.45 157.33125Q84.98125 157.6125 85.325 158.14375Q85.66875 158.65938 85.85625 159.40938Q86.04375 160.15938 86.04375 161.44063Q86.04375 162.95625 85.73125 163.87813Q85.43437 164.8 84.80937 165.31563Q84.2 165.81563 83.24687 165.81563Q82.0125 165.81563 81.29375 164.925Q80.45 163.8625 80.45 161.44063ZM81.52812 161.44063Q81.52812 163.55 82.02812 164.25313Q82.52812 164.95625 83.24687 164.95625Q83.98125 164.95625 84.46562 164.25313Q84.96562 163.55 84.96562 161.44063Q84.96562 159.31563 84.46562 158.62813Q83.98125 157.925 83.23125 157.925Q82.5125 157.925 82.075 158.53438Q81.52812 159.31563 81.52812 161.44063Z" fill-rule="nonzero"/><path fill="#000000" d="M57.996876 94.53438L57.996876 95.55L52.309376 95.55Q52.309376 95.175 52.434376 94.81563Q52.653126 94.2375 53.121876 93.675Q53.60625 93.1125 54.5125 92.37813Q55.91875 91.22188 56.403126 90.55Q56.903126 89.87813 56.903126 89.28438Q56.903126 88.65938 56.45 88.2375Q55.996876 87.8 55.278126 87.8Q54.5125 87.8 54.059376 88.25313Q53.60625 88.70625 53.590626 89.51875L52.5125 89.40938Q52.621876 88.19063 53.340626 87.56563Q54.075 86.925 55.309376 86.925Q56.54375 86.925 57.2625 87.6125Q57.98125 88.3 57.98125 89.31563Q57.98125 89.83125 57.7625 90.33125Q57.559376 90.81563 57.059376 91.37813Q56.575 91.925 55.45 92.87813Q54.496876 93.675 54.215626 93.97188Q53.95 94.25313 53.778126 94.53438L57.996876 94.53438ZM59.45 91.31563Q59.45 89.78438 59.7625 88.8625Q60.075 87.925 60.684376 87.425Q61.309376 86.925 62.246876 86.925Q62.934376 86.925 63.45 87.20625Q63.98125 87.4875 64.325 88.01875Q64.66875 88.53438 64.85625 89.28438Q65.04375 90.03438 65.04375 91.31563Q65.04375 92.83125 64.73125 93.75313Q64.43437 94.675 63.809376 95.19063Q63.2 95.69063 62.246876 95.69063Q61.0125 95.69063 60.29375 94.8Q59.45 93.7375 59.45 91.31563ZM60.528126 91.31563Q60.528126 93.425 61.028126 94.12813Q61.528126 94.83125 62.246876 94.83125Q62.98125 94.83125 63.465626 94.12813Q63.965626 93.425 63.965626 91.31563Q63.965626 89.19063 63.465626 88.50313Q62.98125 87.8 62.23125 87.8Q61.5125 87.8 61.075 88.40938Q60.528126 89.19063 60.528126 91.31563ZM66.45 91.31563Q66.45 89.78438 66.7625 88.8625Q67.075 87.925 67.68437 87.425Q68.30937 86.925 69.24687 86.925Q69.93437 86.925 70.45 87.20625Q70.98125 87.4875 71.325 88.01875Q71.66875 88.53438 71.85625 89.28438Q72.04375 90.03438 72.04375 91.31563Q72.04375 92.83125 71.73125 93.75313Q71.43437 94.675 70.80937 95.19063Q70.2 95.69063 69.24687 95.69063Q68.0125 95.69063 67.29375 94.8Q66.45 93.7375 66.45 91.31563ZM67.52812 91.31563Q67.52812 93.425 68.02812 94.12813Q68.52812 94.83125 69.24687 94.83125Q69.98125 94.83125 70.46562 94.12813Q70.96562 93.425 70.96562 91.31563Q70.96562 89.19063 70.46562 88.50313Q69.98125 87.8 69.23125 87.8Q68.5125 87.8 68.075 88.40938Q67.52812 89.19063 67.52812 91.31563ZM73.45 91.31563Q73.45 89.78438 73.7625 88.8625Q74.075 87.925 74.68437 87.425Q75.30937 86.925 76.24687 86.925Q76.93437 86.925 77.45 87.20625Q77.98125 87.4875 78.325 88.01875Q78.66875 88.53438 78.85625 89.28438Q79.04375 90.03438 79.04375 91.31563Q79.04375 92.83125 78.73125 93.75313Q78.43437 94.675 77.80937 95.19063Q77.2 95.69063 76.24687 95.69063Q75.0125 95.69063 74.29375 94.8Q73.45 93.7375 73.45 91.31563ZM74.52812 91.31563Q74.52812 93.425 75.02812 94.12813Q75.52812 94.83125 76.24687 94.83125Q76.98125 94.83125 77.46562 94.12813Q77.96562 93.425 77.96562 91.31563Q77.96562 89.19063 77.46562 88.50313Q76.98125 87.8 76.23125 87.8Q75.5125 87.8 75.075 88.40938Q74.52812 89.19063 74.52812 91.31563ZM80.45 91.31563Q80.45 89.78438 80.7625 88.8625Q81.075 87.925 81.68437 87.425Q82.30937 86.925 83.24687 86.925Q83.93437 86.925 84.45 87.20625Q84.98125 87.4875 85.325 88.01875Q85.66875 88.53438 85.85625 89.28438Q86.04375 90.03438 86.04375 91.31563Q86.04375 92.83125 85.73125 93.75313Q85.43437 94.675 84.80937 95.19063Q84.2 95.69063 83.24687 95.69063Q82.0125 95.69063 81.29375 94.8Q80.45 93.7375 80.45 91.31563ZM81.52812 91.31563Q81.52812 93.425 82.02812 94.12813Q82.52812 94.83125 83.24687 94.83125Q83.98125 94.83125 84.46562 94.12813Q84.96562 93.425 84.96562 91.31563Q84.96562 89.19063 84.46562 88.50313Q83.98125 87.8 83.23125 87.8Q82.5125 87.8 82.075 88.40938Q81.52812 89.19063 81.52812 91.31563Z" fill-rule="nonzero"/><path fill="#4285f4" d="M248.0 64.25C248.0 67.563705 245.3137 70.25 242.0 70.25C238.6863 70.25 236.0 67.563705 236.0 64.25C236.0 60.93629 238.6863 58.25 242.0 58.25C245.3137 58.25 248.0 60.93629 248.0 64.25Z" fill-rule="nonzero"/><path fill="#1a1a1a" d="M259.875 68.25L259.875 66.1875L256.15625 66.1875L256.15625 65.21875L260.07812 59.65625L260.9375 59.65625L260.9375 65.21875L262.09375 65.21875L262.09375 66.1875L260.9375 66.1875L260.9375 68.25L259.875 68.25ZM259.875 65.21875L259.875 61.359375L257.1875 65.21875L259.875 65.21875ZM264.09375 68.25L264.09375 67.046875L265.29688 67.046875L265.29688 68.25L264.09375 68.25ZM266.5 64.015625Q266.5 62.484375 266.8125 61.5625Q267.125 60.625 267.73438 60.125Q268.35938 59.625 269.29688 59.625Q269.98438 59.625 270.5 59.90625Q271.03125 60.1875 271.375 60.71875Q271.71875 61.234375 271.90625 61.984375Q272.09375 62.734375 272.09375 64.015625Q272.09375 65.53125 271.78125 66.453125Q271.48438 67.375 270.85938 67.890625Q270.25 68.390625 269.29688 68.390625Q268.0625 68.390625 267.34375 67.5Q266.5 66.4375 266.5 64.015625ZM267.57812 64.015625Q267.57812 66.125 268.07812 66.828125Q268.57812 67.53125 269.29688 67.53125Q270.03125 67.53125 270.51562 66.828125Q271.01562 66.125 271.01562 64.015625Q271.01562 61.890625 270.51562 61.203125Q270.03125 60.5 269.28125 60.5Q268.5625 60.5 268.125 61.109375Q267.57812 61.890625 267.57812 64.015625ZM274.09375 68.25L274.09375 67.046875L275.29688 67.046875L275.29688 68.25L274.09375 68.25ZM276.5 65.984375L277.5625 65.84375Q277.73438 66.734375 278.17188 67.140625Q278.60938 67.53125 279.23438 67.53125Q279.98438 67.53125 280.5 67.015625Q281.01562 66.5 281.01562 65.734375Q281.01562 65.015625 280.53125 64.546875Q280.0625 64.0625 279.32812 64.0625Q279.03125 64.0625 278.57812 64.1875L278.70312 63.25Q278.8125 63.265625 278.875 63.265625Q279.54688 63.265625 280.07812 62.921875Q280.625 62.5625 280.625 61.828125Q280.625 61.25 280.23438 60.875Q279.84375 60.484375 279.21875 60.484375Q278.60938 60.484375 278.1875 60.875Q277.78125 61.265625 277.67188 62.03125L276.60938 61.84375Q276.79688 60.796875 277.48438 60.21875Q278.17188 59.625 279.1875 59.625Q279.89062 59.625 280.48438 59.9375Q281.07812 60.234375 281.39062 60.75Q281.70312 61.265625 281.70312 61.859375Q281.70312 62.40625 281.40625 62.875Q281.10938 63.328125 280.53125 63.59375Q281.28125 63.765625 281.70312 64.328125Q282.125 64.875 282.125 65.71875Q282.125 66.84375 281.29688 67.625Q280.48438 68.40625 279.23438 68.40625Q278.10938 68.40625 277.35938 67.734375Q276.60938 67.046875 276.5 65.984375Z" fill-rule="nonzero"/><path fill="#ea4335" d="M311.0 64.25C311.0 67.563705 308.31372 70.25 305.0 70.25C301.68628 70.25 299.0 67.563705 299.0 64.25C299.0 60.93629 301.68628 58.25 305.0 58.25C308.31372 58.25 311.0 60.93629 311.0 64.25Z" fill-rule="nonzero"/><path fill="#1a1a1a" d="M322.875 68.25L322.875 66.1875L319.15625 66.1875L319.15625 65.21875L323.07812 59.65625L323.9375 59.65625L323.9375 65.21875L325.09375 65.21875L325.09375 66.1875L323.9375 66.1875L323.9375 68.25L322.875 68.25ZM322.875 65.21875L322.875 61.359375L320.1875 65.21875L322.875 65.21875ZM327.09375 68.25L327.09375 67.046875L328.29688 67.046875L328.29688 68.25L327.09375 68.25ZM333.46875 68.25L332.42188 68.25L332.42188 61.53125Q332.03125 61.890625 331.40625 62.265625Q330.79688 62.625 330.3125 62.796875L330.3125 61.78125Q331.1875 61.359375 331.84375 60.78125Q332.51562 60.1875 332.79688 59.625L333.46875 59.625L333.46875 68.25ZM337.09375 68.25L337.09375 67.046875L338.29688 67.046875L338.29688 68.25L337.09375 68.25ZM339.5 64.015625Q339.5 62.484375 339.8125 61.5625Q340.125 60.625 340.73438 60.125Q341.35938 59.625 342.29688 59.625Q342.98438 59.625 343.5 59.90625Q344.03125 60.1875 344.375 60.71875Q344.71875 61.234375 344.90625 61.984375Q345.09375 62.734375 345.09375 64.015625Q345.09375 65.53125 344.78125 66.453125Q344.48438 67.375 343.85938 67.890625Q343.25 68.390625 342.29688 68.390625Q341.0625 68.390625 340.34375 67.5Q339.5 66.4375 339.5 64.015625ZM340.57812 64.015625Q340.57812 66.125 341.07812 66.828125Q341.57812 67.53125 342.29688 67.53125Q343.03125 67.53125 343.51562 66.828125Q344.01562 66.125 344.01562 64.015625Q344.01562 61.890625 343.51562 61.203125Q343.03125 60.5 342.28125 60.5Q341.5625 60.5 341.125 61.109375Q340.57812 61.890625 340.57812 64.015625Z" fill-rule="nonzero"/><path fill="#fbbc04" d="M374.0 64.25C374.0 67.563705 371.31372 70.25 368.0 70.25C364.68628 70.25 362.0 67.563705 362.0 64.25C362.0 60.93629 364.68628 58.25 368.0 58.25C371.31372 58.25 374.0 60.93629 374.0 64.25Z" fill-rule="nonzero"/><path fill="#1a1a1a" d="M385.875 68.25L385.875 66.1875L382.15625 66.1875L382.15625 65.21875L386.07812 59.65625L386.9375 59.65625L386.9375 65.21875L388.09375 65.21875L388.09375 66.1875L386.9375 66.1875L386.9375 68.25L385.875 68.25ZM385.875 65.21875L385.875 61.359375L383.1875 65.21875L385.875 65.21875ZM390.09375 68.25L390.09375 67.046875L391.29688 67.046875L391.29688 68.25L390.09375 68.25ZM398.04688 67.234375L398.04688 68.25L392.35938 68.25Q392.35938 67.875 392.48438 67.515625Q392.70312 66.9375 393.17188 66.375Q393.65625 65.8125 394.5625 65.078125Q395.96875 63.921875 396.45312 63.25Q396.95312 62.578125 396.95312 61.984375Q396.95312 61.359375 396.5 60.9375Q396.04688 60.5 395.32812 60.5Q394.5625 60.5 394.10938 60.953125Q393.65625 61.40625 393.64062 62.21875L392.5625 62.109375Q392.67188 60.890625 393.39062 60.265625Q394.125 59.625 395.35938 59.625Q396.59375 59.625 397.3125 60.3125Q398.03125 61.0 398.03125 62.015625Q398.03125 62.53125 397.8125 63.03125Q397.60938 63.515625 397.10938 64.078125Q396.625 64.625 395.5 65.578125Q394.54688 66.375 394.26562 66.671875Q394.0 66.953125 393.82812 67.234375L398.04688 67.234375ZM400.09375 68.25L400.09375 67.046875L401.29688 67.046875L401.29688 68.25L400.09375 68.25ZM402.5 64.015625Q402.5 62.484375 402.8125 61.5625Q403.125 60.625 403.73438 60.125Q404.35938 59.625 405.29688 59.625Q405.98438 59.625 406.5 59.90625Q407.03125 60.1875 407.375 60.71875Q407.71875 61.234375 407.90625 61.984375Q408.09375 62.734375 408.09375 64.015625Q408.09375 65.53125 407.78125 66.453125Q407.48438 67.375 406.85938 67.890625Q406.25 68.390625 405.29688 68.390625Q404.0625 68.390625 403.34375 67.5Q402.5 66.4375 402.5 64.015625ZM403.57812 64.015625Q403.57812 66.125 404.07812 66.828125Q404.57812 67.53125 405.29688 67.53125Q406.03125 67.53125 406.51562 66.828125Q407.01562 66.125 407.01562 64.015625Q407.01562 61.890625 406.51562 61.203125Q406.03125 60.5 405.28125 60.5Q404.5625 60.5 404.125 61.109375Q403.57812 61.890625 403.57812 64.015625Z" fill-rule="nonzero"/><path fill="#757575" d="M31.715626 33.934376L33.60625 34.403126Q33.0125 36.746876 31.465626 37.98125Q29.91875 39.2 27.66875 39.2Q25.35625 39.2 23.903126 38.2625Q22.465626 37.309376 21.7 35.528126Q20.95 33.73125 20.95 31.684376Q20.95 29.45 21.79375 27.79375Q22.653126 26.121876 24.23125 25.2625Q25.809376 24.3875 27.7 24.3875Q29.85625 24.3875 31.309376 25.48125Q32.778126 26.575 33.35625 28.559376L31.496876 28.996876Q30.996876 27.434376 30.04375 26.73125Q29.10625 26.0125 27.66875 26.0125Q26.0125 26.0125 24.903126 26.809376Q23.79375 27.590626 23.340626 28.934376Q22.903126 30.2625 22.903126 31.66875Q22.903126 33.496876 23.434376 34.871876Q23.965626 36.23125 25.090626 36.903126Q26.215626 37.575 27.5125 37.575Q29.10625 37.575 30.215626 36.653126Q31.325 35.73125 31.715626 33.934376ZM42.04375 37.66875Q41.059376 38.496876 40.153126 38.840626Q39.246876 39.184376 38.215626 39.184376Q36.5125 39.184376 35.590626 38.35625Q34.66875 37.5125 34.66875 36.215626Q34.66875 35.45 35.0125 34.825Q35.371876 34.2 35.934376 33.825Q36.496876 33.434376 37.2 33.23125Q37.715626 33.10625 38.7625 32.965626Q40.8875 32.715626 41.8875 32.371876Q41.903126 32.0125 41.903126 31.903126Q41.903126 30.840626 41.403126 30.3875Q40.73125 29.79375 39.403126 29.79375Q38.153126 29.79375 37.559376 30.23125Q36.98125 30.66875 36.7 31.778126L34.98125 31.54375Q35.215626 30.434376 35.746876 29.7625Q36.278126 29.075 37.29375 28.715626Q38.309376 28.340626 39.653126 28.340626Q40.98125 28.340626 41.809376 28.653126Q42.6375 28.965626 43.028126 29.45Q43.41875 29.91875 43.575 30.6375Q43.66875 31.090626 43.66875 32.2625L43.66875 34.60625Q43.66875 37.059376 43.778126 37.715626Q43.8875 38.35625 44.23125 38.95L42.3875 38.95Q42.121876 38.403126 42.04375 37.66875ZM41.8875 33.746876Q40.934376 34.1375 39.0125 34.403126Q37.934376 34.559376 37.48125 34.7625Q37.04375 34.95 36.79375 35.325Q36.54375 35.7 36.54375 36.16875Q36.54375 36.871876 37.075 37.340626Q37.60625 37.809376 38.6375 37.809376Q39.653126 37.809376 40.434376 37.371876Q41.23125 36.91875 41.60625 36.153126Q41.8875 35.54375 41.8875 34.3875L41.8875 33.746876ZM46.2625 38.95L46.2625 28.575L47.840626 28.575L47.840626 30.028126Q48.325 29.278126 49.1375 28.809376Q49.95 28.340626 50.98125 28.340626Q52.1375 28.340626 52.871876 28.825Q53.60625 29.29375 53.91875 30.153126Q55.153126 28.340626 57.121876 28.340626Q58.66875 28.340626 59.496876 29.2Q60.325 30.059376 60.325 31.825L60.325 38.95L58.575 38.95L58.575 32.41875Q58.575 31.35625 58.403126 30.903126Q58.23125 30.434376 57.778126 30.153126Q57.340626 29.871876 56.73125 29.871876Q55.6375 29.871876 54.903126 30.60625Q54.184376 31.325 54.184376 32.91875L54.184376 38.95L52.434376 38.95L52.434376 32.215626Q52.434376 31.04375 51.996876 30.465626Q51.575 29.871876 50.590626 29.871876Q49.85625 29.871876 49.215626 30.2625Q48.590626 30.653126 48.309376 31.403126Q48.028126 32.153126 48.028126 33.575L48.028126 38.95L46.2625 38.95ZM69.37187 35.60625L71.18437 35.840626Q70.7625 37.41875 69.59062 38.309376Q68.43437 39.184376 66.62187 39.184376Q64.35625 39.184376 63.0125 37.79375Q61.684376 36.3875 61.684376 33.85625Q61.684376 31.23125 63.028126 29.79375Q64.37187 28.340626 66.52812 28.340626Q68.60625 28.340626 69.91875 29.7625Q71.24687 31.16875 71.24687 33.746876Q71.24687 33.903126 71.23125 34.215626L63.496876 34.215626Q63.590626 35.91875 64.46562 36.825Q65.34062 37.73125 66.6375 37.73125Q67.60625 37.73125 68.27812 37.23125Q68.96562 36.715626 69.37187 35.60625ZM63.590626 32.7625L69.3875 32.7625Q69.27812 31.465626 68.73125 30.809376Q67.8875 29.79375 66.54375 29.79375Q65.34062 29.79375 64.5125 30.60625Q63.684376 31.403126 63.590626 32.7625ZM73.23125 38.95L73.23125 24.6375L74.98125 24.6375L74.98125 38.95L73.23125 38.95ZM83.49687 38.95L83.49687 24.6375L88.8875 24.6375Q90.325 24.6375 91.075 24.7625Q92.12187 24.95 92.84062 25.45Q93.55937 25.934376 93.98125 26.825Q94.41875 27.715626 94.41875 28.778126Q94.41875 30.60625 93.24687 31.871876Q92.09062 33.121876 89.05937 33.121876L85.3875 33.121876L85.3875 38.95L83.49687 38.95ZM85.3875 31.434376L89.09062 31.434376Q90.91875 31.434376 91.68437 30.7625Q92.46562 30.075 92.46562 28.825Q92.46562 27.934376 92.0125 27.29375Q91.55937 26.653126 90.825 26.45Q90.34062 26.325 89.04375 26.325L85.3875 26.325L85.3875 31.434376ZM96.23125 38.95L96.23125 24.6375L97.98125 24.6375L97.98125 38.95L96.23125 38.95ZM107.04375 37.66875Q106.05937 38.496876 105.15312 38.840626Q104.24687 39.184376 103.21562 39.184376Q101.5125 39.184376 100.59062 38.35625Q99.66875 37.5125 99.66875 36.215626Q99.66875 35.45 100.0125 34.825Q100.37187 34.2 100.93437 33.825Q101.49687 33.434376 102.2 33.23125Q102.71562 33.10625 103.7625 32.965626Q105.8875 32.715626 106.8875 32.371876Q106.90312 32.0125 106.90312 31.903126Q106.90312 30.840626 106.40312 30.3875Q105.73125 29.79375 104.40312 29.79375Q103.15312 29.79375 102.55937 30.23125Q101.98125 30.66875 101.7 31.778126L99.98125 31.54375Q100.21562 30.434376 100.74687 29.7625Q101.27812 29.075 102.29375 28.715626Q103.30937 28.340626 104.65312 28.340626Q105.98125 28.340626 106.80937 28.653126Q107.6375 28.965626 108.02812 29.45Q108.41875 29.91875 108.575 30.6375Q108.66875 31.090626 108.66875 32.2625L108.66875 34.60625Q108.66875 37.059376 108.77812 37.715626Q108.8875 38.35625 109.23125 38.95L107.3875 38.95Q107.12187 38.403126 107.04375 37.66875ZM106.8875 33.746876Q105.93437 34.1375 104.0125 34.403126Q102.93437 34.559376 102.48125 34.7625Q102.04375 34.95 101.79375 35.325Q101.54375 35.7 101.54375 36.16875Q101.54375 36.871876 102.075 37.340626Q102.60625 37.809376 103.6375 37.809376Q104.65312 37.809376 105.43437 37.371876Q106.23125 36.91875 106.60625 36.153126Q106.8875 35.54375 106.8875 34.3875L106.8875 33.746876ZM115.10625 37.371876L115.35625 38.934376Q114.62187 39.090626 114.02812 39.090626Q113.075 39.090626 112.54375 38.79375Q112.02812 38.48125 111.80937 37.996876Q111.59062 37.496876 111.59062 35.91875L111.59062 29.95L110.30937 29.95L110.30937 28.575L111.59062 28.575L111.59062 26.0125L113.34062 24.95L113.34062 28.575L115.10625 28.575L115.10625 29.95L113.34062 29.95L113.34062 36.0125Q113.34062 36.7625 113.43437 36.98125Q113.52812 37.184376 113.73125 37.325Q113.95 37.45 114.34062 37.45Q114.62187 37.45 115.10625 37.371876ZM117.68437 38.95L117.68437 29.95L116.1375 29.95L116.1375 28.575L117.68437 28.575L117.68437 27.48125Q117.68437 26.434376 117.87187 25.91875Q118.12187 25.23125 118.7625 24.809376Q119.40312 24.3875 120.55937 24.3875Q121.30937 24.3875 122.2 24.559376L121.93437 26.090626Q121.3875 25.996876 120.90312 25.996876Q120.10625 25.996876 119.7625 26.340626Q119.43437 26.684376 119.43437 27.621876L119.43437 28.575L121.46562 28.575L121.46562 29.95L119.43437 29.95L119.43437 38.95L117.68437 38.95ZM122.62187 33.7625Q122.62187 30.8875 124.21562 29.496876Q125.55937 28.340626 127.48125 28.340626Q129.62187 28.340626 130.96562 29.746876Q132.325 31.153126 132.325 33.621876Q132.325 35.621876 131.73125 36.778126Q131.1375 37.91875 129.98125 38.559376Q128.84062 39.184376 127.48125 39.184376Q125.29375 39.184376 123.95 37.79375Q122.62187 36.3875 122.62187 33.7625ZM124.41875 33.7625Q124.41875 35.7625 125.27812 36.746876Q126.15312 37.73125 127.48125 37.73125Q128.79375 37.73125 129.65312 36.746876Q130.52812 35.746876 130.52812 33.7Q130.52812 31.778126 129.65312 30.79375Q128.77812 29.79375 127.48125 29.79375Q126.15312 29.79375 125.27812 30.79375Q124.41875 31.778126 124.41875 33.7625ZM134.24687 38.95L134.24687 28.575L135.825 28.575L135.825 30.153126Q136.43437 29.04375 136.95 28.7Q137.46562 28.340626 138.075 28.340626Q138.96562 28.340626 139.8875 28.903126L139.27812 30.54375Q138.6375 30.153126 137.99687 30.153126Q137.41875 30.153126 136.95 30.5125Q136.49687 30.85625 136.29375 31.465626Q136.0125 32.403126 136.0125 33.5125L136.0125 38.95L134.24687 38.95ZM141.2625 38.95L141.2625 28.575L142.84062 28.575L142.84062 30.028126Q143.325 29.278126 144.1375 28.809376Q144.95 28.340626 145.98125 28.340626Q147.1375 28.340626 147.87187 28.825Q148.60625 29.29375 148.91875 30.153126Q150.15312 28.340626 152.12187 28.340626Q153.66875 28.340626 154.49687 29.2Q155.325 30.059376 155.325 31.825L155.325 38.95L153.575 38.95L153.575 32.41875Q153.575 31.35625 153.40312 30.903126Q153.23125 30.434376 152.77812 30.153126Q152.34062 29.871876 151.73125 29.871876Q150.6375 29.871876 149.90312 30.60625Q149.18437 31.325 149.18437 32.91875L149.18437 38.95L147.43437 38.95L147.43437 32.215626Q147.43437 31.04375 146.99687 30.465626Q146.575 29.871876 145.59062 29.871876Q144.85625 29.871876 144.21562 30.2625Q143.59062 30.653126 143.30937 31.403126Q143.02812 32.153126 143.02812 33.575L143.02812 38.95L141.2625 38.95ZM163.55937 38.95L163.55937 24.6375L165.45 24.6375L165.45 30.5125L172.8875 30.5125L172.8875 24.6375L174.77812 24.6375L174.77812 38.95L172.8875 38.95L172.8875 32.2L165.45 32.2L165.45 38.95L163.55937 38.95ZM180.1375 38.95L180.1375 26.325L175.41875 26.325L175.41875 24.6375L186.7625 24.6375L186.7625 26.325L182.02812 26.325L182.02812 38.95L180.1375 38.95ZM192.1375 38.95L192.1375 26.325L187.41875 26.325L187.41875 24.6375L198.7625 24.6375L198.7625 26.325L194.02812 26.325L194.02812 38.95L192.1375 38.95ZM200.49687 38.95L200.49687 24.6375L205.8875 24.6375Q207.325 24.6375 208.075 24.7625Q209.12187 24.95 209.84062 25.45Q210.55937 25.934376 210.98125 26.825Q211.41875 27.715626 211.41875 28.778126Q211.41875 30.60625 210.24687 31.871876Q209.09062 33.121876 206.05937 33.121876L202.3875 33.121876L202.3875 38.95L200.49687 38.95ZM202.3875 31.434376L206.09062 31.434376Q207.91875 31.434376 208.68437 30.7625Q209.46562 30.075 209.46562 28.825Q209.46562 27.934376 209.0125 27.29375Q208.55937 26.653126 207.825 26.45Q207.34062 26.325 206.04375 26.325L202.3875 26.325L202.3875 31.434376ZM223.59062 38.95L218.04375 24.6375L220.09062 24.6375L223.80937 35.028126Q224.2625 36.278126 224.55937 37.371876Q224.8875 36.2 225.34062 35.028126L229.2 24.6375L231.1375 24.6375L225.52812 38.95L223.59062 38.95ZM239.37187 35.60625L241.18437 35.840626Q240.7625 37.41875 239.59062 38.309376Q238.43437 39.184376 236.62187 39.184376Q234.35625 39.184376 233.0125 37.79375Q231.68437 36.3875 231.68437 33.85625Q231.68437 31.23125 233.02812 29.79375Q234.37187 28.340626 236.52812 28.340626Q238.60625 28.340626 239.91875 29.7625Q241.24687 31.16875 241.24687 33.746876Q241.24687 33.903126 241.23125 34.215626L233.49687 34.215626Q233.59062 35.91875 234.46562 36.825Q235.34062 37.73125 236.6375 37.73125Q237.60625 37.73125 238.27812 37.23125Q238.96562 36.715626 239.37187 35.60625ZM233.59062 32.7625L239.3875 32.7625Q239.27812 31.465626 238.73125 30.809376Q237.8875 29.79375 236.54375 29.79375Q235.34062 29.79375 234.5125 30.60625Q233.68437 31.403126 233.59062 32.7625ZM243.24687 38.95L243.24687 28.575L244.825 28.575L244.825 30.153126Q245.43437 29.04375 245.95 28.7Q246.46562 28.340626 247.075 28.340626Q247.96562 28.340626 248.8875 28.903126L248.27812 30.54375Q247.6375 30.153126 246.99687 30.153126Q246.41875 30.153126 245.95 30.5125Q245.49687 30.85625 245.29375 31.465626Q245.0125 32.403126 245.0125 33.5125L245.0125 38.95L243.24687 38.95ZM254.10625 37.371876L254.35625 38.934376Q253.62187 39.090626 253.02812 39.090626Q252.075 39.090626 251.54375 38.79375Q251.02812 38.48125 250.80937 37.996876Q250.59062 37.496876 250.59062 35.91875L250.59062 29.95L249.30937 29.95L249.30937 28.575L250.59062 28.575L250.59062 26.0125L252.34062 24.95L252.34062 28.575L254.10625 28.575L254.10625 29.95L252.34062 29.95L252.34062 36.0125Q252.34062 36.7625 252.43437 36.98125Q252.52812 37.184376 252.73125 37.325Q252.95 37.45 253.34062 37.45Q253.62187 37.45 254.10625 37.371876ZM256.7625 38.95L256.7625 36.95L258.7625 36.95L258.7625 38.95L256.7625 38.95ZM261.04376 38.95L266.575 31.48125L261.7 24.6375L263.95 24.6375L266.54376 28.309376Q267.35626 29.45 267.7 30.059376Q268.1844 29.278126 268.825 28.434376L271.71564 24.6375L273.77814 24.6375L268.7469 31.3875L274.16876 38.95L271.825 38.95L268.21564 33.840626Q267.91876 33.403126 267.59064 32.8875Q267.10626 33.66875 266.90314 33.965626L263.3094 38.95L261.04376 38.95Z" fill-rule="nonzero"/></svg>