<svg version="1.1" viewBox="0.0 0.0 600.0 385.0" fill="none" stroke="none" stroke-linecap="square" stroke-miterlimit="10" width="600" height="385" xmlns:xlink="http://www.w3.org/1999/xlink" xmlns="http://www.w3.org/2000/svg"><path fill="#ffffff" d="M0 0L600.0 0L600.0 385.0L0 385.0L0 0Z" fill-rule="nonzero"/><path stroke="#333333" stroke-width="1.0" stroke-linecap="butt" d="M105.5 345.5L580.5 345.5" fill-rule="nonzero"/><path stroke="#cccccc" stroke-width="1.0" stroke-linecap="butt" d="M105.5 260.5L580.5 260.5" fill-rule="nonzero"/><path stroke="#cccccc" stroke-width="1.0" stroke-linecap="butt" d="M105.5 175.5L580.5 175.5" fill-rule="nonzero"/><path stroke="#cccccc" stroke-width="1.0" stroke-linecap="butt" d="M105.5 89.5L580.5 89.5" fill-rule="nonzero"/><path stroke="#e6e6e6" stroke-width="1.0" stroke-linecap="butt" d="M105.5 317.5L580.5 317.5" fill-rule="nonzero"/><path stroke="#e6e6e6" stroke-width="1.0" stroke-linecap="butt" d="M105.5 288.5L580.5 288.5" fill-rule="nonzero"/><path stroke="#e6e6e6" stroke-width="1.0" stroke-linecap="butt" d="M105.5 232.5L580.5 232.5" fill-rule="nonzero"/><path stroke="#e6e6e6" stroke-width="1.0" stroke-linecap="butt" d="M105.5 203.5L580.5 203.5" fill-rule="nonzero"/><path stroke="#e6e6e6" stroke-width="1.0" stroke-linecap="butt" d="M105.5 146.5L580.5 146.5" fill-rule="nonzero"/><path stroke="#e6e6e6" stroke-width="1.0" stroke-linecap="butt" d="M105.5 118.5L580.5 118.5" fill-rule="nonzero"/><path stroke="#000000" stroke-width="1.0" stroke-linecap="butt" d="M105.5 345.5L105.5 89.5" fill-rule="nonzero"/><clipPath id="id_0"><path d="M105.25 89.916664L580.75 89.916664L580.75 345.75L105.25 345.75L105.25 89.916664Z" clip-rule="nonzero"/></clipPath><path stroke="#000000" stroke-width="2.0" stroke-linecap="butt" stroke-opacity="0.0" clip-path="url(#id_0)" d="M202.0 346.0L178.0 346.0L178.0 116.0C178.0 114.89543 178.89543 114.0 180.0 114.0L200.0 114.0C201.10457 114.0 202.0 114.89543 202.0 116.0Z" fill-rule="nonzero"/><path fill="#4285f4" clip-path="url(#id_0)" d="M202.0 346.0L178.0 346.0L178.0 116.0C178.0 114.89543 178.89543 114.0 180.0 114.0L200.0 114.0C201.10457 114.0 202.0 114.89543 202.0 116.0Z" fill-rule="nonzero"/><path stroke="#000000" stroke-width="2.0" stroke-linecap="butt" stroke-opacity="0.0" clip-path="url(#id_0)" d="M404.0 346.0L380.0 346.0L380.0 150.0C380.0 148.89543 380.89542 148.0 382.0 148.0L402.0 148.0C403.10458 148.0 404.0 148.89543 404.0 150.0Z" fill-rule="nonzero"/><path fill="#4285f4" clip-path="url(#id_0)" d="M404.0 346.0L380.0 346.0L380.0 150.0C380.0 148.89543 380.89542 148.0 382.0 148.0L402.0 148.0C403.10458 148.0 404.0 148.89543 404.0 150.0Z" fill-rule="nonzero"/><path stroke="#000000" stroke-width="2.0" stroke-linecap="butt" stroke-opacity="0.0" clip-path="url(#id_0)" d="M228.0 346.0L204.0 346.0L204.0 108.0C204.0 106.89543 204.89543 106.0 206.0 106.0L226.0 106.0C227.10457 106.0 228.0 106.89543 228.0 108.0Z" fill-rule="nonzero"/><path fill="#ea4335" clip-path="url(#id_0)" d="M228.0 346.0L204.0 346.0L204.0 108.0C204.0 106.89543 204.89543 106.0 206.0 106.0L226.0 106.0C227.10457 106.0 228.0 106.89543 228.0 108.0Z" fill-rule="nonzero"/><path stroke="#000000" stroke-width="2.0" stroke-linecap="butt" stroke-opacity="0.0" clip-path="url(#id_0)" d="M430.0 346.0L406.0 346.0L406.0 145.0C406.0 143.89543 406.89542 143.0 408.0 143.0L428.0 143.0C429.10458 143.0 430.0 143.89543 430.0 145.0Z" fill-rule="nonzero"/><path fill="#ea4335" clip-path="url(#id_0)" d="M430.0 346.0L406.0 346.0L406.0 145.0C406.0 143.89543 406.89542 143.0 408.0 143.0L428.0 143.0C429.10458 143.0 430.0 143.89543 430.0 145.0Z" fill-rule="nonzero"/><path stroke="#000000" stroke-width="2.0" stroke-linecap="butt" stroke-opacity="0.0" clip-path="url(#id_0)" d="M254.0 346.0L230.0 346.0L230.0 111.0C230.0 109.89543 230.89543 109.0 232.0 109.0L252.0 109.0C253.10457 109.0 254.0 109.89543 254.0 111.0Z" fill-rule="nonzero"/><path fill="#fbbc04" clip-path="url(#id_0)" d="M254.0 346.0L230.0 346.0L230.0 111.0C230.0 109.89543 230.89543 109.0 232.0 109.0L252.0 109.0C253.10457 109.0 254.0 109.89543 254.0 111.0Z" fill-rule="nonzero"/><path stroke="#000000" stroke-width="2.0" stroke-linecap="butt" stroke-opacity="0.0" clip-path="url(#id_0)" d="M456.0 346.0L432.0 346.0L432.0 147.0C432.0 145.89543 432.89542 145.0 434.0 145.0L454.0 145.0C455.10458 145.0 456.0 145.89543 456.0 147.0Z" fill-rule="nonzero"/><path fill="#fbbc04" clip-path="url(#id_0)" d="M456.0 346.0L432.0 346.0L432.0 147.0C432.0 145.89543 432.89542 145.0 434.0 145.0L454.0 145.0C455.10458 145.0 456.0 145.89543 456.0 147.0Z" fill-rule="nonzero"/><path stroke="#000000" stroke-width="2.0" stroke-linecap="butt" stroke-opacity="0.0" clip-path="url(#id_0)" d="M280.0 346.0L256.0 346.0L256.0 111.0C256.0 109.89543 256.89542 109.0 258.0 109.0L278.0 109.0C279.10458 109.0 280.0 109.89543 280.0 111.0Z" fill-rule="nonzero"/><path fill="#34a853" clip-path="url(#id_0)" d="M280.0 346.0L256.0 346.0L256.0 111.0C256.0 109.89543 256.89542 109.0 258.0 109.0L278.0 109.0C279.10458 109.0 280.0 109.89543 280.0 111.0Z" fill-rule="nonzero"/><path stroke="#000000" stroke-width="2.0" stroke-linecap="butt" stroke-opacity="0.0" clip-path="url(#id_0)" d="M482.0 346.0L458.0 346.0L458.0 147.0C458.0 145.89543 458.89542 145.0 460.0 145.0L480.0 145.0C481.10458 145.0 482.0 145.89543 482.0 147.0Z" fill-rule="nonzero"/><path fill="#34a853" clip-path="url(#id_0)" d="M482.0 346.0L458.0 346.0L458.0 147.0C458.0 145.89543 458.89542 145.0 460.0 145.0L480.0 145.0C481.10458 145.0 482.0 145.89543 482.0 147.0Z" fill-rule="nonzero"/><path stroke="#000000" stroke-width="2.0" stroke-linecap="butt" stroke-opacity="0.0" clip-path="url(#id_0)" d="M306.0 346.0L282.0 346.0L282.0 345.0C282.0 344.44772 282.44772 344.0 283.0 344.0L305.0 344.0C305.55228 344.0 306.0 344.44772 306.0 345.0Z" fill-rule="nonzero"/><path fill="#ff6d01" clip-path="url(#id_0)" d="M306.0 346.0L282.0 346.0L282.0 345.0C282.0 344.44772 282.44772 344.0 283.0 344.0L305.0 344.0C305.55228 344.0 306.0 344.44772 306.0 345.0Z" fill-rule="nonzero"/><path stroke="#000000" stroke-width="2.0" stroke-linecap="butt" stroke-opacity="0.0" clip-path="url(#id_0)" d="M508.0 346.0L484.0 346.0L484.0 345.5C484.0 345.22385 484.22385 345.0 484.5 345.0L507.5 345.0C507.77615 345.0 508.0 345.22385 508.0 345.5Z" fill-rule="nonzero"/><path fill="#ff6d01" clip-path="url(#id_0)" d="M508.0 346.0L484.0 346.0L484.0 345.5C484.0 345.22385 484.22385 345.0 484.5 345.0L507.5 345.0C507.77615 345.0 508.0 345.22385 508.0 345.5Z" fill-rule="nonzero"/><path stroke="#000000" stroke-width="1.0" stroke-linecap="butt" d="M99.5 345.5L111.5 345.5" fill-rule="nonzero"/><path stroke="#000000" stroke-width="1.0" stroke-linecap="butt" d="M99.5 260.5L111.5 260.5" fill-rule="nonzero"/><path stroke="#000000" stroke-width="1.0" stroke-linecap="butt" d="M99.5 175.5L111.5 175.5" fill-rule="nonzero"/><path stroke="#000000" stroke-width="1.0" stroke-linecap="butt" d="M99.5 89.5L111.5 89.5" fill-rule="nonzero"/><path fill="#000000" d="M30.25 265.38022L21.65625 265.38022L21.65625 259.1771L22.671875 259.1771L22.671875 264.2396L25.296875 264.2396L25.296875 259.4896L26.3125 259.4896L26.3125 264.2396L29.234375 264.2396L29.234375 258.97397L30.25 258.97397L30.25 265.38022ZM30.25 258.2396L27.015625 255.97397L24.03125 258.06772L24.03125 256.75522L25.484375 255.8021Q25.90625 255.53647 26.1875 255.3646Q25.796875 255.1146 25.5 254.89584L24.03125 253.84897L24.03125 252.58334L26.953125 254.7396L30.25 252.4271L30.25 253.70834L28.3125 254.9896L27.796875 255.33334L30.25 256.97397L30.25 258.2396ZM27.96875 248.47397L28.109375 247.44272Q29.171875 247.6146 29.78125 248.31772Q30.390625 249.02084 30.390625 250.03647Q30.390625 251.31772 29.5625 252.09897Q28.71875 252.8646 27.15625 252.8646Q26.15625 252.8646 25.40625 252.53647Q24.640625 252.19272 24.265625 251.52084Q23.890625 250.83334 23.890625 250.02084Q23.890625 249.02084 24.40625 248.38022Q24.90625 247.72397 25.859375 247.53647L26.015625 248.56772Q25.390625 248.70834 25.078125 249.08334Q24.75 249.45834 24.75 249.9896Q24.75 250.78647 25.328125 251.28647Q25.890625 251.78647 27.125 251.78647Q28.390625 251.78647 28.953125 251.3021Q29.515625 250.81772 29.515625 250.0521Q29.515625 249.4271 29.140625 249.02084Q28.765625 248.59897 27.96875 248.47397ZM30.25 246.53647L21.65625 246.53647L21.65625 245.4896L24.734375 245.4896Q23.890625 244.75522 23.890625 243.63022Q23.890625 242.9271 24.171875 242.4271Q24.4375 241.91147 24.921875 241.69272Q25.390625 241.47397 26.3125 241.47397L30.25 241.47397L30.25 242.52084L26.3125 242.52084Q25.515625 242.52084 25.15625 242.8646Q24.796875 243.20834 24.796875 243.83334Q24.796875 244.3021 25.046875 244.72397Q25.28125 245.13022 25.703125 245.31772Q26.109375 245.4896 26.84375 245.4896L30.25 245.4896L30.25 246.53647ZM29.484375 235.47397Q29.984375 236.06772 30.1875 236.6146Q30.390625 237.14584 30.390625 237.77084Q30.390625 238.8021 29.890625 239.34897Q29.390625 239.89584 28.609375 239.89584Q28.15625 239.89584 27.78125 239.69272Q27.390625 239.4896 27.171875 239.14584Q26.9375 238.8021 26.828125 238.38022Q26.734375 238.08334 26.65625 237.44272Q26.515625 236.1771 26.296875 235.56772Q26.078125 235.56772 26.03125 235.56772Q25.375 235.56772 25.109375 235.8646Q24.765625 236.27084 24.765625 237.06772Q24.765625 237.8021 25.03125 238.16147Q25.28125 238.52084 25.9375 238.69272L25.796875 239.72397Q25.140625 239.58334 24.734375 239.25522Q24.328125 238.9271 24.109375 238.31772Q23.890625 237.70834 23.890625 236.91147Q23.890625 236.1146 24.078125 235.6146Q24.265625 235.1146 24.546875 234.88022Q24.828125 234.64584 25.265625 234.5521Q25.53125 234.50522 26.234375 234.50522L27.640625 234.50522Q29.109375 234.50522 29.5 234.44272Q29.890625 234.3646 30.25 234.16147L30.25 235.27084Q29.921875 235.4271 29.484375 235.47397ZM27.125 235.56772Q27.359375 236.14584 27.53125 237.28647Q27.625 237.94272 27.75 238.20834Q27.859375 238.47397 28.078125 238.63022Q28.296875 238.77084 28.578125 238.77084Q29.0 238.77084 29.28125 238.45834Q29.5625 238.13022 29.5625 237.52084Q29.5625 236.91147 29.296875 236.44272Q29.03125 235.95834 28.5625 235.7396Q28.203125 235.56772 27.515625 235.56772L27.125 235.56772ZM30.25 232.53647L24.03125 232.53647L24.03125 231.59897L24.90625 231.59897Q23.890625 230.91147 23.890625 229.6146Q23.890625 229.0521 24.09375 228.58334Q24.296875 228.09897 24.625 227.8646Q24.953125 227.63022 25.390625 227.53647Q25.6875 227.4896 26.421875 227.4896L30.25 227.4896L30.25 228.53647L26.46875 228.53647Q25.8125 228.53647 25.5 228.66147Q25.1875 228.78647 25.0 229.09897Q24.796875 229.41147 24.796875 229.83334Q24.796875 230.50522 25.234375 231.00522Q25.65625 231.4896 26.84375 231.4896L30.25 231.4896L30.25 232.53647ZM30.765625 225.7396L30.921875 224.70834Q31.390625 224.64584 31.609375 224.34897Q31.90625 223.95834 31.90625 223.28647Q31.90625 222.5521 31.609375 222.16147Q31.3125 221.75522 30.796875 221.6146Q30.46875 221.52084 29.4375 221.53647Q30.25 222.22397 30.25 223.25522Q30.25 224.53647 29.328125 225.2396Q28.390625 225.94272 27.109375 225.94272Q26.21875 225.94272 25.46875 225.63022Q24.703125 225.3021 24.296875 224.69272Q23.890625 224.08334 23.890625 223.25522Q23.890625 222.14584 24.78125 221.4271L24.03125 221.4271L24.03125 220.45834L29.40625 220.45834Q30.859375 220.45834 31.46875 220.75522Q32.078125 221.0521 32.421875 221.69272Q32.78125 222.33334 32.78125 223.27084Q32.78125 224.38022 32.28125 225.06772Q31.78125 225.75522 30.765625 225.7396ZM27.03125 224.8646Q28.25 224.8646 28.8125 224.38022Q29.375 223.89584 29.375 223.16147Q29.375 222.4271 28.8125 221.94272Q28.25 221.44272 27.0625 221.44272Q25.921875 221.44272 25.34375 221.95834Q24.765625 222.45834 24.765625 223.1771Q24.765625 223.88022 25.34375 224.38022Q25.90625 224.8646 27.03125 224.8646ZM28.25 214.28647L28.375 213.19272Q29.328125 213.44272 29.859375 214.14584Q30.390625 214.84897 30.390625 215.9271Q30.390625 217.28647 29.546875 218.09897Q28.703125 218.89584 27.1875 218.89584Q25.625 218.89584 24.765625 218.08334Q23.890625 217.27084 23.890625 215.9896Q23.890625 214.7396 24.734375 213.95834Q25.578125 213.16147 27.125 213.16147Q27.21875 213.16147 27.40625 213.16147L27.40625 217.8021Q28.4375 217.7396 28.984375 217.22397Q29.515625 216.70834 29.515625 215.9271Q29.515625 215.34897 29.21875 214.94272Q28.90625 214.52084 28.25 214.28647ZM26.546875 217.7396L26.546875 214.27084Q25.75 214.33334 25.359375 214.66147Q24.75 215.1771 24.75 215.97397Q24.75 216.70834 25.234375 217.20834Q25.71875 217.69272 26.546875 217.7396ZM28.390625 211.95834L28.234375 210.9271Q28.859375 210.83334 29.1875 210.44272Q29.515625 210.03647 29.515625 209.3021Q29.515625 208.58334 29.234375 208.2396Q28.9375 207.88022 28.53125 207.88022Q28.171875 207.88022 27.96875 208.19272Q27.828125 208.41147 27.609375 209.27084Q27.3125 210.4271 27.109375 210.88022Q26.890625 211.31772 26.515625 211.5521Q26.140625 211.78647 25.671875 211.78647Q25.265625 211.78647 24.90625 211.59897Q24.546875 211.41147 24.3125 211.08334Q24.140625 210.83334 24.015625 210.41147Q23.890625 209.9896 23.890625 209.4896Q23.890625 208.77084 24.109375 208.22397Q24.3125 207.66147 24.671875 207.39584Q25.03125 207.13022 25.625 207.03647L25.765625 208.06772Q25.296875 208.13022 25.03125 208.47397Q24.75 208.8021 24.75 209.4271Q24.75 210.14584 25.0 210.45834Q25.234375 210.77084 25.5625 210.77084Q25.765625 210.77084 25.921875 210.64584Q26.09375 210.50522 26.203125 210.2396Q26.265625 210.08334 26.46875 209.3021Q26.78125 208.1771 26.96875 207.7396Q27.15625 207.3021 27.515625 207.0521Q27.875 206.8021 28.421875 206.8021Q28.953125 206.8021 29.421875 207.1146Q29.875 207.41147 30.140625 207.9896Q30.390625 208.56772 30.390625 209.3021Q30.390625 210.52084 29.890625 211.16147Q29.375 211.78647 28.390625 211.95834ZM30.390625 205.33334L21.515625 202.84897L21.515625 202.00522L30.390625 204.4896L30.390625 205.33334ZM28.390625 201.95834L28.234375 200.9271Q28.859375 200.83334 29.1875 200.44272Q29.515625 200.03647 29.515625 199.3021Q29.515625 198.58334 29.234375 198.2396Q28.9375 197.88022 28.53125 197.88022Q28.171875 197.88022 27.96875 198.19272Q27.828125 198.41147 27.609375 199.27084Q27.3125 200.4271 27.109375 200.88022Q26.890625 201.31772 26.515625 201.5521Q26.140625 201.78647 25.671875 201.78647Q25.265625 201.78647 24.90625 201.59897Q24.546875 201.41147 24.3125 201.08334Q24.140625 200.83334 24.015625 200.41147Q23.890625 199.9896 23.890625 199.4896Q23.890625 198.77084 24.109375 198.22397Q24.3125 197.66147 24.671875 197.39584Q25.03125 197.13022 25.625 197.03647L25.765625 198.06772Q25.296875 198.13022 25.03125 198.47397Q24.75 198.8021 24.75 199.4271Q24.75 200.14584 25.0 200.45834Q25.234375 200.77084 25.5625 200.77084Q25.765625 200.77084 25.921875 200.64584Q26.09375 200.50522 26.203125 200.2396Q26.265625 200.08334 26.46875 199.3021Q26.78125 198.1771 26.96875 197.7396Q27.15625 197.3021 27.515625 197.0521Q27.875 196.8021 28.421875 196.8021Q28.953125 196.8021 29.421875 197.1146Q29.875 197.41147 30.140625 197.9896Q30.390625 198.56772 30.390625 199.3021Q30.390625 200.52084 29.890625 201.16147Q29.375 201.78647 28.390625 201.95834ZM28.25 190.28647L28.375 189.19272Q29.328125 189.44272 29.859375 190.14584Q30.390625 190.84897 30.390625 191.9271Q30.390625 193.28647 29.546875 194.09897Q28.703125 194.89584 27.1875 194.89584Q25.625 194.89584 24.765625 194.08334Q23.890625 193.27084 23.890625 191.9896Q23.890625 190.7396 24.734375 189.95834Q25.578125 189.16147 27.125 189.16147Q27.21875 189.16147 27.40625 189.16147L27.40625 193.8021Q28.4375 193.7396 28.984375 193.22397Q29.515625 192.70834 29.515625 191.9271Q29.515625 191.34897 29.21875 190.94272Q28.90625 190.52084 28.25 190.28647ZM26.546875 193.7396L26.546875 190.27084Q25.75 190.33334 25.359375 190.66147Q24.75 191.1771 24.75 191.97397Q24.75 192.70834 25.234375 193.20834Q25.71875 193.69272 26.546875 193.7396ZM27.96875 183.47397L28.109375 182.44272Q29.171875 182.6146 29.78125 183.31772Q30.390625 184.02084 30.390625 185.03647Q30.390625 186.31772 29.5625 187.09897Q28.71875 187.8646 27.15625 187.8646Q26.15625 187.8646 25.40625 187.53647Q24.640625 187.19272 24.265625 186.52084Q23.890625 185.83334 23.890625 185.02084Q23.890625 184.02084 24.40625 183.38022Q24.90625 182.72397 25.859375 182.53647L26.015625 183.56772Q25.390625 183.70834 25.078125 184.08334Q24.75 184.45834 24.75 184.9896Q24.75 185.78647 25.328125 186.28647Q25.890625 186.78647 27.125 186.78647Q28.390625 186.78647 28.953125 186.3021Q29.515625 185.81772 29.515625 185.0521Q29.515625 184.4271 29.140625 184.02084Q28.765625 183.59897 27.96875 183.47397Z" fill-rule="nonzero"/><path fill="#000000" d="M86.75 345.51562Q86.75 343.98438 87.0625 343.0625Q87.375 342.125 87.984375 341.625Q88.609375 341.125 89.546875 341.125Q90.234375 341.125 90.75 341.40625Q91.28125 341.6875 91.625 342.21875Q91.96875 342.73438 92.15625 343.48438Q92.34375 344.23438 92.34375 345.51562Q92.34375 347.03125 92.03125 347.95312Q91.734375 348.875 91.109375 349.39062Q90.5 349.89062 89.546875 349.89062Q88.3125 349.89062 87.59375 349.0Q86.75 347.9375 86.75 345.51562ZM87.828125 345.51562Q87.828125 347.625 88.328125 348.32812Q88.828125 349.03125 89.546875 349.03125Q90.28125 349.03125 90.765625 348.32812Q91.265625 347.625 91.265625 345.51562Q91.265625 343.39062 90.765625 342.70312Q90.28125 342.0 89.53125 342.0Q88.8125 342.0 88.375 342.60938Q87.828125 343.39062 87.828125 345.51562Z" fill-rule="nonzero"/><path fill="#000000" d="M55.71875 264.47223L54.671875 264.47223L54.671875 257.75348Q54.28125 258.11285 53.65625 258.48785Q53.046875 258.84723 52.5625 259.0191L52.5625 258.00348Q53.4375 257.5816 54.09375 257.00348Q54.765625 256.40973 55.046875 255.84723L55.71875 255.84723L55.71875 264.47223ZM58.75 260.23785Q58.75 258.7066 59.0625 257.78473Q59.375 256.84723 59.984375 256.34723Q60.609375 255.84723 61.546875 255.84723Q62.234375 255.84723 62.75 256.12848Q63.28125 256.40973 63.625 256.94098Q63.96875 257.4566 64.15625 258.2066Q64.34375 258.9566 64.34375 260.23785Q64.34375 261.75348 64.03125 262.67535Q63.734375 263.59723 63.109375 264.11285Q62.5 264.61285 61.546875 264.61285Q60.3125 264.61285 59.59375 263.72223Q58.75 262.65973 58.75 260.23785ZM59.828125 260.23785Q59.828125 262.34723 60.328125 263.05035Q60.828125 263.75348 61.546875 263.75348Q62.28125 263.75348 62.765625 263.05035Q63.265625 262.34723 63.265625 260.23785Q63.265625 258.11285 62.765625 257.42535Q62.28125 256.72223 61.53125 256.72223Q60.8125 256.72223 60.375 257.3316Q59.828125 258.11285 59.828125 260.23785ZM65.75 260.23785Q65.75 258.7066 66.0625 257.78473Q66.375 256.84723 66.984375 256.34723Q67.609375 255.84723 68.546875 255.84723Q69.234375 255.84723 69.75 256.12848Q70.28125 256.40973 70.625 256.94098Q70.96875 257.4566 71.15625 258.2066Q71.34375 258.9566 71.34375 260.23785Q71.34375 261.75348 71.03125 262.67535Q70.734375 263.59723 70.109375 264.11285Q69.5 264.61285 68.546875 264.61285Q67.3125 264.61285 66.59375 263.72223Q65.75 262.65973 65.75 260.23785ZM66.828125 260.23785Q66.828125 262.34723 67.328125 263.05035Q67.828125 263.75348 68.546875 263.75348Q69.28125 263.75348 69.765625 263.05035Q70.265625 262.34723 70.265625 260.23785Q70.265625 258.11285 69.765625 257.42535Q69.28125 256.72223 68.53125 256.72223Q67.8125 256.72223 67.375 257.3316Q66.828125 258.11285 66.828125 260.23785ZM72.75 260.23785Q72.75 258.7066 73.0625 257.78473Q73.375 256.84723 73.984375 256.34723Q74.609375 255.84723 75.546875 255.84723Q76.234375 255.84723 76.75 256.12848Q77.28125 256.40973 77.625 256.94098Q77.96875 257.4566 78.15625 258.2066Q78.34375 258.9566 78.34375 260.23785Q78.34375 261.75348 78.03125 262.67535Q77.734375 263.59723 77.109375 264.11285Q76.5 264.61285 75.546875 264.61285Q74.3125 264.61285 73.59375 263.72223Q72.75 262.65973 72.75 260.23785ZM73.828125 260.23785Q73.828125 262.34723 74.328125 263.05035Q74.828125 263.75348 75.546875 263.75348Q76.28125 263.75348 76.765625 263.05035Q77.265625 262.34723 77.265625 260.23785Q77.265625 258.11285 76.765625 257.42535Q76.28125 256.72223 75.53125 256.72223Q74.8125 256.72223 74.375 257.3316Q73.828125 258.11285 73.828125 260.23785ZM79.75 260.23785Q79.75 258.7066 80.0625 257.78473Q80.375 256.84723 80.984375 256.34723Q81.609375 255.84723 82.546875 255.84723Q83.234375 255.84723 83.75 256.12848Q84.28125 256.40973 84.625 256.94098Q84.96875 257.4566 85.15625 258.2066Q85.34375 258.9566 85.34375 260.23785Q85.34375 261.75348 85.03125 262.67535Q84.734375 263.59723 84.109375 264.11285Q83.5 264.61285 82.546875 264.61285Q81.3125 264.61285 80.59375 263.72223Q79.75 262.65973 79.75 260.23785ZM80.828125 260.23785Q80.828125 262.34723 81.328125 263.05035Q81.828125 263.75348 82.546875 263.75348Q83.28125 263.75348 83.765625 263.05035Q84.265625 262.34723 84.265625 260.23785Q84.265625 258.11285 83.765625 257.42535Q83.28125 256.72223 82.53125 256.72223Q81.8125 256.72223 81.375 257.3316Q80.828125 258.11285 80.828125 260.23785ZM86.75 260.23785Q86.75 258.7066 87.0625 257.78473Q87.375 256.84723 87.984375 256.34723Q88.609375 255.84723 89.546875 255.84723Q90.234375 255.84723 90.75 256.12848Q91.28125 256.40973 91.625 256.94098Q91.96875 257.4566 92.15625 258.2066Q92.34375 258.9566 92.34375 260.23785Q92.34375 261.75348 92.03125 262.67535Q91.734375 263.59723 91.109375 264.11285Q90.5 264.61285 89.546875 264.61285Q88.3125 264.61285 87.59375 263.72223Q86.75 262.65973 86.75 260.23785ZM87.828125 260.23785Q87.828125 262.34723 88.328125 263.05035Q88.828125 263.75348 89.546875 263.75348Q90.28125 263.75348 90.765625 263.05035Q91.265625 262.34723 91.265625 260.23785Q91.265625 258.11285 90.765625 257.42535Q90.28125 256.72223 89.53125 256.72223Q88.8125 256.72223 88.375 257.3316Q87.828125 258.11285 87.828125 260.23785Z" fill-rule="nonzero"/><path fill="#000000" d="M57.296875 178.17882L57.296875 179.19444L51.609375 179.19444Q51.609375 178.81944 51.734375 178.46007Q51.953125 177.88194 52.421875 177.31944Q52.90625 176.75694 53.8125 176.02257Q55.21875 174.86632 55.703125 174.19444Q56.203125 173.52257 56.203125 172.92882Q56.203125 172.30382 55.75 171.88194Q55.296875 171.44444 54.578125 171.44444Q53.8125 171.44444 53.359375 171.89757Q52.90625 172.3507 52.890625 173.1632L51.8125 173.05382Q51.921875 171.83507 52.640625 171.21007Q53.375 170.56944 54.609375 170.56944Q55.84375 170.56944 56.5625 171.25694Q57.28125 171.94444 57.28125 172.96007Q57.28125 173.4757 57.0625 173.9757Q56.859375 174.46007 56.359375 175.02257Q55.875 175.56944 54.75 176.52257Q53.796875 177.31944 53.515625 177.61632Q53.25 177.89757 53.078125 178.17882L57.296875 178.17882ZM58.75 174.96007Q58.75 173.42882 59.0625 172.50694Q59.375 171.56944 59.984375 171.06944Q60.609375 170.56944 61.546875 170.56944Q62.234375 170.56944 62.75 170.8507Q63.28125 171.13194 63.625 171.6632Q63.96875 172.17882 64.15625 172.92882Q64.34375 173.67882 64.34375 174.96007Q64.34375 176.4757 64.03125 177.39757Q63.734375 178.31944 63.109375 178.83507Q62.5 179.33507 61.546875 179.33507Q60.3125 179.33507 59.59375 178.44444Q58.75 177.38194 58.75 174.96007ZM59.828125 174.96007Q59.828125 177.06944 60.328125 177.77257Q60.828125 178.4757 61.546875 178.4757Q62.28125 178.4757 62.765625 177.77257Q63.265625 177.06944 63.265625 174.96007Q63.265625 172.83507 62.765625 172.14757Q62.28125 171.44444 61.53125 171.44444Q60.8125 171.44444 60.375 172.05382Q59.828125 172.83507 59.828125 174.96007ZM65.75 174.96007Q65.75 173.42882 66.0625 172.50694Q66.375 171.56944 66.984375 171.06944Q67.609375 170.56944 68.546875 170.56944Q69.234375 170.56944 69.75 170.8507Q70.28125 171.13194 70.625 171.6632Q70.96875 172.17882 71.15625 172.92882Q71.34375 173.67882 71.34375 174.96007Q71.34375 176.4757 71.03125 177.39757Q70.734375 178.31944 70.109375 178.83507Q69.5 179.33507 68.546875 179.33507Q67.3125 179.33507 66.59375 178.44444Q65.75 177.38194 65.75 174.96007ZM66.828125 174.96007Q66.828125 177.06944 67.328125 177.77257Q67.828125 178.4757 68.546875 178.4757Q69.28125 178.4757 69.765625 177.77257Q70.265625 177.06944 70.265625 174.96007Q70.265625 172.83507 69.765625 172.14757Q69.28125 171.44444 68.53125 171.44444Q67.8125 171.44444 67.375 172.05382Q66.828125 172.83507 66.828125 174.96007ZM72.75 174.96007Q72.75 173.42882 73.0625 172.50694Q73.375 171.56944 73.984375 171.06944Q74.609375 170.56944 75.546875 170.56944Q76.234375 170.56944 76.75 170.8507Q77.28125 171.13194 77.625 171.6632Q77.96875 172.17882 78.15625 172.92882Q78.34375 173.67882 78.34375 174.96007Q78.34375 176.4757 78.03125 177.39757Q77.734375 178.31944 77.109375 178.83507Q76.5 179.33507 75.546875 179.33507Q74.3125 179.33507 73.59375 178.44444Q72.75 177.38194 72.75 174.96007ZM73.828125 174.96007Q73.828125 177.06944 74.328125 177.77257Q74.828125 178.4757 75.546875 178.4757Q76.28125 178.4757 76.765625 177.77257Q77.265625 177.06944 77.265625 174.96007Q77.265625 172.83507 76.765625 172.14757Q76.28125 171.44444 75.53125 171.44444Q74.8125 171.44444 74.375 172.05382Q73.828125 172.83507 73.828125 174.96007ZM79.75 174.96007Q79.75 173.42882 80.0625 172.50694Q80.375 171.56944 80.984375 171.06944Q81.609375 170.56944 82.546875 170.56944Q83.234375 170.56944 83.75 170.8507Q84.28125 171.13194 84.625 171.6632Q84.96875 172.17882 85.15625 172.92882Q85.34375 173.67882 85.34375 174.96007Q85.34375 176.4757 85.03125 177.39757Q84.734375 178.31944 84.109375 178.83507Q83.5 179.33507 82.546875 179.33507Q81.3125 179.33507 80.59375 178.44444Q79.75 177.38194 79.75 174.96007ZM80.828125 174.96007Q80.828125 177.06944 81.328125 177.77257Q81.828125 178.4757 82.546875 178.4757Q83.28125 178.4757 83.765625 177.77257Q84.265625 177.06944 84.265625 174.96007Q84.265625 172.83507 83.765625 172.14757Q83.28125 171.44444 82.53125 171.44444Q81.8125 171.44444 81.375 172.05382Q80.828125 172.83507 80.828125 174.96007ZM86.75 174.96007Q86.75 173.42882 87.0625 172.50694Q87.375 171.56944 87.984375 171.06944Q88.609375 170.56944 89.546875 170.56944Q90.234375 170.56944 90.75 170.8507Q91.28125 171.13194 91.625 171.6632Q91.96875 172.17882 92.15625 172.92882Q92.34375 173.67882 92.34375 174.96007Q92.34375 176.4757 92.03125 177.39757Q91.734375 178.31944 91.109375 178.83507Q90.5 179.33507 89.546875 179.33507Q88.3125 179.33507 87.59375 178.44444Q86.75 177.38194 86.75 174.96007ZM87.828125 174.96007Q87.828125 177.06944 88.328125 177.77257Q88.828125 178.4757 89.546875 178.4757Q90.28125 178.4757 90.765625 177.77257Q91.265625 177.06944 91.265625 174.96007Q91.265625 172.83507 90.765625 172.14757Q90.28125 171.44444 89.53125 171.44444Q88.8125 171.44444 88.375 172.05382Q87.828125 172.83507 87.828125 174.96007Z" fill-rule="nonzero"/><path fill="#000000" d="M51.75 91.65104L52.8125 91.510414Q52.984375 92.40104 53.421875 92.80729Q53.859375 93.197914 54.484375 93.197914Q55.234375 93.197914 55.75 92.68229Q56.265625 92.166664 56.265625 91.40104Q56.265625 90.68229 55.78125 90.21354Q55.3125 89.729164 54.578125 89.729164Q54.28125 89.729164 53.828125 89.854164L53.953125 88.916664Q54.0625 88.93229 54.125 88.93229Q54.796875 88.93229 55.328125 88.58854Q55.875 88.229164 55.875 87.49479Q55.875 86.916664 55.484375 86.541664Q55.09375 86.15104 54.46875 86.15104Q53.859375 86.15104 53.4375 86.541664Q53.03125 86.93229 52.921875 87.697914L51.859375 87.510414Q52.046875 86.46354 52.734375 85.885414Q53.421875 85.291664 54.4375 85.291664Q55.140625 85.291664 55.734375 85.604164Q56.328125 85.90104 56.640625 86.416664Q56.953125 86.93229 56.953125 87.52604Q56.953125 88.072914 56.65625 88.541664Q56.359375 88.99479 55.78125 89.260414Q56.53125 89.43229 56.953125 89.99479Q57.375 90.541664 57.375 91.385414Q57.375 92.510414 56.546875 93.291664Q55.734375 94.072914 54.484375 94.072914Q53.359375 94.072914 52.609375 93.40104Q51.859375 92.71354 51.75 91.65104ZM58.75 89.68229Q58.75 88.15104 59.0625 87.229164Q59.375 86.291664 59.984375 85.791664Q60.609375 85.291664 61.546875 85.291664Q62.234375 85.291664 62.75 85.572914Q63.28125 85.854164 63.625 86.385414Q63.96875 86.90104 64.15625 87.65104Q64.34375 88.40104 64.34375 89.68229Q64.34375 91.197914 64.03125 92.11979Q63.734375 93.041664 63.109375 93.55729Q62.5 94.05729 61.546875 94.05729Q60.3125 94.05729 59.59375 93.166664Q58.75 92.104164 58.75 89.68229ZM59.828125 89.68229Q59.828125 91.791664 60.328125 92.49479Q60.828125 93.197914 61.546875 93.197914Q62.28125 93.197914 62.765625 92.49479Q63.265625 91.791664 63.265625 89.68229Q63.265625 87.55729 62.765625 86.86979Q62.28125 86.166664 61.53125 86.166664Q60.8125 86.166664 60.375 86.77604Q59.828125 87.55729 59.828125 89.68229ZM65.75 89.68229Q65.75 88.15104 66.0625 87.229164Q66.375 86.291664 66.984375 85.791664Q67.609375 85.291664 68.546875 85.291664Q69.234375 85.291664 69.75 85.572914Q70.28125 85.854164 70.625 86.385414Q70.96875 86.90104 71.15625 87.65104Q71.34375 88.40104 71.34375 89.68229Q71.34375 91.197914 71.03125 92.11979Q70.734375 93.041664 70.109375 93.55729Q69.5 94.05729 68.546875 94.05729Q67.3125 94.05729 66.59375 93.166664Q65.75 92.104164 65.75 89.68229ZM66.828125 89.68229Q66.828125 91.791664 67.328125 92.49479Q67.828125 93.197914 68.546875 93.197914Q69.28125 93.197914 69.765625 92.49479Q70.265625 91.791664 70.265625 89.68229Q70.265625 87.55729 69.765625 86.86979Q69.28125 86.166664 68.53125 86.166664Q67.8125 86.166664 67.375 86.77604Q66.828125 87.55729 66.828125 89.68229ZM72.75 89.68229Q72.75 88.15104 73.0625 87.229164Q73.375 86.291664 73.984375 85.791664Q74.609375 85.291664 75.546875 85.291664Q76.234375 85.291664 76.75 85.572914Q77.28125 85.854164 77.625 86.385414Q77.96875 86.90104 78.15625 87.65104Q78.34375 88.40104 78.34375 89.68229Q78.34375 91.197914 78.03125 92.11979Q77.734375 93.041664 77.109375 93.55729Q76.5 94.05729 75.546875 94.05729Q74.3125 94.05729 73.59375 93.166664Q72.75 92.104164 72.75 89.68229ZM73.828125 89.68229Q73.828125 91.791664 74.328125 92.49479Q74.828125 93.197914 75.546875 93.197914Q76.28125 93.197914 76.765625 92.49479Q77.265625 91.791664 77.265625 89.68229Q77.265625 87.55729 76.765625 86.86979Q76.28125 86.166664 75.53125 86.166664Q74.8125 86.166664 74.375 86.77604Q73.828125 87.55729 73.828125 89.68229ZM79.75 89.68229Q79.75 88.15104 80.0625 87.229164Q80.375 86.291664 80.984375 85.791664Q81.609375 85.291664 82.546875 85.291664Q83.234375 85.291664 83.75 85.572914Q84.28125 85.854164 84.625 86.385414Q84.96875 86.90104 85.15625 87.65104Q85.34375 88.40104 85.34375 89.68229Q85.34375 91.197914 85.03125 92.11979Q84.734375 93.041664 84.109375 93.55729Q83.5 94.05729 82.546875 94.05729Q81.3125 94.05729 80.59375 93.166664Q79.75 92.104164 79.75 89.68229ZM80.828125 89.68229Q80.828125 91.791664 81.328125 92.49479Q81.828125 93.197914 82.546875 93.197914Q83.28125 93.197914 83.765625 92.49479Q84.265625 91.791664 84.265625 89.68229Q84.265625 87.55729 83.765625 86.86979Q83.28125 86.166664 82.53125 86.166664Q81.8125 86.166664 81.375 86.77604Q80.828125 87.55729 80.828125 89.68229ZM86.75 89.68229Q86.75 88.15104 87.0625 87.229164Q87.375 86.291664 87.984375 85.791664Q88.609375 85.291664 89.546875 85.291664Q90.234375 85.291664 90.75 85.572914Q91.28125 85.854164 91.625 86.385414Q91.96875 86.90104 92.15625 87.65104Q92.34375 88.40104 92.34375 89.68229Q92.34375 91.197914 92.03125 92.11979Q91.734375 93.041664 91.109375 93.55729Q90.5 94.05729 89.546875 94.05729Q88.3125 94.05729 87.59375 93.166664Q86.75 92.104164 86.75 89.68229ZM87.828125 89.68229Q87.828125 91.791664 88.328125 92.49479Q88.828125 93.197914 89.546875 93.197914Q90.28125 93.197914 90.765625 92.49479Q91.265625 91.791664 91.265625 89.68229Q91.265625 87.55729 90.765625 86.86979Q90.28125 86.166664 89.53125 86.166664Q88.8125 86.166664 88.375 86.77604Q87.828125 87.55729 87.828125 89.68229Z" fill-rule="nonzero"/><path fill="#000000" d="M232.93916 362.75L232.93916 355.17188L230.11104 355.17188L230.11104 354.15625L236.92354 354.15625L236.92354 355.17188L234.07979 355.17188L234.07979 362.75L232.93916 362.75ZM241.87666 360.75L242.97041 360.875Q242.72041 361.82812 242.01729 362.35938Q241.31416 362.89062 240.23604 362.89062Q238.87666 362.89062 238.06416 362.04688Q237.26729 361.20312 237.26729 359.6875Q237.26729 358.125 238.07979 357.26562Q238.89229 356.39062 240.17354 356.39062Q241.42354 356.39062 242.20479 357.23438Q243.00166 358.07812 243.00166 359.625Q243.00166 359.71875 243.00166 359.90625L238.36104 359.90625Q238.42354 360.9375 238.93916 361.48438Q239.45479 362.01562 240.23604 362.01562Q240.81416 362.01562 241.22041 361.71875Q241.64229 361.40625 241.87666 360.75ZM238.42354 359.04688L241.89229 359.04688Q241.82979 358.25 241.50166 357.85938Q240.98604 357.25 240.18916 357.25Q239.45479 357.25 238.95479 357.73438Q238.47041 358.21875 238.42354 359.04688ZM244.20479 360.89062L245.23604 360.73438Q245.32979 361.35938 245.72041 361.6875Q246.12666 362.01562 246.86104 362.01562Q247.57979 362.01562 247.92354 361.73438Q248.28291 361.4375 248.28291 361.03125Q248.28291 360.67188 247.97041 360.46875Q247.75166 360.32812 246.89229 360.10938Q245.73604 359.8125 245.28291 359.60938Q244.84541 359.39062 244.61104 359.01562Q244.37666 358.64062 244.37666 358.17188Q244.37666 357.76562 244.56416 357.40625Q244.75166 357.04688 245.07979 356.8125Q245.32979 356.64062 245.75166 356.51562Q246.17354 356.39062 246.67354 356.39062Q247.39229 356.39062 247.93916 356.60938Q248.50166 356.8125 248.76729 357.17188Q249.03291 357.53125 249.12666 358.125L248.09541 358.26562Q248.03291 357.79688 247.68916 357.53125Q247.36104 357.25 246.73604 357.25Q246.01729 357.25 245.70479 357.5Q245.39229 357.73438 245.39229 358.0625Q245.39229 358.26562 245.51729 358.42188Q245.65791 358.59375 245.92354 358.70312Q246.07979 358.76562 246.86104 358.96875Q247.98604 359.28125 248.42354 359.46875Q248.86104 359.65625 249.11104 360.01562Q249.36104 360.375 249.36104 360.92188Q249.36104 361.45312 249.04854 361.92188Q248.75166 362.375 248.17354 362.64062Q247.59541 362.89062 246.86104 362.89062Q245.64229 362.89062 245.00166 362.39062Q244.37666 361.875 244.20479 360.89062ZM253.92354 361.8125L254.07979 362.73438Q253.62666 362.82812 253.28291 362.82812Q252.70479 362.82812 252.39229 362.65625Q252.07979 362.46875 251.93916 362.17188Q251.81416 361.875 251.81416 360.92188L251.81416 357.34375L251.04854 357.34375L251.04854 356.53125L251.81416 356.53125L251.81416 354.98438L252.86104 354.35938L252.86104 356.53125L253.92354 356.53125L253.92354 357.34375L252.86104 357.34375L252.86104 360.98438Q252.86104 361.4375 252.90791 361.5625Q252.97041 361.6875 253.09541 361.76562Q253.22041 361.84375 253.45479 361.84375Q253.64229 361.84375 253.92354 361.8125Z" fill-rule="nonzero"/><path fill="#000000" d="M434.54523 362.75L434.54523 360.6875L430.82648 360.6875L430.82648 359.71875L434.74835 354.15625L435.60773 354.15625L435.60773 359.71875L436.76398 359.71875L436.76398 360.6875L435.60773 360.6875L435.60773 362.75L434.54523 362.75ZM434.54523 359.71875L434.54523 355.85938L431.85773 359.71875L434.54523 359.71875ZM438.76398 362.75L438.76398 361.54688L439.9671 361.54688L439.9671 362.75L438.76398 362.75ZM441.17023 358.51562Q441.17023 356.98438 441.48273 356.0625Q441.79523 355.125 442.4046 354.625Q443.0296 354.125 443.9671 354.125Q444.6546 354.125 445.17023 354.40625Q445.70148 354.6875 446.04523 355.21875Q446.38898 355.73438 446.57648 356.48438Q446.76398 357.23438 446.76398 358.51562Q446.76398 360.03125 446.45148 360.95312Q446.1546 361.875 445.5296 362.39062Q444.92023 362.89062 443.9671 362.89062Q442.73273 362.89062 442.01398 362.0Q441.17023 360.9375 441.17023 358.51562ZM442.24835 358.51562Q442.24835 360.625 442.74835 361.32812Q443.24835 362.03125 443.9671 362.03125Q444.70148 362.03125 445.18585 361.32812Q445.68585 360.625 445.68585 358.51562Q445.68585 356.39062 445.18585 355.70312Q444.70148 355.0 443.95148 355.0Q443.23273 355.0 442.79523 355.60938Q442.24835 356.39062 442.24835 358.51562ZM448.76398 362.75L448.76398 361.54688L449.9671 361.54688L449.9671 362.75L448.76398 362.75ZM456.7171 361.73438L456.7171 362.75L451.0296 362.75Q451.0296 362.375 451.1546 362.01562Q451.37335 361.4375 451.8421 360.875Q452.32648 360.3125 453.23273 359.57812Q454.63898 358.42188 455.12335 357.75Q455.62335 357.07812 455.62335 356.48438Q455.62335 355.85938 455.17023 355.4375Q454.7171 355.0 453.99835 355.0Q453.23273 355.0 452.7796 355.45312Q452.32648 355.90625 452.31085 356.71875L451.23273 356.60938Q451.3421 355.39062 452.06085 354.76562Q452.79523 354.125 454.0296 354.125Q455.26398 354.125 455.98273 354.8125Q456.70148 355.5 456.70148 356.51562Q456.70148 357.03125 456.48273 357.53125Q456.2796 358.01562 455.7796 358.57812Q455.29523 359.125 454.17023 360.07812Q453.2171 360.875 452.93585 361.17188Q452.67023 361.45312 452.49835 361.73438L456.7171 361.73438Z" fill-rule="nonzero"/><path fill="#4285f4" d="M85.5 58.083332C85.5 57.531048 85.947716 57.083332 86.5 57.083332L96.5 57.083332C97.052284 57.083332 97.5 57.531048 97.5 58.083332L97.5 68.083336C97.5 68.63562 97.052284 69.083336 96.5 69.083336L86.5 69.083336C85.947716 69.083336 85.5 68.63562 85.5 68.083336Z" fill-rule="nonzero"/><path fill="#1a1a1a" d="M106.296875 67.083336L106.296875 60.864586L107.234375 60.864586L107.234375 61.739586Q107.53125 61.270836 108.015625 61.00521Q108.5 60.72396 109.125 60.72396Q109.8125 60.72396 110.25 61.00521Q110.703125 61.28646 110.875 61.802086Q111.625 60.72396 112.796875 60.72396Q113.734375 60.72396 114.21875 61.239586Q114.71875 61.739586 114.71875 62.81771L114.71875 67.083336L113.671875 67.083336L113.671875 63.16146Q113.671875 62.53646 113.5625 62.25521Q113.46875 61.97396 113.203125 61.802086Q112.9375 61.63021 112.5625 61.63021Q111.90625 61.63021 111.46875 62.06771Q111.046875 62.50521 111.046875 63.47396L111.046875 67.083336L109.984375 67.083336L109.984375 63.03646Q109.984375 62.333336 109.71875 61.989586Q109.46875 61.63021 108.890625 61.63021Q108.4375 61.63021 108.0625 61.864586Q107.6875 62.09896 107.515625 62.552086Q107.34375 63.00521 107.34375 63.84896L107.34375 67.083336L106.296875 67.083336ZM117.296875 59.708336L117.296875 58.489586L118.359375 58.489586L118.359375 59.708336L117.296875 59.708336ZM117.296875 67.083336L117.296875 60.864586L118.359375 60.864586L118.359375 67.083336L117.296875 67.083336ZM120.296875 67.083336L120.296875 60.864586L121.234375 60.864586L121.234375 61.739586Q121.921875 60.72396 123.21875 60.72396Q123.78125 60.72396 124.25 60.927086Q124.734375 61.13021 124.96875 61.458336Q125.203125 61.78646 125.296875 62.22396Q125.34375 62.520836 125.34375 63.25521L125.34375 67.083336L124.296875 67.083336L124.296875 63.302086Q124.296875 62.645836 124.171875 62.333336Q124.046875 62.020836 123.734375 61.833336Q123.421875 61.63021 123.0 61.63021Q122.328125 61.63021 121.828125 62.06771Q121.34375 62.489586 121.34375 63.677086L121.34375 67.083336L120.296875 67.083336ZM127.296875 59.708336L127.296875 58.489586L128.35938 58.489586L128.35938 59.708336L127.296875 59.708336ZM127.296875 67.083336L127.296875 60.864586L128.35938 60.864586L128.35938 67.083336L127.296875 67.083336ZM130.29688 67.083336L130.29688 60.864586L131.23438 60.864586L131.23438 61.739586Q131.53125 61.270836 132.01562 61.00521Q132.5 60.72396 133.125 60.72396Q133.8125 60.72396 134.25 61.00521Q134.70312 61.28646 134.875 61.802086Q135.625 60.72396 136.79688 60.72396Q137.73438 60.72396 138.21875 61.239586Q138.71875 61.739586 138.71875 62.81771L138.71875 67.083336L137.67188 67.083336L137.67188 63.16146Q137.67188 62.53646 137.5625 62.25521Q137.46875 61.97396 137.20312 61.802086Q136.9375 61.63021 136.5625 61.63021Q135.90625 61.63021 135.46875 62.06771Q135.04688 62.50521 135.04688 63.47396L135.04688 67.083336L133.98438 67.083336L133.98438 63.03646Q133.98438 62.333336 133.71875 61.989586Q133.46875 61.63021 132.89062 61.63021Q132.4375 61.63021 132.0625 61.864586Q131.6875 62.09896 131.51562 62.552086Q131.34375 63.00521 131.34375 63.84896L131.34375 67.083336L130.29688 67.083336ZM145.375 67.083336L145.375 66.16146Q144.64062 67.22396 143.39062 67.22396Q142.84375 67.22396 142.35938 67.020836Q141.89062 66.802086 141.65625 66.489586Q141.42188 66.16146 141.32812 65.69271Q141.26562 65.395836 141.26562 64.708336L141.26562 60.864586L142.32812 60.864586L142.32812 64.31771Q142.32812 65.13021 142.39062 65.427086Q142.48438 65.833336 142.79688 66.083336Q143.125 66.31771 143.60938 66.31771Q144.07812 66.31771 144.48438 66.083336Q144.90625 65.833336 145.07812 65.41146Q145.26562 64.989586 145.26562 64.19271L145.26562 60.864586L146.3125 60.864586L146.3125 67.083336L145.375 67.083336ZM148.29688 67.083336L148.29688 60.864586L149.23438 60.864586L149.23438 61.739586Q149.53125 61.270836 150.01562 61.00521Q150.5 60.72396 151.125 60.72396Q151.8125 60.72396 152.25 61.00521Q152.70312 61.28646 152.875 61.802086Q153.625 60.72396 154.79688 60.72396Q155.73438 60.72396 156.21875 61.239586Q156.71875 61.739586 156.71875 62.81771L156.71875 67.083336L155.67188 67.083336L155.67188 63.16146Q155.67188 62.53646 155.5625 62.25521Q155.46875 61.97396 155.20312 61.802086Q154.9375 61.63021 154.5625 61.63021Q153.90625 61.63021 153.46875 62.06771Q153.04688 62.50521 153.04688 63.47396L153.04688 67.083336L151.98438 67.083336L151.98438 63.03646Q151.98438 62.333336 151.71875 61.989586Q151.46875 61.63021 150.89062 61.63021Q150.4375 61.63021 150.0625 61.864586Q149.6875 62.09896 149.51562 62.552086Q149.34375 63.00521 149.34375 63.84896L149.34375 67.083336L148.29688 67.083336Z" fill-rule="nonzero"/><path fill="#ea4335" d="M174.5 58.083332C174.5 57.531048 174.94771 57.083332 175.5 57.083332L185.5 57.083332C186.05229 57.083332 186.5 57.531048 186.5 58.083332L186.5 68.083336C186.5 68.63562 186.05229 69.083336 185.5 69.083336L175.5 69.083336C174.94771 69.083336 174.5 68.63562 174.5 68.083336Z" fill-rule="nonzero"/><path fill="#1a1a1a" d="M195.29688 67.083336L195.29688 60.864586L196.23438 60.864586L196.23438 61.739586Q196.53125 61.270836 197.01562 61.00521Q197.5 60.72396 198.125 60.72396Q198.8125 60.72396 199.25 61.00521Q199.70312 61.28646 199.875 61.802086Q200.625 60.72396 201.79688 60.72396Q202.73438 60.72396 203.21875 61.239586Q203.71875 61.739586 203.71875 62.81771L203.71875 67.083336L202.67188 67.083336L202.67188 63.16146Q202.67188 62.53646 202.5625 62.25521Q202.46875 61.97396 202.20312 61.802086Q201.9375 61.63021 201.5625 61.63021Q200.90625 61.63021 200.46875 62.06771Q200.04688 62.50521 200.04688 63.47396L200.04688 67.083336L198.98438 67.083336L198.98438 63.03646Q198.98438 62.333336 198.71875 61.989586Q198.46875 61.63021 197.89062 61.63021Q197.4375 61.63021 197.0625 61.864586Q196.6875 62.09896 196.51562 62.552086Q196.34375 63.00521 196.34375 63.84896L196.34375 67.083336L195.29688 67.083336ZM210.35938 66.31771Q209.76562 66.81771 209.21875 67.020836Q208.6875 67.22396 208.0625 67.22396Q207.03125 67.22396 206.48438 66.72396Q205.9375 66.22396 205.9375 65.44271Q205.9375 64.989586 206.14062 64.614586Q206.34375 64.22396 206.6875 64.00521Q207.03125 63.770836 207.45312 63.66146Q207.75 63.56771 208.39062 63.489586Q209.65625 63.34896 210.26562 63.13021Q210.26562 62.91146 210.26562 62.864586Q210.26562 62.208336 209.96875 61.94271Q209.5625 61.59896 208.76562 61.59896Q208.03125 61.59896 207.67188 61.864586Q207.3125 62.114586 207.14062 62.770836L206.10938 62.63021Q206.25 61.97396 206.57812 61.56771Q206.90625 61.16146 207.51562 60.94271Q208.125 60.72396 208.92188 60.72396Q209.71875 60.72396 210.21875 60.91146Q210.71875 61.09896 210.95312 61.38021Q211.1875 61.66146 211.28125 62.09896Q211.32812 62.364586 211.32812 63.06771L211.32812 64.47396Q211.32812 65.94271 211.39062 66.333336Q211.46875 66.72396 211.67188 67.083336L210.5625 67.083336Q210.40625 66.75521 210.35938 66.31771ZM210.26562 63.958336Q209.6875 64.19271 208.54688 64.364586Q207.89062 64.458336 207.625 64.583336Q207.35938 64.69271 207.20312 64.91146Q207.0625 65.13021 207.0625 65.41146Q207.0625 65.833336 207.375 66.114586Q207.70312 66.395836 208.3125 66.395836Q208.92188 66.395836 209.39062 66.13021Q209.875 65.864586 210.09375 65.395836Q210.26562 65.03646 210.26562 64.34896L210.26562 63.958336ZM212.59375 67.083336L214.85938 63.84896L212.76562 60.864586L214.07812 60.864586L215.03125 62.31771Q215.29688 62.739586 215.46875 63.020836Q215.71875 62.63021 215.9375 62.333336L216.98438 60.864586L218.25 60.864586L216.09375 63.78646L218.40625 67.083336L217.125 67.083336L215.84375 65.145836L215.5 64.63021L213.85938 67.083336L212.59375 67.083336ZM218.29688 59.708336L218.29688 58.489586L219.35938 58.489586L219.35938 59.708336L218.29688 59.708336ZM218.29688 67.083336L218.29688 60.864586L219.35938 60.864586L219.35938 67.083336L218.29688 67.083336ZM221.29688 67.083336L221.29688 60.864586L222.23438 60.864586L222.23438 61.739586Q222.53125 61.270836 223.01562 61.00521Q223.5 60.72396 224.125 60.72396Q224.8125 60.72396 225.25 61.00521Q225.70312 61.28646 225.875 61.802086Q226.625 60.72396 227.79688 60.72396Q228.73438 60.72396 229.21875 61.239586Q229.71875 61.739586 229.71875 62.81771L229.71875 67.083336L228.67188 67.083336L228.67188 63.16146Q228.67188 62.53646 228.5625 62.25521Q228.46875 61.97396 228.20312 61.802086Q227.9375 61.63021 227.5625 61.63021Q226.90625 61.63021 226.46875 62.06771Q226.04688 62.50521 226.04688 63.47396L226.04688 67.083336L224.98438 67.083336L224.98438 63.03646Q224.98438 62.333336 224.71875 61.989586Q224.46875 61.63021 223.89062 61.63021Q223.4375 61.63021 223.0625 61.864586Q222.6875 62.09896 222.51562 62.552086Q222.34375 63.00521 222.34375 63.84896L222.34375 67.083336L221.29688 67.083336ZM236.375 67.083336L236.375 66.16146Q235.64062 67.22396 234.39062 67.22396Q233.84375 67.22396 233.35938 67.020836Q232.89062 66.802086 232.65625 66.489586Q232.42188 66.16146 232.32812 65.69271Q232.26562 65.395836 232.26562 64.708336L232.26562 60.864586L233.32812 60.864586L233.32812 64.31771Q233.32812 65.13021 233.39062 65.427086Q233.48438 65.833336 233.79688 66.083336Q234.125 66.31771 234.60938 66.31771Q235.07812 66.31771 235.48438 66.083336Q235.90625 65.833336 236.07812 65.41146Q236.26562 64.989586 236.26562 64.19271L236.26562 60.864586L237.3125 60.864586L237.3125 67.083336L236.375 67.083336ZM239.29688 67.083336L239.29688 60.864586L240.23438 60.864586L240.23438 61.739586Q240.53125 61.270836 241.01562 61.00521Q241.5 60.72396 242.125 60.72396Q242.8125 60.72396 243.25 61.00521Q243.70312 61.28646 243.875 61.802086Q244.625 60.72396 245.79688 60.72396Q246.73438 60.72396 247.21875 61.239586Q247.71875 61.739586 247.71875 62.81771L247.71875 67.083336L246.67188 67.083336L246.67188 63.16146Q246.67188 62.53646 246.5625 62.25521Q246.46875 61.97396 246.20312 61.802086Q245.9375 61.63021 245.5625 61.63021Q244.90625 61.63021 244.46875 62.06771Q244.04688 62.50521 244.04688 63.47396L244.04688 67.083336L242.98438 67.083336L242.98438 63.03646Q242.98438 62.333336 242.71875 61.989586Q242.46875 61.63021 241.89062 61.63021Q241.4375 61.63021 241.0625 61.864586Q240.6875 62.09896 240.51562 62.552086Q240.34375 63.00521 240.34375 63.84896L240.34375 67.083336L239.29688 67.083336Z" fill-rule="nonzero"/><path fill="#fbbc04" d="M265.5 58.083332C265.5 57.531048 265.94772 57.083332 266.5 57.083332L276.5 57.083332C277.05228 57.083332 277.5 57.531048 277.5 58.083332L277.5 68.083336C277.5 68.63562 277.05228 69.083336 276.5 69.083336L266.5 69.083336C265.94772 69.083336 265.5 68.63562 265.5 68.083336Z" fill-rule="nonzero"/><path fill="#1a1a1a" d="M286.29688 67.083336L286.29688 60.864586L287.23438 60.864586L287.23438 61.739586Q287.53125 61.270836 288.01562 61.00521Q288.5 60.72396 289.125 60.72396Q289.8125 60.72396 290.25 61.00521Q290.70312 61.28646 290.875 61.802086Q291.625 60.72396 292.79688 60.72396Q293.73438 60.72396 294.21875 61.239586Q294.71875 61.739586 294.71875 62.81771L294.71875 67.083336L293.67188 67.083336L293.67188 63.16146Q293.67188 62.53646 293.5625 62.25521Q293.46875 61.97396 293.20312 61.802086Q292.9375 61.63021 292.5625 61.63021Q291.90625 61.63021 291.46875 62.06771Q291.04688 62.50521 291.04688 63.47396L291.04688 67.083336L289.98438 67.083336L289.98438 63.03646Q289.98438 62.333336 289.71875 61.989586Q289.46875 61.63021 288.89062 61.63021Q288.4375 61.63021 288.0625 61.864586Q287.6875 62.09896 287.51562 62.552086Q287.34375 63.00521 287.34375 63.84896L287.34375 67.083336L286.29688 67.083336ZM301.54688 65.083336L302.64062 65.208336Q302.39062 66.16146 301.6875 66.69271Q300.98438 67.22396 299.90625 67.22396Q298.54688 67.22396 297.73438 66.38021Q296.9375 65.53646 296.9375 64.020836Q296.9375 62.458336 297.75 61.59896Q298.5625 60.72396 299.84375 60.72396Q301.09375 60.72396 301.875 61.56771Q302.67188 62.41146 302.67188 63.958336Q302.67188 64.052086 302.67188 64.239586L298.03125 64.239586Q298.09375 65.270836 298.60938 65.81771Q299.125 66.34896 299.90625 66.34896Q300.48438 66.34896 300.89062 66.052086Q301.3125 65.739586 301.54688 65.083336ZM298.09375 63.38021L301.5625 63.38021Q301.5 62.583336 301.17188 62.19271Q300.65625 61.583336 299.85938 61.583336Q299.125 61.583336 298.625 62.06771Q298.14062 62.552086 298.09375 63.38021ZM308.35938 66.31771Q307.76562 66.81771 307.21875 67.020836Q306.6875 67.22396 306.0625 67.22396Q305.03125 67.22396 304.48438 66.72396Q303.9375 66.22396 303.9375 65.44271Q303.9375 64.989586 304.14062 64.614586Q304.34375 64.22396 304.6875 64.00521Q305.03125 63.770836 305.45312 63.66146Q305.75 63.56771 306.39062 63.489586Q307.65625 63.34896 308.26562 63.13021Q308.26562 62.91146 308.26562 62.864586Q308.26562 62.208336 307.96875 61.94271Q307.5625 61.59896 306.76562 61.59896Q306.03125 61.59896 305.67188 61.864586Q305.3125 62.114586 305.14062 62.770836L304.10938 62.63021Q304.25 61.97396 304.57812 61.56771Q304.90625 61.16146 305.51562 60.94271Q306.125 60.72396 306.92188 60.72396Q307.71875 60.72396 308.21875 60.91146Q308.71875 61.09896 308.95312 61.38021Q309.1875 61.66146 309.28125 62.09896Q309.32812 62.364586 309.32812 63.06771L309.32812 64.47396Q309.32812 65.94271 309.39062 66.333336Q309.46875 66.72396 309.67188 67.083336L308.5625 67.083336Q308.40625 66.75521 308.35938 66.31771ZM308.26562 63.958336Q307.6875 64.19271 306.54688 64.364586Q305.89062 64.458336 305.625 64.583336Q305.35938 64.69271 305.20312 64.91146Q305.0625 65.13021 305.0625 65.41146Q305.0625 65.833336 305.375 66.114586Q305.70312 66.395836 306.3125 66.395836Q306.92188 66.395836 307.39062 66.13021Q307.875 65.864586 308.09375 65.395836Q308.26562 65.03646 308.26562 64.34896L308.26562 63.958336ZM311.29688 67.083336L311.29688 60.864586L312.23438 60.864586L312.23438 61.739586Q312.92188 60.72396 314.21875 60.72396Q314.78125 60.72396 315.25 60.927086Q315.73438 61.13021 315.96875 61.458336Q316.20312 61.78646 316.29688 62.22396Q316.34375 62.520836 316.34375 63.25521L316.34375 67.083336L315.29688 67.083336L315.29688 63.302086Q315.29688 62.645836 315.17188 62.333336Q315.04688 62.020836 314.73438 61.833336Q314.42188 61.63021 314.0 61.63021Q313.32812 61.63021 312.82812 62.06771Q312.34375 62.489586 312.34375 63.677086L312.34375 67.083336L311.29688 67.083336Z" fill-rule="nonzero"/><path fill="#34a853" d="M333.5 58.083332C333.5 57.531048 333.94772 57.083332 334.5 57.083332L344.5 57.083332C345.05228 57.083332 345.5 57.531048 345.5 58.083332L345.5 68.083336C345.5 68.63562 345.05228 69.083336 344.5 69.083336L334.5 69.083336C333.94772 69.083336 333.5 68.63562 333.5 68.083336Z" fill-rule="nonzero"/><path fill="#1a1a1a" d="M354.09375 67.59896L355.125 67.75521Q355.1875 68.22396 355.48438 68.44271Q355.875 68.739586 356.54688 68.739586Q357.28125 68.739586 357.67188 68.44271Q358.07812 68.145836 358.21875 67.63021Q358.3125 67.302086 358.29688 66.270836Q357.60938 67.083336 356.57812 67.083336Q355.29688 67.083336 354.59375 66.16146Q353.89062 65.22396 353.89062 63.94271Q353.89062 63.052086 354.20312 62.302086Q354.53125 61.53646 355.14062 61.13021Q355.75 60.72396 356.57812 60.72396Q357.6875 60.72396 358.40625 61.614586L358.40625 60.864586L359.375 60.864586L359.375 66.239586Q359.375 67.69271 359.07812 68.302086Q358.78125 68.91146 358.14062 69.25521Q357.5 69.614586 356.5625 69.614586Q355.45312 69.614586 354.76562 69.114586Q354.07812 68.614586 354.09375 67.59896ZM354.96875 63.864586Q354.96875 65.083336 355.45312 65.645836Q355.9375 66.208336 356.67188 66.208336Q357.40625 66.208336 357.89062 65.645836Q358.39062 65.083336 358.39062 63.895836Q358.39062 62.75521 357.875 62.177086Q357.375 61.59896 356.65625 61.59896Q355.95312 61.59896 355.45312 62.177086Q354.96875 62.739586 354.96875 63.864586ZM365.54688 65.083336L366.64062 65.208336Q366.39062 66.16146 365.6875 66.69271Q364.98438 67.22396 363.90625 67.22396Q362.54688 67.22396 361.73438 66.38021Q360.9375 65.53646 360.9375 64.020836Q360.9375 62.458336 361.75 61.59896Q362.5625 60.72396 363.84375 60.72396Q365.09375 60.72396 365.875 61.56771Q366.67188 62.41146 366.67188 63.958336Q366.67188 64.052086 366.67188 64.239586L362.03125 64.239586Q362.09375 65.270836 362.60938 65.81771Q363.125 66.34896 363.90625 66.34896Q364.48438 66.34896 364.89062 66.052086Q365.3125 65.739586 365.54688 65.083336ZM362.09375 63.38021L365.5625 63.38021Q365.5 62.583336 365.17188 62.19271Q364.65625 61.583336 363.85938 61.583336Q363.125 61.583336 362.625 62.06771Q362.14062 62.552086 362.09375 63.38021ZM367.90625 63.97396Q367.90625 62.239586 368.85938 61.41146Q369.65625 60.72396 370.8125 60.72396Q372.09375 60.72396 372.90625 61.56771Q373.73438 62.395836 373.73438 63.88021Q373.73438 65.083336 373.375 65.770836Q373.01562 66.458336 372.3125 66.84896Q371.625 67.22396 370.8125 67.22396Q369.51562 67.22396 368.70312 66.395836Q367.90625 65.552086 367.90625 63.97396ZM368.98438 63.97396Q368.98438 65.16146 369.5 65.75521Q370.03125 66.34896 370.8125 66.34896Q371.60938 66.34896 372.125 65.75521Q372.64062 65.16146 372.64062 63.94271Q372.64062 62.78646 372.10938 62.19271Q371.59375 61.59896 370.8125 61.59896Q370.03125 61.59896 369.5 62.19271Q368.98438 62.770836 368.98438 63.97396ZM378.29688 67.083336L378.29688 60.864586L379.23438 60.864586L379.23438 61.739586Q379.53125 61.270836 380.01562 61.00521Q380.5 60.72396 381.125 60.72396Q381.8125 60.72396 382.25 61.00521Q382.70312 61.28646 382.875 61.802086Q383.625 60.72396 384.79688 60.72396Q385.73438 60.72396 386.21875 61.239586Q386.71875 61.739586 386.71875 62.81771L386.71875 67.083336L385.67188 67.083336L385.67188 63.16146Q385.67188 62.53646 385.5625 62.25521Q385.46875 61.97396 385.20312 61.802086Q384.9375 61.63021 384.5625 61.63021Q383.90625 61.63021 383.46875 62.06771Q383.04688 62.50521 383.04688 63.47396L383.04688 67.083336L381.98438 67.083336L381.98438 63.03646Q381.98438 62.333336 381.71875 61.989586Q381.46875 61.63021 380.89062 61.63021Q380.4375 61.63021 380.0625 61.864586Q379.6875 62.09896 379.51562 62.552086Q379.34375 63.00521 379.34375 63.84896L379.34375 67.083336L378.29688 67.083336ZM393.54688 65.083336L394.64062 65.208336Q394.39062 66.16146 393.6875 66.69271Q392.98438 67.22396 391.90625 67.22396Q390.54688 67.22396 389.73438 66.38021Q388.9375 65.53646 388.9375 64.020836Q388.9375 62.458336 389.75 61.59896Q390.5625 60.72396 391.84375 60.72396Q393.09375 60.72396 393.875 61.56771Q394.67188 62.41146 394.67188 63.958336Q394.67188 64.052086 394.67188 64.239586L390.03125 64.239586Q390.09375 65.270836 390.60938 65.81771Q391.125 66.34896 391.90625 66.34896Q392.48438 66.34896 392.89062 66.052086Q393.3125 65.739586 393.54688 65.083336ZM390.09375 63.38021L393.5625 63.38021Q393.5 62.583336 393.17188 62.19271Q392.65625 61.583336 391.85938 61.583336Q391.125 61.583336 390.625 62.06771Q390.14062 62.552086 390.09375 63.38021ZM400.35938 66.31771Q399.76562 66.81771 399.21875 67.020836Q398.6875 67.22396 398.0625 67.22396Q397.03125 67.22396 396.48438 66.72396Q395.9375 66.22396 395.9375 65.44271Q395.9375 64.989586 396.14062 64.614586Q396.34375 64.22396 396.6875 64.00521Q397.03125 63.770836 397.45312 63.66146Q397.75 63.56771 398.39062 63.489586Q399.65625 63.34896 400.26562 63.13021Q400.26562 62.91146 400.26562 62.864586Q400.26562 62.208336 399.96875 61.94271Q399.5625 61.59896 398.76562 61.59896Q398.03125 61.59896 397.67188 61.864586Q397.3125 62.114586 397.14062 62.770836L396.10938 62.63021Q396.25 61.97396 396.57812 61.56771Q396.90625 61.16146 397.51562 60.94271Q398.125 60.72396 398.92188 60.72396Q399.71875 60.72396 400.21875 60.91146Q400.71875 61.09896 400.95312 61.38021Q401.1875 61.66146 401.28125 62.09896Q401.32812 62.364586 401.32812 63.06771L401.32812 64.47396Q401.32812 65.94271 401.39062 66.333336Q401.46875 66.72396 401.67188 67.083336L400.5625 67.083336Q400.40625 66.75521 400.35938 66.31771ZM400.26562 63.958336Q399.6875 64.19271 398.54688 64.364586Q397.89062 64.458336 397.625 64.583336Q397.35938 64.69271 397.20312 64.91146Q397.0625 65.13021 397.0625 65.41146Q397.0625 65.833336 397.375 66.114586Q397.70312 66.395836 398.3125 66.395836Q398.92188 66.395836 399.39062 66.13021Q399.875 65.864586 400.09375 65.395836Q400.26562 65.03646 400.26562 64.34896L400.26562 63.958336ZM403.29688 67.083336L403.29688 60.864586L404.23438 60.864586L404.23438 61.739586Q404.92188 60.72396 406.21875 60.72396Q406.78125 60.72396 407.25 60.927086Q407.73438 61.13021 407.96875 61.458336Q408.20312 61.78646 408.29688 62.22396Q408.34375 62.520836 408.34375 63.25521L408.34375 67.083336L407.29688 67.083336L407.29688 63.302086Q407.29688 62.645836 407.17188 62.333336Q407.04688 62.020836 406.73438 61.833336Q406.42188 61.63021 406.0 61.63021Q405.32812 61.63021 404.82812 62.06771Q404.34375 62.489586 404.34375 63.677086L404.34375 67.083336L403.29688 67.083336Z" fill-rule="nonzero"/><path fill="#ff6d01" d="M425.5 58.083332C425.5 57.531048 425.94772 57.083332 426.5 57.083332L436.5 57.083332C437.05228 57.083332 437.5 57.531048 437.5 58.083332L437.5 68.083336C437.5 68.63562 437.05228 69.083336 436.5 69.083336L426.5 69.083336C425.94772 69.083336 425.5 68.63562 425.5 68.083336Z" fill-rule="nonzero"/><path fill="#1a1a1a" d="M445.875 65.22396L446.90625 65.06771Q447.0 65.69271 447.39062 66.020836Q447.79688 66.34896 448.53125 66.34896Q449.25 66.34896 449.59375 66.06771Q449.95312 65.770836 449.95312 65.364586Q449.95312 65.00521 449.64062 64.802086Q449.42188 64.66146 448.5625 64.44271Q447.40625 64.145836 446.95312 63.94271Q446.51562 63.72396 446.28125 63.34896Q446.04688 62.97396 446.04688 62.50521Q446.04688 62.09896 446.23438 61.739586Q446.42188 61.38021 446.75 61.145836Q447.0 60.97396 447.42188 60.84896Q447.84375 60.72396 448.34375 60.72396Q449.0625 60.72396 449.60938 60.94271Q450.17188 61.145836 450.4375 61.50521Q450.70312 61.864586 450.79688 62.458336L449.76562 62.59896Q449.70312 62.13021 449.35938 61.864586Q449.03125 61.583336 448.40625 61.583336Q447.6875 61.583336 447.375 61.833336Q447.0625 62.06771 447.0625 62.395836Q447.0625 62.59896 447.1875 62.75521Q447.32812 62.927086 447.59375 63.03646Q447.75 63.09896 448.53125 63.302086Q449.65625 63.614586 450.09375 63.802086Q450.53125 63.989586 450.78125 64.34896Q451.03125 64.708336 451.03125 65.25521Q451.03125 65.78646 450.71875 66.25521Q450.42188 66.708336 449.84375 66.97396Q449.26562 67.22396 448.53125 67.22396Q447.3125 67.22396 446.67188 66.72396Q446.04688 66.208336 445.875 65.22396ZM455.59375 66.145836L455.75 67.06771Q455.29688 67.16146 454.95312 67.16146Q454.375 67.16146 454.0625 66.989586Q453.75 66.802086 453.60938 66.50521Q453.48438 66.208336 453.48438 65.25521L453.48438 61.677086L452.71875 61.677086L452.71875 60.864586L453.48438 60.864586L453.48438 59.31771L454.53125 58.69271L454.53125 60.864586L455.59375 60.864586L455.59375 61.677086L454.53125 61.677086L454.53125 65.31771Q454.53125 65.770836 454.57812 65.895836Q454.64062 66.020836 454.76562 66.09896Q454.89062 66.177086 455.125 66.177086Q455.3125 66.177086 455.59375 66.145836ZM460.32812 67.083336L460.32812 66.302086Q459.73438 67.22396 458.59375 67.22396Q457.84375 67.22396 457.21875 66.81771Q456.59375 66.395836 456.25 65.66146Q455.90625 64.927086 455.90625 63.97396Q455.90625 63.052086 456.21875 62.28646Q456.53125 61.520836 457.15625 61.13021Q457.78125 60.72396 458.54688 60.72396Q459.10938 60.72396 459.54688 60.958336Q459.98438 61.19271 460.26562 61.56771L460.26562 58.489586L461.3125 58.489586L461.3125 67.083336L460.32812 67.083336ZM457.0 63.97396Q457.0 65.177086 457.5 65.770836Q458.0 66.34896 458.6875 66.34896Q459.375 66.34896 459.85938 65.78646Q460.34375 65.22396 460.34375 64.06771Q460.34375 62.78646 459.84375 62.19271Q459.35938 61.59896 458.64062 61.59896Q457.9375 61.59896 457.46875 62.177086Q457.0 62.739586 457.0 63.97396ZM470.32812 67.083336L470.32812 66.302086Q469.73438 67.22396 468.59375 67.22396Q467.84375 67.22396 467.21875 66.81771Q466.59375 66.395836 466.25 65.66146Q465.90625 64.927086 465.90625 63.97396Q465.90625 63.052086 466.21875 62.28646Q466.53125 61.520836 467.15625 61.13021Q467.78125 60.72396 468.54688 60.72396Q469.10938 60.72396 469.54688 60.958336Q469.98438 61.19271 470.26562 61.56771L470.26562 58.489586L471.3125 58.489586L471.3125 67.083336L470.32812 67.083336ZM467.0 63.97396Q467.0 65.177086 467.5 65.770836Q468.0 66.34896 468.6875 66.34896Q469.375 66.34896 469.85938 65.78646Q470.34375 65.22396 470.34375 64.06771Q470.34375 62.78646 469.84375 62.19271Q469.35938 61.59896 468.64062 61.59896Q467.9375 61.59896 467.46875 62.177086Q467.0 62.739586 467.0 63.97396ZM477.54688 65.083336L478.64062 65.208336Q478.39062 66.16146 477.6875 66.69271Q476.98438 67.22396 475.90625 67.22396Q474.54688 67.22396 473.73438 66.38021Q472.9375 65.53646 472.9375 64.020836Q472.9375 62.458336 473.75 61.59896Q474.5625 60.72396 475.84375 60.72396Q477.09375 60.72396 477.875 61.56771Q478.67188 62.41146 478.67188 63.958336Q478.67188 64.052086 478.67188 64.239586L474.03125 64.239586Q474.09375 65.270836 474.60938 65.81771Q475.125 66.34896 475.90625 66.34896Q476.48438 66.34896 476.89062 66.052086Q477.3125 65.739586 477.54688 65.083336ZM474.09375 63.38021L477.5625 63.38021Q477.5 62.583336 477.17188 62.19271Q476.65625 61.583336 475.85938 61.583336Q475.125 61.583336 474.625 62.06771Q474.14062 62.552086 474.09375 63.38021ZM482.01562 67.083336L479.65625 60.864586L480.76562 60.864586L482.10938 64.583336Q482.3125 65.19271 482.5 65.833336Q482.64062 65.34896 482.89062 64.66146L484.28125 60.864586L485.35938 60.864586L483.0 67.083336L482.01562 67.083336ZM485.29688 59.708336L485.29688 58.489586L486.35938 58.489586L486.35938 59.708336L485.29688 59.708336ZM485.29688 67.083336L485.29688 60.864586L486.35938 60.864586L486.35938 67.083336L485.29688 67.083336ZM492.35938 66.31771Q491.76562 66.81771 491.21875 67.020836Q490.6875 67.22396 490.0625 67.22396Q489.03125 67.22396 488.48438 66.72396Q487.9375 66.22396 487.9375 65.44271Q487.9375 64.989586 488.14062 64.614586Q488.34375 64.22396 488.6875 64.00521Q489.03125 63.770836 489.45312 63.66146Q489.75 63.56771 490.39062 63.489586Q491.65625 63.34896 492.26562 63.13021Q492.26562 62.91146 492.26562 62.864586Q492.26562 62.208336 491.96875 61.94271Q491.5625 61.59896 490.76562 61.59896Q490.03125 61.59896 489.67188 61.864586Q489.3125 62.114586 489.14062 62.770836L488.10938 62.63021Q488.25 61.97396 488.57812 61.56771Q488.90625 61.16146 489.51562 60.94271Q490.125 60.72396 490.92188 60.72396Q491.71875 60.72396 492.21875 60.91146Q492.71875 61.09896 492.95312 61.38021Q493.1875 61.66146 493.28125 62.09896Q493.32812 62.364586 493.32812 63.06771L493.32812 64.47396Q493.32812 65.94271 493.39062 66.333336Q493.46875 66.72396 493.67188 67.083336L492.5625 67.083336Q492.40625 66.75521 492.35938 66.31771ZM492.26562 63.958336Q491.6875 64.19271 490.54688 64.364586Q489.89062 64.458336 489.625 64.583336Q489.35938 64.69271 489.20312 64.91146Q489.0625 65.13021 489.0625 65.41146Q489.0625 65.833336 489.375 66.114586Q489.70312 66.395836 490.3125 66.395836Q490.92188 66.395836 491.39062 66.13021Q491.875 65.864586 492.09375 65.395836Q492.26562 65.03646 492.26562 64.34896L492.26562 63.958336ZM497.59375 66.145836L497.75 67.06771Q497.29688 67.16146 496.95312 67.16146Q496.375 67.16146 496.0625 66.989586Q495.75 66.802086 495.60938 66.50521Q495.48438 66.208336 495.48438 65.25521L495.48438 61.677086L494.71875 61.677086L494.71875 60.864586L495.48438 60.864586L495.48438 59.31771L496.53125 58.69271L496.53125 60.864586L497.59375 60.864586L497.59375 61.677086L496.53125 61.677086L496.53125 65.31771Q496.53125 65.770836 496.57812 65.895836Q496.64062 66.020836 496.76562 66.09896Q496.89062 66.177086 497.125 66.177086Q497.3125 66.177086 497.59375 66.145836ZM498.29688 59.708336L498.29688 58.489586L499.35938 58.489586L499.35938 59.708336L498.29688 59.708336ZM498.29688 67.083336L498.29688 60.864586L499.35938 60.864586L499.35938 67.083336L498.29688 67.083336ZM500.90625 63.97396Q500.90625 62.239586 501.85938 61.41146Q502.65625 60.72396 503.8125 60.72396Q505.09375 60.72396 505.90625 61.56771Q506.73438 62.395836 506.73438 63.88021Q506.73438 65.083336 506.375 65.770836Q506.01562 66.458336 505.3125 66.84896Q504.625 67.22396 503.8125 67.22396Q502.51562 67.22396 501.70312 66.395836Q500.90625 65.552086 500.90625 63.97396ZM501.98438 63.97396Q501.98438 65.16146 502.5 65.75521Q503.03125 66.34896 503.8125 66.34896Q504.60938 66.34896 505.125 65.75521Q505.64062 65.16146 505.64062 63.94271Q505.64062 62.78646 505.10938 62.19271Q504.59375 61.59896 503.8125 61.59896Q503.03125 61.59896 502.5 62.19271Q501.98438 62.770836 501.98438 63.97396ZM508.29688 67.083336L508.29688 60.864586L509.23438 60.864586L509.23438 61.739586Q509.92188 60.72396 511.21875 60.72396Q511.78125 60.72396 512.25 60.927086Q512.7344 61.13021 512.96875 61.458336Q513.2031 61.78646 513.2969 62.22396Q513.34375 62.520836 513.34375 63.25521L513.34375 67.083336L512.2969 67.083336L512.2969 63.302086Q512.2969 62.645836 512.1719 62.333336Q512.0469 62.020836 511.73438 61.833336Q511.42188 61.63021 511.0 61.63021Q510.32812 61.63021 509.82812 62.06771Q509.34375 62.489586 509.34375 63.677086L509.34375 67.083336L508.29688 67.083336Z" fill-rule="nonzero"/><path fill="#757575" d="M24.4375 38.25L24.4375 25.625L19.71875 25.625L19.71875 23.9375L31.0625 23.9375L31.0625 25.625L26.328125 25.625L26.328125 38.25L24.4375 38.25ZM39.671875 34.90625L41.484375 35.140625Q41.0625 36.71875 39.890625 37.609375Q38.734375 38.484375 36.921875 38.484375Q34.65625 38.484375 33.3125 37.09375Q31.984375 35.6875 31.984375 33.15625Q31.984375 30.53125 33.328125 29.09375Q34.671875 27.640625 36.828125 27.640625Q38.90625 27.640625 40.21875 29.0625Q41.546875 30.46875 41.546875 33.046875Q41.546875 33.203125 41.53125 33.515625L33.796875 33.515625Q33.890625 35.21875 34.765625 36.125Q35.640625 37.03125 36.9375 37.03125Q37.90625 37.03125 38.578125 36.53125Q39.265625 36.015625 39.671875 34.90625ZM33.890625 32.0625L39.6875 32.0625Q39.578125 30.765625 39.03125 30.109375Q38.1875 29.09375 36.84375 29.09375Q35.640625 29.09375 34.8125 29.90625Q33.984375 30.703125 33.890625 32.0625ZM42.859375 35.15625L44.609375 34.875Q44.75 35.921875 45.421875 36.484375Q46.09375 37.03125 47.296875 37.03125Q48.5 37.03125 49.078125 36.546875Q49.671875 36.046875 49.671875 35.390625Q49.671875 34.796875 49.15625 34.453125Q48.796875 34.21875 47.359375 33.859375Q45.421875 33.359375 44.671875 33.015625Q43.9375 32.65625 43.546875 32.03125Q43.15625 31.390625 43.15625 30.625Q43.15625 29.9375 43.46875 29.34375Q43.796875 28.75 44.34375 28.359375Q44.75 28.0625 45.453125 27.859375Q46.171875 27.640625 46.984375 27.640625Q48.203125 27.640625 49.125 28.0Q50.046875 28.34375 50.484375 28.953125Q50.921875 29.546875 51.09375 30.546875L49.375 30.78125Q49.25 29.984375 48.6875 29.546875Q48.125 29.09375 47.109375 29.09375Q45.890625 29.09375 45.375 29.5Q44.859375 29.890625 44.859375 30.421875Q44.859375 30.765625 45.078125 31.046875Q45.28125 31.328125 45.75 31.515625Q46.015625 31.609375 47.296875 31.953125Q49.171875 32.453125 49.90625 32.78125Q50.640625 33.09375 51.0625 33.703125Q51.484375 34.296875 51.484375 35.203125Q51.484375 36.078125 50.96875 36.859375Q50.453125 37.640625 49.484375 38.0625Q48.515625 38.484375 47.296875 38.484375Q45.28125 38.484375 44.21875 37.640625Q43.15625 36.796875 42.859375 35.15625ZM57.40625 36.671875L57.65625 38.234375Q56.921875 38.390625 56.328125 38.390625Q55.375 38.390625 54.84375 38.09375Q54.328125 37.78125 54.109375 37.296875Q53.890625 36.796875 53.890625 35.21875L53.890625 29.25L52.609375 29.25L52.609375 27.875L53.890625 27.875L53.890625 25.3125L55.640625 24.25L55.640625 27.875L57.40625 27.875L57.40625 29.25L55.640625 29.25L55.640625 35.3125Q55.640625 36.0625 55.734375 36.28125Q55.828125 36.484375 56.03125 36.625Q56.25 36.75 56.640625 36.75Q56.921875 36.75 57.40625 36.671875ZM68.453125 38.25L64.5 27.875L66.359375 27.875L68.59375 34.09375Q68.953125 35.09375 69.25 36.171875Q69.484375 35.359375 69.90625 34.203125L72.203125 27.875L74.015625 27.875L70.09375 38.25L68.453125 38.25ZM73.859375 35.15625L75.609375 34.875Q75.75 35.921875 76.421875 36.484375Q77.09375 37.03125 78.296875 37.03125Q79.5 37.03125 80.078125 36.546875Q80.671875 36.046875 80.671875 35.390625Q80.671875 34.796875 80.15625 34.453125Q79.796875 34.21875 78.359375 33.859375Q76.421875 33.359375 75.671875 33.015625Q74.9375 32.65625 74.546875 32.03125Q74.15625 31.390625 74.15625 30.625Q74.15625 29.9375 74.46875 29.34375Q74.796875 28.75 75.34375 28.359375Q75.75 28.0625 76.453125 27.859375Q77.171875 27.640625 77.984375 27.640625Q79.203125 27.640625 80.125 28.0Q81.046875 28.34375 81.484375 28.953125Q81.921875 29.546875 82.09375 30.546875L80.375 30.78125Q80.25 29.984375 79.6875 29.546875Q79.125 29.09375 78.109375 29.09375Q76.890625 29.09375 76.375 29.5Q75.859375 29.890625 75.859375 30.421875Q75.859375 30.765625 76.078125 31.046875Q76.28125 31.328125 76.75 31.515625Q77.015625 31.609375 78.296875 31.953125Q80.171875 32.453125 80.90625 32.78125Q81.640625 33.09375 82.0625 33.703125Q82.484375 34.296875 82.484375 35.203125Q82.484375 36.078125 81.96875 36.859375Q81.453125 37.640625 80.484375 38.0625Q79.515625 38.484375 78.296875 38.484375Q76.28125 38.484375 75.21875 37.640625Q74.15625 36.796875 73.859375 35.15625ZM90.71875 38.25L90.71875 23.9375L96.09375 23.9375Q97.734375 23.9375 98.71875 24.375Q99.703125 24.796875 100.265625 25.703125Q100.828125 26.609375 100.828125 27.59375Q100.828125 28.515625 100.328125 29.328125Q99.84375 30.140625 98.828125 30.625Q100.125 31.015625 100.828125 31.9375Q101.53125 32.84375 101.53125 34.09375Q101.53125 35.109375 101.09375 35.96875Q100.671875 36.828125 100.046875 37.296875Q99.421875 37.765625 98.484375 38.015625Q97.546875 38.25 96.171875 38.25L90.71875 38.25ZM92.609375 29.953125L95.703125 29.953125Q96.96875 29.953125 97.515625 29.78125Q98.234375 29.5625 98.59375 29.078125Q98.96875 28.578125 98.96875 27.8125Q98.96875 27.109375 98.625 26.5625Q98.28125 26.015625 97.640625 25.828125Q97.015625 25.625 95.46875 25.625L92.609375 25.625L92.609375 29.953125ZM92.609375 36.5625L96.171875 36.5625Q97.09375 36.5625 97.46875 36.484375Q98.125 36.375 98.5625 36.109375Q99.0 35.828125 99.28125 35.3125Q99.5625 34.78125 99.5625 34.09375Q99.5625 33.296875 99.15625 32.703125Q98.75 32.109375 98.015625 31.875Q97.28125 31.640625 95.921875 31.640625L92.609375 31.640625L92.609375 36.5625ZM110.34375 36.96875Q109.359375 37.796875 108.453125 38.140625Q107.546875 38.484375 106.515625 38.484375Q104.8125 38.484375 103.890625 37.65625Q102.96875 36.8125 102.96875 35.515625Q102.96875 34.75 103.3125 34.125Q103.671875 33.5 104.234375 33.125Q104.796875 32.734375 105.5 32.53125Q106.015625 32.40625 107.0625 32.265625Q109.1875 32.015625 110.1875 31.671875Q110.203125 31.3125 110.203125 31.203125Q110.203125 30.140625 109.703125 29.6875Q109.03125 29.09375 107.703125 29.09375Q106.453125 29.09375 105.859375 29.53125Q105.28125 29.96875 105.0 31.078125L103.28125 30.84375Q103.515625 29.734375 104.046875 29.0625Q104.578125 28.375 105.59375 28.015625Q106.609375 27.640625 107.953125 27.640625Q109.28125 27.640625 110.109375 27.953125Q110.9375 28.265625 111.328125 28.75Q111.71875 29.21875 111.875 29.9375Q111.96875 30.390625 111.96875 31.5625L111.96875 33.90625Q111.96875 36.359375 112.078125 37.015625Q112.1875 37.65625 112.53125 38.25L110.6875 38.25Q110.421875 37.703125 110.34375 36.96875ZM110.1875 33.046875Q109.234375 33.4375 107.3125 33.703125Q106.234375 33.859375 105.78125 34.0625Q105.34375 34.25 105.09375 34.625Q104.84375 35.0 104.84375 35.46875Q104.84375 36.171875 105.375 36.640625Q105.90625 37.109375 106.9375 37.109375Q107.953125 37.109375 108.734375 36.671875Q109.53125 36.21875 109.90625 35.453125Q110.1875 34.84375 110.1875 33.6875L110.1875 33.046875ZM113.859375 35.15625L115.609375 34.875Q115.75 35.921875 116.421875 36.484375Q117.09375 37.03125 118.296875 37.03125Q119.5 37.03125 120.078125 36.546875Q120.671875 36.046875 120.671875 35.390625Q120.671875 34.796875 120.15625 34.453125Q119.796875 34.21875 118.359375 33.859375Q116.421875 33.359375 115.671875 33.015625Q114.9375 32.65625 114.546875 32.03125Q114.15625 31.390625 114.15625 30.625Q114.15625 29.9375 114.46875 29.34375Q114.796875 28.75 115.34375 28.359375Q115.75 28.0625 116.453125 27.859375Q117.171875 27.640625 117.984375 27.640625Q119.203125 27.640625 120.125 28.0Q121.046875 28.34375 121.484375 28.953125Q121.921875 29.546875 122.09375 30.546875L120.375 30.78125Q120.25 29.984375 119.6875 29.546875Q119.125 29.09375 118.109375 29.09375Q116.890625 29.09375 116.375 29.5Q115.859375 29.890625 115.859375 30.421875Q115.859375 30.765625 116.078125 31.046875Q116.28125 31.328125 116.75 31.515625Q117.015625 31.609375 118.296875 31.953125Q120.171875 32.453125 120.90625 32.78125Q121.640625 33.09375 122.0625 33.703125Q122.484375 34.296875 122.484375 35.203125Q122.484375 36.078125 121.96875 36.859375Q121.453125 37.640625 120.484375 38.0625Q119.515625 38.484375 118.296875 38.484375Q116.28125 38.484375 115.21875 37.640625Q114.15625 36.796875 113.859375 35.15625ZM131.67188 34.90625L133.48438 35.140625Q133.0625 36.71875 131.89062 37.609375Q130.73438 38.484375 128.92188 38.484375Q126.65625 38.484375 125.3125 37.09375Q123.984375 35.6875 123.984375 33.15625Q123.984375 30.53125 125.328125 29.09375Q126.671875 27.640625 128.82812 27.640625Q130.90625 27.640625 132.21875 29.0625Q133.54688 30.46875 133.54688 33.046875Q133.54688 33.203125 133.53125 33.515625L125.796875 33.515625Q125.890625 35.21875 126.765625 36.125Q127.640625 37.03125 128.9375 37.03125Q129.90625 37.03125 130.57812 36.53125Q131.26562 36.015625 131.67188 34.90625ZM125.890625 32.0625L131.6875 32.0625Q131.57812 30.765625 131.03125 30.109375Q130.1875 29.09375 128.84375 29.09375Q127.640625 29.09375 126.8125 29.90625Q125.984375 30.703125 125.890625 32.0625ZM135.53125 38.25L135.53125 23.9375L137.28125 23.9375L137.28125 38.25L135.53125 38.25ZM139.57812 25.953125L139.57812 23.9375L141.34375 23.9375L141.34375 25.953125L139.57812 25.953125ZM139.57812 38.25L139.57812 27.875L141.34375 27.875L141.34375 38.25L139.57812 38.25ZM143.5625 38.25L143.5625 27.875L145.15625 27.875L145.15625 29.359375Q146.29688 27.640625 148.45312 27.640625Q149.39062 27.640625 150.17188 27.984375Q150.96875 28.3125 151.35938 28.859375Q151.75 29.40625 151.90625 30.15625Q152.0 30.65625 152.0 31.875L152.0 38.25L150.23438 38.25L150.23438 31.9375Q150.23438 30.859375 150.03125 30.328125Q149.82812 29.796875 149.29688 29.484375Q148.78125 29.171875 148.07812 29.171875Q146.95312 29.171875 146.14062 29.890625Q145.32812 30.59375 145.32812 32.578125L145.32812 38.25L143.5625 38.25ZM160.67188 34.90625L162.48438 35.140625Q162.0625 36.71875 160.89062 37.609375Q159.73438 38.484375 157.92188 38.484375Q155.65625 38.484375 154.3125 37.09375Q152.98438 35.6875 152.98438 33.15625Q152.98438 30.53125 154.32812 29.09375Q155.67188 27.640625 157.82812 27.640625Q159.90625 27.640625 161.21875 29.0625Q162.54688 30.46875 162.54688 33.046875Q162.54688 33.203125 162.53125 33.515625L154.79688 33.515625Q154.89062 35.21875 155.76562 36.125Q156.64062 37.03125 157.9375 37.03125Q158.90625 37.03125 159.57812 36.53125Q160.26562 36.015625 160.67188 34.90625ZM154.89062 32.0625L160.6875 32.0625Q160.57812 30.765625 160.03125 30.109375Q159.1875 29.09375 157.84375 29.09375Q156.64062 29.09375 155.8125 29.90625Q154.98438 30.703125 154.89062 32.0625Z" fill-rule="nonzero"/></svg>