<svg xmlns="http://www.w3.org/2000/svg" xmlns:xlink="http://www.w3.org/1999/xlink" version="1.1" id="Layer_1" x="0px" y="0px" viewBox="0 0 38 31" enable-background="new 0 0 38 31" xml:space="preserve">
<path fill-rule="evenodd" clip-rule="evenodd" d="M34.098,24.095L34.082,31l-5.635-6.376H16.519c-3.548,0-6.425-2.877-6.425-6.426  v-7.476c0-3.548,2.876-6.425,6.425-6.425h15.035c3.548,0,6.425,2.877,6.425,6.425v7.476C37.979,20.843,36.379,23.109,34.098,24.095z   M8.023,10.703v5.354l-4.794,5.357l-0.009-5.805C1.327,14.784,0,12.9,0,10.703V5.354C0,2.396,2.396,0,5.355,0h12.719  c1.743,0,3.277,0.846,4.254,2.135H16.59C11.858,2.135,8.023,5.97,8.023,10.703z" fill="#fff"/>
</svg>