<svg xmlns="http://www.w3.org/2000/svg" xmlns:xlink="http://www.w3.org/1999/xlink" version="1.1" id="Layer_1" x="0px" y="0px" viewBox="0 0 309.267 309.267" xml:space="preserve" height="50pt" width="60pt">
<g>
	<path style="fill:#fff;" d="M260.944,43.491H125.64c0,0-18.324-28.994-28.994-28.994H48.323c-10.67,0-19.329,8.65-19.329,19.329   v222.286c0,10.67,8.659,19.329,19.329,19.329h212.621c10.67,0,19.329-8.659,19.329-19.329V62.82   C280.273,52.15,271.614,43.491,260.944,43.491z"/>
	<path style="fill:#e97826;" d="M28.994,72.484h251.279v77.317H28.994V72.484z"/>
	<path style="fill:#fff;" d="M19.329,91.814h270.609c10.67,0,19.329,8.65,19.329,19.329l-19.329,164.298   c0,10.67-8.659,19.329-19.329,19.329H38.658c-10.67,0-19.329-8.659-19.329-19.329L0,111.143C0,100.463,8.659,91.814,19.329,91.814z   "/>
</g>
</svg>