<svg xmlns="http://www.w3.org/2000/svg" id="svg8" version="1.1" viewBox="0 0 105.822 105.833" height="400" width="399.958"><defs id="defs2"><clipPath clipPathUnits="userSpaceOnUse" id="clipPath992"><path d="M0 612h792V0H0z" id="path990"/></clipPath><style id="style1298">.cls-1{fill:#091313}.cls-2{fill:#4695eb}.cls-3{fill:#ff004a}</style></defs><g transform="translate(-77.34 -174.303)" id="layer1"><g id="g6189"><path class="cls-2" id="polygon1318" transform="matrix(.55346 0 0 .55346 76.787 173.75)" d="M126.05 68.59V34.6L96.61 51.59z"/><path class="cls-3" id="polygon1320" transform="matrix(.55346 0 0 .55346 76.787 173.75)" d="M96.61 51.59L67.17 34.6v33.99z"/><path class="cls-1" id="polygon1322" transform="matrix(.55346 0 0 .55346 76.787 173.75)" fill="#091313" fill-opacity="1" d="M126.05 68.59l-29.44-17-29.44 17 29.44 17z"/><path class="cls-2" id="polygon1324" transform="matrix(.55346 0 0 .55346 76.787 173.75)" d="M65.57 71.37L36.13 88.36l29.44 17z"/><path class="cls-3" id="polygon1326" transform="matrix(.55346 0 0 .55346 76.787 173.75)" d="M65.57 105.36v33.99l29.44-16.99z"/><path class="cls-1" id="polygon1328" transform="matrix(.55346 0 0 .55346 76.787 173.75)" fill="#091313" fill-opacity="1" d="M65.57 71.37v33.99l29.44 17v-34z"/><path class="cls-2" id="polygon1330" transform="matrix(.55346 0 0 .55346 76.787 173.75)" d="M98.21 122.36l29.44 16.99v-33.99z"/><path class="cls-3" id="polygon1332" transform="matrix(.55346 0 0 .55346 76.787 173.75)" d="M127.65 105.36l29.44-17-29.44-16.99z"/><path class="cls-1" id="polygon1334" transform="matrix(.55346 0 0 .55346 76.787 173.75)" fill="#091313" fill-opacity="1" d="M98.21 122.36l29.44-17V71.37L98.21 88.36z"/><path class="cls-2" d="M165.618 174.303H94.896A17.606 17.606 0 0077.34 191.86v70.722a17.606 17.606 0 0017.556 17.556h48.434l-13.073-31.752-9.48 20.046h-25.88a5.928 5.928 0 01-5.85-5.85v-70.722a5.928 5.928 0 015.85-5.85h70.72a5.928 5.928 0 015.851 5.85v70.722a5.928 5.928 0 01-5.85 5.85H150.27l4.821 11.706h10.516a17.606 17.606 0 0017.556-17.556v-70.722a17.606 17.606 0 00-17.545-17.556z" id="path1336" stroke-width=".553"/></g></g></svg>