<svg xmlns="http://www.w3.org/2000/svg" viewBox="0 0 24 24">
<path fill="#fff" d="M 4.29827,20.94698 C 4.39828,21.54539 4.91758,22 5.54366,22 h 12.91248 c 0.62609,0 1.14543,-0.45461 1.24574,-1.05302 H 4.29841 Z M 5.54366,11.1224 c -0.69823,0 -1.26294,0.5653 -1.26294,1.26353 v 7.68394 h 15.43856 v -7.68394 c 0,-0.69823 -0.56481,-1.26353 -1.26304,-1.26353 h -0.77037 c 0.0109,-0.14528 0.0158,-3.27321 0.0158,-3.42096 C 17.70167,4.55275 15.14892,2 12.00023,2 8.85104,1.9999 6.29829,4.55275 6.29829,7.70144 c 0,0.14775 0.005,3.27568 0.0158,3.42096 H 5.54372 Z m 8.69496,0 H 9.76118 c -0.0277,-0.14182 -0.042,-3.26975 -0.042,-3.42096 0,-1.25958 1.02139,-2.28048 2.28097,-2.28048 1.25957,0 2.28047,1.0209 2.28047,2.28048 0,0.15121 -0.0138,3.27914 -0.042,3.42096 z"/>
</svg>
