<?xml version="1.0" encoding="UTF-8" standalone="no"?>
<svg xmlns="http://www.w3.org/2000/svg" width="80pt" height="85pt" viewBox="0 0 512 512">
<path xmlns="http://www.w3.org/2000/svg" fill="#e97826" d="m95.332031 401.667969c-52.648437 0-95.332031 42.679687-95.332031 95.332031 0 8.285156 6.714844 15 15 15h160.667969c8.28125 0 15-6.714844 15-15 0-52.652344-42.683594-95.332031-95.335938-95.332031zm0 0"></path>
<path xmlns="http://www.w3.org/2000/svg" fill="#e97826" d="m95.332031 401.667969c35.4375 0 64.265625-28.832031 64.265625-64.269531 0-35.433594-28.828125-64.265626-64.265625-64.265626-35.433593 0-64.265625 28.832032-64.265625 64.265626 0 35.4375 28.832032 64.269531 64.265625 64.269531zm0 0"></path>
<path xmlns="http://www.w3.org/2000/svg" fill="#e97826" d="m350.578125 150.5c-18.398437 0-33.199219 14.886719-33.199219 33.183594v9.117187h66.402344v-9.101562c0-18.304688-14.894531-33.199219-33.203125-33.199219zm0 0"></path>
<path xmlns="http://www.w3.org/2000/svg" fill="#e97826" d="m350.578125 120.5c9.449219 0 17.136719-7.6875 17.136719-17.132812 0-9.445313-7.6875-17.132813-17.136719-17.132813-9.445313 0-17.132813 7.6875-17.132813 17.132813 0 9.445312 7.6875 17.132812 17.132813 17.132812zm0 0"></path>
<path xmlns="http://www.w3.org/2000/svg" fill="#e97826" d="m456.832031 0h-212.503906c-30.421875 0-55.167969 24.746094-55.167969 55.167969v265.097656c0 6.070313 3.65625 11.539063 9.261719 13.859375 5.183594 2.148438 11.738281 1.355469 16.34375-3.253906l43.808594-43.804688h198.261719c14.726562 0 28.578124-5.734375 39.015624-16.160156 10.414063-10.425781 16.148438-24.277344 16.148438-39.007812v-176.730469c0-30.421875-24.746094-55.167969-55.167969-55.167969zm-43.050781 207.800781c0 8.285157-6.71875 15-15 15h-96.402344c-8.28125 0-15-6.714843-15-15v-24.117187c0-7.554688 1.488282-33.285156 26.171875-51.207032-6.320312-8.023437-10.105469-18.128906-10.105469-29.109374 0-25.988282 21.144532-47.132813 47.132813-47.132813 25.992187 0 47.136719 21.144531 47.136719 47.132813 0 10.996093-3.796875 21.117187-10.136719 29.144531 15.859375 11.496093 26.203125 30.152343 26.203125 51.1875zm0 0"></path>
</svg>