<svg id="Layer_1" data-name="Layer 1" xmlns="http://www.w3.org/2000/svg" viewBox="0 0 418 399.7"><defs><style>.cls-1{fill:#fca338;}.cls-2{fill:#f26b3d;}.cls-3{fill:#fff;}.cls-4{fill:#fca468;}.cls-5{fill:#a5664a;}</style></defs><path class="cls-1" d="M531.47,272a33.22,33.22,0,0,1-23.31-9.74,28.16,28.16,0,0,1-8.22-20.11c.2-16.07,14.51-29.15,31.9-29.15h.38a33.17,33.17,0,0,1,23.31,9.73,28.13,28.13,0,0,1,8.22,20.11C563.55,259,549.24,272,531.86,272Z" transform="translate(-410 -172.31)"/><path class="cls-1" d="M531.84,213.53h.37a32.69,32.69,0,0,1,23,9.58,27.61,27.61,0,0,1,8.08,19.75c-.2,15.81-14.28,28.67-31.4,28.67h-.37a32.69,32.69,0,0,1-23-9.59,27.68,27.68,0,0,1-8.08-19.75c.2-15.8,14.28-28.66,31.4-28.66m0-1c-17.73,0-32.19,13.2-32.4,29.65s14.13,30.15,32,30.35h.38c17.73,0,32.2-13.2,32.4-29.65s-14.13-30.16-32-30.35Z" transform="translate(-410 -172.31)"/><rect class="cls-2" x="616.93" y="391.54" width="154.56" height="142.54" transform="translate(-412.14 -169.09) rotate(-0.27)"/><path class="cls-2" d="M770.61,391.69l.76,141.53-153.56.72-.76-141.54,153.56-.71m1-1L616,391.41l.78,143.53,155.56-.72-.78-143.53Z" transform="translate(-410 -172.31)"/><path class="cls-3" d="M608.65,501.79c-19.56,0-35.55-17.18-35.64-38.29s15.85-38.6,35.53-38.71h.21c19.56,0,35.55,17.18,35.64,38.29s-15.85,38.6-35.53,38.71Z" transform="translate(-410 -172.31)"/><path class="cls-3" d="M608.75,425.28c19.29,0,35.06,17,35.14,37.79s-15.63,38.1-35,38.21h-.2c-19.29,0-35.06-16.95-35.14-37.78s15.63-38.1,35-38.21h.2m0-1h-.21c-20,.11-36.12,17.67-36,39.21s16.25,38.78,36.14,38.78h.21c20-.12,36.12-17.67,36-39.21s-16.25-38.79-36.14-38.79Z" transform="translate(-410 -172.31)"/><path class="cls-3" d="M778.85,492.37c-17.51,0-31.82-13.16-31.91-29.35a28.22,28.22,0,0,1,9.22-20.89,33,33,0,0,1,22.53-8.76h.16c17.51,0,31.82,13.17,31.91,29.36a28.18,28.18,0,0,1-9.22,20.88A33,33,0,0,1,779,492.37Z" transform="translate(-410 -172.31)"/><path class="cls-3" d="M778.86,433.87c17.23,0,31.31,12.95,31.4,28.86a27.73,27.73,0,0,1-9.06,20.52A32.56,32.56,0,0,1,779,491.87h-.16c-17.23,0-31.32-12.94-31.41-28.85a27.73,27.73,0,0,1,9.06-20.52,32.52,32.52,0,0,1,22.19-8.63h.17m0-1h-.17c-17.9.09-32.34,13.58-32.25,30.15s14.59,29.85,32.41,29.85H779c17.9-.08,32.34-13.58,32.25-30.15s-14.58-29.85-32.4-29.85Z" transform="translate(-410 -172.31)"/><path class="cls-2" d="M694.33,418.08c-16,0-29.12-12.05-29.2-26.87a25.8,25.8,0,0,1,8.44-19.11,30.21,30.21,0,0,1,20.62-8h.15c16,0,29.12,12.05,29.2,26.87a25.79,25.79,0,0,1-8.43,19.11,30.24,30.24,0,0,1-20.63,8Z" transform="translate(-410 -172.31)"/><path class="cls-2" d="M694.34,364.58c15.75,0,28.63,11.83,28.7,26.37a25.34,25.34,0,0,1-8.27,18.75,29.76,29.76,0,0,1-20.29,7.88h-.15c-15.75,0-28.62-11.83-28.7-26.37a25.32,25.32,0,0,1,8.28-18.75,29.79,29.79,0,0,1,20.28-7.88h.15m0-1h-.15c-16.41.08-29.64,12.45-29.56,27.64s13.37,27.36,29.7,27.36h.16c16.4-.08,29.64-12.45,29.55-27.64s-13.36-27.36-29.7-27.36Z" transform="translate(-410 -172.31)"/><rect class="cls-4" x="458.34" y="389.59" width="143" height="144.84" transform="translate(-344.3 817.67) rotate(-89.77)"/><path class="cls-4" d="M458.21,390.76l143.84.5-.57,142-143.85-.5.58-142m-1-1-.58,144,145.84.5.58-144-145.84-.5Z" transform="translate(-410 -172.31)"/><path class="cls-3" d="M529.94,571.51a33,33,0,0,1-22.54-8.73,28.2,28.2,0,0,1-9.25-20.88c.07-16.2,14.38-29.39,31.91-29.39h.12a33,33,0,0,1,22.54,8.74A28.19,28.19,0,0,1,562,542.12c-.07,16.21-14.38,29.39-31.91,29.39Z" transform="translate(-410 -172.31)"/><path class="cls-3" d="M530.06,513h.12a32.56,32.56,0,0,1,22.2,8.6,27.74,27.74,0,0,1,9.09,20.51C561.4,558.05,547.32,571,530.06,571h-.12a32.55,32.55,0,0,1-22.2-8.59,27.74,27.74,0,0,1-9.09-20.51C498.71,526,512.8,513,530.06,513m0-1c-17.85,0-32.34,13.36-32.41,29.89S512,572,529.94,572h.12c17.85,0,32.34-13.35,32.41-29.88s-14.39-30-32.29-30.12Z" transform="translate(-410 -172.31)"/><path class="cls-3" d="M528.43,409.51c-10.28,0-19.92-3.16-27.16-8.78s-11.14-13-11.11-20.86c.07-16.19,17.26-29.36,38.34-29.36h.17c10.28,0,19.93,3.15,27.16,8.77s11.15,13,11.11,20.86c-.06,16.19-17.26,29.37-38.33,29.37Z" transform="translate(-410 -172.31)"/><path class="cls-3" d="M528.5,351h.17c10.17,0,19.71,3.11,26.85,8.67s11,12.76,10.92,20.46c-.06,15.92-17,28.87-37.83,28.87h-.18c-10.16,0-19.7-3.12-26.85-8.67s-10.95-12.77-10.92-20.46C490.73,364,507.7,351,528.5,351m0-1c-21.4,0-38.77,13.34-38.84,29.86S507,409.93,528.43,410h.18c21.4,0,38.77-13.35,38.83-29.87S550.15,350.08,528.67,350Z" transform="translate(-410 -172.31)"/><path class="cls-4" d="M602.64,491.76A33,33,0,0,1,580.1,483a28.23,28.23,0,0,1-9.25-20.88c.07-16.2,14.38-29.39,31.91-29.39h.12a33,33,0,0,1,22.54,8.74,28.19,28.19,0,0,1,9.25,20.87c-.06,16.21-14.38,29.39-31.9,29.39Z" transform="translate(-410 -172.31)"/><path class="cls-4" d="M602.76,433.26h.12a32.56,32.56,0,0,1,22.2,8.6,27.74,27.74,0,0,1,9.09,20.51c-.06,15.93-14.15,28.89-31.41,28.89h-.12a32.57,32.57,0,0,1-22.2-8.59,27.74,27.74,0,0,1-9.09-20.51c.07-15.94,14.16-28.9,31.41-28.9m0-1c-17.84,0-32.34,13.36-32.41,29.89s14.39,30.05,32.29,30.11h.12c17.85,0,32.34-13.35,32.41-29.88s-14.39-30.05-32.29-30.12Z" transform="translate(-410 -172.31)"/><path class="cls-4" d="M456.8,491.26a33,33,0,0,1-22.54-8.73A28.21,28.21,0,0,1,425,461.65c.07-16.21,14.38-29.39,31.91-29.39H457A33,33,0,0,1,479.58,441a28.21,28.21,0,0,1,9.25,20.88c-.06,16.21-14.38,29.39-31.91,29.39Z" transform="translate(-410 -172.31)"/><path class="cls-4" d="M456.92,432.76H457a32.52,32.52,0,0,1,22.2,8.6,27.73,27.73,0,0,1,9.09,20.51c-.06,15.93-14.15,28.89-31.41,28.89h-.12a32.52,32.52,0,0,1-22.2-8.6,27.73,27.73,0,0,1-9.09-20.51c.07-15.93,14.16-28.89,31.41-28.89m0-1c-17.84,0-32.34,13.36-32.41,29.89s14.39,30.05,32.29,30.11h.12c17.85,0,32.34-13.36,32.41-29.89S474.94,431.82,457,431.76Z" transform="translate(-410 -172.31)"/><polygon class="cls-1" points="42.87 203.87 44.56 69.88 199.12 71.55 197.43 205.54 42.87 203.87"/><path class="cls-1" d="M455.06,242.7l153.55,1.66-1.68,133-153.55-1.66,1.68-133m-1-1-1.7,135,155.55,1.68,1.7-135-155.55-1.68Z" transform="translate(-410 -172.31)"/><path class="cls-3" d="M617.05,340a33.19,33.19,0,0,1-23.32-9.73,28.2,28.2,0,0,1-8.22-20.11C585.72,294,600,281,617.41,281h.38a33.19,33.19,0,0,1,23.32,9.73,28.2,28.2,0,0,1,8.22,20.11c-.21,16.08-14.51,29.16-31.9,29.16Z" transform="translate(-410 -172.31)"/><path class="cls-3" d="M617.41,281.46h.38a32.68,32.68,0,0,1,23,9.58,27.69,27.69,0,0,1,8.08,19.75c-.2,15.81-14.29,28.67-31.4,28.67h-.38a32.68,32.68,0,0,1-23-9.58A27.68,27.68,0,0,1,586,310.12c.2-15.81,14.29-28.66,31.4-28.66m0-1c-17.72,0-32.19,13.2-32.4,29.65s14.13,30.15,32,30.34h.39c17.72,0,32.19-13.2,32.4-29.65s-14.13-30.16-32-30.35Z" transform="translate(-410 -172.31)"/><path class="cls-3" d="M442,339.06a33.19,33.19,0,0,1-23.32-9.73,28.2,28.2,0,0,1-8.22-20.11c.2-16.07,14.51-29.15,31.9-29.15h.38a33.19,33.19,0,0,1,23.32,9.73,28.2,28.2,0,0,1,8.22,20.11c-.21,16.08-14.51,29.16-31.9,29.16Z" transform="translate(-410 -172.31)"/><path class="cls-3" d="M442.4,280.57h.38a32.68,32.68,0,0,1,23,9.58,27.69,27.69,0,0,1,8.08,19.75c-.2,15.81-14.29,28.67-31.4,28.67H442a32.68,32.68,0,0,1-23-9.58A27.68,27.68,0,0,1,411,309.23c.2-15.81,14.29-28.66,31.4-28.66m0-1c-17.72,0-32.19,13.2-32.4,29.65s14.13,30.15,32,30.34h.39c17.72,0,32.19-13.2,32.4-29.65s-14.13-30.16-32-30.35Z" transform="translate(-410 -172.31)"/><path class="cls-1" d="M529.86,399.51a30.37,30.37,0,0,1-21.34-8.91A25.74,25.74,0,0,1,501,372.2c.18-14.72,13.28-26.69,29.2-26.69h.34a30.45,30.45,0,0,1,21.35,8.91,25.81,25.81,0,0,1,7.52,18.41c-.19,14.71-13.28,26.68-29.2,26.68Z" transform="translate(-410 -172.31)"/><path class="cls-1" d="M530.2,346h.34a29.9,29.9,0,0,1,21,8.76,25.33,25.33,0,0,1,7.38,18.05c-.18,14.44-13.06,26.19-28.7,26.19h-.34a29.9,29.9,0,0,1-21-8.76,25.24,25.24,0,0,1-7.38-18.05c.18-14.44,13-26.19,28.7-26.19m0-1c-16.25,0-29.51,12.1-29.7,27.18s13,27.64,29.36,27.82h.35c16.25,0,29.51-12.1,29.7-27.18S547,345.19,530.55,345Z" transform="translate(-410 -172.31)"/><path class="cls-2" d="M694.84,561.08c-16,0-29.13-12.05-29.21-26.86a25.81,25.81,0,0,1,8.44-19.12,30.26,30.26,0,0,1,20.62-8h.15c16,0,29.13,12.05,29.21,26.87a25.84,25.84,0,0,1-8.44,19.12,30.22,30.22,0,0,1-20.62,8Z" transform="translate(-410 -172.31)"/><path class="cls-2" d="M694.84,507.58c15.75,0,28.63,11.83,28.71,26.37a25.32,25.32,0,0,1-8.28,18.75A29.7,29.7,0,0,1,695,560.58h-.14c-15.75,0-28.63-11.83-28.71-26.36a25.28,25.28,0,0,1,8.28-18.75,29.75,29.75,0,0,1,20.29-7.89h.14m0-1h-.15c-16.41.08-29.64,12.45-29.56,27.64s13.37,27.36,29.71,27.36H695c16.41-.07,29.64-12.45,29.56-27.63s-13.37-27.37-29.71-27.37Z" transform="translate(-410 -172.31)"/><polygon class="cls-5" points="228.26 44.74 370.48 19.39 399.7 159.81 257.48 185.16 228.26 44.74"/><path class="cls-5" d="M780.09,192.28l29,139.44L667.87,356.9l-29-139.44,141.24-25.18m.78-1.16L637.66,216.65l29.43,141.4L810.3,332.52l-29.43-141.4Z" transform="translate(-410 -172.31)"/><path class="cls-3" d="M739,374.31c-15.25,0-28.41-10.06-31.3-23.93a27.6,27.6,0,0,1,4.28-21.2,32.15,32.15,0,0,1,21-13.34,34.42,34.42,0,0,1,6.07-.54c15.26,0,28.42,10.07,31.3,23.94a27.55,27.55,0,0,1-4.27,21.2,32.17,32.17,0,0,1-21,13.34,35.47,35.47,0,0,1-6.07.53Z" transform="translate(-410 -172.31)"/><path class="cls-3" d="M739.09,315.8c15,0,28,9.9,30.81,23.54a27.13,27.13,0,0,1-4.2,20.82A31.65,31.65,0,0,1,745,373.28a33.43,33.43,0,0,1-6,.53c-15,0-28-9.89-30.81-23.53a27.08,27.08,0,0,1,4.2-20.82,31.63,31.63,0,0,1,20.7-13.12,33.45,33.45,0,0,1,6-.54m0-1a35,35,0,0,0-6.17.55c-17.58,3.13-29.08,18.86-25.69,35.13,3,14.36,16.56,24.33,31.78,24.33a35,35,0,0,0,6.17-.54c17.58-3.14,29.08-18.87,25.69-35.13-3-14.36-16.56-24.34-31.78-24.34Z" transform="translate(-410 -172.31)"/><path class="cls-5" d="M795.55,291.33c-15.25,0-28.41-10.07-31.3-23.94a27.55,27.55,0,0,1,4.27-21.2,32.2,32.2,0,0,1,21-13.34,35.5,35.5,0,0,1,6.08-.53c15.25,0,28.41,10.06,31.3,23.93a27.55,27.55,0,0,1-4.27,21.2,32.2,32.2,0,0,1-21,13.34,34.62,34.62,0,0,1-6.08.54Z" transform="translate(-410 -172.31)"/><path class="cls-5" d="M795.62,232.82c15,0,28,9.89,30.81,23.53a27,27,0,0,1-4.2,20.82,31.63,31.63,0,0,1-20.69,13.12,33.53,33.53,0,0,1-6,.54c-15,0-28-9.9-30.81-23.54a27,27,0,0,1,4.2-20.82,31.63,31.63,0,0,1,20.69-13.12,33.52,33.52,0,0,1,6-.53m0-1a35,35,0,0,0-6.16.54c-17.58,3.14-29.08,18.87-25.7,35.13,3,14.36,16.56,24.34,31.79,24.34a35,35,0,0,0,6.16-.55c17.58-3.13,29.08-18.86,25.7-35.13-3-14.36-16.56-24.33-31.79-24.33Z" transform="translate(-410 -172.31)"/><path class="cls-5" d="M652.34,316.86c-15.25,0-28.41-10.07-31.3-23.93a27.58,27.58,0,0,1,4.27-21.21,32.15,32.15,0,0,1,21-13.33,34.53,34.53,0,0,1,6.08-.54c15.25,0,28.41,10.06,31.3,23.93A27.58,27.58,0,0,1,679.44,303a32.22,32.22,0,0,1-21,13.33,34.53,34.53,0,0,1-6.08.54Z" transform="translate(-410 -172.31)"/><path class="cls-5" d="M652.41,258.35c15,0,28,9.9,30.81,23.53a27.08,27.08,0,0,1-4.2,20.83,31.67,31.67,0,0,1-20.69,13.12,34.47,34.47,0,0,1-6,.53c-15,0-28-9.9-30.81-23.54a27.05,27.05,0,0,1,4.2-20.82,31.67,31.67,0,0,1,20.69-13.12,34.47,34.47,0,0,1,6-.53m0-1a35,35,0,0,0-6.16.55c-17.58,3.13-29.08,18.86-25.7,35.13,3,14.35,16.56,24.33,31.79,24.33a35,35,0,0,0,6.16-.55c17.58-3.13,29.08-18.86,25.7-35.13-3-14.35-16.56-24.33-31.79-24.33Z" transform="translate(-410 -172.31)"/><path class="cls-3" d="M709.23,231.82c-15.25,0-28.42-10.06-31.3-23.93a27.55,27.55,0,0,1,4.27-21.2,32.2,32.2,0,0,1,21-13.34,34.53,34.53,0,0,1,6.08-.54c15.25,0,28.41,10.07,31.3,23.94a27.55,27.55,0,0,1-4.28,21.2,32.1,32.1,0,0,1-21,13.33,34.42,34.42,0,0,1-6.07.54Z" transform="translate(-410 -172.31)"/><path class="cls-3" d="M709.3,173.31c15,0,28,9.9,30.81,23.54a27.05,27.05,0,0,1-4.2,20.82,31.63,31.63,0,0,1-20.69,13.12,34.55,34.55,0,0,1-6,.53c-15,0-28-9.89-30.81-23.53a27,27,0,0,1,4.2-20.82,31.68,31.68,0,0,1,20.69-13.13,34.47,34.47,0,0,1,6-.53m0-1a35.11,35.11,0,0,0-6.17.55C685.56,176,674.05,191.72,677.44,208c3,14.35,16.56,24.33,31.79,24.33a35,35,0,0,0,6.16-.54c17.58-3.14,29.08-18.87,25.7-35.14-3-14.35-16.57-24.33-31.79-24.33Z" transform="translate(-410 -172.31)"/></svg>