<svg id="Layer_1" data-name="Layer 1" xmlns="http://www.w3.org/2000/svg" viewBox="0 0 520.19 502.81"><defs><style>.cls-1{fill:#f26b3d;}.cls-1,.cls-6{stroke:#f26b3d;}.cls-1,.cls-2,.cls-3,.cls-4,.cls-5,.cls-6,.cls-7{stroke-miterlimit:10;}.cls-2{fill:#fca468;}.cls-2,.cls-4{stroke:#fca468;}.cls-3{fill:#963;stroke:#964;}.cls-4,.cls-5,.cls-6,.cls-8{fill:#fff;}.cls-5{stroke:#963;}.cls-7{fill:#fca338;stroke:#fca338;}</style></defs><path class="cls-1" d="M857.63,265a116.26,116.26,0,0,0-5.58-27.11l-33.73-5.11A102.24,102.24,0,0,0,804.63,210l7.65-28.55a129.27,129.27,0,0,0-25.36-15.85L766.23,180.4a94.8,94.8,0,0,0-33-7.61l-11.75-19.64a133.11,133.11,0,0,0-30.58,5.53l-3.71,23.52a98.48,98.48,0,0,0-26.14,18.51l-26.73-6.84A123,123,0,0,0,617,217.66l18.47,24.71a106.29,106.29,0,0,0-4.87,25.6l-28.19,16.18a116.87,116.87,0,0,0,5.72,28.07l30.86,4.67a103,103,0,0,0,14.77,24.28l-7.05,26.45A128.3,128.3,0,0,0,672.32,384L692,369.87a94.77,94.77,0,0,0,33.47,7.3l11.78,19.68a133.3,133.3,0,0,0,30.46-5.18L771.63,367a98.23,98.23,0,0,0,25-18.08l28.88,7.39a122.25,122.25,0,0,0,17-23l-20.18-27a105.28,105.28,0,0,0,4.41-23.54Z" transform="translate(-390.32 -152.63)"/><path class="cls-2" d="M491.46,331A154.67,154.67,0,0,0,459,348.1l5.92,44.82a136.87,136.87,0,0,0-24,25.79l-39.19.83a170.59,170.59,0,0,0-10.86,38.18l26.5,20.87a125.83,125.83,0,0,0,2.45,44.77l-20.68,22.19a177,177,0,0,0,18.31,36.9l31.32-3.94A130.47,130.47,0,0,0,481.94,605l1.14,36.55a162.51,162.51,0,0,0,36.69,13.35l24.65-32.62A139.89,139.89,0,0,0,578.81,619l31,29.93a153.6,153.6,0,0,0,33.63-17.62l-5.42-41a136.69,136.69,0,0,0,25.47-27.74l36.27-.77a170,170,0,0,0,11.37-38.7l-25.19-19.83a125.44,125.44,0,0,0-3-45.3l20.71-22.29a175.71,175.71,0,0,0-17.82-36.88L653,403a130.52,130.52,0,0,0-32.2-25.13l-1.24-39.49A162.11,162.11,0,0,0,584,325.12l-27,35.6a139.72,139.72,0,0,0-31.59,3.06Z" transform="translate(-390.32 -152.63)"/><path class="cls-3" d="M910,474a87,87,0,0,0-3.7-21l-26.75-4.89a78.78,78.78,0,0,0-10.25-18l6.86-21.78a103.46,103.46,0,0,0-19.79-12.92l-16.9,10.83a77.63,77.63,0,0,0-26.06-6.8L804.58,384a108.62,108.62,0,0,0-24.53,3.39l-3.61,18a78.11,78.11,0,0,0-21.35,13.5l-21.12-6a94.46,94.46,0,0,0-14.5,17.82l14,19.54a78.75,78.75,0,0,0-4.59,19.57L706,481.43a87,87,0,0,0,3.79,21.76l24.47,4.48a79.74,79.74,0,0,0,11.1,19.11L739,546.93a103.47,103.47,0,0,0,20,13.32L775.08,550a77.75,77.75,0,0,0,26.48,6.57L810.4,572a110.56,110.56,0,0,0,24.43-3.12L838.61,550a79.13,79.13,0,0,0,20.4-13.2l22.83,6.51a95.35,95.35,0,0,0,14.23-17.25l-15.34-21.37a78.43,78.43,0,0,0,4.16-18Z" transform="translate(-390.32 -152.63)"/><circle class="cls-4" cx="160.68" cy="337.37" r="85.5"/><circle class="cls-5" cx="417.68" cy="325.37" r="39"/><ellipse class="cls-6" cx="339.68" cy="122.37" rx="54.57" ry="53.45"/><path class="cls-7" d="M609.11,268.07a70,70,0,0,0,.66-16.8l-19.29-8.14a62.74,62.74,0,0,0-4.76-15.51L594.44,212a80.38,80.38,0,0,0-12.76-13.18l-14.46,5.54a58.81,58.81,0,0,0-18.47-9.5l-4.1-13.35a82.74,82.74,0,0,0-19-1.41L520,193.34a59.63,59.63,0,0,0-18.24,6.89l-14.88-8.09a73.7,73.7,0,0,0-13.8,11.35l7.34,17.34a63.6,63.6,0,0,0-6.64,14.32l-19.09,5.21a69.36,69.36,0,0,0-.72,17.39l17.65,7.45a63.12,63.12,0,0,0,5.21,16.53l-8.06,14.48a80,80,0,0,0,12.85,13.55l13.74-5.3a58.86,58.86,0,0,0,18.82,9.4l4.11,13.37a82.4,82.4,0,0,0,18.86,1.6l5.93-13.91a59.59,59.59,0,0,0,17.45-6.82l16.08,8.75a73.69,73.69,0,0,0,13.51-11l-8-18.95a63.13,63.13,0,0,0,6.07-13.17Z" transform="translate(-390.32 -152.63)"/><circle class="cls-8" cx="141.18" cy="101.87" r="35.5"/></svg>